<svg id="Capa_1" data-name="Capa 1" xmlns="http://www.w3.org/2000/svg" viewBox="0 0 792 612"><defs><style>.cls-1{fill:none;stroke-width:10px;}.cls-1,.cls-2{stroke:#a8641d;stroke-miterlimit:10;}.cls-2{fill:#fff;}.cls-3{fill:#f59e3b;}</style></defs><path class="cls-1" d="M531.6,193.34l-.45,31.84c-1.34-.4-400.59-.62-400.59-.62a15.11,15.11,0,0,0-15.06,15.06V368.44a15.1,15.1,0,0,0,15.06,15.05s398.73-.16,399.85-.42l.28,34c.19,17.71,21.62,26.42,34.1,13.86,31.31-31.52,77-77.71,103.27-105.17a30.43,30.43,0,0,0-.61-42.68l-104-102.72C551.74,168.75,531.86,176.87,531.6,193.34Z"/><path class="cls-2" d="M531.63,194.12,531.18,226c-1.34-.39-400.59-.61-400.59-.61a15.09,15.09,0,0,0-15,15.05V369.22a15.09,15.09,0,0,0,15,15s398.74-.15,399.85-.42l.29,34c.18,17.71,21.62,26.43,34.1,13.86,31.31-31.52,77-77.7,103.27-105.17a30.42,30.42,0,0,0-.61-42.67l-104-102.73C551.77,169.54,531.9,177.66,531.63,194.12Z"/><path class="cls-3" d="M654.9,295.36l-97.17-98.21a5.33,5.33,0,0,0-9.12,3.71l-.25,42.9c-1.34-.4-400.59-.62-400.59-.62a15.1,15.1,0,0,0-15.05,15.05v95.34a15.09,15.09,0,0,0,15.05,15.05s398.73-.16,399.85-.42l-.25,42.51a5.45,5.45,0,0,0,9.3,3.89l98.15-97.8A15.16,15.16,0,0,0,654.9,295.36Z"/></svg>