<?xml version="1.0" encoding="utf-8"?>
<!-- Generator: Adobe Illustrator 24.1.0, SVG Export Plug-In . SVG Version: 6.00 Build 0)  -->
<svg version="1.1" id="Capa_1" xmlns="http://www.w3.org/2000/svg" xmlns:xlink="http://www.w3.org/1999/xlink" x="0px" y="0px"
	 viewBox="0 0 800 758.3" style="enable-background:new 0 0 800 758.3;" xml:space="preserve">
<style type="text/css">
	.st0{fill:#A8641D;stroke:#A8641D;stroke-width:10;stroke-miterlimit:10;}
	.st1{fill:#FFFFFF;}
	.st2{fill:#F59E3B;}
</style>
<path class="st0" d="M558.7,424.6H258.1c-6.6,0-12-5.4-12-12V277.8c0-6.6,5.4-12,12-12h300.6c6.6,0,12,5.4,12,12v134.7
	C570.7,419.2,565.3,424.6,558.7,424.6z"/>
<path class="st1" d="M558.7,424.5H258.1c-6.6,0-12-5.4-12-12V277.7c0-6.6,5.4-12,12-12h300.6c6.6,0,12,5.4,12,12v134.7
	C570.7,419.1,565.3,424.5,558.7,424.5z"/>
<path class="st2" d="M544.9,413h-274c-6.6,0-12-5.4-12-12V290c0-6.6,5.4-12,12-12h274c6.6,0,12,5.4,12,12v111
	C556.9,407.6,551.5,413,544.9,413z"/>
<g>
	<path class="st1" d="M332.9,354.3v-17.7v-15.7h8.2h7.6c2.2,0,4.2,0.4,6.1,1.2c1.8,0.8,3.5,1.9,5.1,3.5c1.5,1.5,2.7,3.2,3.5,5.1
		c0.8,1.9,1.1,3.9,1.1,6.1c0,2.2-0.4,4.2-1.1,6.1c-0.8,1.8-1.9,3.5-3.5,5.1c-1.6,1.5-3.3,2.7-5.1,3.5c-1.9,0.8-3.9,1.1-6.1,1.1h-7.6
		h-1.9v1.9v13.2h-6.2V354.3z M339.2,346.2h1.9l7.6,0c1.3,0,2.6-0.2,3.7-0.7c1.1-0.4,2.1-1.1,3.1-2.1c0.9-0.9,1.6-2,2.1-3.1
		c0.5-1.1,0.7-2.3,0.7-3.7c0-1.3-0.2-2.6-0.7-3.6c-0.4-1-1.1-2.1-2.1-3.1c-0.9-0.9-1.9-1.7-3.1-2.1c-1.1-0.5-2.4-0.7-3.7-0.7h-7.6
		h-1.9v1.9v7.6v7.6V346.2z"/>
	<path class="st1" d="M375.1,320.9v38.5v2h1.9h18.4v6.1h-26.5v-46.6H375.1z"/>
	<path class="st1" d="M438,367.5h-6.7l-3.5-7.7H418h-9.9l-3.5,7.7h-6.7l20-47.1L438,367.5z M418,354.8h7.6c-1.3-2.9-2.5-6.1-3.8-9.4
		c-1.3-3.4-2.5-6.5-3.8-9.5c-1.3,2.9-2.6,6.1-3.8,9.5c-1.3,3.4-2.6,6.5-3.8,9.4H418z"/>
	<path class="st1" d="M437.1,320.9l8.7,16.5l1.7,3.3l1.7-3.3l8.7-16.5h7.1l-14.1,26l-0.2,0.9v19.7h-6.2v-19.7l-0.3-0.9l-14.1-26
		H437.1z"/>
	<path class="st1" d="M470.6,361.5c0.9-0.9,1.9-1.3,3.2-1.3c1.3,0,2.3,0.4,3.2,1.3c0.9,0.9,1.3,1.9,1.3,3.2c0,1.2-0.4,2.2-1.3,3.1
		s-1.9,1.3-3.2,1.3c-1.3,0-2.3-0.4-3.2-1.3c-0.9-0.9-1.3-1.9-1.3-3.2C469.3,363.4,469.8,362.4,470.6,361.5z M477.6,320.9l-1.4,32
		h-4.7c-0.1-3.7-0.3-7.4-0.4-10.9c-0.2-3.5-0.3-7-0.5-10.6c-0.1-1.8-0.2-3.5-0.3-5.3c-0.1-1.8-0.2-3.5-0.2-5.3H477.6z"/>
</g>
</svg>
