<svg xmlns="http://www.w3.org/2000/svg" viewBox="0 0 73.42 140.03"><defs><style>.cls-1{isolation:isolate;}.cls-2{fill:#fcd6b6;}.cls-3{fill:#b8533a;}.cls-10,.cls-13,.cls-19,.cls-36,.cls-37,.cls-4{opacity:0.5;}.cls-10,.cls-12,.cls-13,.cls-18,.cls-21,.cls-24,.cls-29,.cls-33,.cls-36,.cls-39,.cls-4,.cls-40,.cls-46,.cls-47,.cls-5,.cls-50,.cls-51,.cls-6{mix-blend-mode:multiply;}.cls-13,.cls-5{fill:#ecc1a9;}.cls-20,.cls-21,.cls-39,.cls-40,.cls-5{opacity:0.7;}.cls-24,.cls-7{fill:#f9d4bf;}.cls-8{fill:#fad1d0;}.cls-8,.cls-9{opacity:0.4;}.cls-28,.cls-37,.cls-53,.cls-8,.cls-9{mix-blend-mode:screen;}.cls-11,.cls-9{fill:#fcd9c2;}.cls-10,.cls-19,.cls-20,.cls-42{fill:#fff;}.cls-12,.cls-23{fill:#faccb3;}.cls-14{fill:#f0ebea;stroke:#343434;stroke-linecap:round;stroke-linejoin:round;stroke-width:0.25px;}.cls-15{fill:#343434;}.cls-16{fill:#20264e;}.cls-17{fill:#625b5b;}.cls-18,.cls-21{fill:#b8b7b7;}.cls-19,.cls-20{mix-blend-mode:overlay;}.cls-22{fill:#b98e75;}.cls-25{fill:none;}.cls-26,.cls-28{fill:#c51618;}.cls-27{fill:#441011;}.cls-29{opacity:0.6;}.cls-30{fill:#f9b017;}.cls-31,.cls-33,.cls-37,.cls-53{fill:#dbceae;}.cls-32,.cls-51{fill:#c1a178;}.cls-34{fill:#e55397;}.cls-35{fill:#bd2f76;}.cls-36{fill:#513b44;}.cls-38{fill:#c5684a;}.cls-39,.cls-41{fill:#e8b99c;}.cls-43{fill:#cd7e5b;}.cls-44{fill:#9bafbe;}.cls-45,.cls-47{fill:#7390ab;}.cls-46{fill:#52637b;}.cls-48{fill:#ee7275;}.cls-49{fill:#af4557;}.cls-50{fill:#f1d6c2;}.cls-52{fill:#d6d7d7;}.cls-53{opacity:0.8;}</style></defs><g class="cls-1"><g id="Capa_1" data-name="Capa 1"><path class="cls-2" d="M56.8,87.69a13.21,13.21,0,0,0-2-3.74,7.29,7.29,0,0,0-3.18-2.27,49.27,49.27,0,0,1-2.42-5.32c-.76-2-2.69-7.68-2.69-7.68l-.44-1.41A4.39,4.39,0,0,0,43.73,69s.05.72.13,3.63A44.53,44.53,0,0,0,49.12,83.3a1.79,1.79,0,0,0-.54,2.22,6.45,6.45,0,0,1,.65,3c-.13.89-.13,1.3.54,1.11,1.17-.33.74-1.87.68-2.52s.22-1,.76-.52a9.2,9.2,0,0,1,1.58,1.63c1.17,2.11,2,2.68,2.41,2.41s-.08-.76-.08-.76c.3-.08.1-.89.1-.89.63-.3.49-1.33.49-1.33C56.17,88.75,56.88,88.07,56.8,87.69Z"/><path class="cls-3" d="M56.92,87.67a10.48,10.48,0,0,0-1.47-3,7,7,0,0,0-3-2.74c-.2-.09-.58-.16-.71-.35a7.29,7.29,0,0,1-.52-1c-.59-1.22-1.13-2.45-1.64-3.7-1.29-3.14-2.34-6.41-3.35-9.65,0,0-.12,0-.16,0a4.56,4.56,0,0,0-2.12,1.3c-.42.46-.29.76-.27,1.36s.05,1.21.06,1.82A5.06,5.06,0,0,0,43.86,73c.15.47.31.93.48,1.39a39.05,39.05,0,0,0,2,4.42c.59,1.14,1.24,2.26,1.91,3.35l.57.88c.22.34.17.22-.11.53a1.82,1.82,0,0,0-.37,1.56,8.14,8.14,0,0,0,.43,1.26,7.66,7.66,0,0,1,.35,1.43c.09.72-.53,2.18.69,1.89,1.43-.33.61-2.08.79-3,.09-.51,1.17.58,1.32.72a5,5,0,0,1,.87,1.08,6.82,6.82,0,0,0,1.54,2c.52.42,1.53.24,1-.57,0,0,.09-.24.11-.36s-.12-.48.05-.63a1.48,1.48,0,0,0,.39-1.29l-.25,0c.16.31.41.69.82.58a.61.61,0,0,0,.51-.62c0-.07-.25,0-.24,0a.5.5,0,0,1-.07.29c-.26.5-.67-.12-.77-.33s-.26,0-.25,0A1.26,1.26,0,0,1,55.13,89a0,0,0,0,0,0,0c0,.22.17.71-.07.85,0,0-.05,0,0,0,.17.19.38.92-.17.69a2.08,2.08,0,0,1-.6-.47A17.34,17.34,0,0,1,52.74,88c-.26-.37-2-2.43-2.38-1.3a4.56,4.56,0,0,0,.09,1.6,1.7,1.7,0,0,1-.19.94c-.14.27-.84.67-1,.18a1.81,1.81,0,0,1,0-.52,6.26,6.26,0,0,0-.44-3c-.35-1-.53-1.9.37-2.62,0,0,0,0,0,0a42.66,42.66,0,0,1-4.43-8.33c-.21-.52-.4-1-.58-1.58A6.25,6.25,0,0,1,44,71.48c0-.72-.05-1.42-.08-2.13,0-.51.08-.63.5-1a4.26,4.26,0,0,1,1.75-1l-.16,0c1,3.25,2.07,6.51,3.35,9.66.49,1.2,1,2.4,1.58,3.57.25.53.41,1.13,1,1.37a6.6,6.6,0,0,1,3,2.3,10.76,10.76,0,0,1,1.85,3.53C56.69,87.78,56.93,87.74,56.92,87.67Z"/><path class="cls-3" d="M52.53,85.93a1.64,1.64,0,0,1,.15.15l.4.41c.16.17.34.38.53.6s.2.22.3.36a2,2,0,0,1,.12.21,2.12,2.12,0,0,1,.11.21c.13.29.24.59.35.86a5.5,5.5,0,0,0,.32.72,2.18,2.18,0,0,0,.15.27c0,.09.11.15.14.2l.15.17,0,0L55.07,90l-.18-.18a2,2,0,0,1-.2-.26,3.9,3.9,0,0,1-.4-.71c-.13-.27-.24-.56-.37-.84l-.1-.2a1.3,1.3,0,0,0-.11-.19l-.27-.36c-.17-.23-.34-.45-.47-.64s-.24-.36-.32-.47Z"/><path class="cls-3" d="M53.58,85.15l.12.14.32.39c.12.16.27.35.41.56l.23.33.06.08,0,.06,0,0,.09.18c0,.14.1.28.13.42s0,.26.08.39.07.49.09.7,0,.37,0,.49l0,.19a4.11,4.11,0,0,1-.22-.66l-.17-.68c0-.12-.06-.25-.09-.37s-.08-.24-.12-.37l-.09-.18,0,0s0,0,0,0l-.06-.09c-.07-.11-.14-.22-.2-.33s-.26-.43-.36-.6l-.24-.44Z"/><path class="cls-3" d="M54.56,84.68a4.65,4.65,0,0,1,.32.46,5.26,5.26,0,0,1,.3.49,5.49,5.49,0,0,1,.31.59c0,.1.09.21.14.31s0,.22.09.32l0,.15c0,.06,0,.11,0,.16s0,.19,0,.28a3.49,3.49,0,0,1,0,.41,1.45,1.45,0,0,0,0,.16s0-.06,0-.16,0-.23-.06-.4l-.06-.25,0-.14s0-.1-.05-.14-.07-.22-.1-.3-.1-.2-.14-.3-.19-.4-.28-.59l-.23-.53C54.63,84.89,54.56,84.68,54.56,84.68Z"/><g class="cls-4"><path class="cls-5" d="M49.69,89.09c-.08-.57.38-.91-.19-2.38s-.69-2.39-.11-2.91,1,.62-1.89-5.24-3-9.18-1.89-9.43c.77-.17,1.27.73,1.52,1.35-.36-1-.61-1.8-.61-1.8l-.44-1.41A4.39,4.39,0,0,0,43.73,69s.05.72.13,3.63A44.53,44.53,0,0,0,49.12,83.3a1.79,1.79,0,0,0-.54,2.22,6.45,6.45,0,0,1,.65,3c-.13.89-.13,1.3.54,1.11a1,1,0,0,0,.28-.12A.6.6,0,0,1,49.69,89.09Z"/></g><g class="cls-6"><path class="cls-7" d="M53.76,86.79c-.6-.77-1.6-1.45-1.31-1a11.92,11.92,0,0,1,1.73,2.48,6,6,0,0,0,.94,1.65c.16,0,.18-.31.16-.54C54.82,89.66,54.36,87.57,53.76,86.79Z"/></g><g class="cls-6"><path class="cls-7" d="M55.34,87.86a3.5,3.5,0,0,0-.6-1.64c-.82-1-1.41-1.34-1.26-1.16a8,8,0,0,1,1.4,2.29c.19.83.34,1.67.34,1.67a.84.84,0,0,0,.42-.51C55.49,88.49,55.39,88.28,55.34,87.86Z"/></g><g class="cls-6"><path class="cls-7" d="M55.63,86.29a3.25,3.25,0,0,0-1.16-1.72c1.41,2.26,1.23,3.14,1.23,3.14l0,0a.15.15,0,0,0,0-.06c.46,1,1.15.39,1.09,0C56.18,88.18,56.12,87.54,55.63,86.29Z"/></g><g class="cls-6"><path class="cls-7" d="M53.89,89.26a8.08,8.08,0,0,0-2.33-2.92c-1.22-.88-1.11.5-1.11.5,0-.44.31-.61.76-.21a9.2,9.2,0,0,1,1.58,1.63c1.17,2.11,2,2.68,2.41,2.41a.35.35,0,0,0,.12-.43C55,90.78,54.5,90.29,53.89,89.26Z"/></g><path class="cls-8" d="M48,78.49c-1.92-4.28-2.54-7.47-1.86-8s1.36,2.52,2.3,5.14c1.54,4.26,2.93,5.64,2.28,6.18S49.08,80.83,48,78.49Z"/><path class="cls-9" d="M50.66,83a2.26,2.26,0,0,1,2.86-.12c.9.63.93,1.72-.69,2.38S49.2,84.67,50.66,83Z"/><path class="cls-2" d="M49.14,114.62c1.33.3,2.79.81,4,1.11s3.43.6,4.47-.08.2-1.25.2-1.25c-2.38-1.44-4.57-2.82-5.55-4s-2.65-5.32-3.9-9.28-2.42-7.92-2.42-7.92a11,11,0,0,1-6.61,2.47,51.13,51.13,0,0,0,2.82,5.91c1.76,3.18,4.74,7.9,5.43,9.61a1.55,1.55,0,0,1-.08,1.08S46.89,114.11,49.14,114.62Z"/><path class="cls-3" d="M49.08,114.66c1.57.37,3.09,1,4.68,1.26a6.83,6.83,0,0,0,3.42,0c.62-.22,1.52-1,.72-1.53s-1.58-1-2.35-1.46-1.42-1-2.09-1.49a7.61,7.61,0,0,1-2.1-2.77,45.55,45.55,0,0,1-1.89-4.56c-1.21-3.31-2.18-6.72-3.18-10.09l-.24-.82c0-.07-.19,0-.23,0-1.78,1.29-4.19,2.57-6.48,2.44,0,0-.18,0-.15.07a83.54,83.54,0,0,0,6.08,11.49c.51.88,1,1.75,1.5,2.65.19.34.37.69.53,1a1.73,1.73,0,0,1,.06,1.41c-.38,1.24.6,2.11,1.72,2.39.07,0,.27,0,.12-.08a1.93,1.93,0,0,1-1.66-1.67c0-.54.24-1,.2-1.56a5.81,5.81,0,0,0-.87-1.81c-.49-.91-1-1.81-1.55-2.71a81.7,81.7,0,0,1-5.9-11.18l-.15.06c2.4.14,4.89-1.14,6.76-2.49l-.23,0q1.1,3.73,2.27,7.45a45.35,45.35,0,0,0,3.59,9.06A7.93,7.93,0,0,0,54,112c.68.5,1.4,1,2.11,1.41l1.19.73a1.93,1.93,0,0,1,.6.45c.57.77-.91,1.25-1.41,1.33a8.05,8.05,0,0,1-2.59-.12c-1.59-.28-3.11-.9-4.68-1.26C49.13,114.56,48.92,114.63,49.08,114.66Z"/><path class="cls-3" d="M44.54,96.25l.23-.12c.07,0,.14-.08.22-.11l.25-.14.24-.14c.07-.06.15-.09.2-.14l.22-.15a1.23,1.23,0,0,1-.12.25.3.3,0,0,1-.07.1l-.1.11a1.27,1.27,0,0,1-.12.1,1,1,0,0,0-.13.09,2.52,2.52,0,0,1-.29.12l-.27,0A.87.87,0,0,1,44.54,96.25Z"/><g class="cls-6"><path class="cls-10" d="M57.79,114.4c-2.38-1.44-4.57-2.82-5.55-4s-2.65-5.32-3.9-9.28-2.42-7.92-2.42-7.92a11,11,0,0,1-6.61,2.47,51.13,51.13,0,0,0,2.82,5.91c1.76,3.18,4.74,7.9,5.43,9.61a1.55,1.55,0,0,1-.08,1.08s-.59,1.85,1.66,2.36c1.33.3,2.79.81,4,1.11s3.43.6,4.47-.08S57.79,114.4,57.79,114.4Zm-1,1c-1.22.75-4.81-.33-6.75-1.24s-1.06-2.53-1.57-3.39-4.77-8-6.4-11.65,3.69-5.13,4.34-3.29c1.19,3.37,3.69,12.12,4.95,14a12.58,12.58,0,0,0,4.34,3.54C57.26,114.35,58,114.67,56.8,115.42Z"/></g><path class="cls-9" d="M45.4,103c-1.9-4.45-1.39-6-.37-6.25s1.84.17,3.22,5.26c1,3.6,2.86,7.43,2.57,8S48.11,109.4,45.4,103Z"/><path class="cls-11" d="M52.76,111.73c1.15.91,3.44,1.8,3.85,2.54s-2.71,1-5-.6S51.18,110.5,52.76,111.73Z"/><path class="cls-12" d="M44.27,96.25a2.07,2.07,0,0,0,1.7-.94S46,96.86,44.27,96.25Z"/><path class="cls-2" d="M29.58,116.82c2.08.53,4.94-.48,5.44-2.28,0,0-.08-3.42-.27-4.69s-.54-6.13-.73-8.95-.49-5.43-.49-5.43A20.54,20.54,0,0,1,26.76,94a90.36,90.36,0,0,0,2.92,14.86c.7,2.49.88,3.25.34,4s-1.9,2.42-1.9,2.42S27.51,116.29,29.58,116.82Z"/><path class="cls-3" d="M29.57,116.86c1.89.45,4.61-.11,5.48-2a1.28,1.28,0,0,0,.08-.67c0-.49,0-1-.05-1.45,0-1-.1-2-.23-3-.65-4.71-.66-9.51-1.2-14.24,0,0-.11-.06-.14-.06a29.39,29.39,0,0,1-5.1-.87A8,8,0,0,1,26.83,94s-.2-.06-.19,0a81.25,81.25,0,0,0,2.42,13,26.32,26.32,0,0,1,1.15,4.69c.07,1-.77,1.69-1.32,2.39-.3.39-.88.86-1,1.38-.13.83,1,1.21,1.62,1.36.1,0,.25,0,.09-.07-.59-.16-1.84-.64-1.39-1.48a6.44,6.44,0,0,1,.61-.77l1.08-1.38a2.09,2.09,0,0,0,.47-1.83,48.07,48.07,0,0,0-1.22-4.72,79.66,79.66,0,0,1-2.31-12.55h-.18A15.29,15.29,0,0,0,31,95.21c.77.13,1.54.22,2.32.29.15,0,.1,0,.12.24l.09.8c.16,1.64.3,3.28.41,4.92.18,2.63.34,5.26.63,7.88.11,1,.2,2,.25,3q0,.78.06,1.56a1.87,1.87,0,0,1-.07.85c-.71,1.87-3.51,2.41-5.22,2C29.45,116.73,29.43,116.83,29.57,116.86Z"/><path class="cls-3" d="M29.14,96.83l.36,0h.37c.14,0,.28,0,.42,0h.79a2,2,0,0,1,.37,0,3.17,3.17,0,0,1-.34.15,1,1,0,0,1-.18.06l-.2,0a1.33,1.33,0,0,1-.21,0h-.23a2.12,2.12,0,0,1-.44,0l-.2,0L29.48,97A1.24,1.24,0,0,1,29.14,96.83Z"/><g class="cls-6"><path class="cls-13" d="M34.75,109.85c-.19-1.28-.54-6.13-.73-8.95s-.49-5.43-.49-5.43A20.54,20.54,0,0,1,26.76,94a90.36,90.36,0,0,0,2.92,14.86c.7,2.49.88,3.25.34,4s-1.9,2.42-1.9,2.42-.61,1,1.46,1.55,4.94-.48,5.44-2.28C35,114.54,34.94,111.12,34.75,109.85Zm-.52,2.57c-.13,2.34-1.31,4.74-4.14,4.07s-.29-2.2.2-3.44.7-1.12.05-3.91-2.34-7.84-2.75-11c-.51-4,.11-2.77,2.87-2.55s2.55.92,2.93,4.94S34.37,110.09,34.23,112.42Z"/></g><path class="cls-12" d="M28.9,96.74a4.09,4.09,0,0,0,2.82,0S30.06,98.31,28.9,96.74Z"/><path class="cls-8" d="M29,103c-1.17-3.94-.51-4.81,1-4.85s2.62,1.34,2.92,6.73.41,6.58-.68,6.87S30.25,107.38,29,103Z"/><path class="cls-11" d="M30,114c-.94,1-.9,2,.65,2,1,0,2.74-.52,2.66-2S31.09,112.77,30,114Z"/><path class="cls-14" d="M45.11,88.07l-.19-.62a11.37,11.37,0,0,0-1.25-3c.11-.54.44-1,.19-1.36a9.15,9.15,0,0,0-.92-1.06c.17-.72.31-1.49.42-2.28s.21-1.66.28-2.45.13-1.79.16-2.52c.06-1.34.06-2.24.06-2.24s0-.22,0-.33c0-1.36-.07-2.2-.09-2.69s0-.61,0-.61a4.39,4.39,0,0,1,2.35-1.68l.44,1.41s1-.92,1-1.68-1-.82-1-.82l-.14-.44c-.13-.36-.33-.9-.62-1.56q-.13-.3-.3-.63a11.09,11.09,0,0,0-.89-1.61,4,4,0,0,0-2.42-1.59l-2.1-.55-.91-.24A.64.64,0,0,0,38.8,59a16.33,16.33,0,0,1-1.87.46v1A1.55,1.55,0,0,1,35.05,62a1.92,1.92,0,0,1-1.66-2.48l.08-.72c-.37-.17-.63-.31-.63-.31-.63,0-.63.4-.72.43a10.33,10.33,0,0,1-2.8-.29c-1.58-.32-2.88.89-3.64,1.78s-1.64,2-2,1.89-.85-.14-.76.51a1.66,1.66,0,0,0,.55,1l.52-.5a3.43,3.43,0,0,1,1.59,2.46s-.31,1-.49,1.8A49.41,49.41,0,0,0,24,75.2c-.11,1.63-.12,2.67-.12,2.67a23.33,23.33,0,0,1-.93,2.82c-.39,1-.84,2.1-1.3,3.15s-1,2.27-1.4,3.14-.77,1.64-.85,1.8c-.29.61-.52,1.25-.19,1.32A7.91,7.91,0,0,1,22.91,92,10.4,10.4,0,0,0,26.76,94a20.54,20.54,0,0,0,6.77,1.44,33.45,33.45,0,0,0,5.78.19,11,11,0,0,0,6.61-2.47s.84-.59.82-1a17,17,0,0,0-.84-1.89A20.58,20.58,0,0,1,45.11,88.07Z"/><path class="cls-15" d="M23.9,76.9s0,.14,0,.37a3.43,3.43,0,0,0,0,.41c0,.16,0,.34,0,.54s.05.41.08.63.08.46.11.71.09.49.14.75.11.51.17.76.1.52.17.77.14.5.2.74.13.47.18.69.13.42.19.61c.13.38.21.69.28.92l.1.35-.14-.34-.37-.89-.23-.6-.21-.68c-.07-.24-.15-.49-.22-.74s-.13-.51-.19-.77-.11-.52-.16-.78-.08-.51-.12-.76-.07-.49-.08-.72,0-.44,0-.64,0-.38,0-.55,0-.3,0-.41S23.9,76.9,23.9,76.9Z"/><path class="cls-16" d="M28,61.32l-.15.25-.17.29-.22.37c-.17.27-.33.61-.52,1-.09.17-.18.36-.28.54s-.19.37-.27.57-.18.38-.26.57l-.13.28c0,.09-.07.19-.11.28l-.21.53a3.47,3.47,0,0,0-.17.48c-.09.3-.18.55-.23.73l-.1.27s0-.1.05-.28.08-.45.15-.76a3.36,3.36,0,0,1,.13-.5c.06-.17.12-.36.18-.55s.07-.19.1-.29l.12-.29c.08-.19.17-.38.26-.58s.19-.38.28-.57.2-.36.3-.54.21-.33.31-.48.19-.3.29-.43.34-.47.46-.62Z"/><path class="cls-17" d="M43.21,80.75s0,.27-.06.68a11.7,11.7,0,0,1-.29,1.49l-.12.39a3.37,3.37,0,0,1-.13.38c-.09.24-.17.47-.26.66a4.8,4.8,0,0,1-.22.45l-.08.17s0-.07,0-.19.07-.28.13-.48.12-.43.19-.67.14-.51.21-.78.14-.52.21-.77.13-.48.19-.68l.13-.47Z"/><path class="cls-15" d="M43.21,64.38s0,.09.07.26.1.4.16.69.05.3.09.47a4.34,4.34,0,0,1,.08.52c0,.37.09.76.14,1.15,0,.2,0,.39,0,.59a5.33,5.33,0,0,1,0,.56c0,.37,0,.72,0,1s0,.54,0,.71,0,.27,0,.27,0-.1,0-.26,0-.42-.07-.71-.06-.64-.08-1c0-.19,0-.37,0-.56l-.06-.58c0-.39-.08-.78-.11-1.15,0-.18,0-.36,0-.52s0-.33-.05-.48,0-.53-.07-.7S43.21,64.38,43.21,64.38Z"/><path class="cls-16" d="M26.23,62.51s0,.22-.06.53c0,.15-.05.33-.08.53s-.06.4-.1.6-.08.41-.12.6-.07.37-.11.53-.15.5-.15.5a5.14,5.14,0,0,1,0-.52c0-.16,0-.35,0-.54s.05-.41.09-.61.08-.42.13-.61S26,63.15,26,63A3.46,3.46,0,0,1,26.23,62.51Z"/><path class="cls-15" d="M24,79.18l.15,1.52c0,.46.1,1,.15,1.56q0,.42.09.87c0,.3.06.61.1.91s.07.6.1.9.06.6.11.88.07.56.1.82.06.5.1.73c.07.45.12.83.16,1.1s.05.41.05.41,0-.15-.1-.41-.15-.63-.25-1.08c-.05-.22-.09-.47-.14-.73s-.09-.53-.14-.81c-.1-.57-.15-1.18-.23-1.79,0-.3-.06-.61-.09-.9s-.05-.6-.07-.89c0-.57-.06-1.1-.08-1.56s0-.85,0-1.11Z"/><path class="cls-15" d="M43.87,83.84a.67.67,0,0,1,0,.1,1.73,1.73,0,0,1,0,.24,3.09,3.09,0,0,1-.1.34l-.06.18a1.06,1.06,0,0,0-.06.19c0,.06,0,.12,0,.18l0,.18a1.09,1.09,0,0,0,0,.18s0,.1,0,.15a3.34,3.34,0,0,1,0,.35,2.52,2.52,0,0,1-.14-.33s0-.1,0-.17,0-.12,0-.19a1.48,1.48,0,0,0,0-.21c0-.07,0-.14,0-.21a1.59,1.59,0,0,1,.07-.2,1,1,0,0,1,.08-.18c.06-.12.12-.22.17-.31S43.87,83.84,43.87,83.84Z"/><path class="cls-16" d="M37.68,60.05a2,2,0,0,1,0,.29,3.19,3.19,0,0,1-.09.31,1.92,1.92,0,0,1-.17.4,2.39,2.39,0,0,1-.13.21l-.17.21a1.29,1.29,0,0,1-.21.19,1.1,1.1,0,0,1-.25.17,1.15,1.15,0,0,1-.27.14l-.15.05-.15,0a1.8,1.8,0,0,1-.32.06,1.67,1.67,0,0,1-.32,0h-.31a3.11,3.11,0,0,1-.32,0,2.87,2.87,0,0,1-.59-.17l-.27-.13-.23-.15a2.64,2.64,0,0,1-.39-.34,2.38,2.38,0,0,1-.44-.61,2.69,2.69,0,0,1-.11-.26,2.69,2.69,0,0,0,.15.23,2,2,0,0,0,.2.25,2.64,2.64,0,0,0,.29.29,4,4,0,0,0,.39.29,4.48,4.48,0,0,0,.49.23,4.42,4.42,0,0,0,.55.14l.29,0h.3l.3,0a1.26,1.26,0,0,0,.28-.05l.14,0,.14,0a1.36,1.36,0,0,0,.25-.11,1.09,1.09,0,0,0,.23-.14,1.56,1.56,0,0,0,.2-.16,1,1,0,0,0,.17-.18l.14-.18a2,2,0,0,0,.12-.19l.09-.17c.05-.11.09-.21.12-.29A2,2,0,0,0,37.68,60.05Z"/><path class="cls-16" d="M32.44,58.59s0,.07-.08.16l0,.08a.19.19,0,0,0,0,.08l0,.09v.09a.29.29,0,0,0,0,.09.27.27,0,0,1,0,.09s0,.06,0,.09v.09a1.4,1.4,0,0,1,0,.18.75.75,0,0,1-.11-.16.47.47,0,0,1-.06-.19s0-.08,0-.11,0-.08,0-.12l0-.12a.37.37,0,0,1,0-.11.31.31,0,0,1,.07-.09l.07-.07.13-.06Z"/><path class="cls-16" d="M39,59.17l0,0a.3.3,0,0,1,.09.1.22.22,0,0,1,0,.08l0,.09a.5.5,0,0,0,0,.12.45.45,0,0,1,0,.11l0,.12a.41.41,0,0,1-.05.09.7.7,0,0,1-.06.09s0,0-.07.06a.53.53,0,0,1-.16.09s0-.08.05-.17l0-.07s0-.06,0-.08l0-.08v-.08a1,1,0,0,0,0-.17s0-.1,0-.15Z"/><path class="cls-18" d="M45.11,88.07l-.19-.62a11.37,11.37,0,0,0-1.25-3c.11-.54.44-1,.19-1.36a9.15,9.15,0,0,0-.92-1.06c.17-.72.31-1.49.42-2.28s.21-1.66.28-2.45.13-1.79.16-2.52c.06-1.34.06-2.24.06-2.24s0-.22,0-.33c0-1.36-.07-2.2-.09-2.69s0-.61,0-.61a4.39,4.39,0,0,1,2.35-1.68l.44,1.41s1-.92,1-1.68-1-.82-1-.82l-.14-.44c-.13-.36-.33-.9-.62-1.56q-.13-.3-.3-.63a11.09,11.09,0,0,0-.89-1.61,4,4,0,0,0-2.42-1.59l-1.75-.46-.07,0-.28-.07h0l-.91-.24A.64.64,0,0,0,38.8,59a16.33,16.33,0,0,1-1.87.46v1A1.55,1.55,0,0,1,35.05,62a1.92,1.92,0,0,1-1.66-2.48l.08-.72c-.37-.17-.63-.31-.63-.31-.63,0-.63.4-.72.43a10.33,10.33,0,0,1-2.8-.29c-1.58-.32-2.88.89-3.64,1.78s-1.64,2-2,1.89-.85-.14-.76.51a1.66,1.66,0,0,0,.55,1l.52-.5a3.43,3.43,0,0,1,1.59,2.46s-.31,1-.49,1.8A49.41,49.41,0,0,0,24,75.2c-.11,1.63-.12,2.67-.12,2.67a23.33,23.33,0,0,1-.93,2.82c-.39,1-.84,2.1-1.3,3.15s-1,2.27-1.4,3.14-.77,1.64-.85,1.8c-.29.61-.52,1.25-.19,1.32A7.91,7.91,0,0,1,22.91,92,10.4,10.4,0,0,0,26.76,94a20.54,20.54,0,0,0,6.77,1.44,33.45,33.45,0,0,0,5.78.19,11,11,0,0,0,6.61-2.47s.84-.59.82-1a17,17,0,0,0-.84-1.89A20.58,20.58,0,0,1,45.11,88.07Zm.46,4c-.19,1.17-4.92,3.53-11.37,2.84s-8.59-3.24-8.59-3.24-.09,1.46-1.32.67S23,90.16,20.64,89.9c-1.5-.16-.64-.88.77-3.85s2.11-6.5,2.46-2.37a19.94,19.94,0,0,0,1.47,6.41s-1.12-7.63-.18-5.26a15.33,15.33,0,0,0,1.77,3.43s-2.64-5-2-14.39,4.63-14,3.64-13.36c-1.74,1.15-2.33,3.56-2.24,2.6s.28-1.83,0-1.4c-1,1.47-.59,3.2-1,2.41a3,3,0,0,0-1.6-1.25c-.52-.26-.36-.43.06-.36s1.23-.77,2.57-2.46a3.08,3.08,0,0,1,3.45-1.18c1.18.28,2,.26,2.34,1.18s0-.13.15-.76.92-.51.84.24,0,1.17-.29.71-.3,1.32,1.4,1.87,3.38,0,3.67-2.06c.12-.88,1.17-.55.73.34a.8.8,0,0,0,.58-.38c.2-.35,1.86.32,2.93.6A3.88,3.88,0,0,1,45,63.17c.7,1.71,1.38,2.61.64,3.15a2.1,2.1,0,0,1,1.28.18c.53.33.2,1.11-.17,1a1,1,0,0,1-.54-.52,4.73,4.73,0,0,0-1.27.38c-.72.31-1.36-2.76-2-4.23,0,0,.83,15.36-2.12,22.51-.92,2.21-.58,3.26,1.09.29.62-1.12,1.26-.53,1,1.2-.31,2.32-.31,2,.47.32.65-1.38.45-1.31,1.13.67S45.73,91.05,45.57,92.06Z"/><path class="cls-19" d="M32.07,66.69c-1.26,6.6-2.1,12.16,1.73,19.09,3.29,6-7.73,1.25-7.48-10.08S33.31,60.21,32.07,66.69Z"/><path class="cls-20" d="M32.57,91a8.63,8.63,0,0,0,7.48-1.56c1.92-1.73.58,1.63-1.77,2.53s1.2.65,2.9-.47-.63,3-5.72,1.68C31.07,92.06,30.15,90.43,32.57,91Z"/><path class="cls-21" d="M45.11,88.07l-.19-.62a11.37,11.37,0,0,0-1.25-3c.11-.54.44-1,.19-1.36a9.15,9.15,0,0,0-.92-1.06c.17-.72.31-1.49.42-2.28s.21-1.66.28-2.45.13-1.79.16-2.52c.06-1.34.06-2.24.06-2.24s0-.22,0-.33c0-1.36-.07-2.2-.09-2.69s0-.61,0-.61a4.39,4.39,0,0,1,2.35-1.68l.44,1.41s1-.92,1-1.68-1-.82-1-.82l-.14-.44c-.13-.36-.33-.9-.62-1.56q-.13-.3-.3-.63a11.09,11.09,0,0,0-.89-1.61,4,4,0,0,0-2.42-1.59l-1.75-.46-.07,0-.28-.07h0l-.91-.24A.64.64,0,0,0,38.8,59a16.33,16.33,0,0,1-1.87.46v1A1.55,1.55,0,0,1,35.05,62a1.92,1.92,0,0,1-1.66-2.48l.08-.72c-.37-.17-.63-.31-.63-.31-.63,0-.63.4-.72.43a10.33,10.33,0,0,1-2.8-.29c-1.58-.32-2.88.89-3.64,1.78s-1.64,2-2,1.89-.85-.14-.76.51a1.66,1.66,0,0,0,.55,1l.52-.5a3.43,3.43,0,0,1,1.59,2.46s-.31,1-.49,1.8A49.41,49.41,0,0,0,24,75.2c-.11,1.63-.12,2.67-.12,2.67a23.33,23.33,0,0,1-.93,2.82c-.39,1-.84,2.1-1.3,3.15s-1,2.27-1.4,3.14-.77,1.64-.85,1.8c-.29.61-.52,1.25-.19,1.32A7.91,7.91,0,0,1,22.91,92,10.4,10.4,0,0,0,26.76,94a20.54,20.54,0,0,0,6.77,1.44,33.45,33.45,0,0,0,5.78.19,11,11,0,0,0,6.61-2.47s.84-.59.82-1a17,17,0,0,0-.84-1.89A20.58,20.58,0,0,1,45.11,88.07Zm-22.17,2.2c-1.25-1.22-3.28.22-1.76-3.14s2.3-3.39,2.83.32S24.2,91.48,22.94,90.27ZM42.86,61c1,.35,1.5.75,2.3,2.87s-.53,2.89-.89,1.31A10,10,0,0,0,43,62C42.59,61.41,42.59,60.94,42.86,61Zm-10.31-.61a2.64,2.64,0,0,0,2.91,2.08,2.78,2.78,0,0,0,2.61-2.24c.16-.56.84,2.66-2.76,2.95C31.88,63.49,32.26,59.49,32.55,60.43Zm-5.92-.51c1-1.07,2.27-1.33,1.63-.16s-1.56,2.63-1.54,1.93-.25-.76-1,.49C25.16,63,25.44,61.25,26.63,59.92Zm-.57,30.35c-1.12-2.22-.49-4.16.7-1.39A8.54,8.54,0,0,0,33.87,94C37.45,94.55,28.68,95.44,26.06,90.27Zm16.57,1.46c-2,3-10.87,2.79-13.49-1.64-1.55-2.62-3-7.09-3.22-15.61-.15-6.84,2-13.9,5.73-11.72s5.38,1,7.34.68,4.32,1.69,2.79,12.31c-1,6.81-2.06,11.11-3.39,13.33s.4,1.18,2-.69,1.86.7.58,2.34.52.42,1.63-1S43.7,90.1,42.63,91.73Z"/><path class="cls-22" d="M36.43,57.13c-.61-.42-2.37-1-2.7,0,0,0,0-.07,0-.11h0a1.23,1.23,0,0,1,0,.19l0,.09a.11.11,0,0,0,0,.08c0,1.45-.94,3.36.36,4.38.83.65,2.56.4,2.81-.77a12,12,0,0,0,.1-2.54C37,57.61,37.18,57.65,36.43,57.13Z"/><path class="cls-23" d="M36.62,60.72a1.51,1.51,0,0,1-2,1.22c-1.07-.39-1.09-2-1-2.87a7.7,7.7,0,0,0,.1-1.65.11.11,0,0,0,.1,0c.57-.85,2.21,0,2.81.35C37.12,58,36.66,60.4,36.62,60.72Z"/><path class="cls-2" d="M36.62,60.72a1.51,1.51,0,0,1-2,1.22c-1.07-.39-1.09-2-1-2.87a7.7,7.7,0,0,0,.1-1.65.11.11,0,0,0,.1,0c.57-.85,2.21,0,2.81.35C37.12,58,36.66,60.4,36.62,60.72Z"/><path class="cls-24" d="M33.63,59.37a3.53,3.53,0,0,0,1.33.34,5.24,5.24,0,0,0,1.84-.2c.09-.78.13-1.65-.13-1.78-.6-.31-2.24-1.2-2.81-.35a.11.11,0,0,1-.1,0,7.7,7.7,0,0,1-.1,1.65Z"/><path class="cls-25" d="M25.79,117.9v0Z"/><path class="cls-26" d="M28.9,119.67c3.52.31,5.16-.62,6.06-1.93a6.31,6.31,0,0,0,.07-3.21c-.5,1.81-3.36,2.81-5.44,2.28s-1.46-1.55-1.46-1.55c-2.58,1.45-2.33,2.61-2.33,2.61v0C25.76,118.07,25.62,119.38,28.9,119.67Z"/><path class="cls-27" d="M28.89,119.72c1.74.14,3.79.14,5.25-1a2.65,2.65,0,0,0,1.17-2,6.59,6.59,0,0,0-.16-2.21c0-.06-.22-.08-.24,0-.52,1.66-2.53,2.35-4.1,2.39-.65,0-3.26-.4-2.56-1.61,0-.07-.18-.09-.22-.06-1.07.61-2.3,1.41-2.37,2.75s2.33,1.65,3.23,1.74c.15,0,.16-.08,0-.1-.83-.08-3.2-.34-3-1.7s1.24-2,2.32-2.62l-.22-.07c-.68,1.19,1.69,1.71,2.37,1.75,1.77.12,4.18-.55,4.77-2.43l-.24,0a7.53,7.53,0,0,1,.18,1.83,2.65,2.65,0,0,1-.85,2.06c-1.39,1.32-3.55,1.35-5.33,1.2C28.76,119.61,28.75,119.71,28.89,119.72Z"/><path class="cls-26" d="M28.9,119.67c-3.28-.29-3.14-1.6-3.11-1.78-.33,1.27.38,2.2,2.86,2.4,6.65.53,6.31-2.55,6.31-2.55C34.06,119.05,32.42,120,28.9,119.67Z"/><path class="cls-27" d="M28.87,119.62c-.8-.08-3.2-.36-3-1.71,0-.07-.22-.11-.24,0-.31,1.33.64,2,1.82,2.3a11.19,11.19,0,0,0,5.21,0c1-.27,2.51-1.08,2.38-2.36,0-.07-.19-.11-.23-.05-1.36,1.92-3.81,2.09-6,1.91-.16,0-.05.09.05.1,2.21.18,4.76,0,6.16-2l-.24,0c.1.93-.77,1.67-1.52,2a9.18,9.18,0,0,1-4.47.51c-1.42-.09-3.37-.52-2.94-2.34l-.24,0c-.26,1.46,2.39,1.77,3.25,1.85C29.09,119.74,29,119.63,28.87,119.62Z"/><g class="cls-6"><path class="cls-26" d="M35,114.53c-.5,1.81-3.36,2.81-5.44,2.28s-1.46-1.55-1.46-1.55c-2.58,1.45-2.33,2.61-2.33,2.61v0c0,.18-.17,1.49,3.11,1.78,3.52.31,5.16-.62,6.06-1.93A6.31,6.31,0,0,0,35,114.53Zm-1.14,3.15c-.72,1.45-4.35,2-6.37,1.12s-1-2.19-.3-2.75c.38-.29.48-.07.76.45s2.42,1,4.19.53S34.21,117,33.89,117.68Z"/></g><path class="cls-28" d="M27.52,116.69a3.5,3.5,0,0,0,3.3,1c1.51-.2-.14,1.36-2.33.83S26.94,115.84,27.52,116.69Z"/><g class="cls-6"><path class="cls-26" d="M27.33,119.4c-1.66-.48-1.57-1.36-1.54-1.5-.28,1,.17,1.86,1.73,2.23C27.05,119.84,27,119.53,27.33,119.4Z"/></g><g class="cls-6"><path class="cls-26" d="M35,117.74a4.48,4.48,0,0,1-3.12,1.86c.4.15.13.44-.36.68C35.19,119.85,35,117.74,35,117.74Z"/></g><path class="cls-28" d="M27.5,119.73c-.17.26.43.41,1.74.49s2.06.08,2.06-.18-.55,0-2-.07C28,119.88,27.59,119.58,27.5,119.73Z"/><path class="cls-26" d="M59.81,118.31a16.15,16.15,0,0,1-6.41-.11A19.09,19.09,0,0,0,49.08,117c-1.54-.13-1.63-.33-1.63-.33-.07.54.27.87,1.12.87,1.77,0,4,1.13,7.52,1.33s4.87-.68,5.23-1.05a.6.6,0,0,0,.07-.77C61.48,117.31,61.1,117.93,59.81,118.31Z"/><path class="cls-27" d="M59.75,118.27a11.26,11.26,0,0,1-3,.26,11.93,11.93,0,0,1-3.21-.34c-1.28-.35-2.49-.89-3.8-1.12-.6-.11-1.2-.12-1.79-.24-.09,0-.38,0-.43-.15s-.24,0-.24,0c0,.57.32.8.83.89.35.06.72,0,1.07.08a9.7,9.7,0,0,1,1.05.2,38.34,38.34,0,0,0,5.33,1,11.2,11.2,0,0,0,4.71-.41c.54-.2,1.66-.7,1.19-1.45,0,0-.26,0-.24,0,.16.64-1.15,1.07-1.52,1.19-.16,0,0,.1.12.08.43-.14,1.81-.59,1.64-1.28l-.24,0c.49.79-.86,1.27-1.38,1.43a12.16,12.16,0,0,1-5.06.21,38.76,38.76,0,0,1-4.15-.89,12.52,12.52,0,0,0-1.48-.3c-.65-.07-1.7.07-1.63-.86l-.24,0c.19.33,1.22.31,1.5.34a34.38,34.38,0,0,1,4.81,1.27,13.75,13.75,0,0,0,3.26.3,11.39,11.39,0,0,0,3-.28C60,118.3,59.82,118.25,59.75,118.27Z"/><path class="cls-26" d="M49.08,117a19.09,19.09,0,0,1,4.32,1.17,16.15,16.15,0,0,0,6.41.11c1.29-.38,1.67-1,1.58-1.23,0-1.54-1.45-2.06-2.3-2.41a2.76,2.76,0,0,0-1.3-.27s.83.57-.2,1.25-3.27.38-4.47.08-2.65-.81-4-1.11c-2.25-.51-1.66-2.36-1.66-2.36a2.6,2.6,0,0,1-.2.43c-.42,1,0,2.51,0,3.15a1.08,1.08,0,0,0,.21.86S47.54,116.9,49.08,117Z"/><path class="cls-27" d="M49.08,117.08c2.09.21,4,1.27,6,1.47a14.42,14.42,0,0,0,4.68-.17c.55-.14,1.41-.45,1.67-1a1.77,1.77,0,0,0-.45-1.63,4.42,4.42,0,0,0-1.66-1,3.41,3.41,0,0,0-1.62-.37s-.1,0-.06.07a.6.6,0,0,1,.19.84c-.37.64-1.4.73-2,.75a13,13,0,0,1-4.17-.75c-.69-.2-1.38-.41-2.07-.59a2.71,2.71,0,0,1-1.81-1,1.83,1.83,0,0,1-.17-1.43c0-.06-.21-.09-.24,0a4.23,4.23,0,0,0-.36,2.12c0,.37.08.74.11,1.11a4.49,4.49,0,0,0,.08,1c.2.65,1.39.58,1.89.63.14,0,.15-.08,0-.1-1-.09-1.77,0-1.73-1.13,0-.6-.11-1.21-.14-1.81a3.72,3.72,0,0,1,.38-1.77l-.24,0c-.68,2.22,2.36,2.54,3.75,3a18.82,18.82,0,0,0,4,.88c1,.07,2.46.07,3-.9a.63.63,0,0,0-.2-.74c-.09-.09,0,0-.11,0a1.13,1.13,0,0,1,.26,0,4.34,4.34,0,0,1,1.21.37,3.79,3.79,0,0,1,1.55,1,1.56,1.56,0,0,1,.31,1.54c-.63,1.07-2.55,1.09-3.63,1.13a12.86,12.86,0,0,1-4.1-.35A22.79,22.79,0,0,0,49.09,117C49,117,48.93,117.07,49.08,117.08Z"/><g class="cls-6"><path class="cls-26" d="M61.4,117.07c0-1.54-1.45-2.06-2.3-2.4a2.72,2.72,0,0,0-1.3-.28s.82.58-.21,1.25-3.27.38-4.46.08-2.66-.81-4-1.11a1.84,1.84,0,0,1-1.65-2.36,3.83,3.83,0,0,1-.2.44c-.42,1,0,2.51,0,3.14a1,1,0,0,0,.21.86s.08.2,1.63.34a18.69,18.69,0,0,1,4.32,1.16,16,16,0,0,0,6.41.11C61.1,117.92,61.49,117.31,61.4,117.07Zm-5.95.9c-3.35-.34-2.76-.69-4.59-.92S49,116.42,49,115.57s.08-.74.82-.44a43.12,43.12,0,0,1,4.36,1.05c2.23.68,4.32-.45,4.21-1.12s1.63,0,2.42.84S59.45,118.39,55.45,118Z"/></g><g class="cls-29"><path class="cls-30" d="M51.72,117.63a11.29,11.29,0,0,0-2.64-.6c-1.54-.13-1.63-.33-1.63-.33-.07.54.27.87,1.12.87a14.15,14.15,0,0,1,3.24.63C51.38,117.93,51.36,117.69,51.72,117.63Z"/></g><path class="cls-28" d="M55.22,116.7c2.05,0,3.27-.47,3.3-1.18s2.24.1,1.95.82c-.45,1.11-2.86,1.17-4.65.86S54.36,116.68,55.22,116.7Z"/><g class="cls-29"><path class="cls-30" d="M47.91,115.24c-.06-1,.74-.78.74-.78h0a1.78,1.78,0,0,1-1.16-2.21,3.83,3.83,0,0,1-.2.44c-.42,1,0,2.51,0,3.14a1,1,0,0,0,.21.86s.08.2,1.63.34C47.92,116.91,48,116.24,47.91,115.24Z"/></g><g class="cls-6"><path class="cls-26" d="M48.63,117.26c0-.25.52-.22.52-.22h-.07c-1.54-.13-1.63-.33-1.63-.33-.07.54.27.87,1.12.87l.52,0C48.92,117.55,48.61,117.45,48.63,117.26Z"/></g><path class="cls-31" d="M21.91,52.65A1.6,1.6,0,0,0,22.08,55c-1.31,1.32-1.59,1.74-.95,2.69a1.84,1.84,0,0,0-.64,2.56,1.3,1.3,0,0,0,1.92.71,1.55,1.55,0,0,0,1.24-1.65s.74-.16.92-2.12c1-.42,1-1.08,1-1.82C24.54,54.65,21.91,52.65,21.91,52.65Z"/><path class="cls-32" d="M21.51,61.25c-.43,0-.77-.32-1.11-.93A1.91,1.91,0,0,1,21,57.69c-.61-1-.23-1.48,1-2.67a1.9,1.9,0,0,1-.58-1.28,1.81,1.81,0,0,1,.47-1.17.12.12,0,0,1,.14,0s2.64,2,3.64,2.74a.1.1,0,0,1,0,.09c0,.75,0,1.45-1,1.89-.15,1.6-.7,2-.9,2.12a1.65,1.65,0,0,1-1.32,1.67A2.25,2.25,0,0,1,21.51,61.25Zm.41-8.47a1.5,1.5,0,0,0,.23,2.16.11.11,0,0,1,0,.15c-1.3,1.32-1.52,1.69-.93,2.56a.1.1,0,0,1,0,.14,1.75,1.75,0,0,0-.61,2.43c.31.55.58.79,1,.82a2,2,0,0,0,.84-.16,1.46,1.46,0,0,0,1.18-1.55.1.1,0,0,1,.08-.1s.67-.19.84-2a.1.1,0,0,1,.06-.09c.88-.37.91-1,.92-1.67C24.52,54.76,22.35,53.11,21.92,52.78Z"/><path class="cls-33" d="M25.55,55.39c-1-.74-3.64-2.74-3.64-2.74a1.65,1.65,0,0,0-.26.37,5.85,5.85,0,0,1,1.26.83,6.18,6.18,0,0,0,1,1,2.71,2.71,0,0,1,.87.56,1.16,1.16,0,0,1-.22,1.5c-.55.58-1.12.48-1.78.58.64.21,1.49.23,1.07,1.13-.31.64-1.36.9-2,1-.22,0-1.47.17-1.3-.36a1.18,1.18,0,0,1,.67-.68,1.2,1.2,0,0,1,1,.26c-.14-.57-.69-.89-.93-1.45a1.28,1.28,0,0,1,.16-1.22c.5-.92,1.29-.4,1.88.1-.21-.86-1.29-1.49-1.85-2.23a1.9,1.9,0,0,0,.59,1c-1.31,1.32-1.59,1.74-.95,2.69a1.84,1.84,0,0,0-.64,2.56,1.3,1.3,0,0,0,1.92.71,1.55,1.55,0,0,0,1.24-1.65s.74-.16.92-2.12C25.53,56.79,25.54,56.13,25.55,55.39Z"/><g class="cls-6"><path class="cls-32" d="M24.57,57.21a3.17,3.17,0,0,1-.34.15l-.35.12-.42.1c-.14,0-.29,0-.43.06h-.37l-.27,0-.1,0,.1,0,.26,0,.36-.07.41-.08.78-.14Z"/><path class="cls-32" d="M22.08,55l.19.11a2,2,0,0,1,.35.32,2.32,2.32,0,0,1,.3.37c.06.11.1.2.1.2a1.51,1.51,0,0,1-.19-.12,3.16,3.16,0,0,1-.36-.31,3.86,3.86,0,0,1-.29-.38Z"/><path class="cls-32" d="M21.13,57.71a1.51,1.51,0,0,1,.2.14,4,4,0,0,1,.38.36,3.16,3.16,0,0,1,.31.41,1.18,1.18,0,0,1,.11.22l-.2-.14a3.07,3.07,0,0,1-.37-.36,3.32,3.32,0,0,1-.32-.41Z"/><path class="cls-32" d="M23.65,59.33a2.5,2.5,0,0,1-.33.22,3.21,3.21,0,0,1-.37.18,4.5,4.5,0,0,1-.44.16l-.46.1-.41,0L21.25,60l.38-.06.39-.08.44-.12.43-.13.38-.12Z"/></g><path class="cls-31" d="M20.26,61.34s-2.18-.2-3,.66-.57,1.46-.54,2.21a1.41,1.41,0,0,1-1.24,1.55,1.07,1.07,0,0,0,1.35.17s-1.49.67,0,2.58a2,2,0,0,1,2.14-1.68A1.49,1.49,0,0,0,20,64.54a1.53,1.53,0,0,1,.48,1.23S22.94,62.52,20.26,61.34Z"/><path class="cls-32" d="M16.75,68.61l-.07,0a2.43,2.43,0,0,1-.63-1.8,1.26,1.26,0,0,1,.27-.57h-.21a1.13,1.13,0,0,1-.72-.36.09.09,0,0,1,0-.11.1.1,0,0,1,.09-.07,1,1,0,0,0,.71-.32,1.61,1.61,0,0,0,.42-1.13,3.13,3.13,0,0,0,0-.44,1.86,1.86,0,0,1,.62-1.84c.86-.88,3-.7,3.1-.69h0a2,2,0,0,1,1.25,1.34c.37,1.43-.91,3.16-1,3.24a.11.11,0,0,1-.12,0,.1.1,0,0,1-.06-.11,1.36,1.36,0,0,0-.08-.56,1.63,1.63,0,0,1-.21,1,1.45,1.45,0,0,1-1.21.72,1.93,1.93,0,0,0-2,1.59.08.08,0,0,1-.07.08Zm.07-2.78a.08.08,0,0,1,.08,0,.11.11,0,0,1,0,.14l-.11.06a1.11,1.11,0,0,0-.51.72,2.07,2.07,0,0,0,.45,1.45,2.09,2.09,0,0,1,2.2-1.52,1.23,1.23,0,0,0,1-.62,1.6,1.6,0,0,0,0-1.53.09.09,0,0,1,0-.12.11.11,0,0,1,.13,0,1.61,1.61,0,0,1,.5,1,4.05,4.05,0,0,0,.76-2.81,1.82,1.82,0,0,0-1.11-1.2c-.2,0-2.17-.14-2.93.64a1.67,1.67,0,0,0-.56,1.67c0,.14,0,.29.05.46a1.83,1.83,0,0,1-.48,1.28,1.25,1.25,0,0,1-.62.35.91.91,0,0,0,.43.16,1.11,1.11,0,0,0,.55-.11l.09,0Z"/><path class="cls-33" d="M20.26,61.34a7.36,7.36,0,0,0-1.6.06,2.51,2.51,0,0,1,1.39.61,1.74,1.74,0,0,1,.49,2.22s-.16.17-.19,0c-.11-.48-.5-.58-.92-.6.16.72.4,1.6-.22,2.15s-2.07.55-2.51,1.56c0,0-.18.17-.19,0-.09-.9.63-1.44,1.38-1.81a2,2,0,0,1-1.2,0,2.65,2.65,0,0,1-.4-.24,1.06,1.06,0,0,1-.83.39,1,1,0,0,0,1.26.22c-.3.19-1.18.91,0,2.53a2,2,0,0,1,2.14-1.68A1.49,1.49,0,0,0,20,64.54a1.53,1.53,0,0,1,.48,1.23S22.94,62.52,20.26,61.34Z"/><path class="cls-34" d="M20.49,60.27l-.44,1a2.07,2.07,0,0,0,1.42.88l.65-1.15S20.85,61.42,20.49,60.27Z"/><path class="cls-35" d="M21.54,62.35h-.09a2.16,2.16,0,0,1-1.51-1l0-.06.61-1.46.11.36a1,1,0,0,0,.91.74,2,2,0,0,0,.56,0l.34-.1-.19.3s-.1.18-.65,1.15ZM20.21,61.3a1.93,1.93,0,0,0,1.18.75l.47-.81h-.35a1.24,1.24,0,0,1-1-.63Z"/><path class="cls-36" d="M21.69,61.11c-.15.35-.31.7-.49,1l.27.05.65-1.15A1.5,1.5,0,0,1,21.69,61.11Z"/><path class="cls-36" d="M20.59,60.51a1.73,1.73,0,0,1-.1-.24l-.44,1,.09.12Q20.35,61,20.59,60.51Z"/><path class="cls-37" d="M22.06,54.05s.49.53,1.19,1.44.45,1.36-.25.82a.86.86,0,0,0-1.48.34c-.29.61.36,1,.82,1.61s.22.56-.57.61-.74.6.17.5S24.4,58.12,23.21,58s-1.69-.61-.39-.7,2.8-1,1.52-1.76S21.4,52.7,22.06,54.05Z"/><path class="cls-37" d="M18.41,61.66a2.26,2.26,0,0,0-1.52.9,1.16,1.16,0,0,0-.18.63,3.24,3.24,0,0,1-.35,2.34c-.1.14,0,.28.12.15a2,2,0,0,0,.61-1.2,3.49,3.49,0,0,0,0-1c-.11-1,.55-1.43,1.32-1.73C18.41,61.72,18.45,61.65,18.41,61.66Z"/><path class="cls-37" d="M18.11,65.58a3.11,3.11,0,0,0-1.13.61,1.36,1.36,0,0,0-.34,1.19c0,.16.24-.07.24-.17a1.19,1.19,0,0,1,.45-1.1,6.44,6.44,0,0,1,.78-.42S18.19,65.55,18.11,65.58Z"/><path class="cls-31" d="M53.19,52.52a1.61,1.61,0,0,1-.34,2.35c1.21,1.42,1.46,1.85.76,2.75a1.85,1.85,0,0,1,.46,2.6,1.3,1.3,0,0,1-2,.58A1.57,1.57,0,0,1,51,59.07s-.72-.21-.76-2.19c-.94-.47-.9-1.14-.86-1.88C50.42,54.33,53.19,52.52,53.19,52.52Z"/><path class="cls-32" d="M52.84,61.12a2.4,2.4,0,0,1-.77-.23,1.65,1.65,0,0,1-1.19-1.76c-.21-.12-.72-.57-.77-2.18-.93-.51-.89-1.2-.85-1.94a.14.14,0,0,1,.05-.1c1-.66,3.79-2.46,3.82-2.48a.09.09,0,0,1,.13,0,1.77,1.77,0,0,1,.39,1.2A1.83,1.83,0,0,1,53,54.88c1.09,1.28,1.44,1.8.76,2.73a1.92,1.92,0,0,1,.41,2.66C53.74,60.92,53.36,61.17,52.84,61.12Zm-3.38-6.06c0,.73-.05,1.3.8,1.73a.1.1,0,0,1,.06.09c0,1.85.69,2.09.69,2.09a.09.09,0,0,1,.07.11,1.47,1.47,0,0,0,1.07,1.62,2.33,2.33,0,0,0,.71.22c.43,0,.75-.18,1.13-.76a1.74,1.74,0,0,0-.45-2.46.11.11,0,0,1,0-.14c.65-.83.45-1.21-.76-2.62a.12.12,0,0,1,0-.15,1.67,1.67,0,0,0,.67-1.16,1.5,1.5,0,0,0-.29-1Z"/><path class="cls-33" d="M49.36,55c1.06-.67,3.83-2.48,3.83-2.48a2,2,0,0,1,.23.39,5.61,5.61,0,0,0-1.31.74,6.53,6.53,0,0,1-1.08.9,2.69,2.69,0,0,0-.91.5,1.15,1.15,0,0,0,.12,1.51c.51.62,1.09.55,1.73.7-.65.16-1.5.12-1.14,1.05.26.66,1.29,1,1.93,1.11.21,0,1.45.27,1.32-.27a1,1,0,0,0-1.64-.53c.18-.57.75-.85,1-1.38A1.28,1.28,0,0,0,53.39,56c-.43-.94-1.26-.48-1.88,0,.27-.85,1.39-1.4,2-2.1a2,2,0,0,1-.66,1c1.21,1.42,1.46,1.85.76,2.75a1.85,1.85,0,0,1,.46,2.6,1.3,1.3,0,0,1-2,.58A1.57,1.57,0,0,1,51,59.07s-.72-.21-.76-2.19C49.28,56.41,49.32,55.74,49.36,55Z"/><g class="cls-6"><path class="cls-32" d="M50.22,56.88l.36.07.77.18.4.11.36.1.25.06.1,0h-.1a2,2,0,0,1-.27,0l-.37,0-.42-.09-.42-.13-.34-.14A3.27,3.27,0,0,1,50.22,56.88Z"/><path class="cls-32" d="M52.85,54.87a1.51,1.51,0,0,1-.12.19,2,2,0,0,1-.31.35,2.75,2.75,0,0,1-.38.29,1,1,0,0,1-.2.1,1.13,1.13,0,0,1,.12-.18,2.51,2.51,0,0,1,.32-.36,2.91,2.91,0,0,1,.37-.29Z"/><path class="cls-32" d="M53.61,57.62l-.13.21a2.31,2.31,0,0,1-.34.39,2.34,2.34,0,0,1-.4.34,1.58,1.58,0,0,1-.21.12l.13-.21a3.16,3.16,0,0,1,.74-.72Z"/><path class="cls-32" d="M51,59.07l.37.13.38.15.42.16.43.15a3.44,3.44,0,0,1,.38.11l.38.08-.4,0-.41-.06a4.45,4.45,0,0,1-.45-.13,2.8,2.8,0,0,1-.43-.19l-.35-.2Z"/></g><path class="cls-31" d="M54.23,61.31s2.18-.05,3,.87.46,1.49.38,2.24a1.42,1.42,0,0,0,1.13,1.63,1.06,1.06,0,0,1-1.36.08s1.45.76-.13,2.57a2,2,0,0,0-2-1.82,1.49,1.49,0,0,1-1-2.37,1.53,1.53,0,0,0-.57,1.19S51.47,62.3,54.23,61.31Z"/><path class="cls-32" d="M57.21,68.8h0a.1.1,0,0,1-.07-.09A1.93,1.93,0,0,0,55.2,67a1.46,1.46,0,0,1-1.16-.8,1.69,1.69,0,0,1-.14-1,1.54,1.54,0,0,0-.12.53.06.06,0,0,1,0,0c0,.06-.06.11-.11.1s-.07,0-.08,0-1.22-1.9-.75-3.3a2,2,0,0,1,1.34-1.25h0a6.33,6.33,0,0,1,.73,0,3.6,3.6,0,0,1,2.32.87A1.84,1.84,0,0,1,57.76,64a2.89,2.89,0,0,0-.07.44A1.56,1.56,0,0,0,58,65.57a1,1,0,0,0,.68.38.12.12,0,0,1,.1.07.11.11,0,0,1,0,.11,1.12,1.12,0,0,1-.87.31h-.08a1.33,1.33,0,0,1,.22.58,2.37,2.37,0,0,1-.75,1.75A.11.11,0,0,1,57.21,68.8Zm-3-4.39.05,0a.11.11,0,0,1,0,.14,1.57,1.57,0,0,0-.1,1.51,1.18,1.18,0,0,0,1,.69,2.1,2.1,0,0,1,2.08,1.68A2.07,2.07,0,0,0,57.85,67a1.11,1.11,0,0,0-.47-.76.37.37,0,0,1-.09-.06.1.1,0,0,1,0-.14.11.11,0,0,1,.14,0l.1.06a1.14,1.14,0,0,0,.42.14.92.92,0,0,0,.54-.13,1.27,1.27,0,0,1-.6-.41,1.82,1.82,0,0,1-.38-1.29c0-.17.05-.32.08-.46a1.68,1.68,0,0,0-.44-1.71,3.64,3.64,0,0,0-2.19-.8c-.35,0-.62,0-.69,0a1.81,1.81,0,0,0-1.19,1.12,4,4,0,0,0,.56,2.85,1.69,1.69,0,0,1,.57-.95A.11.11,0,0,1,54.26,64.41Z"/><path class="cls-33" d="M54.23,61.31a7,7,0,0,1,1.59.17,2.49,2.49,0,0,0-1.43.51,1.73,1.73,0,0,0-.64,2.18s.14.18.18.06c.15-.47.54-.54,1-.53-.21.7-.5,1.57.07,2.16s2,.69,2.4,1.73c0,0,.17.18.19.06.15-.89-.53-1.48-1.26-1.9a2,2,0,0,0,1.2.06,2.74,2.74,0,0,0,.42-.21,1.08,1.08,0,0,0,.8.45,1,1,0,0,1-1.28.13c.29.2,1.13,1-.21,2.52a2,2,0,0,0-2-1.82,1.49,1.49,0,0,1-1-2.37,1.53,1.53,0,0,0-.57,1.19S51.47,62.3,54.23,61.31Z"/><path class="cls-34" d="M54.07,60.22l.37,1.08a2.08,2.08,0,0,1-1.48.78l-.57-1.19A1.29,1.29,0,0,0,54.07,60.22Z"/><path class="cls-35" d="M52.88,62.22l0-.08L52.27,61l-.17-.31.33.12a1.78,1.78,0,0,0,.38.08,1,1,0,0,0,1.13-.67l.14-.35.51,1.5,0,.06a2.21,2.21,0,0,1-1.58.84Zm-.24-1.13.41.85a1.91,1.91,0,0,0,1.23-.67l-.23-.7a1.3,1.3,0,0,1-1.27.54h0Z"/><path class="cls-37" d="M52.94,53.91s-.53.49-1.29,1.35-.54,1.33.19.83a.86.86,0,0,1,1.45.45c.26.63-.43,1-.93,1.55s-.25.54.53.65.7.64-.2.48-2.37-1.42-1.17-1.5,1.73-.49.43-.67-2.72-1.2-1.38-1.86S53.69,52.61,52.94,53.91Z"/><path class="cls-37" d="M56.05,61.75a2.21,2.21,0,0,1,1.45,1,1.07,1.07,0,0,1,.14.63,3.24,3.24,0,0,0,.19,2.37c.09.14,0,.27-.13.14a2,2,0,0,1-.53-1.25,3.84,3.84,0,0,1,.09-1c.18-1-.45-1.46-1.19-1.81C56.05,61.82,56,61.74,56.05,61.75Z"/><path class="cls-37" d="M56.08,65.69a3,3,0,0,1,1.08.68,1.36,1.36,0,0,1,.26,1.21c0,.16-.23-.09-.22-.18a1.19,1.19,0,0,0-.38-1.13,6.39,6.39,0,0,0-.75-.48S56,65.65,56.08,65.69Z"/><path class="cls-2" d="M51.11,49.14c.08-2.46.4-5.42.4-5.42-2.14-.6-7.36-6.36-8-9.75-6.5,7.25-21.71,5.55-21.71,5.55a32.27,32.27,0,0,1-.1,9.57c-.65,2.42,1.15,4.33,2.16,5.17,2.21,1.61,6.44,4.39,11,4.68a18.51,18.51,0,0,0,13-3.74l.12,0A7.15,7.15,0,0,0,51.11,49.14Z"/><path class="cls-38" d="M34.51,59h0c-3.27-.3-6.88-1.87-10.72-4.68-1.11-.93-2.85-2.84-2.19-5.28a33.51,33.51,0,0,0,.09-9.53.08.08,0,0,1,0-.08.16.16,0,0,1,.09,0l.24,0c1.56.15,15.36,1.19,21.38-5.54a.11.11,0,0,1,.11,0,.11.11,0,0,1,.07.08A15.14,15.14,0,0,0,47,39.82c1.7,2,3.52,3.52,4.52,3.81a.1.1,0,0,1,.07.1s-.32,3-.4,5.41A7.25,7.25,0,0,1,48,55.27h0l-.1,0a18.66,18.66,0,0,1-13,3.74ZM21.9,39.64a32.75,32.75,0,0,1-.11,9.47c-.63,2.34,1.06,4.18,2.12,5.07,3.81,2.78,7.39,4.34,10.62,4.63h0l.35,0a18.45,18.45,0,0,0,12.88-3.72l0,0,.1,0A7,7,0,0,0,51,49.13c.07-2.2.34-4.83.39-5.33-2.12-.71-7.14-6.14-8-9.62-2.55,2.76-6.65,4.53-12.16,5.26a43.91,43.91,0,0,1-9.25.21Z"/><path class="cls-31" d="M56.93,35.73A13.3,13.3,0,0,0,46.31,25.1s-2.28-4-9.81-4.45C24.7,21,19,29.46,17.16,35.68,14.33,47.83,23,53.6,23,53.6l.89.66c-1-.84-2.81-2.75-2.16-5.17a32.27,32.27,0,0,0,.1-9.57S37,41.22,43.5,34c.65,3.39,5.87,9.15,8,9.75,0,0-.32,3-.4,5.42a7.15,7.15,0,0,1-3.17,6C58.37,53.39,58,40.93,56.93,35.73Z"/><path class="cls-32" d="M23.84,54.36l-.05,0-.87-.64,0,0c-.09-.06-8.65-5.94-5.84-18,2.1-7.07,8.3-14.74,19.44-15.11l.77.05a14.11,14.11,0,0,1,7.17,2.46,7.6,7.6,0,0,1,1.94,2A13.48,13.48,0,0,1,57,35.71c.9,4.33.9,10.9-2,15.19a10.29,10.29,0,0,1-7,4.38.09.09,0,0,1-.11-.06.11.11,0,0,1,0-.13,7,7,0,0,0,3.12-6c.07-2.2.34-4.83.39-5.33-2.12-.71-7.14-6.14-8-9.62-2.55,2.76-6.65,4.53-12.17,5.26a43.81,43.81,0,0,1-9.24.21H21.9a32.75,32.75,0,0,1-.11,9.47c-.63,2.33,1,4.16,2.11,5.06a.09.09,0,0,1,.05.1s-.06.09-.11.09ZM37.25,20.81l-.76-.06c-11,.37-17.16,8-19.23,15a17.51,17.51,0,0,0,1.82,13.42,15.56,15.56,0,0,0,3.68,4.19,4.6,4.6,0,0,1-1.16-4.26,33.51,33.51,0,0,0,.09-9.53.08.08,0,0,1,0-.08.16.16,0,0,1,.09,0l.24,0c1.56.15,15.36,1.19,21.38-5.54a.11.11,0,0,1,.11,0,.11.11,0,0,1,.07.08A15.14,15.14,0,0,0,47,39.82c1.7,2,3.52,3.52,4.52,3.81a.1.1,0,0,1,.07.1s-.32,3-.4,5.41A7.4,7.4,0,0,1,48.41,55a10,10,0,0,0,6.43-4.21c2.89-4.24,2.88-10.74,2-15A13.28,13.28,0,0,0,46.3,25.2a.1.1,0,0,1-.08-.05,7,7,0,0,0-1.91-1.94A14,14,0,0,0,37.25,20.81Z"/><path class="cls-39" d="M31.17,52.23A1.4,1.4,0,0,0,32.32,52c.07.3-.28.5-.28.5s1.92,1.43,6.27,0c0-.21.29-.53.29-.53a1.31,1.31,0,0,0,.57,1.1.57.57,0,0,1-.66-.14S37.79,54.1,37,55.22s-2.45,2.11-3.81.28a13.4,13.4,0,0,1-1.57-2.78S31.1,52.6,31.17,52.23Z"/><path class="cls-39" d="M26.26,48.59a2,2,0,0,1,2.12,1.66,1.44,1.44,0,0,0,.05-.57s2.29.83,3.37-1.14.67-7.32-2.81-6.44c-1.7.44-3.41,3.28-2.15,6.1C26.46,48.12,26.26,48.59,26.26,48.59Z"/><path class="cls-39" d="M26.49,42.67a4.64,4.64,0,0,1,5.91.41C32,41.79,28.22,39.77,26.49,42.67Z"/><g class="cls-40"><path class="cls-41" d="M51.11,49.14c.08-2.46.4-5.42.4-5.42-2.14-.6-7.36-6.36-8-9.75-6.5,7.25-21.71,5.55-21.71,5.55a32.27,32.27,0,0,1-.1,9.57c-.65,2.42,1.15,4.33,2.16,5.17,2.21,1.61,6.44,4.39,11,4.68a18.51,18.51,0,0,0,13-3.74l.12,0A7.15,7.15,0,0,0,51.11,49.14Zm-8.55,7.94a16.4,16.4,0,0,1-11.28.32C24,54.72,22.5,51.33,22.78,48s.26-6.75,2.71-6.81C37.55,40.86,43.13,36,43.13,36a26.92,26.92,0,0,0,7.15,8.6C50.65,52.28,47,55.24,42.56,57.08Z"/></g><path class="cls-39" d="M42.21,51.61s1.08-2,3-1.71c-.26-.42-1.15-.44-1.15-.44a5.86,5.86,0,0,0,.32-4.37c-.8-3-4.31-2.93-5.36.24s.62,5.71,3,5.44A1.19,1.19,0,0,0,42.21,51.61Z"/><g class="cls-6"><path class="cls-31" d="M55.49,45.72c-.47-2-3.26-2-2.39-2.16s.92-.63.92-.63-3.77-.34-6.84-5.28S47,33.76,50.5,35.87s-2.22-5.58.26-3.64,3.35,2.6,2.13.27c-1.8-3.9-4.33-5.27-2.64-4.91C55,29.6,57,36.24,57,36.24l0,0c0-.19-.06-.37-.1-.54A13.3,13.3,0,0,0,46.31,25.1s-2.28-4-9.81-4.45a20.73,20.73,0,0,0-9.95,2.75h0s9.31-4.08,16.41.12c2.68,1.61-5-1.27-10.46,1.7s1.36-.94,6.4-.26c4.1.56-6.88,3.5-2.14,2.56s4.44,2.32-1.15,5.64,3.26,1.21,5.5-.32-4.6,8.43-20.73,5.33c-2.41-.59-1,.38.21.65.72.16.19.93.61,2.34s-1.73-.07-2.58,2.32-3.22-5.77.26-11.93l0,0a23,23,0,0,0-1.72,4.16C14.33,47.83,23,53.6,23,53.6l.89.66c-1-.84-2.81-2.75-2.16-5.17a32.27,32.27,0,0,0,.1-9.57S37,41.22,43.5,34c.65,3.39,5.87,9.15,8,9.75,0,0-.32,3-.4,5.42a7.15,7.15,0,0,1-3.17,6c6.78-1.16,9-6.84,9.43-12.1C57,45.86,55.84,47.22,55.49,45.72Z"/></g><path class="cls-42" d="M32,46.78c-.17,1.87-1.28,3-2.94,2.77-1.4-.22-2.33-1.63-2.16-3.5s1.54-3.42,3-3.29S32.13,44.91,32,46.78Z"/><path class="cls-43" d="M32,46.78l0,.22a3.17,3.17,0,0,1-.11.59,3,3,0,0,1-.36.86,2.31,2.31,0,0,1-2.25,1.17A2.42,2.42,0,0,1,27.73,49a2.93,2.93,0,0,1-.86-1.51,4.5,4.5,0,0,1-.06-1.79A4.23,4.23,0,0,1,27.48,44a3.16,3.16,0,0,1,1.31-1.15,1.9,1.9,0,0,1,1.6,0,2.41,2.41,0,0,1,1,1A4.6,4.6,0,0,1,31.83,45,5.4,5.4,0,0,1,32,46a5.87,5.87,0,0,1,0,.6C32,46.71,32,46.78,32,46.78Zm0,0s0-.07,0-.21a4.2,4.2,0,0,0,0-.6,6.44,6.44,0,0,0-.15-.92,4.15,4.15,0,0,0-.46-1.12,2.4,2.4,0,0,0-1-1,1.72,1.72,0,0,0-1.5,0,3,3,0,0,0-1.22,1.11A4.13,4.13,0,0,0,27,45.71a4.38,4.38,0,0,0,0,1.73,3.14,3.14,0,0,0,.3.79,2.63,2.63,0,0,0,.49.66,2.23,2.23,0,0,0,1.39.63,2.17,2.17,0,0,0,2.22-1.08,3.23,3.23,0,0,0,.37-.86,4.62,4.62,0,0,0,.12-.58Z"/><path class="cls-42" d="M44.33,47.7c-.17,1.87-1.28,3-2.94,2.77-1.41-.22-2.33-1.63-2.16-3.5s1.54-3.42,3-3.29S44.5,45.83,44.33,47.7Z"/><path class="cls-43" d="M44.33,47.7s0,.08,0,.21a4.06,4.06,0,0,1-.11.59,3.58,3.58,0,0,1-.36.87,2.4,2.4,0,0,1-.85.86,2.32,2.32,0,0,1-1.4.3,2.38,2.38,0,0,1-1.48-.62,3,3,0,0,1-.86-1.51,4.69,4.69,0,0,1-.07-1.79,4.51,4.51,0,0,1,.68-1.68,3.13,3.13,0,0,1,1.31-1.14,1.9,1.9,0,0,1,1.6,0,2.55,2.55,0,0,1,1,1A4.6,4.6,0,0,1,44.2,46a6.39,6.39,0,0,1,.14.93,5.87,5.87,0,0,1,0,.6Zm0,0v-.21c0-.14,0-.34,0-.6a6.79,6.79,0,0,0-.15-.93,4.6,4.6,0,0,0-.46-1.11,2.34,2.34,0,0,0-1-1,1.75,1.75,0,0,0-1.5,0A3.12,3.12,0,0,0,40,45a4.13,4.13,0,0,0-.62,1.59,4.38,4.38,0,0,0,0,1.73,3.07,3.07,0,0,0,.3.78,2.15,2.15,0,0,0,.49.66,2.19,2.19,0,0,0,1.39.64A2.24,2.24,0,0,0,43,50.19a2.34,2.34,0,0,0,.85-.83,3.37,3.37,0,0,0,.37-.86,4.37,4.37,0,0,0,.12-.59C44.32,47.78,44.33,47.7,44.33,47.7Z"/><path class="cls-44" d="M31.2,46.4C31,47.86,30.12,49,29.15,48.83s-1.6-1.4-1.43-2.86,1.09-2.54,2.05-2.42S31.38,45,31.2,46.4Z"/><path class="cls-45" d="M31.2,46.4C31,47.86,30.12,49,29.15,48.83s-1.6-1.4-1.43-2.86,1.09-2.54,2.05-2.42S31.38,45,31.2,46.4Z"/><path class="cls-44" d="M30.78,46.45c-.13,1.11-.83,1.94-1.57,1.85S28,47.23,28.12,46.12s.83-1.94,1.57-1.85S30.91,45.34,30.78,46.45Z"/><path class="cls-46" d="M30.57,46.32c-.1.88-.66,1.53-1.24,1.46s-1-.84-.86-1.72.65-1.53,1.23-1.46S30.67,45.44,30.57,46.32Z"/><path class="cls-47" d="M27.79,45.56c0,.13-.05.27-.07.41-.17,1.46.47,2.74,1.43,2.86s1.88-1,2.05-2.43a2.56,2.56,0,0,0,0-.39A2.57,2.57,0,0,1,27.79,45.56Z"/><path class="cls-42" d="M29.28,45.52c-.09.45-.41.75-.7.69s-.46-.49-.37-.94.41-.75.7-.68S29.37,45.07,29.28,45.52Z"/><path class="cls-42" d="M28.79,46.89c-.05.21-.2.36-.34.32s-.21-.23-.17-.44.19-.36.33-.33S28.83,46.68,28.79,46.89Z"/><path class="cls-44" d="M43.68,47.32c-.17,1.46-1.09,2.54-2,2.42S40,48.35,40.19,46.89s1.09-2.54,2.05-2.42S43.85,45.86,43.68,47.32Z"/><path class="cls-45" d="M43.68,47.32c-.17,1.46-1.09,2.54-2,2.42S40,48.35,40.19,46.89s1.09-2.54,2.05-2.42S43.85,45.86,43.68,47.32Z"/><path class="cls-44" d="M43.25,47.37c-.13,1.11-.83,1.94-1.56,1.84s-1.23-1.06-1.1-2.17.83-1.94,1.57-1.85S43.38,46.25,43.25,47.37Z"/><path class="cls-46" d="M43,47.24c-.1.87-.65,1.53-1.24,1.45s-1-.84-.86-1.71.66-1.54,1.24-1.47S43.15,46.36,43,47.24Z"/><path class="cls-47" d="M40.27,46.47c0,.14-.06.28-.08.42-.17,1.46.48,2.73,1.44,2.85s1.88-1,2-2.42c0-.14,0-.27,0-.4A2.54,2.54,0,0,1,40.27,46.47Z"/><path class="cls-42" d="M41.75,46.44c-.09.44-.4.75-.7.68s-.45-.49-.36-.93.4-.76.7-.69S41.85,46,41.75,46.44Z"/><path class="cls-42" d="M41.26,47.8c0,.22-.19.36-.33.33s-.22-.23-.18-.44.19-.36.34-.33S41.3,47.59,41.26,47.8Z"/><path class="cls-43" d="M36,51.24a3.55,3.55,0,0,1-1.08,0,3.29,3.29,0,0,1-1-.46c-.15-.1-.53-.42-.26-.65a2.71,2.71,0,0,1,.41-.23,3.63,3.63,0,0,0,.82-.64s0-.09,0-.06c-.39.28-.82.52-1.23.78a.42.42,0,0,0-.15.53c.13.41.66.64,1,.8a1.81,1.81,0,0,0,1.51.08C36,51.4,36.07,51.24,36,51.24Z"/><path class="cls-39" d="M34.91,48.78a5.69,5.69,0,0,1-1.43,1.14c-.82.48-.63,1.46,1,2A1.58,1.58,0,0,0,36.55,51c.09-.5-1.26.86-2.7-.43-.31-.31-.19-.37.32-.68S35,49.25,34.91,48.78Z"/><path class="cls-39" d="M34,51.05a1.89,1.89,0,0,0,2,.19C35.85,51.77,34.78,52.33,34,51.05Z"/><path class="cls-8" d="M35.29,48.87a2,2,0,0,1-1.07,1.18c-.8.34.43,1,1.12.2S35.56,48,35.29,48.87Z"/><path class="cls-43" d="M26.43,48.51a1.21,1.21,0,0,1,.43,0,1.52,1.52,0,0,1,.44.08,1.73,1.73,0,0,1,.24.1c.08,0,.15.1.23.15L28,49c.05.07.1.15.15.21s.07.15.11.22,0,.14.06.2a1.8,1.8,0,0,1,.06.31,1.09,1.09,0,0,1,0,.12l-.05-.11a3,3,0,0,0-.13-.28l-.09-.17L28,49.29l-.15-.18L27.64,49a1.63,1.63,0,0,0-.4-.24,2.75,2.75,0,0,0-.4-.14,2.32,2.32,0,0,0-.3,0Z"/><path class="cls-43" d="M42.22,51.41a.77.77,0,0,1,0-.15,2.87,2.87,0,0,1,.13-.38c0-.08.08-.16.13-.24s.12-.17.19-.25a1.75,1.75,0,0,1,.24-.23,2,2,0,0,1,.28-.19c.1-.06.2-.1.3-.15l.32-.09.3,0h.27a3,3,0,0,1,.4,0l.15,0H44.8a3.67,3.67,0,0,0-.39,0l-.26,0-.28.07-.28.1a2.7,2.7,0,0,0-.54.31l-.23.2a2.05,2.05,0,0,0-.34.41c-.09.14-.16.26-.2.34Z"/><path class="cls-31" d="M39.38,43a6.3,6.3,0,0,1,6.08.7C44.62,41.07,41.93,40.51,39.38,43Z"/><path class="cls-32" d="M45.45,43.84l0,0a6.76,6.76,0,0,0-3.12-1.13,5.85,5.85,0,0,0-2.86.44.11.11,0,0,1-.13,0,.1.1,0,0,1,0-.13,4.72,4.72,0,0,1,3.62-1.65,3.09,3.09,0,0,1,2.63,2.39.1.1,0,0,1,0,.11A.08.08,0,0,1,45.45,43.84Zm-3.14-1.35a6.82,6.82,0,0,1,3,1,2.84,2.84,0,0,0-2.36-2,4.27,4.27,0,0,0-3.07,1.23A6.19,6.19,0,0,1,42.31,42.49Z"/><path class="cls-31" d="M26.75,42a5.26,5.26,0,0,1,5.6.78C31.67,40.14,28.49,39.68,26.75,42Z"/><path class="cls-32" d="M32.34,42.87l-.06,0a4.66,4.66,0,0,0-2.77-1.22,5.57,5.57,0,0,0-2.72.45.1.1,0,0,1-.12,0,.11.11,0,0,1,0-.12,3.6,3.6,0,0,1,3.15-1.52,3,3,0,0,1,2.64,2.33.13.13,0,0,1,0,.12A.09.09,0,0,1,32.34,42.87Zm-2.81-1.45a4.87,4.87,0,0,1,2.62,1,2.76,2.76,0,0,0-2.36-1.86,3.31,3.31,0,0,0-2.7,1.13A6,6,0,0,1,29.53,41.42Z"/><path class="cls-33" d="M31.9,41.77h0c-.12.09-.31,0-.43,0a4.1,4.1,0,0,0-1.33-.6c-.85-.1-1.69.31-2.52.13-.06,0-.06-.06,0-.1a3.78,3.78,0,0,0-.83.82,5.26,5.26,0,0,1,5.6.78A3.15,3.15,0,0,0,31.9,41.77Z"/><path class="cls-2" d="M22.11,43.79A2,2,0,0,0,19.93,43c-1.28.45-1.94,3-.88,4.6s2.49,1.16,2.8.75A28.18,28.18,0,0,0,22.11,43.79Z"/><path class="cls-38" d="M20.69,48.83h0A2.31,2.31,0,0,1,19,47.65a3.81,3.81,0,0,1-.33-3.23A2.32,2.32,0,0,1,19.9,42.9a1.76,1.76,0,0,1,.75-.09,2.34,2.34,0,0,1,1.54.92.07.07,0,0,1,0,.06A27.86,27.86,0,0,1,22,48.16l0,.2a.08.08,0,0,1,0,0A1.44,1.44,0,0,1,20.69,48.83ZM20.63,43a1.51,1.51,0,0,0-.66.09,2.08,2.08,0,0,0-1.15,1.38,3.63,3.63,0,0,0,.31,3.06,2.15,2.15,0,0,0,1.57,1.09,1.29,1.29,0,0,0,1.05-.32l0-.17A27.06,27.06,0,0,0,22,43.83,2.18,2.18,0,0,0,20.63,43Z"/><path class="cls-39" d="M22.11,43.79a2.56,2.56,0,0,0-1-.78.7.7,0,0,1-.15,1.15,4.32,4.32,0,0,1-.72.23A1.22,1.22,0,0,0,19.37,46a1.89,1.89,0,0,1,0,1.4,1,1,0,0,1-.27.3c1.05,1.47,2.41,1,2.71.63A28.18,28.18,0,0,0,22.11,43.79Z"/><path class="cls-2" d="M51.27,45.8a2,2,0,0,1,2.1-1.25c1.52.21,2.08,2,1.57,3.84S52.29,51.6,51,50.05C51.11,47.94,51.27,45.8,51.27,45.8Z"/><path class="cls-38" d="M52.2,50.83a1.88,1.88,0,0,1-1.26-.71.19.19,0,0,1,0-.07c.09-2.09.25-4.24.25-4.26a0,0,0,0,1,0,0,2.14,2.14,0,0,1,2.2-1.31,1.92,1.92,0,0,1,1.38.87,3.91,3.91,0,0,1,.28,3.1A3.08,3.08,0,0,1,52.2,50.83ZM51.13,50a1.55,1.55,0,0,0,1.09.6,2.87,2.87,0,0,0,2.62-2.25,3.69,3.69,0,0,0-.25-2.94,1.74,1.74,0,0,0-1.23-.77,1.92,1.92,0,0,0-2,1.16C51.36,46,51.21,48,51.13,50Z"/><path class="cls-39" d="M54.3,48.68a1.54,1.54,0,0,1,.12-.66,1.79,1.79,0,0,0-.23-1.44,3.13,3.13,0,0,0-1.15-1c-.47-.3-.67-.65-.17-1a2.09,2.09,0,0,0-1.6,1.25s-.16,2.14-.24,4.25c1.06,1.32,2.76.56,3.56-.84A.66.66,0,0,1,54.3,48.68Z"/><path class="cls-43" d="M38.91,52.82a.58.58,0,0,1-.27-.32s0-.1,0-.09a2,2,0,0,1,0-.24c0-.05-.07,0-.07,0a.72.72,0,0,0,0,.25,8.1,8.1,0,0,1-3.37.76,4.75,4.75,0,0,1-3.35-.69.6.6,0,0,0,.2-.14s.08-.15,0-.12-.15.1-.24.1a.25.25,0,0,1-.23-.08s-.06.05-.06.06.07.16.19.2h0A8.77,8.77,0,0,0,33,55.08a2.24,2.24,0,0,0,2.22.94c1.7-.24,2.38-2.21,3.29-3.38a.39.39,0,0,0,.29.32S39,52.85,38.91,52.82Z"/><path class="cls-42" d="M34.9,54.29c1.76-.14,2.41-.58,2.77-1.31a10.66,10.66,0,0,1-2.79.39,5.38,5.38,0,0,1-2.37-.27A2.4,2.4,0,0,0,34.9,54.29Z"/><path class="cls-48" d="M33.77,55.6a1.79,1.79,0,0,0,1.31.29,2.58,2.58,0,0,0,1.41-.66A3.16,3.16,0,0,0,33.77,55.6Z"/><path class="cls-49" d="M37.67,53c-.36.73-1,1.17-2.77,1.31a2.4,2.4,0,0,1-2.39-1.19,2.69,2.69,0,0,1-.72-.43c.53.93,1.06,2.32,2,2.93a3.16,3.16,0,0,1,2.72-.37,19.33,19.33,0,0,0,1.81-2.5A4.35,4.35,0,0,1,37.67,53Z"/><path class="cls-43" d="M20.34,44.75c-.65-.26-.81.59-.81,1,0,.05.06,0,.06,0,0-.55.26-1,.79-.77.22.1.35.39.46.59s.12.23.17.35a3.65,3.65,0,0,0-.62.89s0,.08,0,0,.23-.35.36-.52A1.31,1.31,0,0,1,21,46l0,0c.13.35.23.7.38,1.06,0,.08.12-.05.11-.1C21.46,46.26,21.07,45,20.34,44.75Z"/><path class="cls-50" d="M19.55,46.29c-.16-.51-.09-1.5.55-1.67.54,0,.91.51,1.11,1s.49,1.19.16,1.62C20.79,48,19.74,46.88,19.55,46.29Z"/><path class="cls-43" d="M53.16,46.2c.72-.29.9.65.91,1.11,0,.06-.07,0-.07,0,0-.6-.29-1.12-.87-.84a1.49,1.49,0,0,0-.51.65c-.06.13-.12.26-.17.39a3.91,3.91,0,0,1,.68,1s0,.08,0,0-.25-.39-.4-.57a3.22,3.22,0,0,0-.24-.28l-.05,0c-.14.39-.25.78-.4,1.17,0,.09-.14,0-.13-.1C52,47.89,52.37,46.52,53.16,46.2Z"/><path class="cls-50" d="M54.05,47.9c.18-.56.09-1.66-.62-1.84-.59,0-1,.58-1.21,1.08s-.52,1.32-.16,1.79C52.71,49.78,53.85,48.55,54.05,47.9Z"/><path class="cls-51" d="M43.5,34s.06-.13.18-.34.27-.52.45-.89c.1-.19.17-.4.27-.62s.19-.45.28-.69c.2-.48.36-1,.54-1.53.09-.26.16-.53.24-.79s.15-.52.21-.77c.12-.5.24-1,.32-1.38s.14-.74.18-1,.06-.38.06-.38Z"/><path class="cls-8" d="M25.05,48.77c-.42.15-.46.51,0,.91s1.12.51,1.59.89c.31.25.9,1.29,1.34,1.23.75-.1.46-1.31.26-1.71A2.7,2.7,0,0,0,25.05,48.77Z"/><path class="cls-8" d="M46.33,50.15c.39.22.36.58-.19.89s-1.19.3-1.72.59c-.35.19-1.11,1.1-1.54,1-.71-.23-.21-1.37,0-1.73A2.7,2.7,0,0,1,46.33,50.15Z"/><g class="cls-6"><path class="cls-52" d="M29.21,48.3c-2-.21-2.22-2.95-2.22-2.95h0a4.1,4.1,0,0,0-.12.7c-.17,1.87.76,3.28,2.16,3.5,1.66.26,2.77-.9,2.94-2.77a5.15,5.15,0,0,0,0-1.24C31.9,46.78,31.14,48.5,29.21,48.3Z"/></g><g class="cls-6"><path class="cls-52" d="M44.19,46.09c.13.84-.1,3.33-2.5,3.12-2-.17-2.29-2.34-2.32-3a3.65,3.65,0,0,0-.14.76c-.17,1.87.75,3.28,2.16,3.5,1.66.25,2.77-.9,2.94-2.77A5.27,5.27,0,0,0,44.19,46,.48.48,0,0,0,44.19,46.09Z"/></g><path class="cls-38" d="M29.77,42.23h.17a1.64,1.64,0,0,1,.44.11,1.74,1.74,0,0,1,.27.14,2.55,2.55,0,0,1,.28.21,3.32,3.32,0,0,1,.25.27,3.37,3.37,0,0,1,.21.31,1.73,1.73,0,0,1,.17.33,1.81,1.81,0,0,1,.13.34c0,.11.07.22.09.33s0,.2,0,.29,0,.34,0,.45a1.15,1.15,0,0,0,0,.17L31.83,45c0-.11-.06-.26-.11-.43l-.09-.28c0-.1-.08-.2-.11-.31a2.92,2.92,0,0,0-.14-.31l-.07-.17-.09-.15a3,3,0,0,0-.2-.29,1.38,1.38,0,0,0-.22-.26,2.41,2.41,0,0,0-.24-.21,1.6,1.6,0,0,0-.23-.16l-.22-.12-.18-.07Z"/><path class="cls-38" d="M39.51,45.79a2.52,2.52,0,0,1,.1-.61,4,4,0,0,1,.24-.61,3,3,0,0,1,.42-.62,2.2,2.2,0,0,1,.27-.26,1.91,1.91,0,0,1,.3-.22l.16-.08.16-.07.14,0,.15,0a1.29,1.29,0,0,1,.25,0h.37l-.16,0-.19,0-.24.08-.26.12-.14.07-.14.1-.14.09-.13.12a2,2,0,0,0-.25.25,3,3,0,0,0-.22.28,2.4,2.4,0,0,0-.19.29l-.16.29c-.05.09-.09.18-.13.26A4,4,0,0,0,39.51,45.79Z"/><path class="cls-43" d="M35.53,56.94a1.67,1.67,0,0,1-1.3,0s-.06,0,0,.06a1.45,1.45,0,0,0,1.3.11S35.6,56.92,35.53,56.94Z"/><path class="cls-37" d="M31.38,41.31A3,3,0,0,0,28,41s-.05.1,0,.08a3.53,3.53,0,0,1,3.26.3C31.39,41.44,31.47,41.38,31.38,41.31Z"/><g class="cls-6"><path class="cls-31" d="M44.13,41.84c.63.49,1,1.37.27.91a6,6,0,0,0-3.54-.58,2.32,2.32,0,0,1,.4-.42v0A6.2,6.2,0,0,0,39.38,43a6.3,6.3,0,0,1,6.08.7A3.42,3.42,0,0,0,44.13,41.84Z"/></g><path class="cls-37" d="M44.25,42.14a2.57,2.57,0,0,0-2.8-.39s-.07.1,0,.08a3.65,3.65,0,0,1,1.23-.11,7.26,7.26,0,0,1,1.59.54C44.32,42.28,44.32,42.19,44.25,42.14Z"/><path class="cls-53" d="M21.14,29.46s4.59-8.44,16.62-6.6c-7.2.9-12.94,5.85-7.43,4.44s3.4-.24-.11,2.27-.39,2.24,3.81,1.17.28,2.94-5.67,3.22,3,2.69,8.57,1.46c-5.24,2.45-12.7,2.95-16.94.38,4.26-.71,7.05-3.42,3-3.15s6.82-3.76,1.41-2.42S28.83,27.24,21.14,29.46Z"/><path class="cls-53" d="M48.67,36.05s4.8,3.59,3.79.48S52,34.72,53.81,36s.81-2.18-.36-4.34a10.82,10.82,0,0,1,3.26,8.58c-.87-2.55-1.91-3.8-1.72-.64s-2.45-3.23-1.59.13S52,40.87,48.67,36.05Z"/><path class="cls-3" d="M23.91,63.31c-.81.78-1.62,1.54-2.4,2.36h.24c-.56-1-1.2-2-1.83-3-.24-.37-.48-.74-.73-1.11L19,61.34s.31-.34.33-.38a5.82,5.82,0,0,0,.23-1.77,4,4,0,0,1,1.12-2.28c.75-.71-.1-1.18-.85-1S18.41,57.05,18,57.8c0-.07.15.09,0-.11l-.18-.26c-.15-.21-.29-.44-.43-.66-.23-.37-.51-.7-.75-1.06-.79-1.21-1.23-2.61-1.9-3.87-.24-.45-.62-1.12-1.23-.88-.81.31-.06,2,.1,2.46.25.74.56,1.46.85,2.18a3.38,3.38,0,0,1,.18.62c0,.08,0,.05-.07,0a4.07,4.07,0,0,1-.56-.54A26,26,0,0,0,11.38,53c-.5-.39-1.26-.42-1.2.42.05.64.75,1.27,1.13,1.72.54.63,1.07,1.28,1.56,1.95l.2.3c.09.14.14.14,0,.09a6.25,6.25,0,0,1-1.14-.61c-.73-.47-1.4-1-2.13-1.49-.32-.2-1.34-.65-1.41.1,0,.5.39.92.71,1.24a23.06,23.06,0,0,0,2.11,1.7l1.12.89.16-.07-1.61-.36a13.14,13.14,0,0,0-2.24-.48c-.78,0-.91.75-.44,1.25.79.83,2.41.78,3.44.89.42,0,.83.08,1.25.14H13a4.12,4.12,0,0,1,.42.48c.16.15.32.28.48.41a4.31,4.31,0,0,0,2.29,1A7.94,7.94,0,0,1,16.76,64c.22.59.4,1.2.57,1.81a26.18,26.18,0,0,0,1.07,3.28A2.79,2.79,0,0,0,20,70.79a3.55,3.55,0,0,0,2.65-.66A9.79,9.79,0,0,0,25,67.88a1.82,1.82,0,0,0,.33-.82c.1-.38.21-.75.32-1.13a1.23,1.23,0,0,0-.12-.72,3.21,3.21,0,0,0-1.45-1.91c-.05,0-.28,0-.2.06a3.45,3.45,0,0,1,1.52,2.24c.12.43-.2,1.05-.31,1.48a1.94,1.94,0,0,1-.43.9,8.94,8.94,0,0,1-2.62,2.32,2.63,2.63,0,0,1-2.07.36,2.24,2.24,0,0,1-1-1c-1.23-2-1.35-4.49-2.33-6.59-.09-.19-.19-.56-.43-.57A3.77,3.77,0,0,1,14.83,62a4.87,4.87,0,0,1-1-.73c-.19-.15-.46-.59-.67-.66a1.75,1.75,0,0,0-.4,0l-2.07-.22c-.8-.08-1.93-.2-2.42-.94a.77.77,0,0,1,0-.75c.21-.42,1.6.1,1.9.17.74.19,1.49.35,2.24.51,0,0,.24,0,.17-.08a32.57,32.57,0,0,1-3.46-2.83,1.63,1.63,0,0,1-.45-.77c-.08-.35.22-.55.54-.43a8.56,8.56,0,0,1,2,1.31c.12.08,2.14,1.51,2.27,1,.07-.27-.67-1-.8-1.16C12,55.7,11.43,55,10.88,54.32a1.87,1.87,0,0,1-.46-1c0-.55.46-.42.75-.21a10.43,10.43,0,0,1,1.42,1.4c.46.51.95,1,1.43,1.47.17.17.44.5.72.42.43-.11-.74-2.55-.82-2.76a7.41,7.41,0,0,1-.51-2.06.6.6,0,0,1,.15-.48c.25-.24.54.18.66.35,1,1.32,1.33,3,2.23,4.4.3.45.63.87.91,1.32.15.23.39.78.73.77s.44-.6.55-.76a3.79,3.79,0,0,1,.81-.93c.64-.51,1.84-.12,1.05.64a4.22,4.22,0,0,0-1.08,2c-.21.75.11,2-.62,2.49,0,0,0,0,0,0,.94,1.42,1.9,2.84,2.72,4.33,0,.07.2,0,.24,0,.77-.8,1.58-1.56,2.38-2.33C24.19,63.28,24,63.26,23.91,63.31Z"/><path class="cls-2" d="M24,63.33l-.52.5c-.91.83-1.87,1.85-1.87,1.85-.72-1.32-2.73-4.34-2.73-4.34.45-.27.47-.74.53-1.77a4.33,4.33,0,0,1,1.17-2.68c.54-.47.42-1-.56-1s-1.81,1.68-1.93,1.92-.92-1.29-1.29-1.7a13.08,13.08,0,0,1-1.55-2.91c-.72-1.65-1.16-2.35-1.58-2.28s-.61.38-.1,2,1.34,3.21,1.14,3.34-.84-.69-1.59-1.41-2.23-2.66-2.72-2,.53,1.61,1.29,2.55a11.07,11.07,0,0,1,1.55,2.12,3.87,3.87,0,0,1-1.64-.8c-1.61-1.11-2.57-2-3-1.54s.19,1.23,1.4,2.17,2.39,1.88,2.39,1.88-1.19-.25-2.24-.5S8.11,58.17,8,58.9s.63,1.32,2.62,1.52,2.41.26,2.41.26a4.78,4.78,0,0,0,3.18,1.87C17.77,65,18,70.66,20.38,70.79s4.74-3.2,4.74-3.2c.18-.78.49-1.8.49-1.8A3.43,3.43,0,0,0,24,63.33Z"/><g class="cls-4"><path class="cls-5" d="M24,63.33l-.52.5-.24.22h0s.74-.49,1.21.11c.83,1-1.64,4.33-2.19,3a1.74,1.74,0,0,1-1.16,2.53c-2.06.51-1.77-2.23-2.8-4.32s-1.27-2.83-.62-3.18a3.74,3.74,0,0,1-3.82-1.42,2.43,2.43,0,0,1,.19-3.7s-.27.24-1.12-.94a33.6,33.6,0,0,1-2.15-2.62c-.16-.38-.08-.61.14-.67-.22-.09-.4-.09-.52.08-.49.67.53,1.61,1.29,2.55a11.07,11.07,0,0,1,1.55,2.12c-.43.44-.27.61-.45,1-.26.59-2-1.37-3.1-2.12C9,56,8.62,55.44,8.78,55.16a.34.34,0,0,0-.16.1c-.44.47.19,1.23,1.4,2.17s2.39,1.88,2.39,1.88a.81.81,0,0,1,.47.65c.07.5-1.28,0-3-.22-1.37-.16-2-.79-1.53-1.22A.4.4,0,0,0,8,58.9c-.09.72.63,1.32,2.62,1.52s2.41.26,2.41.26a4.78,4.78,0,0,0,3.18,1.87C17.77,65,18,70.66,20.38,70.79s4.74-3.2,4.74-3.2c.18-.78.49-1.8.49-1.8A3.43,3.43,0,0,0,24,63.33Z"/></g><path class="cls-22" d="M21.29,65.07a2.79,2.79,0,0,1,.32.41,4.61,4.61,0,0,1,.29.46c.08.17.18.36.26.55s.07.2.11.29.06.2.09.29a3,3,0,0,1,.11.53c0,.31.05.52.05.52a4.75,4.75,0,0,1-.18-.49c-.05-.15-.13-.31-.19-.49s-.14-.37-.22-.56-.16-.37-.23-.55-.15-.34-.21-.48Z"/><path class="cls-22" d="M15.81,62.49l.28,0,.13,0h.3l.15,0,.31,0,.14,0,.13,0a1.68,1.68,0,0,1,.28,0,2,2,0,0,1-.23.17.52.52,0,0,1-.13.06l-.14.06-.16,0-.17,0h-.33l-.16,0-.13,0A1,1,0,0,1,15.81,62.49Z"/><path class="cls-22" d="M19.3,60.78a.47.47,0,0,1,0,.22.3.3,0,0,1,0,.1.39.39,0,0,1-.06.11.68.68,0,0,1-.18.2l-.11.08a.31.31,0,0,1-.12,0l-.12.05h-.1a.88.88,0,0,1-.23,0l.18-.12.08,0,.09-.07a1,1,0,0,0,.18-.13c.06,0,.11-.1.16-.14l.15-.15Z"/><path class="cls-3" d="M14.4,60.24a1.69,1.69,0,0,1,.48-.32l.26-.1.3-.08a2.93,2.93,0,0,1,.67-.06l.35,0,.32.06.3.09.26.1a2.75,2.75,0,0,1,.36.19l.14.09-.16,0c-.09,0-.22-.07-.39-.1L17,60l-.29,0-.31,0a1.72,1.72,0,0,0-.32,0h-.32c-.11,0-.22,0-.32,0s-.38.07-.54.1A3.66,3.66,0,0,0,14.4,60.24Z"/><path class="cls-3" d="M13.08,60.56a1.47,1.47,0,0,1-.11-.24,4,4,0,0,1-.2-.67,3.24,3.24,0,0,1,0-.46,2.26,2.26,0,0,1,0-.26,1.24,1.24,0,0,1,0-.27,1.27,1.27,0,0,1,.06-.28,1.13,1.13,0,0,1,.09-.28,2,2,0,0,1,.31-.5,2.19,2.19,0,0,1,.2-.22l.21-.2a4.38,4.38,0,0,1,.46-.33l.24-.13a1.22,1.22,0,0,1,.24-.1l.23-.08.23,0,.2,0h.36l.13,0,.26,0h-.39l-.16,0-.18,0-.19.06-.21.06-.21.09-.21.11L14.2,57l-.21.15-.21.18a1.75,1.75,0,0,0-.2.19c-.06.07-.13.13-.18.2a1.78,1.78,0,0,0-.28.45,2.34,2.34,0,0,0-.16.49c0,.09,0,.17,0,.25a2.32,2.32,0,0,0,0,.24c0,.16,0,.32,0,.45a5.37,5.37,0,0,0,.11.68A2.09,2.09,0,0,0,13.08,60.56Z"/><g class="cls-6"><path class="cls-7" d="M15.87,56.52c-.65-.18-.85-1.05-1.68-3.33-.48-1.32-.47-2-.23-2.17a.34.34,0,0,0-.27-.06c-.41.07-.61.38-.1,2s1.34,3.21,1.14,3.34a.1.1,0,0,1-.09,0,1.65,1.65,0,0,1,.13.29A3.16,3.16,0,0,1,15.87,56.52Z"/></g><g class="cls-6"><path class="cls-7" d="M20.13,56.63a3.23,3.23,0,0,0-1.19,2.68c-.06,1.3-.19,1.89-.74,2.35-.22.18.57-.29,2.53,3,.72,1.19,1.44,2.23,1.44,2.23l-.54-1.17c-.73-1.32-2.73-4.33-2.73-4.33.45-.27.47-.74.53-1.77a4.33,4.33,0,0,1,1.17-2.68c.47-.4.44-.85-.19-.94C20.5,56.11,20.45,56.35,20.13,56.63Z"/></g><path class="cls-24" d="M17.61,60.14a3.34,3.34,0,0,0-3.28.1A3.41,3.41,0,0,0,16,58.09,3.19,3.19,0,0,0,17.61,60.14Z"/><path class="cls-8" d="M14.11,57.27a2.16,2.16,0,0,0-.38,2.53c.33.54.28-1.64,2.24-2.4S15.27,56.22,14.11,57.27Z"/><path class="cls-9" d="M19.81,63.52c-1.29-1.44-2.41-.68-1.11.86s.73,3.67,1.78,4.37S23,67.05,19.81,63.52Z"/><path class="cls-9" d="M22.22,65.58c.21-.52,1.08-1.56,1.83-1.39S21.6,67.08,22.22,65.58Z"/></g></g></svg>