<?xml version="1.0" encoding="utf-8"?>
<!-- Generator: Adobe Illustrator 24.1.0, SVG Export Plug-In . SVG Version: 6.00 Build 0)  -->
<svg version="1.1" id="Capa_1" xmlns="http://www.w3.org/2000/svg" xmlns:xlink="http://www.w3.org/1999/xlink" x="0px" y="0px"
	 viewBox="0 0 414 414" style="enable-background:new 0 0 414 414;" xml:space="preserve">
<style type="text/css">
	.st0{clip-path:url(#SVGID_2_);}
	.st1{fill:url(#SVGID_3_);}
	.st2{fill:#93D1D7;}
	.st3{fill:#BEE1E5;}
	.st4{fill:#DBEEEF;}
	.st5{fill:#EFC411;}
	.st6{fill:#E3F2F4;}
	.st7{fill:#137376;}
	.st8{fill:#EFAA2F;}
	.st9{fill:#F4C165;}
	.st10{fill:#676665;}
	.st11{fill:#909091;}
	.st12{fill:#040A0A;}
	.st13{fill:#C39F69;}
	.st14{fill:#A07130;}
	.st15{fill:#684C23;}
	.st16{fill:#30845A;}
	.st17{fill:#7D4E24;stroke:#000000;stroke-width:2;stroke-miterlimit:10;}
	.st18{fill:#482812;}
	.st19{fill:#CA9E67;}
	.st20{fill:#936037;}
	.st21{fill:none;stroke:#000000;stroke-width:2;stroke-miterlimit:10;}
	.st22{fill:none;stroke:#000000;stroke-miterlimit:10;}
	.st23{fill:#165E60;}
	.st24{fill:none;stroke:#000000;stroke-width:1.5;stroke-miterlimit:10;}
	.st25{fill:#7D4E24;}
	.st26{fill:#188484;}
	.st27{fill:#1E6C6B;}
	.st28{fill:#AFAFAF;}
	.st29{fill:#BCBCBB;}
	.st30{fill:#D1D1D1;}
	.st31{fill:#DBD9D9;}
	.st32{fill:#E2E2E1;}
	.st33{fill:#EAEAEA;}
	.st34{fill:#E0E0E0;}
	.st35{fill:#C4C4C4;}
</style>
<g>
	<defs>
		<rect id="SVGID_1_" width="411.1" height="411.1"/>
	</defs>
	<clipPath id="SVGID_2_">
		<use xlink:href="#SVGID_1_"  style="overflow:visible;"/>
	</clipPath>
	<g class="st0">
		
			<linearGradient id="SVGID_3_" gradientUnits="userSpaceOnUse" x1="-827.23" y1="211.405" x2="3287.2998" y2="211.405" gradientTransform="matrix(1 0 0 -1 0 416)">
			<stop  offset="0" style="stop-color:#00A19A"/>
			<stop  offset="0.23" style="stop-color:#36A9E1"/>
			<stop  offset="0.49" style="stop-color:#1D71B8"/>
			<stop  offset="0.72" style="stop-color:#2D3387"/>
			<stop  offset="1" style="stop-color:#29235C"/>
		</linearGradient>
		<rect x="-827.2" y="-1.2" class="st1" width="4114.5" height="411.6"/>
		<path class="st2" d="M195.5,161.4c0,12.1-9.8,21.9-21.9,21.9s-21.9-9.8-21.9-21.9s9.8-21.9,21.9-21.9
			C185.7,139.6,195.5,149.4,195.5,161.4L195.5,161.4z"/>
		<path class="st3" d="M173.6,142.7c-10.3,0-18.7,8.4-18.7,18.7c0,10.3,8.4,18.7,18.7,18.7c10.3,0,18.7-8.4,18.7-18.7c0,0,0,0,0,0
			C192.3,151.1,183.9,142.7,173.6,142.7L173.6,142.7z"/>
		<path class="st4" d="M173.2,145.5c-8.6,0-15.5,6.9-15.5,15.5c0,8.6,6.9,15.5,15.5,15.5s15.5-6.9,15.5-15.5c0,0,0,0,0,0
			C188.7,152.4,181.8,145.5,173.2,145.5z"/>
		<path class="st5" d="M173.2,149c-6.6,0-12,5.4-12,12s5.4,12,12,12s12-5.4,12-12S179.8,149,173.2,149z"/>
		<path class="st6" d="M378.8,56.8h24.4c0,0,3.4-9.6-5.3-9.6c0,0-0.4-5.5-5.5-5.5c0,0-3.5,0-3.5,2.5c0,0-0.5-4.3-4.3-4.3
			c0,0-5.7,0.2-5.7,5.7c0,0-6.3-2-8.2,0c0,0-1.9,0.4-1.9,4.9c0,0-6.5,2.2-6.5,6.3H378.8z"/>
		<path class="st6" d="M272.9,193.7h24.3c0,0,3.3-9.6-5.2-9.6c0,0-0.4-5.5-5.4-5.5c0,0-3.5,0-3.5,2.5c0,0-0.5-4.3-4.3-4.3
			c0,0-5.6,0.2-5.6,5.7c0,0-6.2-1.9-8.2,0c0,0-1.9,0.4-1.9,4.9c0,0-6.5,2.2-6.5,6.3H272.9z"/>
		<path class="st6" d="M367.1,27.3c-19.3-4.2-21.3,0-21.3,0"/>
		<path class="st6" d="M344.1,27.1c-11.8-3.5-13,0-13,0"/>
		<path class="st6" d="M94.2,40.8c-19.3-4.2-21.3,0-21.3,0"/>
		<path class="st6" d="M71.2,40.6c-11.8-3.5-13,0-13,0"/>
		<path class="st7" d="M284,164.4c0,0,8.7-6.4,15.2,1.6l3.8-0.7l-2-1c0,0,4.4-6.5,9.2-4.1c0,0-5.1-4.1-10.9,0.9
			C299.4,161,289.6,156.4,284,164.4z"/>
		<path class="st7" d="M390.5,74.3c0,0-9-5-14.1,3.3l-3.6-0.2l1.7-1.2c0,0-5-5.6-9.1-2.7c0,0,4.3-4.5,10.3-0.5
			C375.6,72.9,384.3,67.5,390.5,74.3z"/>
		<path class="st6" d="M118.4,241.2h29.5c0,0,4-10-6.4-10c-0.3-3.4-3.2-5.9-6.6-5.7c0,0-4.2,0-4.2,2.6c-0.3-2.6-2.6-4.5-5.2-4.5
			c0,0-6.8,0.2-6.8,5.9c0,0-7.6-2.1-9.9,0c0,0-2.3,0.4-2.3,5.1c0,0-7.9,2.3-7.9,6.6L118.4,241.2z"/>
		<path class="st6" d="M74.3,82.3h19.9c0,0,2.7-7.8-4.3-7.8c0,0-0.3-4.5-4.5-4.5c0,0-2.8,0-2.8,2.1c0,0-0.4-3.5-3.5-3.5
			c0,0-4.6,0.1-4.6,4.6c0,0-5.1-1.6-6.7,0c0,0-1.6,0.3-1.6,4c0,0-5.3,1.8-5.3,5.1L74.3,82.3z"/>
		<path class="st6" d="M383.3,187.5c-15.2-4.2-16.8,0-16.8,0"/>
		<path class="st6" d="M238.8,44.5c-15.2-4.2-16.8,0-16.8,0"/>
		<path class="st6" d="M166.9,99.7c-17.7-4.9-19.5,0-19.5,0"/>
		<path class="st6" d="M145.9,99.5c-10.8-4.1-11.9,0-11.9,0"/>
		<path class="st6" d="M59,154.1c-17.7-4.9-19.5,0-19.5,0"/>
		<path class="st6" d="M38,153.9c-10.8-4.1-11.9,0-11.9,0"/>
		<path class="st6" d="M236.4,193.3c-17.7-4.9-19.5,0-19.5,0"/>
		<path class="st6" d="M284.7,101c-17.7-4.9-19.5,0-19.5,0"/>
		<path class="st6" d="M215.3,193.1c-10.8-4.1-11.9,0-11.9,0"/>
		<path class="st6" d="M110.7,168.2c-15.2-4.2-16.8,0-16.8,0"/>
		<path class="st7" d="M69.4,111.6c0,0,8.4-4,12.6,3.8h3.3l-1.5-1.2c0,0,4.8-4.8,8.4-2c0,0-3.6-4.3-9.3-1
			C83,111.2,75.5,105.8,69.4,111.6z"/>
		<rect x="413.8" y="325.8" class="st8" width="411.8" height="10.6"/>
		<rect x="413.8" y="335.8" class="st9" width="411.8" height="10.6"/>
		<rect x="413.8" y="347" class="st8" width="411.8" height="10.6"/>
		<rect x="413.8" y="357" class="st9" width="411.8" height="10.6"/>
		<rect x="413.8" y="368.1" class="st8" width="411.8" height="10.6"/>
		<rect x="413.8" y="378.1" class="st9" width="411.8" height="10.6"/>
		<rect x="413.8" y="389.3" class="st8" width="411.8" height="10.6"/>
		<rect x="413.8" y="399.3" class="st9" width="411.8" height="10.6"/>
		<rect x="0" y="325.8" class="st10" width="411.8" height="10.6"/>
		<rect x="0" y="335.8" class="st11" width="411.8" height="10.6"/>
		<rect x="0" y="347" class="st10" width="411.8" height="10.6"/>
		<rect x="0" y="357" class="st11" width="411.8" height="10.6"/>
		<rect x="0" y="368.1" class="st10" width="411.8" height="10.6"/>
		<rect x="0" y="378.1" class="st11" width="411.8" height="10.6"/>
		<rect x="0" y="389.3" class="st10" width="411.8" height="10.6"/>
		<rect x="0" y="399.3" class="st11" width="411.8" height="10.6"/>
		
			<rect x="420.3" y="268.7" transform="matrix(0.5339 -0.8455 0.8455 0.5339 -37.8107 484.8528)" class="st12" width="1.1" height="16.1"/>
		
			<rect x="420.6" y="281.5" transform="matrix(0.5339 -0.8455 0.8455 0.5339 -48.5647 491.0984)" class="st12" width="1.1" height="16.2"/>
		<rect x="412.4" y="269.1" class="st13" width="2.8" height="32.5"/>
		<rect x="412.4" y="269.1" class="st14" width="1.7" height="32.5"/>
		<rect x="412.3" y="269.1" class="st15" width="0.9" height="32.5"/>
		<path d="M415.4,302h-3.5v-33.3h3.5V302z M412.6,301.2h2v-31.8h-2V301.2z"/>
		<rect x="407" y="312.7" class="st16" width="412.9" height="9.7"/>
		<rect x="407" y="319.1" class="st17" width="176.9" height="11"/>
		<rect x="407.4" y="319.1" class="st18" width="176.7" height="3.4"/>
		<polygon class="st19" points="584.1,297.2 408.3,297.2 408.3,308.2 584.1,308.2 819.5,308.2 819.5,297.2 		"/>
		<polygon class="st20" points="583.9,305 583.8,305 408.1,305 408.1,319.1 583.8,319.1 583.9,319.1 819.2,319.1 819.2,305 		"/>
		<rect x="407.5" y="325.4" class="st18" width="235.4" height="4.2"/>
		<rect x="407.6" y="297.2" class="st21" width="176.2" height="21.5"/>
		<rect x="408.1" y="297.2" class="st22" width="22.9" height="21.9"/>
		<rect x="407.4" y="319.1" class="st21" width="176.7" height="11"/>
		<path class="st23" d="M-41.5,302.9H282L148.4,128.9c-13-16.9-37.3-20.1-54.2-7.1c-2.9,2.2-5.4,4.8-7.5,7.7L-41.5,302.9z"/>
		<path class="st23" d="M209.1,297.9h230.6l-95.2-108.7c-11.2-12.8-33.1-12.6-44,0.4L209.1,297.9z"/>
		<rect x="-4.3" y="312.7" class="st16" width="417.7" height="9.7"/>
		<rect x="-4.3" y="319.1" class="st17" width="179" height="11"/>
		<line class="st24" x1="29.2" y1="305" x2="9.5" y2="305"/>
		<rect x="-3.9" y="319.1" class="st18" width="178.8" height="3.4"/>
		<line class="st24" x1="42.5" y1="305" x2="34.5" y2="305"/>
		<polygon class="st19" points="174.9,297.2 -3,297.2 -3,308.2 174.9,308.2 413,308.2 413,297.2 		"/>
		<polygon class="st20" points="174.7,305 174.6,305 -3.2,305 -3.2,319.1 174.6,319.1 174.7,319.1 412.7,319.1 412.7,305 		"/>
		<rect x="175.3" y="319.1" class="st25" width="238.1" height="11"/>
		<rect x="174.9" y="319.2" class="st18" width="238.1" height="3.7"/>
		<rect x="174.8" y="325.4" class="st18" width="238.1" height="4.2"/>
		<rect x="-3.8" y="325.4" class="st18" width="238.1" height="4.2"/>
		<rect x="175.3" y="319.1" class="st21" width="237.4" height="11"/>
		<rect x="-3.7" y="297.2" class="st21" width="178.2" height="21.5"/>
		<rect x="203.7" y="297.2" class="st22" width="30.7" height="21.9"/>
		<rect x="143.4" y="297.2" class="st22" width="30.7" height="21.9"/>
		<rect x="112.6" y="297.2" class="st22" width="30.7" height="21.9"/>
		<rect x="81.8" y="297.2" class="st22" width="30.7" height="21.9"/>
		<rect x="50.9" y="297.2" class="st22" width="30.7" height="21.9"/>
		<rect x="20.1" y="297.2" class="st22" width="30.7" height="21.9"/>
		<rect x="-3.2" y="297.2" class="st22" width="23.1" height="21.9"/>
		<rect x="265.1" y="297.2" class="st22" width="30.7" height="21.9"/>
		<rect x="234.4" y="297.2" class="st22" width="30.7" height="21.9"/>
		<rect x="295.8" y="297.2" class="st22" width="30.7" height="21.9"/>
		<rect x="326.5" y="297.2" class="st22" width="30.7" height="21.9"/>
		<rect x="357.1" y="297.2" class="st22" width="30.7" height="21.9"/>
		<rect x="174.6" y="297.2" class="st21" width="238.1" height="32.8"/>
		<rect x="-3.9" y="319.1" class="st21" width="178.8" height="11"/>
		<path class="st26" d="M294.8,216.5h-3v-6.6h3c1.4,0.1,2.6-1,2.7-2.4s-1-2.6-2.4-2.7c-0.1,0-0.2,0-0.3,0h-2v-31.6h2.1v-1.5H292
			v-9.3h-3v-36.1c0-5.2-3.3-9.8-8.2-11.4v-9.7h0.4l0,0c0-2.2-1.6-4-3.8-4.2V86.8h1.9V86h-1.9v-2.5h-0.9V86h-1.8v0.8h1.9V101
			c-2,0.4-3.4,2.1-3.4,4.1l0,0h0.1v10c-5.5,2.3-8.5,8.2-7.1,14v33.3h-1.5v9.3h-3.6v1.5h1.9v22.4h-5.3v5c-3.9,3.3-11.7,6.1-19.4-13.3
			v-18.5h1c1.4,0,2.6-1.2,2.6-2.6c0-0.2,0-0.3,0-0.5l0,0h-0.1c-0.3-1.2-1.3-2-2.5-2h-1.7l-2.8-1.4v-6.7h1.3V154h-3.1v-2.1h1
			l-1.5-6.1c0.5-0.2,0.8-0.7,0.9-1.2c0-0.7-0.6-1.3-1.3-1.3s-1.3,0.6-1.3,1.3s0.6,1.3,1.3,1.3l0,0h0.1l-0.7,6.1h0.5v2.1h-4.7v-2.1h1
			l-1.5-6.1c0.7-0.1,1.2-0.8,1.1-1.5s-0.8-1.2-1.5-1.1s-1.2,0.8-1.1,1.5c0.1,0.6,0.5,1,1.1,1.1l-0.7,6.1h0.5v2.1h-2.8v1.5h1.1v1.8
			l-15.3-7.3v-8.9h-4.4v-9.1c0.8-0.3,1.4-0.9,1.6-1.6h2.1v-1.7h-2.1c-0.3-0.8-0.9-1.4-1.6-1.6v-3.4h-1.8v3.4
			c-0.7,0.3-1.3,0.9-1.5,1.6h-2.3v1.7h2.3c0.2,0.7,0.8,1.3,1.5,1.6v9.2h-4.2v8.8l-15.1,7.2v-1.6h1.3V154h-3v-2.3h0.8l-0.7-5.9
			c0.7-0.1,1.2-0.8,1.1-1.5c-0.1-0.7-0.8-1.2-1.5-1.1s-1.2,0.8-1.1,1.5c0.1,0.5,0.5,1,1.1,1.1l-1.4,5.9h0.7v2.3h-4.7v-2.3h0.9
			l-0.7-5.9c0.7-0.1,1.2-0.7,1.1-1.4c-0.1-0.7-0.7-1.2-1.4-1.1c-0.6,0.1-1.1,0.6-1.1,1.3c0,0.6,0.4,1.1,1,1.2l-1.4,5.9h0.8v2.3h-2.9
			v1.5h1.1v6.5l-3.2,1.5h-1.8c-1.2,0-2.2,0.8-2.5,2l0,0c0,0.2,0,0.3-0.1,0.5c0,1.4,1.1,2.6,2.6,2.6h1.1V191
			c-7.6,16.2-14.9,12.5-18.4,9.2v-4.7h-4v-22.3h1.3v-1.5h-4.2v-9.3h-1.5v-36.1c0-4.9-2.9-9.3-7.4-11.1v-10h0.4l0,0
			c0-2.1-1.6-3.9-3.7-4.1V86.8h1.9V86h-1.9v-2.5h-0.9V86h-1.9v0.8h1.9V101c-2.1,0.3-3.6,2.1-3.6,4.1l0,0h0.1v9.7
			c-5.9,2-9.3,8.2-7.8,14.2v33.3H117v9.3h-2.3v1.5h2.3v0.7h0.4v30.8h-3c-1.4-0.1-2.6,1-2.7,2.4c-0.1,1.4,1,2.6,2.4,2.7
			c0.1,0,0.2,0,0.3,0h3.3v6.6h-3.3c-1.4,0-2.6,1.1-2.6,2.6v1.8c0,1.4,1.2,2.6,2.6,2.6h3.3v72.3h174v-72.3h3c1.4,0,2.6-1.1,2.6-2.6
			v-1.8C297.3,217.7,296.2,216.5,294.8,216.5z M195.1,186.5c0-5,4-9,9-9s9,4,9,9v18.3h-17.8v-16.1
			C195.2,188,195.1,187.2,195.1,186.5L195.1,186.5z M283.4,184.2v16h-12.3v-16h0.1c0.3-3.3,3.3-5.8,6.7-5.5
			C280.8,179,283.1,181.3,283.4,184.2L283.4,184.2z M277.5,114.3c-0.5,0-1,0-1.5,0.1v-9.3h2.2v9.2
			C277.9,114.3,277.7,114.3,277.5,114.3L277.5,114.3z M279.9,114.6c-0.3-0.1-0.6-0.1-0.9-0.2v-9.3h0.9L279.9,114.6z M274.2,105.1
			h0.9v9.4c-0.3,0.1-0.6,0.2-0.9,0.2V105.1z M272.9,146c-0.1-2.3,1.7-4.3,4-4.4c2.3-0.1,4.3,1.7,4.4,4c0,0.1,0,0.3,0,0.4v16.4H273
			V147C272.9,146.6,272.9,146.3,272.9,146L272.9,146z M131.3,114.3c-0.2,0-0.5,0-0.7,0v-9.2h2.2v9.3
			C132.3,114.3,131.8,114.3,131.3,114.3L131.3,114.3z M134.5,114.8c-0.3-0.1-0.6-0.2-0.9-0.2v-9.4h0.9V114.8z M128.8,105.1h0.9v9.3
			c-0.3,0-0.6,0.1-0.9,0.2V105.1z M126.7,146c-0.1-2.3,1.7-4.3,4-4.4c2.3-0.1,4.3,1.7,4.4,4c0,0.1,0,0.3,0,0.4v16.4h-8.3V147
			C126.8,146.6,126.7,146.3,126.7,146L126.7,146z M139,184.1v16h-12.2v-16l0,0c0.3-3.3,3.3-5.8,6.7-5.5c2.9,0.3,5.2,2.6,5.5,5.5H139
			z"/>
		<rect x="-5.1" y="287" class="st27" width="417.8" height="10.2"/>
		<polyline class="st21" points="345.5,297.8 348.7,290.7 355.9,290.6 359.2,297.8 		"/>
		<polyline class="st21" points="386.2,297.8 389.5,290.7 396.7,290.6 400,297.8 		"/>
		<rect x="353.5" y="283.2" class="st28" width="46.5" height="3.8"/>
		<rect x="353.5" y="280.3" class="st29" width="46.5" height="4.4"/>
		<rect x="353.5" y="278.3" class="st30" width="46.5" height="4"/>
		<rect x="353.5" y="276.3" class="st31" width="46.5" height="4"/>
		<rect x="353.5" y="273.6" class="st32" width="46.5" height="4.7"/>
		<rect x="353.5" y="271.8" class="st33" width="46.5" height="4.5"/>
		<rect x="353.5" y="271.8" class="st21" width="46.5" height="15.3"/>
		<rect x="344.3" y="287.3" class="st34" width="47" height="3.3"/>
		<rect x="344.3" y="289.4" class="st35" width="47.2" height="1.2"/>
		<rect x="344" y="287.3" class="st35" width="47.5" height="1.2"/>
		<rect x="344.3" y="287.2" class="st21" width="47.2" height="3.4"/>
		<rect x="387.9" y="287.3" class="st34" width="12" height="3.3"/>
		<rect x="387.9" y="289.4" class="st35" width="12.1" height="1.2"/>
		<rect x="387.8" y="287.4" class="st35" width="12.2" height="1.2"/>
		<rect x="387.9" y="287.2" class="st21" width="12.1" height="3.4"/>
		<rect x="397.1" y="271.9" class="st34" width="2.6" height="15.3"/>
		<rect x="398.7" y="271.8" class="st35" width="1" height="15.4"/>
		<rect x="397.2" y="271.8" class="st35" width="1" height="15.5"/>
		<rect x="397.1" y="271.8" class="st21" width="2.7" height="15.4"/>
		<path d="M389.2,286.3L389.2,286.3z"/>
		<path d="M389.2,286.3L389.2,286.3z"/>
		<polyline class="st21" points="280.8,297.8 284.1,290.7 291.3,290.6 294.5,297.8 		"/>
		<polyline class="st21" points="321.5,297.8 324.8,290.7 332,290.6 335.3,297.8 		"/>
		<rect x="288.8" y="283.2" class="st28" width="46.5" height="3.8"/>
		<rect x="288.8" y="280.3" class="st29" width="46.5" height="4.4"/>
		<rect x="288.8" y="278.3" class="st30" width="46.5" height="4"/>
		<rect x="288.8" y="276.3" class="st31" width="46.5" height="4"/>
		<rect x="288.8" y="273.6" class="st32" width="46.5" height="4.7"/>
		<rect x="288.8" y="271.8" class="st33" width="46.5" height="4.5"/>
		<rect x="288.8" y="271.8" class="st21" width="46.5" height="15.3"/>
		<rect x="279.6" y="287.3" class="st34" width="47" height="3.3"/>
		<rect x="279.6" y="289.4" class="st35" width="47.2" height="1.2"/>
		<rect x="279.3" y="287.3" class="st35" width="47.5" height="1.2"/>
		<rect x="279.6" y="287.2" class="st21" width="47.2" height="3.4"/>
		<rect x="323.2" y="287.3" class="st34" width="12" height="3.3"/>
		<rect x="323.2" y="289.4" class="st35" width="12.1" height="1.2"/>
		<rect x="323.1" y="287.4" class="st35" width="12.2" height="1.2"/>
		<rect x="323.2" y="287.2" class="st21" width="12.1" height="3.4"/>
		<rect x="332.5" y="271.9" class="st34" width="2.6" height="15.3"/>
		<rect x="334.1" y="271.8" class="st35" width="1" height="15.4"/>
		<rect x="332.5" y="271.8" class="st35" width="1" height="15.5"/>
		<rect x="332.4" y="271.8" class="st21" width="2.7" height="15.4"/>
		<path d="M324.5,286.3L324.5,286.3z"/>
		<path d="M324.5,286.3L324.5,286.3z"/>
		<polyline class="st21" points="80.5,297.8 77.2,290.7 70,290.6 66.7,297.8 		"/>
		<polyline class="st21" points="39.7,297.8 36.5,290.7 29.3,290.6 26,297.8 		"/>
		<rect x="26" y="283.2" class="st28" width="46.5" height="3.8"/>
		<rect x="26" y="280.3" class="st29" width="46.5" height="4.4"/>
		<rect x="26" y="278.3" class="st30" width="46.5" height="4"/>
		<rect x="26" y="276.3" class="st31" width="46.5" height="4"/>
		<rect x="26" y="273.6" class="st32" width="46.5" height="4.7"/>
		<rect x="26" y="271.8" class="st33" width="46.5" height="4.5"/>
		<rect x="26" y="271.8" class="st21" width="46.5" height="15.3"/>
		<rect x="34.7" y="287.3" class="st34" width="47" height="3.3"/>
		<rect x="34.5" y="289.4" class="st35" width="47.2" height="1.2"/>
		<rect x="34.5" y="287.3" class="st35" width="47.5" height="1.2"/>
		<rect x="34.5" y="287.2" class="st21" width="47.2" height="3.4"/>
		<rect x="26" y="287.3" class="st34" width="12" height="3.3"/>
		<rect x="26" y="289.4" class="st35" width="12.1" height="1.2"/>
		<rect x="26" y="287.4" class="st35" width="12.2" height="1.2"/>
		<rect x="26" y="287.2" class="st21" width="12.1" height="3.4"/>
		<rect x="26.2" y="271.9" class="st34" width="2.6" height="15.3"/>
		<rect x="26.2" y="271.8" class="st35" width="1" height="15.4"/>
		<rect x="27.8" y="271.8" class="st35" width="1" height="15.5"/>
		<rect x="26.2" y="271.8" class="st21" width="2.7" height="15.4"/>
		<path d="M36.8,286.3L36.8,286.3z"/>
		<path d="M36.8,286.3L36.8,286.3z"/>
		<polyline class="st21" points="145.1,297.8 141.9,290.7 134.7,290.6 131.4,297.8 		"/>
		<polyline class="st21" points="104.4,297.8 101.2,290.7 93.9,290.6 90.7,297.8 		"/>
		<rect x="90.7" y="283.2" class="st28" width="46.5" height="3.8"/>
		<rect x="90.7" y="280.3" class="st29" width="46.5" height="4.4"/>
		<rect x="90.7" y="278.3" class="st30" width="46.5" height="4"/>
		<rect x="90.7" y="276.3" class="st31" width="46.5" height="4"/>
		<rect x="90.7" y="273.6" class="st32" width="46.5" height="4.7"/>
		<rect x="90.7" y="271.8" class="st33" width="46.5" height="4.5"/>
		<rect x="90.7" y="271.8" class="st21" width="46.5" height="15.3"/>
		<rect x="99.3" y="287.3" class="st34" width="47" height="3.3"/>
		<rect x="99.1" y="289.4" class="st35" width="47.2" height="1.2"/>
		<rect x="99.1" y="287.3" class="st35" width="47.5" height="1.2"/>
		<rect x="99.1" y="287.2" class="st21" width="47.2" height="3.4"/>
		<rect x="90.7" y="287.3" class="st34" width="12" height="3.3"/>
		<rect x="90.7" y="289.4" class="st35" width="12.1" height="1.2"/>
		<rect x="90.7" y="287.4" class="st35" width="12.2" height="1.2"/>
		<rect x="90.7" y="287.2" class="st21" width="12.1" height="3.4"/>
		<rect x="90.9" y="271.9" class="st34" width="2.6" height="15.3"/>
		<rect x="90.9" y="271.8" class="st35" width="1" height="15.4"/>
		<rect x="92.5" y="271.8" class="st35" width="1" height="15.5"/>
		<rect x="90.8" y="271.8" class="st21" width="2.7" height="15.4"/>
		<path d="M101.5,286.3L101.5,286.3z"/>
		<path d="M101.4,286.3L101.4,286.3z"/>
	</g>
</g>
</svg>
