<?xml version="1.0" encoding="utf-8"?>
<!-- Generator: Adobe Illustrator 24.1.0, SVG Export Plug-In . SVG Version: 6.00 Build 0)  -->
<svg version="1.1" id="Capa_1" xmlns="http://www.w3.org/2000/svg" xmlns:xlink="http://www.w3.org/1999/xlink" x="0px" y="0px"
	 viewBox="0 0 414 414" style="enable-background:new 0 0 414 414;" xml:space="preserve">
<style type="text/css">
	.st0{clip-path:url(#SVGID_2_);}
	.st1{fill:url(#SVGID_3_);}
	.st2{fill:#E3F2F4;}
	.st3{fill:#93D1D7;}
	.st4{fill:#BEE1E5;}
	.st5{fill:#DBEEEF;}
	.st6{fill:#EFC411;}
	.st7{fill:#137376;}
	.st8{fill:#456FA1;}
	.st9{fill:none;stroke:#5488BB;stroke-width:3;stroke-miterlimit:10;}
	.st10{fill:#3D6492;}
	.st11{fill:#2A4D78;}
	.st12{fill:#1B646C;}
	.st13{fill:#1C6D7A;}
	.st14{fill:none;stroke:#000000;stroke-width:1.5;stroke-miterlimit:10;}
	.st15{fill:none;stroke:#000000;stroke-miterlimit:10;}
	.st16{fill:#30845A;}
	.st17{fill:#7D4E24;stroke:#000000;stroke-width:2;stroke-miterlimit:10;}
	.st18{fill:#482812;}
	.st19{fill:#CA9E67;}
	.st20{fill:#936037;}
	.st21{fill:none;stroke:#000000;stroke-width:2;stroke-miterlimit:10;}
	.st22{fill:#BCBCBB;}
	.st23{fill:none;stroke:#000000;stroke-width:0.75;stroke-miterlimit:10;}
	.st24{fill:#909091;}
	.st25{fill:#BCBCBB;stroke:#000000;stroke-miterlimit:10;}
	.st26{fill:#777777;}
</style>
<g>
	<defs>
		<rect id="SVGID_1_" width="410.8" height="414"/>
	</defs>
	<clipPath id="SVGID_2_">
		<use xlink:href="#SVGID_1_"  style="overflow:visible;"/>
	</clipPath>
	<g class="st0">
		
			<linearGradient id="SVGID_3_" gradientUnits="userSpaceOnUse" x1="-416.14" y1="208.175" x2="3698.3896" y2="208.175" gradientTransform="matrix(1 0 0 -1 0 416)">
			<stop  offset="0" style="stop-color:#00A19A"/>
			<stop  offset="0.23" style="stop-color:#36A9E1"/>
			<stop  offset="0.49" style="stop-color:#1D71B8"/>
			<stop  offset="0.72" style="stop-color:#2D3387"/>
			<stop  offset="1" style="stop-color:#29235C"/>
		</linearGradient>
		<rect x="-416.1" y="2" class="st1" width="4114.5" height="411.6"/>
		<path class="st2" d="M32.6,122.2h19.9c0,0,2.7-7.8-4.3-7.8c0,0-0.3-4.5-4.5-4.5c0,0-2.8,0-2.8,2.1c0,0-0.4-3.5-3.5-3.5
			c0,0-4.6,0.1-4.6,4.6c0,0-5.1-1.6-6.7,0c0,0-1.6,0.3-1.6,4c0,0-5.3,1.8-5.3,5.1L32.6,122.2z"/>
		<path class="st3" d="M207.6,112.2c0,12.1-9.8,21.9-21.9,21.9s-21.9-9.8-21.9-21.9s9.8-21.9,21.9-21.9
			C197.8,90.3,207.6,100.1,207.6,112.2L207.6,112.2z"/>
		<path class="st4" d="M204.4,112.2c0,10.3-8.4,18.7-18.7,18.7c-10.3,0-18.7-8.4-18.7-18.7s8.4-18.7,18.7-18.7
			S204.4,101.9,204.4,112.2L204.4,112.2z"/>
		<path class="st5" d="M201.2,112.2c0,8.6-6.9,15.5-15.5,15.5s-15.5-6.9-15.5-15.5c0-8.6,6.9-15.5,15.5-15.5
			S201.2,103.6,201.2,112.2C201.2,112.2,201.2,112.2,201.2,112.2z"/>
		<path class="st6" d="M197.7,112.2c0,6.6-5.4,12-12,12s-12-5.4-12-12s5.4-12,12-12l0,0C192.3,100.2,197.7,105.6,197.7,112.2z"/>
		<path class="st2" d="M192.4,69h24.3c0,0,3.3-9.6-5.2-9.6c0,0-0.4-5.5-5.4-5.5c0,0-3.5,0-3.5,2.5c0,0-0.5-4.3-4.3-4.3
			c0,0-5.6,0.2-5.6,5.7c0,0-6.2-2-8.2,0c0,0-1.9,0.4-1.9,4.9c0,0-6.5,2.2-6.5,6.3H192.4z"/>
		<path class="st2" d="M302.5,263.7h29.5c0,0,4-10-6.4-10c-0.3-3.4-3.2-5.9-6.6-5.7c0,0-4.2,0-4.2,2.6c-0.3-2.6-2.6-4.5-5.2-4.5
			c0,0-6.8,0.2-6.8,5.9c0,0-7.6-2-9.9,0c0,0-2.3,0.4-2.3,5.1c0,0-7.9,2.3-7.9,6.6L302.5,263.7z"/>
		<path class="st2" d="M335.6,114.4h19.9c0,0,2.7-7.8-4.3-7.8c0,0-0.3-4.5-4.5-4.5c0,0-2.8,0-2.8,2.1c0,0-0.4-3.5-3.5-3.5
			c0,0-4.6,0.1-4.6,4.6c0,0-5.1-1.6-6.7,0c0,0-1.6,0.3-1.6,4c0,0-5.3,1.8-5.3,5.1L335.6,114.4z"/>
		<path class="st2" d="M99.3,30.5c-19.3-4.2-21.3,0-21.3,0"/>
		<path class="st2" d="M76.3,30.4c-11.8-3.5-13,0-13,0"/>
		<path class="st2" d="M37.7,215.5c-15.2-4.2-16.8,0-16.8,0"/>
		<path class="st2" d="M360,39.2c-15.2-4.2-16.8,0-16.8,0"/>
		<path class="st2" d="M111.4,207.8c-8.2-3.1-9.1,0-9.1,0"/>
		<path class="st2" d="M360,153.6c-17.7-4.9-19.5,0-19.5,0"/>
		<path class="st2" d="M339,153.4c-10.8-4.1-11.9,0-11.9,0"/>
		<path class="st2" d="M184.5,230.4c-10.4-2.9-11.5,0-11.5,0"/>
		<path class="st2" d="M164.7,191.1c-6.4-2.4-7,0-7,0"/>
		<path class="st2" d="M286.8,49.3c-15.2-4.2-16.8,0-16.8,0"/>
		<path class="st7" d="M16.2,167.6c0,0,8.7-6.4,15.2,1.6l3.8-0.7l-2-1c0,0,4.5-6.6,9.2-4.1c0,0-5-4.1-10.9,0.9
			C31.5,164.2,21.8,159.6,16.2,167.6z"/>
		<path class="st7" d="M373.5,219.5c0,0,4.6-2.2,7,2.1h1.8l-0.8-0.7c0,0,2.6-2.6,4.6-1.1c-1.3-1.4-3.5-1.7-5.1-0.6
			C381,219.3,376.8,216.3,373.5,219.5z"/>
		<path class="st7" d="M122.7,77.5c0,0-9-5-14.2,3.3l-3.6-0.2l1.7-1.2c0,0-5-5.6-9.1-2.7c0,0,4.3-4.5,10.3-0.5
			C107.8,76.2,116.4,70.7,122.7,77.5z"/>
		<path class="st7" d="M252,114.8c0,0,8.4-4,12.6,3.8h3.4l-1.5-1.2c0,0,4.8-4.8,8.4-2c0,0-3.6-4.3-9.3-1
			C265.5,114.4,258,109,252,114.8z"/>
		<rect x="-1.3" y="330.6" class="st8" width="412.9" height="82.5"/>
		<path class="st9" d="M15.2,345.5c0,3-3.7,6.4-8.2,6.4"/>
		<path class="st9" d="M31.6,345.5c0,3-3.7,6.4-8.2,6.4s-8.2-3.3-8.2-6.4"/>
		<path class="st9" d="M48,345.5c0,3-3.7,6.4-8.2,6.4s-8.2-3.3-8.2-6.4"/>
		<path class="st9" d="M64.3,345.5c0,3-3.7,6.4-8.2,6.4s-8.2-3.3-8.2-6.4"/>
		<path class="st9" d="M80.7,345.5c0,3-3.7,6.4-8.2,6.4s-8.2-3.3-8.2-6.4"/>
		<path class="st9" d="M97.3,345.5c0,3-3.7,6.4-8.2,6.4s-8.2-3.3-8.2-6.4"/>
		<path class="st9" d="M113.8,345.7c0,3-3.7,6.4-8.2,6.4s-8.2-3.3-8.2-6.4"/>
		<path class="st9" d="M130.2,345.7c0,3-3.7,6.4-8.2,6.4s-8.2-3.3-8.2-6.4"/>
		<path class="st9" d="M130.2,345.7c0,3,3.7,6.4,8.2,6.4"/>
		<path class="st9" d="M15,358.6c0,3.1-3.7,6.5-8.2,6.5"/>
		<path class="st9" d="M31.4,358.6c0,3.1-3.7,6.5-8.2,6.5s-8.2-3.4-8.2-6.5"/>
		<path class="st9" d="M47.8,358.6c0,3.1-3.7,6.5-8.2,6.5s-8.2-3.4-8.2-6.5"/>
		<path class="st9" d="M64.1,358.6c0,3.1-3.7,6.5-8.2,6.5s-8.2-3.4-8.2-6.5"/>
		<path class="st9" d="M80.5,358.6c0,3.1-3.7,6.5-8.2,6.5s-8.2-3.4-8.2-6.5"/>
		<path class="st9" d="M97.1,358.7c0,3.1-3.7,6.5-8.2,6.5s-8.2-3.4-8.2-6.5"/>
		<path class="st9" d="M113.6,358.8c0,3.1-3.7,6.5-8.2,6.5s-8.2-3.4-8.2-6.5"/>
		<path class="st9" d="M130,358.8c0,3.1-3.7,6.5-8.2,6.5s-8.2-3.4-8.2-6.5"/>
		<path class="st9" d="M130,358.8c0,3.1,3.7,6.5,8.2,6.5"/>
		<path class="st9" d="M146.4,345.5c0,3-3.7,6.4-8.2,6.4"/>
		<path class="st9" d="M162.9,345.5c0,3-3.7,6.4-8.2,6.4s-8.2-3.3-8.2-6.4"/>
		<path class="st9" d="M179.3,345.5c0,3-3.7,6.4-8.2,6.4s-8.2-3.3-8.2-6.4"/>
		<path class="st9" d="M195.6,345.5c0,3-3.7,6.4-8.2,6.4s-8.2-3.3-8.2-6.4"/>
		<path class="st9" d="M212,345.5c0,3-3.7,6.4-8.2,6.4s-8.2-3.3-8.2-6.4"/>
		<path class="st9" d="M228.6,345.5c0,3-3.7,6.4-8.2,6.4s-8.2-3.3-8.2-6.4"/>
		<path class="st9" d="M245,345.7c0,3-3.7,6.4-8.2,6.4s-8.2-3.3-8.2-6.4"/>
		<path class="st9" d="M261.5,345.7c0,3-3.7,6.4-8.2,6.4s-8.2-3.3-8.2-6.4"/>
		<path class="st9" d="M261.5,345.7c0,3,3.7,6.4,8.2,6.4"/>
		<path class="st9" d="M146.2,358.6c0,3.1-3.7,6.5-8.2,6.5"/>
		<path class="st9" d="M162.7,358.6c0,3.1-3.7,6.5-8.2,6.5s-8.2-3.4-8.2-6.5"/>
		<path class="st9" d="M179.1,358.6c0,3.1-3.7,6.5-8.2,6.5s-8.2-3.4-8.2-6.5"/>
		<path class="st9" d="M195.4,358.6c0,3.1-3.7,6.5-8.2,6.5s-8.2-3.4-8.2-6.5"/>
		<path class="st9" d="M211.8,358.6c0,3.1-3.7,6.5-8.2,6.5s-8.2-3.4-8.2-6.5"/>
		<path class="st9" d="M228.4,358.7c0,3.1-3.7,6.5-8.2,6.5s-8.2-3.4-8.2-6.5"/>
		<path class="st9" d="M244.8,358.8c0,3.1-3.7,6.5-8.2,6.5s-8.2-3.4-8.2-6.5"/>
		<path class="st9" d="M261.3,358.8c0,3.1-3.7,6.5-8.2,6.5s-8.2-3.4-8.2-6.5"/>
		<path class="st9" d="M261.3,358.8c0,3.1,3.7,6.5,8.2,6.5"/>
		<path class="st9" d="M277.7,345.5c0,3-3.7,6.4-8.2,6.4"/>
		<path class="st9" d="M294.1,345.5c0,3-3.7,6.4-8.2,6.4s-8.2-3.3-8.2-6.4"/>
		<path class="st9" d="M310.6,345.5c0,3-3.7,6.4-8.2,6.4s-8.2-3.3-8.2-6.4"/>
		<path class="st9" d="M326.9,345.5c0,3-3.7,6.4-8.2,6.4s-8.2-3.3-8.2-6.4"/>
		<path class="st9" d="M343.3,345.5c0,3-3.7,6.4-8.2,6.4s-8.2-3.3-8.2-6.4"/>
		<path class="st9" d="M359.9,345.5c0,3-3.7,6.4-8.2,6.4s-8.2-3.3-8.2-6.4"/>
		<path class="st9" d="M376.3,345.7c0,3-3.7,6.4-8.2,6.4s-8.2-3.3-8.2-6.4"/>
		<path class="st9" d="M392.8,345.7c0,3-3.7,6.4-8.2,6.4s-8.2-3.3-8.2-6.4"/>
		<path class="st9" d="M392.8,345.7c0,3,3.7,6.4,8.2,6.4"/>
		<path class="st9" d="M277.5,358.6c0,3.1-3.7,6.5-8.2,6.5"/>
		<path class="st9" d="M293.9,358.6c0,3.1-3.7,6.5-8.2,6.5s-8.2-3.4-8.2-6.5"/>
		<path class="st9" d="M310.4,358.6c0,3.1-3.7,6.5-8.2,6.5s-8.2-3.4-8.2-6.5"/>
		<path class="st9" d="M326.7,358.6c0,3.1-3.7,6.5-8.2,6.5s-8.2-3.4-8.2-6.5"/>
		<path class="st9" d="M343,358.6c0,3.1-3.7,6.5-8.2,6.5s-8.2-3.4-8.2-6.5"/>
		<path class="st9" d="M359.7,358.7c0,3.1-3.7,6.5-8.2,6.5s-8.2-3.4-8.2-6.5"/>
		<path class="st9" d="M376.1,358.8c0,3.1-3.7,6.5-8.2,6.5s-8.2-3.4-8.2-6.5"/>
		<path class="st9" d="M392.5,358.8c0,3.1-3.7,6.5-8.2,6.5s-8.2-3.4-8.2-6.5"/>
		<path class="st9" d="M392.5,358.8c0,3.1,3.7,6.5,8.2,6.5"/>
		<path class="st10" d="M46.2,402.6c15.7,7.3,17.3,0,17.3,0"/>
		<path class="st10" d="M63,402.9c9.6,6.1,10.6,0,10.6,0"/>
		<path class="st11" d="M330.4,374.2c-12.8-7.3-14.1,0-14.1,0"/>
		<path class="st11" d="M316.7,373.9c-7.8-6.1-8.6,0-8.6,0"/>
		<path class="st10" d="M330.4,374.2c-12.8-7.3-14.1,0-14.1,0"/>
		<path class="st10" d="M316.7,373.9c-7.8-6.1-8.6,0-8.6,0"/>
		<path class="st10" d="M222.7,403.7c-8.7-4.9-9.6,0-9.6,0"/>
		<path class="st10" d="M213.4,403.5c-5.3-4.1-5.8,0-5.8,0"/>
		<path class="st9" d="M357.7,355.4l2.1,1.2C358.8,356.8,357.9,356.6,357.7,355.4z"/>
		<path class="st9" d="M15.2,374.6c0,3-3.7,6.4-8.2,6.4"/>
		<path class="st9" d="M31.6,374.6c0,3-3.7,6.4-8.2,6.4s-8.2-3.3-8.2-6.4"/>
		<path class="st9" d="M48,374.6c0,3-3.7,6.4-8.2,6.4s-8.2-3.3-8.2-6.4"/>
		<path class="st9" d="M64.3,374.6c0,3-3.7,6.4-8.2,6.4s-8.2-3.3-8.2-6.4"/>
		<path class="st9" d="M80.7,374.6c0,3-3.7,6.4-8.2,6.4s-8.2-3.3-8.2-6.4"/>
		<path class="st9" d="M97.3,374.6c0,3-3.7,6.4-8.2,6.4s-8.2-3.3-8.2-6.4"/>
		<path class="st9" d="M113.8,374.8c0,3-3.7,6.4-8.2,6.4s-8.2-3.3-8.2-6.4"/>
		<path class="st9" d="M130.2,374.8c0,3-3.7,6.4-8.2,6.4s-8.2-3.3-8.2-6.4"/>
		<path class="st9" d="M130.2,374.8c0,3,3.7,6.4,8.2,6.4"/>
		<path class="st9" d="M15,387.7c0,3.1-3.7,6.5-8.2,6.5"/>
		<path class="st9" d="M31.4,387.7c0,3.1-3.7,6.5-8.2,6.5s-8.2-3.4-8.2-6.5"/>
		<path class="st9" d="M47.8,387.7c0,3.1-3.7,6.5-8.2,6.5s-8.2-3.4-8.2-6.5"/>
		<path class="st9" d="M64.1,387.7c0,3.1-3.7,6.5-8.2,6.5s-8.2-3.4-8.2-6.5"/>
		<path class="st9" d="M80.5,387.7c0,3.1-3.7,6.5-8.2,6.5s-8.2-3.4-8.2-6.5"/>
		<path class="st9" d="M97.1,387.8c0,3.1-3.7,6.5-8.2,6.5s-8.2-3.4-8.2-6.5"/>
		<path class="st9" d="M113.6,387.9c0,3.1-3.7,6.5-8.2,6.5s-8.2-3.4-8.2-6.5"/>
		<path class="st9" d="M130,387.9c0,3.1-3.7,6.5-8.2,6.5s-8.2-3.4-8.2-6.5"/>
		<path class="st9" d="M130,387.9c0,3.1,3.7,6.5,8.2,6.5"/>
		<path class="st9" d="M146.4,374.6c0,3-3.7,6.4-8.2,6.4"/>
		<path class="st9" d="M162.9,374.6c0,3-3.7,6.4-8.2,6.4s-8.2-3.3-8.2-6.4"/>
		<path class="st9" d="M179.3,374.6c0,3-3.7,6.4-8.2,6.4s-8.2-3.3-8.2-6.4"/>
		<path class="st9" d="M195.6,374.6c0,3-3.7,6.4-8.2,6.4s-8.2-3.3-8.2-6.4"/>
		<path class="st9" d="M212,374.6c0,3-3.7,6.4-8.2,6.4s-8.2-3.3-8.2-6.4"/>
		<path class="st9" d="M228.6,374.6c0,3-3.7,6.4-8.2,6.4s-8.2-3.3-8.2-6.4"/>
		<path class="st9" d="M245,374.8c0,3-3.7,6.4-8.2,6.4s-8.2-3.3-8.2-6.4"/>
		<path class="st9" d="M261.5,374.8c0,3-3.7,6.4-8.2,6.4s-8.2-3.3-8.2-6.4"/>
		<path class="st9" d="M261.5,374.8c0,3,3.7,6.4,8.2,6.4"/>
		<path class="st9" d="M146.2,387.7c0,3.1-3.7,6.5-8.2,6.5"/>
		<path class="st9" d="M162.7,387.7c0,3.1-3.7,6.5-8.2,6.5s-8.2-3.4-8.2-6.5"/>
		<path class="st9" d="M179.1,387.7c0,3.1-3.7,6.5-8.2,6.5s-8.2-3.4-8.2-6.5"/>
		<path class="st9" d="M195.4,387.7c0,3.1-3.7,6.5-8.2,6.5s-8.2-3.4-8.2-6.5"/>
		<path class="st9" d="M211.8,387.7c0,3.1-3.7,6.5-8.2,6.5s-8.2-3.4-8.2-6.5"/>
		<path class="st9" d="M228.4,387.8c0,3.1-3.7,6.5-8.2,6.5s-8.2-3.4-8.2-6.5"/>
		<path class="st9" d="M244.8,387.9c0,3.1-3.7,6.5-8.2,6.5s-8.2-3.4-8.2-6.5"/>
		<path class="st9" d="M261.3,387.9c0,3.1-3.7,6.5-8.2,6.5s-8.2-3.4-8.2-6.5"/>
		<path class="st9" d="M261.3,387.9c0,3.1,3.7,6.5,8.2,6.5"/>
		<path class="st9" d="M277.7,374.6c0,3-3.7,6.4-8.2,6.4"/>
		<path class="st9" d="M294.1,374.6c0,3-3.7,6.4-8.2,6.4s-8.2-3.3-8.2-6.4"/>
		<path class="st9" d="M310.6,374.6c0,3-3.7,6.4-8.2,6.4s-8.2-3.3-8.2-6.4"/>
		<path class="st9" d="M326.9,374.6c0,3-3.7,6.4-8.2,6.4s-8.2-3.3-8.2-6.4"/>
		<path class="st9" d="M343.3,374.6c0,3-3.7,6.4-8.2,6.4s-8.2-3.3-8.2-6.4"/>
		<path class="st9" d="M359.9,374.6c0,3-3.7,6.4-8.2,6.4s-8.2-3.3-8.2-6.4"/>
		<path class="st9" d="M376.3,374.8c0,3-3.7,6.4-8.2,6.4s-8.2-3.3-8.2-6.4"/>
		<path class="st9" d="M392.8,374.8c0,3-3.7,6.4-8.2,6.4s-8.2-3.3-8.2-6.4"/>
		<path class="st9" d="M392.8,374.8c0,3,3.7,6.4,8.2,6.4"/>
		<path class="st9" d="M277.5,387.7c0,3.1-3.7,6.5-8.2,6.5"/>
		<path class="st9" d="M293.9,387.7c0,3.1-3.7,6.5-8.2,6.5s-8.2-3.4-8.2-6.5"/>
		<path class="st9" d="M310.4,387.7c0,3.1-3.7,6.5-8.2,6.5s-8.2-3.4-8.2-6.5"/>
		<path class="st9" d="M326.7,387.7c0,3.1-3.7,6.5-8.2,6.5s-8.2-3.4-8.2-6.5"/>
		<path class="st9" d="M343,387.7c0,3.1-3.7,6.5-8.2,6.5s-8.2-3.4-8.2-6.5"/>
		<path class="st9" d="M359.7,387.8c0,3.1-3.7,6.5-8.2,6.5s-8.2-3.4-8.2-6.5"/>
		<path class="st9" d="M376.1,387.9c0,3.1-3.7,6.5-8.2,6.5s-8.2-3.4-8.2-6.5"/>
		<path class="st9" d="M392.5,387.9c0,3.1-3.7,6.5-8.2,6.5s-8.2-3.4-8.2-6.5"/>
		<path class="st9" d="M392.5,387.9c0,3.1,3.7,6.5,8.2,6.5"/>
		<path class="st9" d="M357.7,384.5l2.1,1.2C358.8,385.9,357.9,385.8,357.7,384.5z"/>
		<rect x="412.1" y="331.3" class="st10" width="412.6" height="83.1"/>
		<rect x="411" y="270.1" class="st12" width="412.1" height="50.1"/>
		<rect x="411" y="255" class="st13" width="412.1" height="50.1"/>
		<line class="st14" x1="27.8" y1="308.2" x2="8.3" y2="308.2"/>
		<line class="st14" x1="40.9" y1="308.2" x2="33" y2="308.2"/>
		<rect x="79.7" y="300.4" class="st15" width="30.3" height="21.9"/>
		<rect x="18.8" y="300.4" class="st15" width="30.3" height="21.9"/>
		<rect x="321.6" y="300.5" class="st15" width="30.3" height="21.9"/>
		<rect x="406.8" y="316" class="st16" width="412.9" height="9.7"/>
		<rect x="406.8" y="322.3" class="st17" width="176.9" height="11"/>
		<rect x="407.1" y="322.3" class="st18" width="176.8" height="3.4"/>
		<polygon class="st19" points="583.9,300.4 408,300.4 408,311.4 583.9,311.4 819.3,311.4 819.3,300.4 		"/>
		<polygon class="st20" points="583.7,308.2 583.6,308.2 407.9,308.2 407.9,322.3 583.6,322.3 583.7,322.3 819,322.3 819,308.2 		
			"/>
		<rect x="407.3" y="328.7" class="st18" width="235.4" height="4.2"/>
		<rect x="407.4" y="300.4" class="st21" width="176.2" height="21.5"/>
		<rect x="407.9" y="300.4" class="st15" width="22.9" height="21.9"/>
		<rect x="407.1" y="322.3" class="st21" width="176.8" height="11"/>
		<polygon class="st22" points="147.2,300.7 98.2,251.7 49.2,202.7 47.9,204.1 64.9,221.1 64.9,221.1 96.8,253.1 128.8,285 
			128.8,285 145.8,302 		"/>
		<polygon class="st23" points="147.2,300.7 98.2,251.7 49.2,202.7 47.9,204.1 64.9,221.1 64.9,221.1 96.8,253.1 128.8,285 
			128.8,285 145.8,302 		"/>
		<polygon class="st23" points="468.6,300.7 419.6,251.7 370.7,202.7 369.3,204.1 386.3,221.1 386.3,221.1 418.3,253.1 450.2,285 
			450.2,285 467.2,302 		"/>
		<polygon class="st22" points="262.2,301.2 311.2,252.2 360.2,203.2 361.5,204.6 344.5,221.6 344.5,221.6 312.6,253.6 280.6,285.5 
			280.6,285.5 263.6,302.5 		"/>
		<polygon class="st23" points="262.2,301.2 311.2,252.2 360.2,203.2 361.5,204.6 344.5,221.6 344.5,221.6 312.6,253.6 280.6,285.5 
			280.6,285.5 263.6,302.5 		"/>
		<polygon class="st23" points="-59.2,301.2 -10.2,252.2 38.7,203.2 40.1,204.6 23.1,221.6 23.1,221.6 -8.9,253.6 -40.8,285.5 
			-40.8,285.5 -57.8,302.5 		"/>
		<rect x="35.9" y="202.8" class="st24" width="13.6" height="99.6"/>
		<rect x="358.6" y="202.8" class="st24" width="13.6" height="99.6"/>
		<rect x="358.6" y="202.8" class="st22" width="4.6" height="99.6"/>
		<rect x="36.5" y="202.5" class="st22" width="4.6" height="99.6"/>
		<rect x="35.9" y="202.8" class="st15" width="13.6" height="99.6"/>
		<rect x="35.9" y="318.5" class="st24" width="13.6" height="99.6"/>
		<rect x="36.5" y="318.2" class="st22" width="4.6" height="99.6"/>
		<rect x="35.9" y="318.5" class="st15" width="13.6" height="99.6"/>
		<rect x="358.6" y="202.8" class="st15" width="13.6" height="99.6"/>
		<rect x="358.6" y="322.4" class="st24" width="13.6" height="99.6"/>
		<rect x="358.6" y="322.4" class="st22" width="4.6" height="99.6"/>
		<rect x="358.6" y="322.4" class="st15" width="13.6" height="99.6"/>
		<rect x="27.7" y="310.7" class="st25" width="28.3" height="28.3"/>
		<rect x="351.3" y="311.2" class="st25" width="28.3" height="28.3"/>
		<rect x="-5.3" y="316" class="st16" width="422.5" height="9.7"/>
		<rect x="-5.3" y="322.3" class="st24" width="181" height="11"/>
		<rect x="-5" y="322.3" class="st26" width="180.8" height="3.4"/>
		<polygon class="st22" points="175.9,300.4 -4,300.4 -4,311.4 175.9,311.4 416.7,311.4 416.7,300.4 		"/>
		<polygon class="st24" points="175.7,308.2 175.6,308.2 -4.2,308.2 -4.2,322.3 175.6,322.3 175.7,322.3 416.5,322.3 416.5,308.2 		
			"/>
		<rect x="176.3" y="322.3" class="st24" width="240.8" height="11"/>
		<rect x="175.9" y="322.5" class="st26" width="240.9" height="3.7"/>
		<rect x="175.8" y="328.7" class="st26" width="240.9" height="4.2"/>
		<rect x="-4.8" y="328.7" class="st26" width="240.9" height="4.2"/>
		<rect x="176.3" y="322.3" class="st21" width="240.2" height="11"/>
		<rect x="-4.7" y="300.4" class="st21" width="180.3" height="21.5"/>
		<rect x="205" y="300.4" class="st15" width="31" height="21.9"/>
		<rect x="144.1" y="300.4" class="st15" width="31" height="21.9"/>
		<rect x="112.9" y="300.4" class="st15" width="31" height="21.9"/>
		<rect x="50.5" y="300.4" class="st15" width="31" height="21.9"/>
		<rect x="-4.2" y="300.4" class="st15" width="23.4" height="21.9"/>
		<rect x="267.1" y="300.5" class="st15" width="31" height="21.9"/>
		<rect x="236.1" y="300.4" class="st15" width="31" height="21.9"/>
		<rect x="298.2" y="300.5" class="st15" width="31" height="21.9"/>
		<rect x="360.2" y="300.4" class="st15" width="31" height="21.9"/>
		<rect x="175.6" y="300.4" class="st21" width="240.9" height="32.8"/>
		<rect x="-5" y="322.3" class="st21" width="180.8" height="11"/>
	</g>
</g>
</svg>
