<?xml version="1.0" encoding="utf-8"?>
<!-- Generator: Adobe Illustrator 24.1.0, SVG Export Plug-In . SVG Version: 6.00 Build 0)  -->
<svg version="1.1" id="Capa_1" xmlns="http://www.w3.org/2000/svg" xmlns:xlink="http://www.w3.org/1999/xlink" x="0px" y="0px"
	 viewBox="0 0 414 414" style="enable-background:new 0 0 414 414;" xml:space="preserve">
<style type="text/css">
	.st0{clip-path:url(#SVGID_2_);}
	.st1{fill:url(#SVGID_3_);}
	.st2{fill:none;stroke:#FFFFFF;stroke-miterlimit:10;}
	.st3{fill:#30845A;}
	.st4{fill:#7D4E24;stroke:#000000;stroke-width:2;stroke-miterlimit:10;}
	.st5{fill:#CA9E67;}
	.st6{fill:#936037;}
	.st7{fill:#7D4E24;}
	.st8{fill:#482812;}
	.st9{fill:none;stroke:#000000;stroke-width:2;stroke-miterlimit:10;}
	.st10{fill:none;stroke:#000000;stroke-miterlimit:10;}
	.st11{fill:none;stroke:#000000;stroke-width:1.5;stroke-miterlimit:10;}
	.st12{clip-path:url(#SVGID_5_);}
	.st13{fill:url(#SVGID_6_);}
	.st14{fill:#1D8487;}
	.st15{fill:#137376;}
	.st16{fill:#93D1D7;}
	.st17{fill:#BEE1E5;}
	.st18{fill:#DBEEEF;}
	.st19{fill:#EFC411;}
	.st20{fill:#E3F2F4;}
	.st21{fill:#BCBCBB;}
	.st22{fill:#909091;}
	.st23{fill:#136660;}
	.st24{fill:#0C5B57;}
	.st25{fill:#AFAFAF;}
	.st26{fill:#D1D1D1;}
	.st27{fill:#DBD9D9;}
	.st28{fill:#E2E2E1;}
	.st29{fill:#EAEAEA;}
	.st30{fill:#E0E0E0;}
	.st31{fill:#C4C4C4;}
</style>
<g>
	<defs>
		<rect id="SVGID_1_" x="-3472.3" width="414" height="414"/>
	</defs>
	<clipPath id="SVGID_2_">
		<use xlink:href="#SVGID_1_"  style="overflow:visible;"/>
	</clipPath>
	<g class="st0">
		
			<linearGradient id="SVGID_3_" gradientUnits="userSpaceOnUse" x1="-3472.3401" y1="210.175" x2="642.1897" y2="210.175" gradientTransform="matrix(1 0 0 -1 0 416)">
			<stop  offset="0" style="stop-color:#00A19A"/>
			<stop  offset="0.23" style="stop-color:#36A9E1"/>
			<stop  offset="0.49" style="stop-color:#1D71B8"/>
			<stop  offset="0.72" style="stop-color:#2D3387"/>
			<stop  offset="1" style="stop-color:#29235C"/>
		</linearGradient>
		<rect x="-3472.3" class="st1" width="4114.5" height="411.6"/>
		<rect x="-172.1" y="0.6" class="st2" width="412.9" height="409.7"/>
		<rect x="-177.5" y="314" class="st3" width="412.9" height="9.7"/>
		<rect x="-177.5" y="320.3" class="st4" width="176.9" height="11"/>
		<polygon class="st5" points="-0.4,298.4 -176.3,298.4 -176.3,309.4 -0.4,309.4 235,309.4 235,298.4 		"/>
		<polygon class="st6" points="-0.6,306.2 -0.7,306.2 -176.5,306.2 -176.5,320.3 -0.7,320.3 -0.6,320.3 234.7,320.3 234.7,306.2 		
			"/>
		<rect x="0" y="320.3" class="st7" width="235.4" height="11"/>
		<rect x="-0.4" y="320.5" class="st8" width="235.4" height="3.7"/>
		<rect x="-0.5" y="326.7" class="st8" width="235.4" height="4.2"/>
		<rect x="-177.1" y="326.7" class="st8" width="235.4" height="4.2"/>
		<rect x="0" y="320.3" class="st9" width="234.7" height="11"/>
		<rect x="-176.9" y="298.4" class="st9" width="176.2" height="21.5"/>
		<rect x="28.1" y="298.4" class="st10" width="30.3" height="21.9"/>
		<rect x="88.8" y="298.5" class="st10" width="30.3" height="21.9"/>
		<rect x="58.4" y="298.4" class="st10" width="30.3" height="21.9"/>
		<rect x="119.1" y="298.5" class="st10" width="30.3" height="21.9"/>
		<rect x="149.4" y="298.5" class="st10" width="30.3" height="21.9"/>
		<rect x="179.8" y="298.4" class="st10" width="30.3" height="21.9"/>
		<rect x="-0.7" y="298.4" class="st9" width="235.4" height="32.8"/>
		<rect x="-177.2" y="320.3" class="st9" width="176.8" height="11"/>
		<rect x="233.8" y="314" class="st3" width="406.9" height="9.7"/>
		<rect x="233.8" y="320.3" class="st4" width="174.3" height="11"/>
		<line class="st11" x1="266.4" y1="306.2" x2="247.2" y2="306.2"/>
		<rect x="234.1" y="320.3" class="st8" width="174.2" height="3.4"/>
		<line class="st11" x1="279.3" y1="306.2" x2="271.5" y2="306.2"/>
		<polygon class="st5" points="408.3,298.4 235,298.4 235,309.4 408.3,309.4 640.3,309.4 640.3,298.4 		"/>
		<polygon class="st6" points="408.1,306.2 408,306.2 234.8,306.2 234.8,320.3 408,320.3 408.1,320.3 640,320.3 640,306.2 		"/>
		<rect x="408.7" y="320.3" class="st7" width="232" height="11"/>
		<rect x="408.3" y="320.5" class="st8" width="232" height="3.7"/>
		<rect x="408.2" y="326.7" class="st8" width="232" height="4.2"/>
		<rect x="234.2" y="326.7" class="st8" width="232" height="4.2"/>
		<rect x="408.7" y="320.3" class="st9" width="231.3" height="11"/>
		<rect x="234.4" y="298.4" class="st9" width="173.6" height="21.5"/>
		<rect x="377.7" y="298.4" class="st10" width="29.9" height="21.9"/>
		<rect x="347.6" y="298.4" class="st10" width="29.9" height="21.9"/>
		<rect x="317.6" y="298.4" class="st10" width="29.9" height="21.9"/>
		<rect x="287.5" y="298.4" class="st10" width="29.9" height="21.9"/>
		<rect x="257.5" y="298.4" class="st10" width="29.9" height="21.9"/>
		<rect x="234.8" y="298.4" class="st10" width="22.5" height="21.9"/>
		<rect x="408" y="298.4" class="st9" width="232" height="32.8"/>
		<rect x="234.1" y="320.3" class="st9" width="174.2" height="11"/>
	</g>
</g>
<g>
	<defs>
		<rect id="SVGID_4_" width="414" height="414"/>
	</defs>
	<clipPath id="SVGID_5_">
		<use xlink:href="#SVGID_4_"  style="overflow:visible;"/>
	</clipPath>
	<g class="st12">
		
			<linearGradient id="SVGID_6_" gradientUnits="userSpaceOnUse" x1="0" y1="210.175" x2="4114.5298" y2="210.175" gradientTransform="matrix(1 0 0 -1 0 416)">
			<stop  offset="0" style="stop-color:#00A19A"/>
			<stop  offset="0.23" style="stop-color:#36A9E1"/>
			<stop  offset="0.49" style="stop-color:#1D71B8"/>
			<stop  offset="0.72" style="stop-color:#2D3387"/>
			<stop  offset="1" style="stop-color:#29235C"/>
		</linearGradient>
		<rect class="st13" width="4114.5" height="411.6"/>
		<path class="st14" d="M412.6,298.4h116.4l-48-54.9c-5.6-6.4-16.7-6.3-22.2,0.2L412.6,298.4z"/>
		<path class="st15" d="M48.8,258.5c-0.4-1.5-6.6-1-10.9,0.1c-0.6,0.2-1.3,0.4-2,0.6c0.9-1,1.8-2,2.6-3c3.1-4,6.3-10.5,5-11.5
			s-6.8,3.6-9.9,7.7c-0.9,1.2-1.8,2.4-2.5,3.7c0.1-0.9,0.1-1.8,0.1-2.6c0-4.4-1.2-10.5-2.7-10.5h-0.1c-1.5,0-2.7,6.1-2.7,10.5
			c0,0.8,0,1.7,0.1,2.6c-0.8-1.3-1.6-2.5-2.5-3.7c-3.1-4-8.6-8.7-9.9-7.7s1.8,7.5,5,11.5c0.8,1,1.7,2,2.6,3c-0.7-0.2-1.4-0.5-2-0.6
			c-4.3-1.2-10.5-1.6-10.9-0.1s5.2,4.2,9.4,5.4c0.9,0.2,1.9,0.5,2.9,0.6l-0.3,0.1c-3.3,0.9-7.7,3.1-7.4,4.3s5.2,0.8,8.5-0.2
			c2.2-0.7,4.2-1.7,6.1-3c-0.7,7.9-0.6,51.4-0.5,62.3c0,1.3,2.7,0,3.6,0s-0.4-28.4-0.4-41.3c0-9.3,0.3-17.3-0.3-21.1
			c1.9,1.3,3.9,2.3,6.1,3c3.3,0.9,8.2,1.3,8.5,0.2s-4-3.3-7.3-4.3l-0.3-0.1c1-0.2,2-0.4,2.9-0.6C43.6,262.7,49.2,259.9,48.8,258.5z"
			/>
		<path class="st15" d="M92.9,265.6c-0.4-1.3-5.9-0.9-9.8,0.1c-0.6,0.1-1.2,0.3-1.8,0.6c0.8-0.9,1.6-1.8,2.3-2.6
			c2.8-3.6,5.7-9.4,4.5-10.4s-6.1,3.3-8.9,6.9c-0.7,1-1.5,2.1-2.2,3.3c0.1-0.8,0.1-1.6,0.1-2.3c0-4-1.1-9.5-2.4-9.5h-0.1
			c-1.3,0-2.4,5.5-2.4,9.5c0,0.7,0,1.5,0.1,2.3c-0.7-1.1-1.4-2.2-2.3-3.3c-2.8-3.6-7.7-7.9-8.9-6.9s1.7,6.7,4.5,10.3
			c0.7,0.9,1.5,1.8,2.3,2.6c-0.6-0.2-1.2-0.4-1.8-0.6c-3.8-1-9.4-1.4-9.8-0.1s4.7,3.8,8.5,4.8c0.8,0.2,1.7,0.4,2.6,0.6l-0.3,0.1
			c-3,0.8-6.9,2.8-6.6,3.8s4.6,0.7,7.6-0.2c2-0.6,3.8-1.5,5.5-2.7c-0.6,7-0.6,46.2-0.5,55.9c0,1.2,2.4,0,3.2,0s-0.4-25.5-0.4-37
			c0-8.3,0.2-15.5-0.2-18.9c1.7,1.2,3.5,2.1,5.5,2.7c3,0.8,7.3,1.2,7.6,0.2s-3.6-3-6.6-3.8l-0.3-0.1c0.9-0.2,1.8-0.4,2.6-0.6
			C88.2,269.4,93.3,266.9,92.9,265.6z"/>
		<path class="st15" d="M155.3,262.5c-0.4-1.5-6.6-1-10.9,0.1c-0.6,0.2-1.3,0.4-2,0.6c0.9-1,1.8-2,2.6-3c3.1-4,6.3-10.5,5-11.5
			s-6.8,3.6-9.9,7.7c-0.9,1.2-1.7,2.4-2.5,3.7c0.1-0.9,0.1-1.8,0.1-2.6c0-4.4-1.2-10.5-2.7-10.5h-0.1c-1.5,0-2.7,6.1-2.7,10.5
			c0,0.8,0,1.7,0.1,2.6c-0.8-1.3-1.6-2.5-2.5-3.7c-3.1-4-8.6-8.7-9.9-7.7s1.8,7.5,5,11.5c0.8,1,1.7,2,2.6,3c-0.7-0.2-1.4-0.5-2-0.6
			c-4.3-1.2-10.5-1.6-10.9-0.1s5.2,4.2,9.4,5.4c0.9,0.2,1.9,0.5,2.9,0.6l-0.3,0.1c-3.3,0.9-7.7,3.1-7.3,4.3s5.2,0.8,8.5-0.2
			c2.2-0.7,4.2-1.7,6.1-3c-0.7,7.9-0.6,51.4-0.5,62.3c0,1.3,2.7,0,3.6,0s-0.4-28.4-0.4-41.3c0-9.3,0.3-17.3-0.3-21.1
			c1.9,1.3,3.9,2.3,6.1,3c3.3,0.9,8.2,1.3,8.5,0.2s-4-3.3-7.4-4.3l-0.4-0.1c1-0.2,2-0.4,2.9-0.6
			C150.1,266.7,155.7,263.9,155.3,262.5z"/>
		<path class="st15" d="M199.5,269.6c-0.4-1.3-5.9-0.9-9.8,0.1c-0.6,0.1-1.2,0.3-1.8,0.6c0.8-0.9,1.6-1.8,2.3-2.6
			c2.8-3.6,5.7-9.4,4.5-10.4s-6.1,3.3-8.9,6.9c-0.8,1.1-1.6,2.2-2.3,3.3c0.1-0.8,0.1-1.6,0.1-2.3c0-4-1.1-9.5-2.4-9.5h-0.1
			c-1.4,0-2.4,5.5-2.4,9.5c0,0.7,0,1.5,0.1,2.3c-0.7-1.1-1.4-2.2-2.2-3.3c-2.8-3.6-7.7-7.9-8.9-6.9s1.7,6.7,4.5,10.4
			c0.7,0.9,1.5,1.8,2.3,2.6c-0.6-0.2-1.2-0.4-1.8-0.6c-3.8-1-9.4-1.4-9.8-0.1s4.7,3.8,8.5,4.8c0.8,0.2,1.7,0.4,2.6,0.6l-0.3,0.1
			c-3,0.8-6.9,2.8-6.6,3.8s4.6,0.7,7.6-0.2c2-0.6,3.8-1.5,5.5-2.7c-0.6,7-0.6,46.2-0.5,55.9c0,1.2,2.4,0,3.2,0s-0.4-25.5-0.4-37
			c0-8.3,0.2-15.5-0.2-18.9c1.7,1.2,3.5,2.1,5.5,2.7c3,0.8,7.3,1.2,7.6,0.2s-3.6-3-6.6-3.8l-0.3-0.1c0.9-0.2,1.8-0.4,2.6-0.6
			C194.8,273.4,199.8,270.9,199.5,269.6z"/>
		<path class="st16" d="M241.4,87.2c0,12.1-9.8,21.9-21.9,21.9s-21.9-9.8-21.9-21.9s9.8-21.9,21.9-21.9
			C231.6,65.3,241.4,75.1,241.4,87.2L241.4,87.2z"/>
		<path class="st17" d="M238.3,87.2c0,10.3-8.4,18.7-18.7,18.7c-10.3,0-18.7-8.4-18.7-18.7s8.4-18.7,18.7-18.7l0,0
			C229.9,68.5,238.3,76.9,238.3,87.2z"/>
		<path class="st18" d="M235.1,87.2c0,8.6-6.9,15.5-15.5,15.5s-15.5-6.9-15.5-15.5c0-8.6,6.9-15.5,15.5-15.5S235.1,78.6,235.1,87.2
			C235.1,87.2,235.1,87.2,235.1,87.2z"/>
		<path class="st19" d="M231.6,87.2c0,6.6-5.4,12-12,12s-12-5.4-12-12s5.4-12,12-12S231.6,80.6,231.6,87.2z"/>
		<path class="st20" d="M50.7,86.9h31.5c0,0,4.3-12.3-6.8-12.3c0,0-0.5-7.1-7.1-7.1c0,0-4.5,0-4.5,3.3c0,0-0.6-5.6-5.6-5.6
			c0,0-7.3,0.2-7.3,7.3c0,0-8.1-2.5-10.6,0c0,0-2.5,0.5-2.5,6.3c0,0-8.5,2.8-8.5,8.1L50.7,86.9z"/>
		<path class="st20" d="M73.3,148.3h24.3c0,0,3.3-9.6-5.2-9.6c0,0-0.4-5.5-5.4-5.5c0,0-3.4,0-3.4,2.5c0,0-0.5-4.3-4.3-4.3
			c0,0-5.6,0.2-5.6,5.7c0,0-6.2-1.9-8.2,0c0,0-1.9,0.4-1.9,4.9c0,0-6.5,2.2-6.5,6.3H73.3z"/>
		<path class="st20" d="M256.8,205.9h29.5c0,0,4-10.1-6.4-10.1c-0.3-3.4-3.2-5.9-6.6-5.7c0,0-4.2,0-4.2,2.6
			c-0.3-2.6-2.6-4.5-5.2-4.5c0,0-6.8,0.2-6.8,5.9c0,0-7.6-2-9.9,0c0,0-2.3,0.4-2.3,5.1c0,0-7.9,2.3-7.9,6.6H256.8z"/>
		<path class="st20" d="M360.1,101.2H380c0,0,2.7-7.8-4.3-7.8c0,0-0.3-4.5-4.5-4.5c0,0-2.8,0-2.8,2.1c0,0-0.4-3.5-3.5-3.5
			c0,0-4.6,0.1-4.6,4.6c0,0-5.1-1.6-6.7,0c0,0-1.6,0.3-1.6,4c0,0-5.3,1.8-5.3,5.1L360.1,101.2z"/>
		<path class="st20" d="M109.1,28.5c-19.3-4.2-21.3,0-21.3,0"/>
		<path class="st20" d="M86.2,28.4c-11.8-3.5-13,0-13,0"/>
		<path class="st20" d="M47.5,213.5c-15.2-4.2-16.8,0-16.8,0"/>
		<path class="st20" d="M369.9,37.2c-15.2-4.2-16.8,0-16.8,0"/>
		<path class="st20" d="M39,186.5c-8.2-3.1-9.1,0-9.1,0"/>
		<path class="st20" d="M300.5,73.2c-17.7-4.9-19.5,0-19.5,0"/>
		<path class="st20" d="M279.5,73c-10.8-4.1-11.9,0-11.9,0"/>
		<path class="st20" d="M186.9,189.2c-10.4-2.9-11.5,0-11.5,0"/>
		<path class="st20" d="M174.5,189.1c-6.4-2.4-7,0-7,0"/>
		<path class="st20" d="M303.1,169.5c-15.2-4.2-16.8,0-16.8,0"/>
		<path class="st20" d="M397.5,243.2c-11-3-12.1,0-12.1,0"/>
		<path class="st20" d="M386,239c-9.2-3.6-10.2,0-10.2,0"/>
		<path class="st15" d="M26,165.6c0,0,8.7-6.4,15.2,1.6l3.8-0.7l-2-1c0,0,4.4-6.6,9.2-4.1c0,0-5.1-4.1-10.9,0.9
			C41.4,162.2,31.6,157.6,26,165.6z"/>
		<path class="st15" d="M383.4,217.5c0,0,4.6-2.2,7,2.1h1.8l-0.8-0.7c0,0,2.7-2.6,4.6-1.1c-1.3-1.4-3.5-1.7-5.1-0.6
			C390.9,217.3,386.7,214.3,383.4,217.5z"/>
		<path class="st15" d="M132.5,75.5c0,0-9-5-14.2,3.3l-3.6-0.2l1.7-1.2c0,0-5-5.6-9.1-2.7c0,0,4.3-4.5,10.3-0.5
			C117.7,74.2,126.3,68.7,132.5,75.5z"/>
		<path class="st15" d="M261.9,112.8c0,0,8.4-4,12.6,3.8h3.3l-1.5-1.2c0,0,4.8-4.8,8.4-2c0,0-3.6-4.3-9.3-1
			C275.4,112.4,267.9,107,261.9,112.8z"/>
		<path class="st15" d="M370.8,259.8c0.4-1.5,6.6-1,10.9,0.1c0.6,0.2,1.3,0.4,2,0.6c-0.9-1-1.8-2-2.6-2.9c-3.1-4-6.3-10.5-5-11.5
			s6.8,3.6,9.9,7.7c0.9,1.2,1.7,2.4,2.5,3.7c-0.1-0.9-0.1-1.8-0.1-2.6c0-4.4,1.2-10.5,2.7-10.5h0.1c1.5,0,2.7,6.1,2.7,10.5
			c0,0.8,0,1.7-0.1,2.6c0.8-1.3,1.6-2.5,2.5-3.7c3.1-4,8.6-8.8,9.9-7.7s-1.9,7.5-5,11.5c-0.8,1-1.7,2-2.6,2.9c0.7-0.2,1.4-0.5,2-0.6
			c4.3-1.2,10.5-1.6,10.9-0.1s-5.2,4.2-9.5,5.4c-0.9,0.3-1.9,0.5-2.9,0.6l0.4,0.1c3.3,0.9,7.6,3.1,7.3,4.3s-5.2,0.8-8.5-0.2
			c-2.2-0.7-4.2-1.7-6.1-3c0.7,7.9,0.6,51.5,0.5,62.3c0,1.3-2.7,0-3.6,0s0.4-28.4,0.4-41.3c0-9.3-0.3-17.3,0.3-21.1
			c-1.9,1.3-3.9,2.3-6.1,3c-3.3,0.9-8.2,1.3-8.5,0.2s4-3.3,7.3-4.3l0.4-0.1c-1-0.2-1.9-0.4-2.9-0.6C376,264,370.4,261.2,370.8,259.8
			z"/>
		<path class="st15" d="M326.6,266.9c0.4-1.3,6-0.9,9.8,0.1c0.6,0.2,1.2,0.4,1.8,0.6c-0.9-0.9-1.6-1.8-2.3-2.6
			c-2.8-3.6-5.7-9.4-4.5-10.4s6.1,3.3,8.9,6.9c0.8,1.1,1.6,2.2,2.2,3.3c-0.1-0.8-0.1-1.6-0.1-2.3c0-4,1.1-9.5,2.5-9.5h0.1
			c1.4,0,2.5,5.5,2.5,9.5c0,0.7,0,1.5-0.1,2.3c0.7-1.1,1.4-2.2,2.3-3.3c2.8-3.6,7.7-7.9,8.9-6.9s-1.7,6.7-4.5,10.4
			c-0.7,0.8-1.5,1.8-2.3,2.6c0.6-0.2,1.2-0.4,1.8-0.6c3.8-1,9.4-1.4,9.8-0.1s-4.7,3.8-8.5,4.9c-0.8,0.2-1.7,0.4-2.6,0.6l0.3,0.1
			c3,0.8,6.9,2.8,6.6,3.8s-4.6,0.7-7.6-0.2c-2-0.6-3.8-1.5-5.5-2.7c0.6,7,0.6,46.2,0.5,55.9c0,1.2-2.5,0-3.2,0s0.4-25.5,0.4-37
			c0-8.3-0.2-15.5,0.2-18.9c-1.7,1.2-3.5,2.1-5.5,2.7c-3,0.8-7.3,1.2-7.6,0.2s3.6-3,6.6-3.8l0.3-0.1c-0.9-0.2-1.8-0.4-2.6-0.6
			C331.3,270.7,326.2,268.2,326.6,266.9z"/>
		<path class="st15" d="M270.4,263.8c0.4-1.5,6.6-1,10.9,0.1c0.6,0.2,1.3,0.4,2,0.6c-0.9-1-1.8-2-2.6-2.9c-3.1-4-6.3-10.5-5-11.5
			s6.8,3.6,9.9,7.7c0.9,1.2,1.7,2.4,2.5,3.7c-0.1-0.9-0.1-1.8-0.1-2.6c0-4.4,1.2-10.5,2.7-10.5h0.1c1.5,0,2.7,6.1,2.7,10.5
			c0,0.8,0,1.7-0.1,2.6c0.8-1.3,1.6-2.5,2.5-3.7c3.1-4,8.6-8.8,9.9-7.7s-1.9,7.5-5,11.5c-0.8,1-1.7,2-2.6,2.9c0.7-0.2,1.4-0.5,2-0.6
			c4.3-1.2,10.5-1.6,10.9-0.1s-5.2,4.2-9.5,5.4c-0.9,0.3-1.9,0.5-2.9,0.6l0.4,0.1c3.3,0.9,7.6,3.1,7.3,4.3s-5.2,0.8-8.5-0.2
			c-2.2-0.7-4.2-1.7-6.1-3c0.7,7.9,0.6,51.5,0.5,62.3c0,1.3-2.7,0-3.6,0s0.4-28.4,0.4-41.3c0-9.3-0.3-17.3,0.3-21.1
			c-1.9,1.3-3.9,2.3-6.1,3c-3.3,0.9-8.2,1.3-8.5,0.2s4-3.3,7.3-4.3l0.4-0.1c-1-0.2-1.9-0.4-2.9-0.6C275.5,268,270,265.2,270.4,263.8
			z"/>
		<path class="st15" d="M226.2,270.9c0.4-1.3,5.9-0.9,9.8,0.1c0.6,0.2,1.2,0.4,1.8,0.6c-0.9-0.9-1.6-1.8-2.3-2.6
			c-2.8-3.6-5.7-9.4-4.5-10.4s6.1,3.3,8.9,6.9c0.8,1.1,1.6,2.2,2.2,3.3c-0.1-0.8-0.1-1.6-0.1-2.3c0-4,1.1-9.5,2.4-9.5h0.1
			c1.4,0,2.4,5.5,2.4,9.5c0,0.7,0,1.5-0.1,2.3c0.7-1.1,1.4-2.2,2.3-3.3c2.8-3.6,7.7-7.9,8.9-6.9s-1.7,6.7-4.5,10.4
			c-0.7,0.8-1.5,1.8-2.3,2.6c0.6-0.2,1.2-0.4,1.8-0.6c3.8-1,9.4-1.4,9.8-0.1s-4.7,3.8-8.5,4.9c-0.8,0.2-1.7,0.4-2.6,0.6l0.3,0.1
			c3,0.8,6.9,2.8,6.6,3.8s-4.6,0.7-7.6-0.2c-2-0.6-3.8-1.5-5.5-2.7c0.6,7,0.6,46.2,0.5,55.9c0,1.2-2.4,0-3.2,0s0.4-25.5,0.4-37
			c0-8.3-0.2-15.5,0.2-18.9c-1.7,1.2-3.5,2.1-5.5,2.7c-3,0.8-7.3,1.2-7.6,0.2s3.6-3,6.6-3.8l0.3-0.1c-0.9-0.2-1.8-0.4-2.6-0.6
			C230.9,274.7,225.8,272.2,226.2,270.9z"/>
		<rect x="-1.6" y="328.7" class="st21" width="417.5" height="10.6"/>
		<rect x="-1.6" y="338.7" class="st22" width="417.5" height="10.6"/>
		<rect x="-1.6" y="349.8" class="st21" width="417.5" height="10.6"/>
		<rect x="-1.6" y="359.8" class="st22" width="417.5" height="10.6"/>
		<rect x="-1.6" y="371" class="st21" width="417.5" height="10.6"/>
		<rect x="-1.6" y="381" class="st22" width="417.5" height="10.6"/>
		<rect x="-1.6" y="392.2" class="st21" width="417.5" height="10.6"/>
		<rect x="-1.6" y="402.2" class="st22" width="417.5" height="10.6"/>
		<path class="st23" d="M272.5,129.8c0,0-118,34.5-120.8,34.5s0,125.3,0,125.3l23.6,0.2v-110c-1.4-0.4-2.3-0.5-2.3-0.5h2.3v0.5
			c12.5,3,72.7,21.9,74,110.6l23.2,0.2L272.5,129.8z"/>
		<path class="st24" d="M72.3,319.3c0-29.4,23.7-33.8,52.7-33.8h165.7c29,0,52.7,4.4,52.7,33.8"/>
		<rect x="410.8" y="314" class="st3" width="412.9" height="9.7"/>
		<rect x="410.8" y="320.3" class="st4" width="176.9" height="11"/>
		<rect x="411.2" y="320.3" class="st8" width="176.8" height="3.4"/>
		<polygon class="st5" points="587.9,298.4 412.1,298.4 412.1,309.4 587.9,309.4 823.3,309.4 823.3,298.4 		"/>
		<polygon class="st6" points="587.7,306.2 587.7,306.2 411.9,306.2 411.9,320.3 587.7,320.3 587.7,320.3 823,320.3 823,306.2 		"/>
		<rect x="411.3" y="326.7" class="st8" width="235.4" height="4.2"/>
		<rect x="411.4" y="298.4" class="st9" width="176.2" height="21.5"/>
		<rect x="411.9" y="298.4" class="st10" width="22.9" height="21.9"/>
		<rect x="411.2" y="320.3" class="st9" width="176.8" height="11"/>
		<rect x="-2.5" y="314" class="st3" width="412.9" height="9.7"/>
		<rect x="-2.5" y="320.3" class="st4" width="176.9" height="11"/>
		<line class="st11" x1="30.5" y1="306.2" x2="11.1" y2="306.2"/>
		<rect x="-2.2" y="320.3" class="st8" width="176.8" height="3.4"/>
		<line class="st11" x1="43.7" y1="306.2" x2="35.8" y2="306.2"/>
		<polygon class="st5" points="174.6,298.4 -1.3,298.4 -1.3,309.4 174.6,309.4 410,309.4 410,298.4 		"/>
		<polygon class="st6" points="174.4,306.2 174.3,306.2 -1.5,306.2 -1.5,320.3 174.3,320.3 174.4,320.3 409.7,320.3 409.7,306.2 		
			"/>
		<rect x="175" y="320.3" class="st7" width="235.4" height="11"/>
		<rect x="174.6" y="320.5" class="st8" width="235.4" height="3.7"/>
		<rect x="174.5" y="326.7" class="st8" width="235.4" height="4.2"/>
		<rect x="-2.1" y="326.7" class="st8" width="235.4" height="4.2"/>
		<rect x="175" y="320.3" class="st9" width="234.7" height="11"/>
		<rect x="-2" y="298.4" class="st9" width="176.2" height="21.5"/>
		<rect x="203.1" y="298.4" class="st10" width="30.3" height="21.9"/>
		<rect x="143.5" y="298.4" class="st10" width="30.3" height="21.9"/>
		<rect x="113" y="298.4" class="st10" width="30.3" height="21.9"/>
		<rect x="82.5" y="298.4" class="st10" width="30.3" height="21.9"/>
		<rect x="52" y="298.4" class="st10" width="30.3" height="21.9"/>
		<rect x="21.5" y="298.4" class="st10" width="30.3" height="21.9"/>
		<rect x="-1.5" y="298.4" class="st10" width="22.9" height="21.9"/>
		<rect x="263.7" y="298.5" class="st10" width="30.3" height="21.9"/>
		<rect x="233.4" y="298.4" class="st10" width="30.3" height="21.9"/>
		<rect x="294.1" y="298.5" class="st10" width="30.3" height="21.9"/>
		<rect x="324.4" y="298.5" class="st10" width="30.3" height="21.9"/>
		<rect x="354.8" y="298.4" class="st10" width="30.3" height="21.9"/>
		<rect x="174.3" y="298.4" class="st9" width="235.4" height="32.8"/>
		<rect x="-2.2" y="320.3" class="st9" width="176.8" height="11"/>
		<polyline class="st9" points="364.6,298.7 367.5,292.3 374,292.3 377,298.7 		"/>
		<polyline class="st9" points="401.4,298.7 404.3,292.3 410.8,292.3 413.8,298.7 		"/>
		<rect x="371.8" y="285.6" class="st25" width="42" height="3.4"/>
		<rect x="371.8" y="282.9" class="st21" width="42" height="3.9"/>
		<rect x="371.8" y="281.1" class="st26" width="42" height="3.6"/>
		<rect x="371.8" y="279.3" class="st27" width="42" height="3.6"/>
		<rect x="371.8" y="276.9" class="st28" width="42" height="4.2"/>
		<rect x="371.8" y="275.3" class="st29" width="42" height="4"/>
		<rect x="371.8" y="275.3" class="st9" width="42" height="13.8"/>
		<rect x="363.5" y="289.3" class="st30" width="42.5" height="3"/>
		<rect x="363.5" y="291.2" class="st31" width="42.7" height="1.1"/>
		<rect x="363.2" y="289.3" class="st31" width="42.9" height="1"/>
		<rect x="363.5" y="289.2" class="st9" width="42.7" height="3.1"/>
		<rect x="402.9" y="289.3" class="st30" width="10.9" height="3"/>
		<rect x="402.9" y="291.2" class="st31" width="10.9" height="1.1"/>
		<rect x="402.8" y="289.3" class="st31" width="11" height="1"/>
		<rect x="402.9" y="289.2" class="st9" width="10.9" height="3.1"/>
		<rect x="411.2" y="275.4" class="st30" width="2.4" height="13.8"/>
		<rect x="412.7" y="275.3" class="st31" width="0.9" height="13.9"/>
		<rect x="411.3" y="275.3" class="st31" width="0.9" height="14"/>
		<rect x="411.2" y="275.3" class="st9" width="2.5" height="13.9"/>
		<path d="M404,288.4L404,288.4z"/>
		<path d="M404.1,288.4L404.1,288.4z"/>
		<polyline class="st9" points="306.2,298.7 309.1,292.3 315.6,292.3 318.6,298.7 		"/>
		<polyline class="st9" points="343,298.7 345.9,292.3 352.4,292.3 355.4,298.7 		"/>
		<rect x="313.4" y="285.6" class="st25" width="42" height="3.4"/>
		<rect x="313.4" y="282.9" class="st21" width="42" height="3.9"/>
		<rect x="313.4" y="281.1" class="st26" width="42" height="3.6"/>
		<rect x="313.4" y="279.3" class="st27" width="42" height="3.6"/>
		<rect x="313.4" y="276.9" class="st28" width="42" height="4.2"/>
		<rect x="313.4" y="275.3" class="st29" width="42" height="4"/>
		<rect x="313.4" y="275.3" class="st9" width="42" height="13.8"/>
		<rect x="305.1" y="289.3" class="st30" width="42.5" height="3"/>
		<rect x="305.1" y="291.2" class="st31" width="42.7" height="1.1"/>
		<rect x="304.8" y="289.3" class="st31" width="42.9" height="1"/>
		<rect x="305.1" y="289.2" class="st9" width="42.7" height="3.1"/>
		<rect x="344.5" y="289.3" class="st30" width="10.9" height="3"/>
		<rect x="344.5" y="291.2" class="st31" width="10.9" height="1.1"/>
		<rect x="344.4" y="289.3" class="st31" width="11" height="1"/>
		<rect x="344.5" y="289.2" class="st9" width="10.9" height="3.1"/>
		<rect x="352.8" y="275.4" class="st30" width="2.4" height="13.8"/>
		<rect x="354.3" y="275.3" class="st31" width="0.9" height="13.9"/>
		<rect x="352.9" y="275.3" class="st31" width="0.9" height="14"/>
		<rect x="352.8" y="275.3" class="st9" width="2.5" height="13.9"/>
		<path d="M345.6,288.4L345.6,288.4z"/>
		<path d="M345.6,288.4L345.6,288.4z"/>
	</g>
</g>
</svg>
