<?xml version="1.0" encoding="utf-8"?>
<!-- Generator: Adobe Illustrator 24.1.0, SVG Export Plug-In . SVG Version: 6.00 Build 0)  -->
<svg version="1.1" id="Capa_1" xmlns="http://www.w3.org/2000/svg" xmlns:xlink="http://www.w3.org/1999/xlink" x="0px" y="0px"
	 viewBox="0 0 414 414" style="enable-background:new 0 0 414 414;" xml:space="preserve">
<style type="text/css">
	.st0{clip-path:url(#SVGID_2_);}
	.st1{fill:url(#SVGID_3_);}
	.st2{fill:#1D8487;}
	.st3{fill:#137376;}
	.st4{fill:#93D1D7;}
	.st5{fill:#BEE1E5;}
	.st6{fill:#DBEEEF;}
	.st7{fill:#EFC411;}
	.st8{fill:#E3F2F4;}
	.st9{fill:#30845A;}
	.st10{fill:#68BC8F;}
	.st11{fill:none;}
	.st12{fill:#456FA1;}
	.st13{fill:none;stroke:#5488BB;stroke-width:3;stroke-miterlimit:10;}
	.st14{fill:#3D6492;}
	.st15{fill:#2A4D78;}
	.st16{fill:none;stroke:#000000;stroke-width:2;stroke-miterlimit:10;}
	.st17{fill:#AFAFAF;}
	.st18{fill:#BCBCBB;}
	.st19{fill:#D1D1D1;}
	.st20{fill:#DBD9D9;}
	.st21{fill:#E2E2E1;}
	.st22{fill:#EAEAEA;}
	.st23{fill:#E0E0E0;}
	.st24{fill:#C4C4C4;}
	.st25{fill:#1B646C;}
	.st26{fill:#1C6D7A;}
	.st27{fill:#7D4E24;stroke:#000000;stroke-width:2;stroke-miterlimit:10;}
	.st28{fill:none;stroke:#000000;stroke-width:1.5;stroke-miterlimit:10;}
	.st29{fill:#482812;}
	.st30{fill:#CA9E67;}
	.st31{fill:#936037;}
	.st32{fill:#7D4E24;}
	.st33{fill:none;stroke:#000000;stroke-miterlimit:10;}
</style>
<g>
	<defs>
		<rect id="SVGID_1_" width="414" height="414"/>
	</defs>
	<clipPath id="SVGID_2_">
		<use xlink:href="#SVGID_1_"  style="overflow:visible;"/>
	</clipPath>
	<g class="st0">
		
			<linearGradient id="SVGID_3_" gradientUnits="userSpaceOnUse" x1="-414.04" y1="208.175" x2="3700.4897" y2="208.175" gradientTransform="matrix(1 0 0 -1 0 414)">
			<stop  offset="0" style="stop-color:#00A19A"/>
			<stop  offset="0.23" style="stop-color:#36A9E1"/>
			<stop  offset="0.49" style="stop-color:#1D71B8"/>
			<stop  offset="0.72" style="stop-color:#2D3387"/>
			<stop  offset="1" style="stop-color:#29235C"/>
		</linearGradient>
		<rect x="-414" class="st1" width="4114.5" height="411.6"/>
		<path class="st2" d="M-1.5,298.4h116.3l-48.1-54.9c-5.6-6.4-16.7-6.3-22.2,0.2L-1.5,298.4z"/>
		<path class="st2" d="M331.4,298.4h85.4l-35.3-40.2c-4.2-4.5-11.2-4.7-15.7-0.5c-0.2,0.2-0.4,0.4-0.6,0.6L331.4,298.4z"/>
		<path class="st2" d="M76.9,298.4H249l-71.1-81.1c-8.3-9.5-24.7-9.4-32.9,0.3L76.9,298.4z"/>
		<path class="st3" d="M82.1,225.7c-0.4-1.4-6.6-1-10.9,0.1c-0.6,0.2-1.3,0.4-2,0.6c0.9-1,1.8-2,2.6-3c3.1-4,6.3-10.5,5-11.5
			s-6.8,3.7-9.9,7.7c-0.9,1.2-1.7,2.4-2.5,3.7c0.1-0.9,0.1-1.8,0.1-2.6c0-4.4-1.2-10.5-2.7-10.5h-0.1c-1.5,0-2.7,6.1-2.7,10.5
			c0,0.8,0,1.7,0.1,2.6c-0.8-1.3-1.6-2.5-2.5-3.7c-3.1-4-8.6-8.7-9.9-7.7s1.8,7.5,5,11.5c0.8,1,1.7,2,2.6,3c-0.7-0.2-1.4-0.4-2-0.6
			c-4.3-1.2-10.5-1.6-10.9-0.1s5.2,4.2,9.5,5.4c0.9,0.2,1.8,0.4,2.9,0.6l-0.3,0.1c-3.3,0.9-7.7,3.1-7.3,4.3s5.2,0.8,8.5-0.2
			c2.2-0.7,4.2-1.7,6.1-3c-0.7,7.9-0.6,51.5-0.5,62.3c0,1.3,2.7,0,3.6,0s-0.4-28.4-0.4-41.3c0-9.3,0.3-17.3-0.3-21.1
			c1.9,1.3,3.9,2.3,6.1,3c3.3,0.9,8.2,1.3,8.5,0.2s-4-3.3-7.3-4.3l-0.3-0.1c1-0.2,2-0.4,2.9-0.6C76.9,229.9,82.4,227.1,82.1,225.7z"
			/>
		<path class="st3" d="M126.2,232.9c-0.4-1.3-5.9-0.9-9.8,0.1c-0.6,0.2-1.2,0.4-1.8,0.6c0.8-0.8,1.6-1.7,2.4-2.7
			c2.8-3.6,5.7-9.4,4.5-10.4s-6.1,3.3-8.9,6.9c-0.8,1.1-1.6,2.2-2.2,3.3c0.1-0.8,0.1-1.6,0.1-2.3c0-4-1.1-9.5-2.4-9.5h-0.1
			c-1.3,0-2.4,5.5-2.4,9.5c0,0.7,0,1.5,0.1,2.3c-0.7-1.1-1.4-2.3-2.2-3.3c-2.8-3.6-7.7-7.9-8.9-6.9s1.7,6.7,4.5,10.4
			c0.7,0.9,1.5,1.8,2.3,2.6c-0.6-0.2-1.2-0.4-1.8-0.6c-3.8-1-9.4-1.4-9.8-0.1s4.7,3.8,8.5,4.9c0.8,0.2,1.7,0.4,2.6,0.6l-0.3,0.1
			c-3,0.8-6.9,2.8-6.6,3.8s4.6,0.7,7.6-0.2c2-0.6,3.8-1.5,5.5-2.7c-0.6,7.1-0.6,46.2-0.5,55.9c0,1.2,2.4,0,3.2,0s-0.4-25.5-0.4-37
			c0-8.3,0.2-15.5-0.2-18.9c1.7,1.2,3.5,2.1,5.5,2.7c3,0.8,7.3,1.2,7.6,0.2s-3.6-3-6.6-3.8l-0.3-0.1c0.9-0.2,1.8-0.4,2.6-0.6
			C121.6,236.7,126.6,234.2,126.2,232.9z"/>
		<path class="st4" d="M228.4,115.1c0,12.1-9.8,21.9-21.9,21.9s-21.9-9.8-21.9-21.9s9.8-21.9,21.9-21.9
			C218.6,93.2,228.4,103,228.4,115.1L228.4,115.1z"/>
		<path class="st5" d="M225.2,115.1c0,10.3-8.4,18.7-18.7,18.7c-10.3,0-18.7-8.4-18.7-18.7s8.4-18.7,18.7-18.7
			S225.2,104.7,225.2,115.1L225.2,115.1z"/>
		<path class="st6" d="M222,115.1c0,8.6-6.9,15.5-15.5,15.5c-8.6,0-15.5-6.9-15.5-15.5c0-8.6,6.9-15.5,15.5-15.5
			S222,106.5,222,115.1C222,115.1,222,115.1,222,115.1z"/>
		<path class="st7" d="M218.5,115.1c0,6.6-5.4,12-12,12s-12-5.4-12-12s5.4-12,12-12S218.5,108.4,218.5,115.1z"/>
		<path class="st8" d="M313.6,81.6h24.4c0,0,3.3-9.6-5.3-9.6c0,0-0.4-5.5-5.5-5.5c0,0-3.5,0-3.5,2.5c0,0-0.5-4.3-4.3-4.3
			c0,0-5.7,0.2-5.7,5.7c0,0-6.3-2-8.2,0c0,0-1.9,0.4-1.9,4.9c0,0-6.5,2.2-6.5,6.3L313.6,81.6z"/>
		<path class="st8" d="M329,148.3h24.3c0,0,3.3-9.6-5.2-9.6c0,0-0.4-5.5-5.4-5.5c0,0-3.5,0-3.5,2.5c0,0-0.5-4.3-4.3-4.3
			c0,0-5.6,0.2-5.6,5.7c0,0-6.2-1.9-8.2,0c0,0-1.9,0.4-1.9,4.9c0,0-6.5,2.2-6.5,6.3H329z"/>
		<path class="st8" d="M364.8,28.5c-19.3-4.2-21.3,0-21.3,0"/>
		<path class="st8" d="M341.8,28.4c-11.8-3.5-13,0-13,0"/>
		<path class="st3" d="M317.6,170.2c0,0,5.6-4.1,9.7,1l2.4-0.5l-1.3-0.7c0,0,2.8-4.2,5.8-2.6c-2.1-1.5-5.1-1.3-6.9,0.5
			C327.4,168,321.2,165.1,317.6,170.2z"/>
		<path class="st3" d="M388.2,75.5c0,0-9-5-14.1,3.3l-3.6-0.2l1.7-1.2c0,0-5-5.6-9.1-2.7c0,0,4.3-4.5,10.3-0.5
			C373.4,74.2,382,68.7,388.2,75.5z"/>
		<path class="st8" d="M39.9,45.5h29.5c0,0,4-10-6.4-10c-0.3-3.4-3.2-5.9-6.6-5.7c0,0-4.2,0-4.2,2.6c-0.3-2.6-2.6-4.6-5.2-4.6
			c0,0-6.8,0.2-6.8,6c0,0-7.6-2-9.9,0c0,0-2.3,0.4-2.3,5.1c0,0-7.9,2.3-7.9,6.6L39.9,45.5z"/>
		<path class="st8" d="M44.7,179h19.9c0,0,2.7-7.8-4.3-7.8c0,0-0.3-4.4-4.5-4.4c0,0-2.8,0-2.8,2.1c0,0-0.4-3.5-3.5-3.5
			c0,0-4.6,0.1-4.6,4.6c0,0-5.1-1.6-6.7,0c0,0-1.6,0.3-1.6,4c0,0-5.3,1.8-5.3,5.1L44.7,179z"/>
		<path class="st8" d="M381,188.7c-15.2-4.2-16.8,0-16.8,0"/>
		<path class="st8" d="M236.5,45.8c-15.2-4.2-16.8,0-16.8,0"/>
		<path class="st8" d="M181.7,92.9c-17.7-4.9-19.5,0-19.5,0"/>
		<path class="st8" d="M160.6,92.7c-10.8-4.1-11.9,0-11.9,0"/>
		<path class="st8" d="M234.1,194.5c-17.7-4.9-19.5,0-19.5,0"/>
		<path class="st8" d="M213,194.3c-10.8-4.1-11.9,0-11.9,0"/>
		<path class="st8" d="M108.4,169.5c-15.2-4.2-16.8,0-16.8,0"/>
		<path class="st3" d="M67.2,112.8c0,0,8.4-4,12.6,3.8h3.3l-1.5-1.2c0,0,4.8-4.8,8.4-2c0,0-3.6-4.3-9.3-1
			C80.7,112.4,73.2,107,67.2,112.8z"/>
		<rect x="-411" y="331.7" class="st9" width="411.8" height="10"/>
		<rect x="-411" y="341.2" class="st10" width="411.8" height="10"/>
		<rect x="-411" y="351.8" class="st9" width="411.8" height="10"/>
		<rect x="-411" y="361.3" class="st10" width="411.8" height="10"/>
		<rect x="-411" y="371.9" class="st9" width="411.8" height="10"/>
		<rect x="-411" y="381.4" class="st10" width="411.8" height="10"/>
		<rect x="-411" y="399.7" class="st10" width="411.8" height="10"/>
		<rect x="-411" y="392" class="st9" width="411.8" height="10"/>
		<rect x="-411" y="401.5" class="st11" width="411.8" height="10"/>
		<path class="st2" d="M201.1,298.4h162.1l-66.9-113.3c-7.8-13.3-23.3-13.1-30.9,0.4L201.1,298.4z"/>
		<path class="st2" d="M311.9,113c0-0.4-0.3-0.5-0.7-0.4c-0.2,0-0.4,0.1-0.5,0.1c-0.3,0.1-0.4,0-0.4-0.2c0-0.4-0.2-0.3-0.4-0.2
			c-0.5,0.3-1.1,0.5-1.6,0.6c-0.4,0.1-0.8,0.3-1.2,0.6c-0.5,0.3-0.8,1-1.7,0.9c-1,0-1.9,0.2-2.8,0.5c-0.6,0.1-1.1,0.2-1.7,0.4
			c-0.2,0.1-0.5,0.2-0.8,0.3c-0.9,0-1.8,0.2-2.7,0.4c-0.7,0.1-1.4,0.1-2.1,0.2c-0.7,0.1-1.4,0-2.1-0.1c-0.8-0.1-1.6,0-2.5,0.1
			c-0.5,0.1-1,0-1.5,0.1c-0.7,0.1-1.4,0.1-2-0.2c-0.3-0.1-0.6-0.2-0.9-0.2c-0.4,0-0.9-0.2-1.1,0.3c-0.1,0.2-0.2,0.1-0.2-0.1
			c0-0.3-0.1-0.7-0.1-1c-0.2-0.4-0.2-0.9-0.3-1.3c-0.2-0.8-0.2-1.6-0.2-2.4c0-0.8-0.4-1.6-1-2.2c-0.4-0.4-1-0.7-1.6-0.7
			c-0.3,0.1-0.7,0-1-0.2c0,0-0.2-0.1-0.2,0.1s-0.2,0.2-0.3,0.3c-0.4,0.2-0.9,0.3-1.2,0.8s-0.6,0.7-0.7,1s-0.1,1-0.2,1.4
			c-0.2,0.8-0.2,1.6-0.5,2.4c-0.2,0.4-0.3,0.8-0.2,1.2c0.1,0.4-0.1,0.9-0.5,1c0,0-0.1,0-0.2,0c-0.3,0.1-0.5,0.1-0.8,0.1
			c-0.2,0-0.6,0-0.7-0.3c-0.1-0.3-0.4-0.5-0.8-0.4c-0.3,0-0.6,0-0.9,0.1c-0.1,0.1-0.3,0.1-0.4,0.1c-1.1,0.1-2.2,0-3.3-0.2
			c0,0-0.1,0-0.2,0.1c-0.7,0.3-1.4,0.1-1.9-0.4c-0.1-0.1-0.2-0.2-0.4-0.2l-0.1-0.1c-0.3-0.2-0.6-0.4-1,0.1c-0.2,0.4-0.7,0.6-1.1,0.5
			c0,0,0.1,0,0.1,0s0-0.1-0.1-0.1c-0.6,0.1-1.2-0.1-1.7-0.3c-0.3-0.1-0.5-0.2-0.8-0.2c-0.6,0-1.3-0.4-2,0c-0.6-0.3-1.3,0-1.8-0.6
			c0,0-0.1,0-0.1,0l-1-0.2c-0.5-0.1-1-0.1-1.5-0.1c-0.5,0-0.8-0.4-1.2-0.6c-0.6-0.2-1.3-0.4-2-0.4c-0.3,0-0.5,0.1-0.8,0.2
			c-0.5,0-0.9,0-1.4-0.1c-0.5-0.1-0.6,0.3-0.9,0.6c-0.1,0.1-0.1,0.1,0,0.2c0,0,0,0,0,0c0.3,0.1,0.3,0.4,0.5,0.6l0.2,0.1
			c0.4,0.1,0.6,0.5,1,0.6c0.7,0.1,1.3,0.2,2,0.4c0.2,0.1,0.4,0.1,0.6,0.1c0,0,0.1,0,0.1,0c0.6,0,1.1,0.3,1.7,0.2
			c0.4,0,0.5,0.2,0.6,0.6c0.2,0.7,0.3,1.4,0.5,2.1c0.3,0.5,0.4,1.2,0.4,1.8c0,0,0,0.2,0.1,0.1c0.2-0.1,0.4,0.1,0.5,0.1
			c0.8,0.2,1.6,0.2,2.4,0.3c0.4,0.1,0.7,0.3,1,0.3c1.1,0.2,2.2,0.4,3.3,0.3c0.9-0.1,1.8,0.1,2.6,0.6c0.3,0.2,0.8,0.2,1.1,0.4
			c0.2,0.2,0.4,0.3,0.6,0.4c1,0.4,1.9,1.1,3,1.5h0.1c0.1,0.2,0.1,0.2,0.3,0.1c0.3-0.1,0.5,0,0.5,0.4c0,0.4,0,0.8,0.1,1.2
			c0.1,0.3,0.1,0.6,0,0.9c-0.1,1.5-0.3,2.9-0.5,4.4c-0.1,0.8-0.2,1.6-0.3,2.4s-0.2,1.9-0.4,2.8c-0.1,0.3-0.2,0.7-0.3,1
			c0,0.3-0.1,0.7-0.2,1c-0.2,0.4-0.2,0.8,0,1.2c0.2,0.4,0.4,0.9,1.1,0.8c0.2,0,0.6,0.1,0.6,0.4s0,0.7,0,1c-0.1,1-0.2,2-0.3,3
			c0,0.4-0.1,0.8,0.3,1.1c0.1,0.1,0.1,0.1,0.1,0.2c-0.1,0.5-0.1,1,0,1.5c0,1.6,0,3.2-0.1,4.8c-0.1,2-0.1,4-0.2,6
			c0,1.6-0.2,3.1-0.1,4.7s-0.2,3-0.1,4.6c0,0.1,0,0.2,0,0.2c-0.2,0.3-0.2,0.3-0.1,0.7c0-0.1,0-0.2,0.1-0.2c0,0.5,0,0.9-0.1,1.4h-4.3
			c-1.2,0-2.2,0.5-2.2,1.2l-2.4,15.4c0,0.7,1,1.2,2.2,1.2h28.7c1.2,0,2.2-0.5,2.2-1.2l-2.2-15.4c0-0.7-1-1.2-2.2-1.2h-4
			c0-0.1,0-0.1,0-0.2c0-2.6,0-5.3,0-7.9c0-0.3,0.2-0.6,0.1-0.9c-0.1-0.2-0.1-0.4-0.1-0.6c-0.1-0.8,0.1-1.5,0.1-2.3
			c0-0.5,0.1-1.1,0.1-1.6c0-0.7,0-1.4,0-2.1c0-0.3,0.1-0.5,0.5-0.5c0.3,0,0.5-0.2,0.5-0.4c0,0,0-0.1,0-0.1c0-0.2,0-0.3,0-0.5
			c-0.1-1.2-0.2-2.4-0.2-3.7c0-0.6-0.1-1.3-0.1-1.9c0-0.1,0-0.2,0.1-0.3c0.5-0.3,0.8-0.9,0.8-1.5c0-0.9-0.1-1.7-0.2-2.6
			c-0.1-1.6-0.2-3.3-0.4-4.9c0-0.6-0.1-1.2-0.2-1.8c-0.1-1.2-0.2-2.5-0.2-3.8c0-0.2-0.1-0.4-0.1-0.6c0-0.5,0-1-0.1-1.5
			c-0.1-0.5-0.2-1.1-0.1-1.6c0-1.3-0.1-2.6-0.1-3.9c0-0.3,0.2-0.5,0.1-0.8h0.5h0.1c0.8-0.1,1.6-0.3,2.4-0.4c0.3,0,0.6-0.1,0.9-0.2
			c0.5-0.3,1-0.4,1.6-0.3c0.1,0,0.1,0,0.2,0c-0.1-0.3,0.2-0.2,0.3-0.3c1-0.4,2.1-0.7,3.1-1c0.6-0.2,1.2-0.3,1.8-0.4
			c0.6-0.1,1.1-0.3,1.7-0.5c0.5-0.2,1,0,1.5-0.2c0.3-0.1,0.5-0.2,0.8-0.3c0.6,0,1.2,0,1.8,0c0.4,0,0.6-0.1,0.5-0.6
			c-0.1-0.5-0.2-1-0.1-1.4c0.1-0.6,0.1-1.2,0-1.8c-0.1-0.2,0.2-0.3,0.4-0.3c0.7-0.2,1.4-0.3,2-0.6c0.5-0.2,0.9-0.3,1.4-0.5
			c0.4-0.3,0.8-0.4,1.3-0.4c0.1,0,0.1,0,0.1-0.1C311.6,114,311.8,113.5,311.9,113z"/>
		<path class="st3" d="M325,225.7c0.4-1.4,6.6-1,10.9,0.1c0.6,0.2,1.3,0.4,2,0.6c-0.9-1-1.8-2-2.6-3c-3.1-4-6.4-10.5-5-11.5
			s6.8,3.7,9.9,7.7c0.9,1.2,1.7,2.4,2.5,3.7c-0.1-0.9-0.1-1.8-0.1-2.6c0-4.4,1.2-10.5,2.7-10.5h0.1c1.5,0,2.7,6.1,2.7,10.5
			c0,0.8,0,1.7-0.1,2.6c0.8-1.3,1.6-2.5,2.5-3.7c3.1-4,8.6-8.7,9.9-7.7s-1.9,7.5-5,11.5c-0.8,1-1.7,2-2.6,3c0.7-0.2,1.4-0.4,2-0.6
			c4.3-1.2,10.5-1.6,10.9-0.1s-5.2,4.2-9.5,5.4c-0.9,0.2-1.9,0.4-2.9,0.6l0.4,0.1c3.3,0.9,7.7,3.1,7.3,4.3s-5.2,0.8-8.5-0.2
			c-2.2-0.7-4.2-1.7-6.1-3c0.7,7.9,0.6,51.5,0.5,62.3c0,1.3-2.7,0-3.6,0s0.4-28.4,0.4-41.3c0-9.3-0.3-17.3,0.3-21.1
			c-1.9,1.3-3.9,2.3-6.1,3c-3.3,0.9-8.2,1.3-8.5,0.2s4-3.3,7.3-4.3l0.4-0.1c-1-0.2-2-0.4-2.9-0.6C330.2,229.9,324.6,227.1,325,225.7
			z"/>
		<path class="st3" d="M280.9,232.9c0.4-1.3,5.9-0.9,9.8,0.1c0.6,0.2,1.2,0.4,1.8,0.6c-0.8-0.8-1.6-1.7-2.3-2.6
			c-2.8-3.6-5.7-9.4-4.5-10.4s6.1,3.3,8.9,6.9c0.8,1.1,1.6,2.2,2.2,3.3c-0.1-0.8-0.1-1.6-0.1-2.3c0-4,1.1-9.5,2.4-9.5h0.1
			c1.4,0,2.4,5.5,2.4,9.5c0,0.7,0,1.5-0.1,2.3c0.7-1.1,1.4-2.3,2.2-3.3c2.8-3.6,7.7-7.9,8.9-6.9s-1.7,6.7-4.5,10.4
			c-0.7,0.9-1.5,1.8-2.3,2.6c0.6-0.2,1.2-0.4,1.8-0.6c3.8-1,9.4-1.4,9.8-0.1s-4.6,3.8-8.5,4.9c-0.8,0.2-1.7,0.4-2.6,0.6l0.3,0.1
			c3,0.8,6.9,2.8,6.6,3.8s-4.6,0.7-7.6-0.2c-2-0.6-3.8-1.5-5.5-2.7c0.6,7.1,0.6,46.2,0.5,55.9c0,1.2-2.5,0-3.2,0s0.4-25.5,0.4-37
			c0-8.3-0.2-15.5,0.2-18.9c-1.7,1.2-3.5,2.1-5.5,2.7c-3,0.8-7.3,1.2-7.6,0.2s3.6-3,6.6-3.8l0.3-0.1c-0.9-0.2-1.8-0.4-2.6-0.6
			C285.5,236.7,280.5,234.2,280.9,232.9z"/>
		<rect x="0.8" y="328.6" class="st12" width="412.9" height="82.5"/>
		<path class="st13" d="M17.3,343.5c0,3-3.7,6.4-8.2,6.4"/>
		<path class="st13" d="M33.7,343.5c0,3-3.7,6.4-8.2,6.4s-8.2-3.3-8.2-6.4"/>
		<path class="st13" d="M50.1,343.5c0,3-3.7,6.4-8.2,6.4s-8.2-3.3-8.2-6.4"/>
		<path class="st13" d="M66.4,343.5c0,3-3.7,6.4-8.2,6.4s-8.2-3.3-8.2-6.4"/>
		<path class="st13" d="M82.8,343.5c0,3-3.7,6.4-8.2,6.4s-8.2-3.3-8.2-6.4"/>
		<path class="st13" d="M99.4,343.5c0,3-3.7,6.4-8.2,6.4s-8.2-3.3-8.2-6.4"/>
		<path class="st13" d="M115.9,343.7c0,3-3.7,6.4-8.2,6.4s-8.2-3.3-8.2-6.4"/>
		<path class="st13" d="M132.3,343.7c0,3-3.7,6.4-8.2,6.4s-8.2-3.3-8.2-6.4"/>
		<path class="st13" d="M132.3,343.7c0,3,3.7,6.4,8.2,6.4"/>
		<path class="st13" d="M17,356.6c0,3.1-3.7,6.5-8.2,6.5"/>
		<path class="st13" d="M33.5,356.6c0,3.1-3.7,6.5-8.2,6.5s-8.2-3.4-8.2-6.5"/>
		<path class="st13" d="M49.9,356.6c0,3.1-3.7,6.5-8.2,6.5s-8.2-3.4-8.2-6.5"/>
		<path class="st13" d="M66.2,356.6c0,3.1-3.7,6.5-8.2,6.5s-8.2-3.4-8.2-6.5"/>
		<path class="st13" d="M82.6,356.6c0,3.1-3.7,6.5-8.2,6.5s-8.2-3.4-8.2-6.5"/>
		<path class="st13" d="M99.2,356.7c0,3.1-3.7,6.5-8.2,6.5s-8.2-3.4-8.2-6.5"/>
		<path class="st13" d="M115.7,356.8c0,3.1-3.7,6.5-8.2,6.5s-8.2-3.4-8.2-6.5"/>
		<path class="st13" d="M132.1,356.8c0,3.1-3.7,6.5-8.2,6.5s-8.2-3.4-8.2-6.5"/>
		<path class="st13" d="M132.1,356.8c0,3.1,3.7,6.5,8.2,6.5"/>
		<path class="st13" d="M148.5,343.5c0,3-3.7,6.4-8.2,6.4"/>
		<path class="st13" d="M165,343.5c0,3-3.7,6.4-8.2,6.4s-8.2-3.3-8.2-6.4"/>
		<path class="st13" d="M181.4,343.5c0,3-3.7,6.4-8.2,6.4s-8.2-3.3-8.2-6.4"/>
		<path class="st13" d="M197.7,343.5c0,3-3.7,6.4-8.2,6.4s-8.2-3.3-8.2-6.4"/>
		<path class="st13" d="M214.1,343.5c0,3-3.7,6.4-8.2,6.4s-8.2-3.3-8.2-6.4"/>
		<path class="st13" d="M230.7,343.5c0,3-3.7,6.4-8.2,6.4s-8.2-3.3-8.2-6.4"/>
		<path class="st13" d="M247.1,343.7c0,3-3.7,6.4-8.2,6.4s-8.2-3.3-8.2-6.4"/>
		<path class="st13" d="M263.6,343.7c0,3-3.7,6.4-8.2,6.4s-8.2-3.3-8.2-6.4"/>
		<path class="st13" d="M263.6,343.7c0,3,3.7,6.4,8.2,6.4"/>
		<path class="st13" d="M148.3,356.6c0,3.1-3.7,6.5-8.2,6.5"/>
		<path class="st13" d="M164.8,356.6c0,3.1-3.7,6.5-8.2,6.5s-8.2-3.4-8.2-6.5"/>
		<path class="st13" d="M181.2,356.6c0,3.1-3.7,6.5-8.2,6.5s-8.2-3.4-8.2-6.5"/>
		<path class="st13" d="M197.5,356.6c0,3.1-3.7,6.5-8.2,6.5s-8.2-3.4-8.2-6.5"/>
		<path class="st13" d="M213.9,356.6c0,3.1-3.7,6.5-8.2,6.5s-8.2-3.4-8.2-6.5"/>
		<path class="st13" d="M230.5,356.7c0,3.1-3.7,6.5-8.2,6.5s-8.2-3.4-8.2-6.5"/>
		<path class="st13" d="M246.9,356.8c0,3.1-3.7,6.5-8.2,6.5s-8.2-3.4-8.2-6.5"/>
		<path class="st13" d="M263.4,356.8c0,3.1-3.7,6.5-8.2,6.5s-8.2-3.4-8.2-6.5"/>
		<path class="st13" d="M263.4,356.8c0,3.1,3.7,6.5,8.2,6.5"/>
		<path class="st13" d="M279.8,343.5c0,3-3.7,6.4-8.2,6.4"/>
		<path class="st13" d="M296.2,343.5c0,3-3.7,6.4-8.2,6.4s-8.2-3.3-8.2-6.4"/>
		<path class="st13" d="M312.7,343.5c0,3-3.7,6.4-8.2,6.4s-8.2-3.3-8.2-6.4"/>
		<path class="st13" d="M329,343.5c0,3-3.7,6.4-8.2,6.4s-8.2-3.3-8.2-6.4"/>
		<path class="st13" d="M345.4,343.5c0,3-3.7,6.4-8.2,6.4s-8.2-3.3-8.2-6.4"/>
		<path class="st13" d="M362,343.5c0,3-3.7,6.4-8.2,6.4s-8.2-3.3-8.2-6.4"/>
		<path class="st13" d="M378.4,343.7c0,3-3.7,6.4-8.2,6.4s-8.2-3.3-8.2-6.4"/>
		<path class="st13" d="M394.9,343.7c0,3-3.7,6.4-8.2,6.4s-8.2-3.3-8.2-6.4"/>
		<path class="st13" d="M394.9,343.7c0,3,3.7,6.4,8.2,6.4"/>
		<path class="st13" d="M279.6,356.6c0,3.1-3.7,6.5-8.2,6.5"/>
		<path class="st13" d="M296,356.6c0,3.1-3.7,6.5-8.2,6.5s-8.2-3.4-8.2-6.5"/>
		<path class="st13" d="M312.5,356.6c0,3.1-3.7,6.5-8.2,6.5s-8.2-3.4-8.2-6.5"/>
		<path class="st13" d="M328.8,356.6c0,3.1-3.7,6.5-8.2,6.5s-8.2-3.4-8.2-6.5"/>
		<path class="st13" d="M345.1,356.6c0,3.1-3.7,6.5-8.2,6.5s-8.2-3.4-8.2-6.5"/>
		<path class="st13" d="M361.8,356.7c0,3.1-3.7,6.5-8.2,6.5s-8.2-3.4-8.2-6.5"/>
		<path class="st13" d="M378.2,356.8c0,3.1-3.7,6.5-8.2,6.5s-8.2-3.4-8.2-6.5"/>
		<path class="st13" d="M394.6,356.8c0,3.1-3.7,6.5-8.2,6.5s-8.2-3.4-8.2-6.5"/>
		<path class="st13" d="M394.6,356.8c0,3.1,3.7,6.5,8.2,6.5"/>
		<path class="st14" d="M48.3,400.6c15.7,7.3,17.3,0,17.3,0"/>
		<path class="st14" d="M65.1,400.9c9.6,6.1,10.6,0,10.6,0"/>
		<path class="st15" d="M332.5,372.2c-12.8-7.3-14.1,0-14.1,0"/>
		<path class="st15" d="M318.8,371.9c-7.8-6.1-8.6,0-8.6,0"/>
		<path class="st14" d="M332.5,372.2c-12.8-7.3-14.1,0-14.1,0"/>
		<path class="st14" d="M318.8,371.9c-7.8-6.1-8.6,0-8.6,0"/>
		<path class="st14" d="M224.8,401.7c-8.7-4.9-9.6,0-9.6,0"/>
		<path class="st14" d="M215.6,401.5c-5.3-4.1-5.8,0-5.8,0"/>
		<path class="st13" d="M359.8,353.4l2.1,1.2C360.9,354.8,360,354.6,359.8,353.4z"/>
		<path class="st13" d="M17.3,372.6c0,3-3.7,6.4-8.2,6.4"/>
		<path class="st13" d="M33.7,372.6c0,3-3.7,6.4-8.2,6.4s-8.2-3.3-8.2-6.4"/>
		<path class="st13" d="M50.1,372.6c0,3-3.7,6.4-8.2,6.4s-8.2-3.3-8.2-6.4"/>
		<path class="st13" d="M66.4,372.6c0,3-3.7,6.4-8.2,6.4s-8.2-3.3-8.2-6.4"/>
		<path class="st13" d="M82.8,372.6c0,3-3.7,6.4-8.2,6.4s-8.2-3.3-8.2-6.4"/>
		<path class="st13" d="M99.4,372.6c0,3-3.7,6.4-8.2,6.4s-8.2-3.3-8.2-6.4"/>
		<path class="st13" d="M115.9,372.8c0,3-3.7,6.4-8.2,6.4s-8.2-3.3-8.2-6.4"/>
		<path class="st13" d="M132.3,372.8c0,3-3.7,6.4-8.2,6.4s-8.2-3.3-8.2-6.4"/>
		<path class="st13" d="M132.3,372.8c0,3,3.7,6.4,8.2,6.4"/>
		<path class="st13" d="M17,385.7c0,3.1-3.7,6.5-8.2,6.5"/>
		<path class="st13" d="M33.5,385.7c0,3.1-3.7,6.5-8.2,6.5s-8.2-3.4-8.2-6.5"/>
		<path class="st13" d="M49.9,385.7c0,3.1-3.7,6.5-8.2,6.5s-8.2-3.4-8.2-6.5"/>
		<path class="st13" d="M66.2,385.7c0,3.1-3.7,6.5-8.2,6.5s-8.2-3.4-8.2-6.5"/>
		<path class="st13" d="M82.6,385.7c0,3.1-3.7,6.5-8.2,6.5s-8.2-3.4-8.2-6.5"/>
		<path class="st13" d="M99.2,385.8c0,3.1-3.7,6.5-8.2,6.5s-8.2-3.4-8.2-6.5"/>
		<path class="st13" d="M115.7,385.9c0,3.1-3.7,6.5-8.2,6.5s-8.2-3.4-8.2-6.5"/>
		<path class="st13" d="M132.1,385.9c0,3.1-3.7,6.5-8.2,6.5s-8.2-3.4-8.2-6.5"/>
		<path class="st13" d="M132.1,385.9c0,3.1,3.7,6.5,8.2,6.5"/>
		<path class="st13" d="M148.5,372.6c0,3-3.7,6.4-8.2,6.4"/>
		<path class="st13" d="M165,372.6c0,3-3.7,6.4-8.2,6.4s-8.2-3.3-8.2-6.4"/>
		<path class="st13" d="M181.4,372.6c0,3-3.7,6.4-8.2,6.4s-8.2-3.3-8.2-6.4"/>
		<path class="st13" d="M197.7,372.6c0,3-3.7,6.4-8.2,6.4s-8.2-3.3-8.2-6.4"/>
		<path class="st13" d="M214.1,372.6c0,3-3.7,6.4-8.2,6.4s-8.2-3.3-8.2-6.4"/>
		<path class="st13" d="M230.7,372.6c0,3-3.7,6.4-8.2,6.4s-8.2-3.3-8.2-6.4"/>
		<path class="st13" d="M247.1,372.8c0,3-3.7,6.4-8.2,6.4s-8.2-3.3-8.2-6.4"/>
		<path class="st13" d="M263.6,372.8c0,3-3.7,6.4-8.2,6.4s-8.2-3.3-8.2-6.4"/>
		<path class="st13" d="M263.6,372.8c0,3,3.7,6.4,8.2,6.4"/>
		<path class="st13" d="M148.3,385.7c0,3.1-3.7,6.5-8.2,6.5"/>
		<path class="st13" d="M164.8,385.7c0,3.1-3.7,6.5-8.2,6.5s-8.2-3.4-8.2-6.5"/>
		<path class="st13" d="M181.2,385.7c0,3.1-3.7,6.5-8.2,6.5s-8.2-3.4-8.2-6.5"/>
		<path class="st13" d="M197.5,385.7c0,3.1-3.7,6.5-8.2,6.5s-8.2-3.4-8.2-6.5"/>
		<path class="st13" d="M213.9,385.7c0,3.1-3.7,6.5-8.2,6.5s-8.2-3.4-8.2-6.5"/>
		<path class="st13" d="M230.5,385.8c0,3.1-3.7,6.5-8.2,6.5s-8.2-3.4-8.2-6.5"/>
		<path class="st13" d="M246.9,385.9c0,3.1-3.7,6.5-8.2,6.5s-8.2-3.4-8.2-6.5"/>
		<path class="st13" d="M263.4,385.9c0,3.1-3.7,6.5-8.2,6.5s-8.2-3.4-8.2-6.5"/>
		<path class="st13" d="M263.4,385.9c0,3.1,3.7,6.5,8.2,6.5"/>
		<path class="st13" d="M279.8,372.6c0,3-3.7,6.4-8.2,6.4"/>
		<path class="st13" d="M296.2,372.6c0,3-3.7,6.4-8.2,6.4s-8.2-3.3-8.2-6.4"/>
		<path class="st13" d="M312.7,372.6c0,3-3.7,6.4-8.2,6.4s-8.2-3.3-8.2-6.4"/>
		<path class="st13" d="M329,372.6c0,3-3.7,6.4-8.2,6.4s-8.2-3.3-8.2-6.4"/>
		<path class="st13" d="M345.4,372.6c0,3-3.7,6.4-8.2,6.4s-8.2-3.3-8.2-6.4"/>
		<path class="st13" d="M362,372.6c0,3-3.7,6.4-8.2,6.4s-8.2-3.3-8.2-6.4"/>
		<path class="st13" d="M378.4,372.8c0,3-3.7,6.4-8.2,6.4s-8.2-3.3-8.2-6.4"/>
		<path class="st13" d="M394.9,372.8c0,3-3.7,6.4-8.2,6.4s-8.2-3.3-8.2-6.4"/>
		<path class="st13" d="M394.9,372.8c0,3,3.7,6.4,8.2,6.4"/>
		<path class="st13" d="M279.6,385.7c0,3.1-3.7,6.5-8.2,6.5"/>
		<path class="st13" d="M296,385.7c0,3.1-3.7,6.5-8.2,6.5s-8.2-3.4-8.2-6.5"/>
		<path class="st13" d="M312.5,385.7c0,3.1-3.7,6.5-8.2,6.5s-8.2-3.4-8.2-6.5"/>
		<path class="st13" d="M328.8,385.7c0,3.1-3.7,6.5-8.2,6.5s-8.2-3.4-8.2-6.5"/>
		<path class="st13" d="M345.1,385.7c0,3.1-3.7,6.5-8.2,6.5s-8.2-3.4-8.2-6.5"/>
		<path class="st13" d="M361.8,385.8c0,3.1-3.7,6.5-8.2,6.5s-8.2-3.4-8.2-6.5"/>
		<path class="st13" d="M378.2,385.9c0,3.1-3.7,6.5-8.2,6.5s-8.2-3.4-8.2-6.5"/>
		<path class="st13" d="M394.6,385.9c0,3.1-3.7,6.5-8.2,6.5s-8.2-3.4-8.2-6.5"/>
		<path class="st13" d="M394.6,385.9c0,3.1,3.7,6.5,8.2,6.5"/>
		<path class="st13" d="M359.8,382.5l2.1,1.2C360.9,383.9,360,383.8,359.8,382.5z"/>
		<polyline class="st16" points="302.2,298.7 305.8,291 313.6,291 317.1,298.7 		"/>
		<polyline class="st16" points="346.5,298.7 350,291 357.8,291 361.4,298.7 		"/>
		<rect x="310.9" y="282.9" class="st17" width="50.5" height="4.1"/>
		<rect x="310.9" y="279.8" class="st18" width="50.5" height="4.7"/>
		<rect x="310.9" y="277.6" class="st19" width="50.5" height="4.4"/>
		<rect x="310.9" y="275.4" class="st20" width="50.5" height="4.4"/>
		<rect x="310.9" y="272.5" class="st21" width="50.5" height="5.1"/>
		<rect x="310.9" y="270.6" class="st22" width="50.5" height="4.8"/>
		<rect x="310.9" y="270.6" class="st16" width="50.5" height="16.6"/>
		<rect x="300.9" y="287.4" class="st23" width="51.1" height="3.6"/>
		<rect x="300.9" y="289.7" class="st24" width="51.3" height="1.3"/>
		<rect x="300.5" y="287.4" class="st24" width="51.6" height="1.3"/>
		<rect x="300.9" y="287.3" class="st16" width="51.3" height="3.7"/>
		<rect x="348.2" y="287.4" class="st23" width="13.1" height="3.6"/>
		<rect x="348.2" y="289.7" class="st24" width="13.1" height="1.3"/>
		<rect x="348.2" y="287.4" class="st24" width="13.2" height="1.3"/>
		<rect x="348.2" y="287.3" class="st16" width="13.1" height="3.7"/>
		<rect x="358.3" y="270.6" class="st23" width="2.8" height="16.6"/>
		<rect x="360" y="270.6" class="st24" width="1.1" height="16.7"/>
		<rect x="358.3" y="270.6" class="st24" width="1.1" height="16.8"/>
		<rect x="358.2" y="270.6" class="st16" width="3" height="16.7"/>
		<path d="M349.6,286.3L349.6,286.3z"/>
		<path d="M349.7,286.4L349.7,286.4z"/>
		<polyline class="st16" points="232,298.7 235.5,291 243.3,291 246.9,298.7 		"/>
		<polyline class="st16" points="276.2,298.7 279.8,291 287.6,291 291.1,298.7 		"/>
		<rect x="240.7" y="282.9" class="st17" width="50.5" height="4.1"/>
		<rect x="240.7" y="279.8" class="st18" width="50.5" height="4.7"/>
		<rect x="240.7" y="277.6" class="st19" width="50.5" height="4.4"/>
		<rect x="240.7" y="275.4" class="st20" width="50.5" height="4.4"/>
		<rect x="240.7" y="272.5" class="st21" width="50.5" height="5.1"/>
		<rect x="240.7" y="270.6" class="st22" width="50.5" height="4.8"/>
		<rect x="240.7" y="270.6" class="st16" width="50.5" height="16.6"/>
		<rect x="230.7" y="287.4" class="st23" width="51.1" height="3.6"/>
		<rect x="230.7" y="289.7" class="st24" width="51.3" height="1.3"/>
		<rect x="230.3" y="287.4" class="st24" width="51.6" height="1.3"/>
		<rect x="230.7" y="287.3" class="st16" width="51.3" height="3.7"/>
		<rect x="278" y="287.4" class="st23" width="13.1" height="3.6"/>
		<rect x="278" y="289.7" class="st24" width="13.1" height="1.3"/>
		<rect x="277.9" y="287.4" class="st24" width="13.2" height="1.3"/>
		<rect x="278" y="287.3" class="st16" width="13.1" height="3.7"/>
		<rect x="288.1" y="270.6" class="st23" width="2.8" height="16.6"/>
		<rect x="289.8" y="270.6" class="st24" width="1.1" height="16.7"/>
		<rect x="288.1" y="270.6" class="st24" width="1.1" height="16.8"/>
		<rect x="288" y="270.6" class="st16" width="3" height="16.7"/>
		<path d="M279.4,286.3L279.4,286.3z"/>
		<path d="M279.4,286.4L279.4,286.4z"/>
		<rect x="413.1" y="268.1" class="st25" width="412.1" height="50.1"/>
		<rect x="413.1" y="253" class="st26" width="412.1" height="50.1"/>
		<rect x="1.8" y="314" class="st9" width="412.9" height="9.7"/>
		<rect x="1.8" y="320.3" class="st27" width="176.9" height="11"/>
		<line class="st28" x1="34.8" y1="306.2" x2="15.4" y2="306.2"/>
		<rect x="2.1" y="320.3" class="st29" width="176.8" height="3.4"/>
		<line class="st28" x1="48" y1="306.2" x2="40.1" y2="306.2"/>
		<polygon class="st30" points="178.9,298.4 3,298.4 3,309.4 178.9,309.4 414.3,309.4 414.3,298.4 		"/>
		<polygon class="st31" points="178.7,306.2 178.6,306.2 2.8,306.2 2.8,320.3 178.6,320.3 178.7,320.3 414,320.3 414,306.2 		"/>
		<rect x="179.3" y="320.3" class="st32" width="235.4" height="11"/>
		<rect x="178.9" y="320.5" class="st29" width="235.4" height="3.7"/>
		<rect x="178.8" y="326.7" class="st29" width="235.4" height="4.2"/>
		<rect x="2.2" y="326.7" class="st29" width="235.4" height="4.2"/>
		<rect x="179.3" y="320.3" class="st16" width="234.7" height="11"/>
		<rect x="2.4" y="298.4" class="st16" width="176.2" height="21.5"/>
		<rect x="207.4" y="298.4" class="st33" width="30.3" height="21.9"/>
		<rect x="147.8" y="298.4" class="st33" width="30.3" height="21.9"/>
		<rect x="117.3" y="298.4" class="st33" width="30.3" height="21.9"/>
		<rect x="86.8" y="298.4" class="st33" width="30.3" height="21.9"/>
		<rect x="56.3" y="298.4" class="st33" width="30.3" height="21.9"/>
		<rect x="25.9" y="298.4" class="st33" width="30.3" height="21.9"/>
		<rect x="2.8" y="298.4" class="st33" width="22.9" height="21.9"/>
		<rect x="268" y="298.5" class="st33" width="30.3" height="21.9"/>
		<rect x="237.7" y="298.4" class="st33" width="30.3" height="21.9"/>
		<rect x="298.4" y="298.5" class="st33" width="30.3" height="21.9"/>
		<rect x="328.7" y="298.5" class="st33" width="30.3" height="21.9"/>
		<rect x="359.1" y="298.4" class="st33" width="30.3" height="21.9"/>
		<rect x="178.6" y="298.4" class="st16" width="235.4" height="32.8"/>
		<rect x="2.1" y="320.3" class="st16" width="176.8" height="11"/>
		<rect x="413.9" y="314" class="st9" width="412.9" height="9.7"/>
		<rect x="413.9" y="320.3" class="st27" width="176.9" height="11"/>
		<rect x="414.5" y="298.4" class="st16" width="176.2" height="21.5"/>
		<rect x="414.2" y="320.3" class="st16" width="176.8" height="11"/>
		<rect x="-411.6" y="314" class="st9" width="412.9" height="9.7"/>
		<polygon class="st30" points="-234.5,298.4 -410.3,298.4 -410.3,309.4 -234.5,309.4 0.9,309.4 0.9,298.4 		"/>
		<polygon class="st31" points="-234.7,306.2 -234.7,306.2 -410.5,306.2 -410.5,320.3 -234.7,320.3 -234.7,320.3 0.6,320.3 
			0.6,306.2 		"/>
		<rect x="-234" y="320.3" class="st32" width="235.4" height="11"/>
		<rect x="-234.5" y="320.5" class="st29" width="235.4" height="3.7"/>
		<rect x="-234.6" y="326.7" class="st29" width="235.4" height="4.2"/>
		<rect x="-234" y="320.3" class="st16" width="234.7" height="11"/>
		<rect x="-234.7" y="298.4" class="st16" width="235.4" height="32.8"/>
	</g>
</g>
</svg>
