<?xml version="1.0" encoding="utf-8"?>
<!-- Generator: Adobe Illustrator 24.1.0, SVG Export Plug-In . SVG Version: 6.00 Build 0)  -->
<svg version="1.1" id="Capa_1" xmlns="http://www.w3.org/2000/svg" xmlns:xlink="http://www.w3.org/1999/xlink" x="0px" y="0px"
	 viewBox="0 0 414 414" style="enable-background:new 0 0 414 414;" xml:space="preserve">
<style type="text/css">
	.st0{clip-path:url(#SVGID_2_);}
	.st1{fill:url(#SVGID_3_);}
	.st2{fill:#93D1D7;}
	.st3{fill:#BEE1E5;}
	.st4{fill:#DBEEEF;}
	.st5{fill:#EFC411;}
	.st6{fill:#E3F2F4;}
	.st7{fill:#137376;}
	.st8{fill:#EFAA2F;}
	.st9{fill:#F4C165;}
	.st10{fill:#3D6492;}
	.st11{fill:none;stroke:#456FA1;stroke-width:3;stroke-miterlimit:10;}
	.st12{fill:#2A5177;}
	.st13{fill:#040A0A;}
	.st14{fill:#C39F69;}
	.st15{fill:#A07130;}
	.st16{fill:#684C23;}
	.st17{fill:#30845A;}
	.st18{fill:#7D4E24;stroke:#000000;stroke-width:2;stroke-miterlimit:10;}
	.st19{fill:#482812;}
	.st20{fill:#CA9E67;}
	.st21{fill:#936037;}
	.st22{fill:none;stroke:#000000;stroke-width:2;stroke-miterlimit:10;}
	.st23{fill:none;stroke:#000000;stroke-miterlimit:10;}
	.st24{fill:#237378;}
	.st25{fill:#1B646C;}
	.st26{fill:#1C6D7A;}
	.st27{fill:#145659;}
	.st28{fill:none;stroke:#000000;stroke-width:1.5;stroke-miterlimit:10;}
	.st29{fill:#7D4E24;}
</style>
<g>
	<defs>
		<rect id="SVGID_1_" width="411.1" height="411.1"/>
	</defs>
	<clipPath id="SVGID_2_">
		<use xlink:href="#SVGID_1_"  style="overflow:visible;"/>
	</clipPath>
	<g class="st0">
		
			<linearGradient id="SVGID_3_" gradientUnits="userSpaceOnUse" x1="-827.23" y1="211.405" x2="3287.2998" y2="211.405" gradientTransform="matrix(1 0 0 -1 0 416)">
			<stop  offset="0" style="stop-color:#00A19A"/>
			<stop  offset="0.23" style="stop-color:#36A9E1"/>
			<stop  offset="0.49" style="stop-color:#1D71B8"/>
			<stop  offset="0.72" style="stop-color:#2D3387"/>
			<stop  offset="1" style="stop-color:#29235C"/>
		</linearGradient>
		<rect x="-827.2" y="-1.2" class="st1" width="4114.5" height="411.6"/>
		<path class="st2" d="M175.7,158.4c0,12.1-9.8,21.9-21.9,21.9s-21.9-9.8-21.9-21.9s9.8-21.9,21.9-21.9
			C166,136.6,175.7,146.3,175.7,158.4L175.7,158.4z"/>
		<path class="st3" d="M153.9,139.7c-10.3,0-18.7,8.4-18.7,18.7s8.4,18.7,18.7,18.7s18.7-8.4,18.7-18.7
			C172.6,148.1,164.2,139.7,153.9,139.7z"/>
		<path class="st4" d="M153.5,142.5c-8.6,0-15.5,7-15.5,15.5s7,15.5,15.5,15.5s15.5-7,15.5-15.5l0,0
			C169,149.4,162,142.5,153.5,142.5z"/>
		<path class="st5" d="M153.5,146c-6.6,0-12,5.4-12,12s5.4,12,12,12s12-5.4,12-12S160.1,146,153.5,146z"/>
		<path class="st6" d="M378.8,56.8h24.4c0,0,3.4-9.6-5.3-9.6c0,0-0.4-5.5-5.5-5.5c0,0-3.5,0-3.5,2.5c0,0-0.5-4.3-4.3-4.3
			c0,0-5.7,0.2-5.7,5.7c0,0-6.3-2-8.2,0c0,0-1.9,0.4-1.9,4.9c0,0-6.5,2.2-6.5,6.3H378.8z"/>
		<path class="st6" d="M272.9,193.7h24.3c0,0,3.3-9.6-5.2-9.6c0,0-0.4-5.5-5.4-5.5c0,0-3.5,0-3.5,2.5c0,0-0.5-4.3-4.3-4.3
			c0,0-5.6,0.2-5.6,5.7c0,0-6.2-1.9-8.2,0c0,0-1.9,0.4-1.9,4.9c0,0-6.5,2.2-6.5,6.3H272.9z"/>
		<path class="st6" d="M367.1,27.3c-19.3-4.2-21.3,0-21.3,0"/>
		<path class="st6" d="M344.1,27.1c-11.8-3.5-13,0-13,0"/>
		<path class="st6" d="M94.2,40.8c-19.3-4.2-21.3,0-21.3,0"/>
		<path class="st6" d="M71.2,40.6c-11.8-3.5-13,0-13,0"/>
		<path class="st7" d="M284,164.4c0,0,8.7-6.4,15.2,1.6l3.8-0.7l-2-1c0,0,4.4-6.5,9.2-4.1c0,0-5.1-4.1-10.9,0.9
			C299.4,161,289.6,156.4,284,164.4z"/>
		<path class="st7" d="M390.5,74.3c0,0-9-5-14.1,3.3l-3.6-0.2l1.7-1.2c0,0-5-5.6-9.1-2.7c0,0,4.3-4.5,10.3-0.5
			C375.6,72.9,384.3,67.5,390.5,74.3z"/>
		<path class="st6" d="M118.4,241.2h29.5c0,0,4-10-6.4-10c-0.3-3.4-3.2-5.9-6.6-5.7c0,0-4.2,0-4.2,2.6c-0.3-2.6-2.6-4.5-5.2-4.5
			c0,0-6.8,0.2-6.8,5.9c0,0-7.6-2.1-9.9,0c0,0-2.3,0.4-2.3,5.1c0,0-7.9,2.3-7.9,6.6L118.4,241.2z"/>
		<path class="st6" d="M74.3,82.3h19.9c0,0,2.7-7.8-4.3-7.8c0,0-0.3-4.5-4.5-4.5c0,0-2.8,0-2.8,2.1c0,0-0.4-3.5-3.5-3.5
			c0,0-4.6,0.1-4.6,4.6c0,0-5.1-1.6-6.7,0c0,0-1.6,0.3-1.6,4c0,0-5.3,1.8-5.3,5.1L74.3,82.3z"/>
		<path class="st6" d="M383.3,187.5c-15.2-4.2-16.8,0-16.8,0"/>
		<path class="st6" d="M238.8,44.5c-15.2-4.2-16.8,0-16.8,0"/>
		<path class="st6" d="M166.9,99.7c-17.7-4.9-19.5,0-19.5,0"/>
		<path class="st6" d="M145.9,99.5c-10.8-4.1-11.9,0-11.9,0"/>
		<path class="st6" d="M59,154.1c-17.7-4.9-19.5,0-19.5,0"/>
		<path class="st6" d="M38,153.9c-10.8-4.1-11.9,0-11.9,0"/>
		<path class="st6" d="M236.4,193.3c-17.7-4.9-19.5,0-19.5,0"/>
		<path class="st6" d="M284.7,101c-17.7-4.9-19.5,0-19.5,0"/>
		<path class="st6" d="M215.3,193.1c-10.8-4.1-11.9,0-11.9,0"/>
		<path class="st6" d="M110.7,168.2c-15.2-4.2-16.8,0-16.8,0"/>
		<path class="st7" d="M69.4,111.6c0,0,8.4-4,12.6,3.8h3.3l-1.5-1.2c0,0,4.8-4.8,8.4-2c0,0-3.6-4.3-9.3-1
			C83,111.2,75.5,105.8,69.4,111.6z"/>
		<rect x="413.8" y="325.8" class="st8" width="411.8" height="10.6"/>
		<rect x="413.8" y="335.8" class="st9" width="411.8" height="10.6"/>
		<rect x="413.8" y="347" class="st8" width="411.8" height="10.6"/>
		<rect x="413.8" y="357" class="st9" width="411.8" height="10.6"/>
		<rect x="413.8" y="368.1" class="st8" width="411.8" height="10.6"/>
		<rect x="413.8" y="378.1" class="st9" width="411.8" height="10.6"/>
		<rect x="413.8" y="389.3" class="st8" width="411.8" height="10.6"/>
		<rect x="413.8" y="399.3" class="st9" width="411.8" height="10.6"/>
		<rect x="1" y="328" class="st10" width="412.6" height="83.1"/>
		<path class="st11" d="M15.4,342.2c0,3-3.7,6.4-8.2,6.4"/>
		<path class="st11" d="M31.8,342.2c0,3-3.7,6.4-8.2,6.4s-8.2-3.3-8.2-6.4"/>
		<path class="st11" d="M48.3,342.2c0,3-3.7,6.4-8.2,6.4s-8.2-3.3-8.2-6.4"/>
		<path class="st11" d="M64.6,342.2c0,3-3.7,6.4-8.2,6.4s-8.2-3.3-8.2-6.4"/>
		<path class="st11" d="M80.9,342.2c0,3-3.7,6.4-8.2,6.4s-8.2-3.3-8.2-6.4"/>
		<path class="st11" d="M97.6,342.3c0,3-3.7,6.4-8.2,6.4s-8.2-3.3-8.2-6.4"/>
		<path class="st11" d="M114,342.5c0,3-3.7,6.4-8.2,6.4s-8.2-3.3-8.2-6.4"/>
		<path class="st11" d="M130.4,342.5c0,3-3.7,6.4-8.2,6.4s-8.2-3.3-8.2-6.4"/>
		<path class="st11" d="M130.4,342.5c0,3,3.7,6.4,8.2,6.4"/>
		<path class="st11" d="M15.2,355.4c0,3.1-3.7,6.5-8.2,6.5"/>
		<path class="st11" d="M31.6,355.4c0,3.1-3.7,6.5-8.2,6.5s-8.2-3.4-8.2-6.5"/>
		<path class="st11" d="M48,355.4c0,3.1-3.7,6.5-8.2,6.5s-8.2-3.4-8.2-6.5"/>
		<path class="st11" d="M64.3,355.4c0,3.1-3.7,6.5-8.2,6.5s-8.2-3.4-8.2-6.5"/>
		<path class="st11" d="M80.7,355.4c0,3.1-3.7,6.5-8.2,6.5s-8.2-3.4-8.2-6.5"/>
		<path class="st11" d="M97.3,355.4c0,3.1-3.7,6.5-8.2,6.5s-8.2-3.4-8.2-6.5"/>
		<path class="st11" d="M113.8,355.6c0,3.1-3.7,6.5-8.2,6.5s-8.2-3.4-8.2-6.5"/>
		<path class="st11" d="M130.2,355.6c0,3.1-3.7,6.5-8.2,6.5s-8.2-3.4-8.2-6.5"/>
		<path class="st11" d="M130.2,355.6c0,3.1,3.7,6.5,8.2,6.5"/>
		<path class="st11" d="M146.7,342.2c0,3-3.7,6.4-8.2,6.4"/>
		<path class="st11" d="M163.1,342.2c0,3-3.7,6.4-8.2,6.4s-8.2-3.3-8.2-6.4"/>
		<path class="st11" d="M179.5,342.2c0,3-3.7,6.4-8.2,6.4s-8.2-3.3-8.2-6.4"/>
		<path class="st11" d="M195.8,342.2c0,3-3.7,6.4-8.2,6.4s-8.2-3.3-8.2-6.4"/>
		<path class="st11" d="M212.2,342.2c0,3-3.7,6.4-8.2,6.4s-8.2-3.3-8.2-6.4"/>
		<path class="st11" d="M228.8,342.3c0,3-3.7,6.4-8.2,6.4s-8.2-3.3-8.2-6.4"/>
		<path class="st11" d="M245.3,342.5c0,3-3.7,6.4-8.2,6.4s-8.2-3.3-8.2-6.4"/>
		<path class="st11" d="M261.7,342.5c0,3-3.7,6.4-8.2,6.4s-8.2-3.3-8.2-6.4"/>
		<path class="st11" d="M261.7,342.5c0,3,3.7,6.4,8.2,6.4"/>
		<path class="st11" d="M146.4,355.4c0,3.1-3.7,6.5-8.2,6.5"/>
		<path class="st11" d="M162.9,355.4c0,3.1-3.7,6.5-8.2,6.5s-8.2-3.4-8.2-6.5"/>
		<path class="st11" d="M179.3,355.4c0,3.1-3.7,6.5-8.2,6.5s-8.2-3.4-8.2-6.5"/>
		<path class="st11" d="M195.6,355.4c0,3.1-3.7,6.5-8.2,6.5s-8.2-3.4-8.2-6.5"/>
		<path class="st11" d="M212,355.4c0,3.1-3.7,6.5-8.2,6.5s-8.2-3.4-8.2-6.5"/>
		<path class="st11" d="M228.6,355.4c0,3.1-3.7,6.5-8.2,6.5s-8.2-3.4-8.2-6.5"/>
		<path class="st11" d="M245.1,355.6c0,3.1-3.7,6.5-8.2,6.5s-8.2-3.4-8.2-6.5"/>
		<path class="st11" d="M261.5,355.6c0,3.1-3.7,6.5-8.2,6.5s-8.2-3.4-8.2-6.5"/>
		<path class="st11" d="M261.5,355.6c0,3.1,3.7,6.5,8.2,6.5"/>
		<path class="st11" d="M277.9,342.2c0,3-3.7,6.4-8.2,6.4"/>
		<path class="st11" d="M294.4,342.2c0,3-3.7,6.4-8.2,6.4s-8.2-3.3-8.2-6.4"/>
		<path class="st11" d="M310.8,342.2c0,3-3.7,6.4-8.2,6.4s-8.2-3.3-8.2-6.4"/>
		<path class="st11" d="M327.1,342.2c0,3-3.7,6.4-8.2,6.4s-8.2-3.3-8.2-6.4"/>
		<path class="st11" d="M343.5,342.2c0,3-3.7,6.4-8.2,6.4s-8.2-3.3-8.2-6.4"/>
		<path class="st11" d="M360.1,342.3c0,3-3.7,6.4-8.2,6.4s-8.2-3.3-8.2-6.4"/>
		<path class="st11" d="M376.5,342.5c0,3-3.7,6.4-8.2,6.4s-8.2-3.3-8.2-6.4"/>
		<path class="st11" d="M393,342.5c0,3-3.7,6.4-8.2,6.4s-8.2-3.3-8.2-6.4"/>
		<path class="st11" d="M393,342.5c0,3,3.7,6.4,8.2,6.4"/>
		<path class="st11" d="M277.7,355.4c0,3.1-3.7,6.5-8.2,6.5"/>
		<path class="st11" d="M294.2,355.4c0,3.1-3.7,6.5-8.2,6.5s-8.2-3.4-8.2-6.5"/>
		<path class="st11" d="M310.6,355.4c0,3.1-3.7,6.5-8.2,6.5s-8.2-3.4-8.2-6.5"/>
		<path class="st11" d="M326.9,355.4c0,3.1-3.7,6.5-8.2,6.5s-8.2-3.4-8.2-6.5"/>
		<path class="st11" d="M343.3,355.4c0,3.1-3.7,6.5-8.2,6.5s-8.2-3.4-8.2-6.5"/>
		<path class="st11" d="M359.9,355.4c0,3.1-3.7,6.5-8.2,6.5s-8.2-3.4-8.2-6.5"/>
		<path class="st11" d="M376.3,355.6c0,3.1-3.7,6.5-8.2,6.5s-8.2-3.4-8.2-6.5"/>
		<path class="st11" d="M392.8,355.6c0,3.1-3.7,6.5-8.2,6.5s-8.2-3.4-8.2-6.5"/>
		<path class="st11" d="M392.8,355.6c0,3.1,3.7,6.5,8.2,6.5"/>
		<path class="st12" d="M46.4,399.4c15.7,7.3,17.3,0,17.3,0"/>
		<path class="st12" d="M63.2,399.6c9.6,6.1,10.6,0,10.6,0"/>
		<path class="st12" d="M330.6,371c-12.8-7.3-14.1,0-14.1,0"/>
		<path class="st12" d="M316.9,370.7c-7.8-6.1-8.6,0-8.6,0"/>
		<path class="st12" d="M330.6,371c-12.8-7.3-14.1,0-14.1,0"/>
		<path class="st12" d="M316.9,370.7c-7.8-6.1-8.6,0-8.6,0"/>
		<path class="st12" d="M223,400.5c-8.7-4.9-9.6,0-9.6,0"/>
		<path class="st12" d="M213.7,400.3c-5.3-4.1-5.8,0-5.8,0"/>
		<path class="st12" d="M358,352.1l2.1,1.2C359,353.5,358.1,353.4,358,352.1z"/>
		<path class="st11" d="M15.4,371.3c0,3-3.7,6.4-8.2,6.4"/>
		<path class="st11" d="M31.8,371.3c0,3-3.7,6.4-8.2,6.4s-8.2-3.3-8.2-6.4"/>
		<path class="st11" d="M48.3,371.3c0,3-3.7,6.4-8.2,6.4s-8.2-3.3-8.2-6.4"/>
		<path class="st11" d="M64.6,371.3c0,3-3.7,6.4-8.2,6.4s-8.2-3.3-8.2-6.4"/>
		<path class="st11" d="M80.9,371.3c0,3-3.7,6.4-8.2,6.4s-8.2-3.3-8.2-6.4"/>
		<path class="st11" d="M97.6,371.4c0,3-3.7,6.4-8.2,6.4s-8.2-3.3-8.2-6.4"/>
		<path class="st11" d="M114,371.6c0,3-3.7,6.4-8.2,6.4s-8.2-3.3-8.2-6.4"/>
		<path class="st11" d="M130.4,371.6c0,3-3.7,6.4-8.2,6.4s-8.2-3.3-8.2-6.4"/>
		<path class="st11" d="M130.4,371.6c0,3,3.7,6.4,8.2,6.4"/>
		<path class="st11" d="M15.2,384.5c0,3.1-3.7,6.5-8.2,6.5"/>
		<path class="st11" d="M31.6,384.5c0,3.1-3.7,6.5-8.2,6.5s-8.2-3.4-8.2-6.5"/>
		<path class="st11" d="M48,384.5c0,3.1-3.7,6.5-8.2,6.5s-8.2-3.4-8.2-6.5"/>
		<path class="st11" d="M64.3,384.5c0,3.1-3.7,6.5-8.2,6.5s-8.2-3.4-8.2-6.5"/>
		<path class="st11" d="M80.7,384.5c0,3.1-3.7,6.5-8.2,6.5s-8.2-3.4-8.2-6.5"/>
		<path class="st11" d="M97.3,384.5c0,3.1-3.7,6.5-8.2,6.5s-8.2-3.4-8.2-6.5"/>
		<path class="st11" d="M113.8,384.7c0,3.1-3.7,6.5-8.2,6.5s-8.2-3.4-8.2-6.5"/>
		<path class="st11" d="M130.2,384.7c0,3.1-3.7,6.5-8.2,6.5s-8.2-3.4-8.2-6.5"/>
		<path class="st11" d="M130.2,384.7c0,3.1,3.7,6.5,8.2,6.5"/>
		<path class="st11" d="M146.7,371.3c0,3-3.7,6.4-8.2,6.4"/>
		<path class="st11" d="M163.1,371.3c0,3-3.7,6.4-8.2,6.4s-8.2-3.3-8.2-6.4"/>
		<path class="st11" d="M179.5,371.3c0,3-3.7,6.4-8.2,6.4s-8.2-3.3-8.2-6.4"/>
		<path class="st11" d="M195.8,371.3c0,3-3.7,6.4-8.2,6.4s-8.2-3.3-8.2-6.4"/>
		<path class="st11" d="M212.2,371.3c0,3-3.7,6.4-8.2,6.4s-8.2-3.3-8.2-6.4"/>
		<path class="st11" d="M228.8,371.4c0,3-3.7,6.4-8.2,6.4s-8.2-3.3-8.2-6.4"/>
		<path class="st11" d="M245.3,371.6c0,3-3.7,6.4-8.2,6.4s-8.2-3.3-8.2-6.4"/>
		<path class="st11" d="M261.7,371.6c0,3-3.7,6.4-8.2,6.4s-8.2-3.3-8.2-6.4"/>
		<path class="st11" d="M261.7,371.6c0,3,3.7,6.4,8.2,6.4"/>
		<path class="st11" d="M146.4,384.5c0,3.1-3.7,6.5-8.2,6.5"/>
		<path class="st11" d="M162.9,384.5c0,3.1-3.7,6.5-8.2,6.5s-8.2-3.4-8.2-6.5"/>
		<path class="st11" d="M179.3,384.5c0,3.1-3.7,6.5-8.2,6.5s-8.2-3.4-8.2-6.5"/>
		<path class="st11" d="M195.6,384.5c0,3.1-3.7,6.5-8.2,6.5s-8.2-3.4-8.2-6.5"/>
		<path class="st11" d="M212,384.5c0,3.1-3.7,6.5-8.2,6.5s-8.2-3.4-8.2-6.5"/>
		<path class="st11" d="M228.6,384.5c0,3.1-3.7,6.5-8.2,6.5s-8.2-3.4-8.2-6.5"/>
		<path class="st11" d="M245.1,384.7c0,3.1-3.7,6.5-8.2,6.5s-8.2-3.4-8.2-6.5"/>
		<path class="st11" d="M261.5,384.7c0,3.1-3.7,6.5-8.2,6.5s-8.2-3.4-8.2-6.5"/>
		<path class="st11" d="M261.5,384.7c0,3.1,3.7,6.5,8.2,6.5"/>
		<path class="st11" d="M277.9,371.3c0,3-3.7,6.4-8.2,6.4"/>
		<path class="st11" d="M294.4,371.3c0,3-3.7,6.4-8.2,6.4s-8.2-3.3-8.2-6.4"/>
		<path class="st11" d="M310.8,371.3c0,3-3.7,6.4-8.2,6.4s-8.2-3.3-8.2-6.4"/>
		<path class="st11" d="M327.1,371.3c0,3-3.7,6.4-8.2,6.4s-8.2-3.3-8.2-6.4"/>
		<path class="st11" d="M343.5,371.3c0,3-3.7,6.4-8.2,6.4s-8.2-3.3-8.2-6.4"/>
		<path class="st11" d="M360.1,371.4c0,3-3.7,6.4-8.2,6.4s-8.2-3.3-8.2-6.4"/>
		<path class="st11" d="M376.5,371.6c0,3-3.7,6.4-8.2,6.4s-8.2-3.3-8.2-6.4"/>
		<path class="st11" d="M393,371.6c0,3-3.7,6.4-8.2,6.4s-8.2-3.3-8.2-6.4"/>
		<path class="st11" d="M393,371.6c0,3,3.7,6.4,8.2,6.4"/>
		<path class="st11" d="M277.7,384.5c0,3.1-3.7,6.5-8.2,6.5"/>
		<path class="st11" d="M294.2,384.5c0,3.1-3.7,6.5-8.2,6.5s-8.2-3.4-8.2-6.5"/>
		<path class="st11" d="M310.6,384.5c0,3.1-3.7,6.5-8.2,6.5s-8.2-3.4-8.2-6.5"/>
		<path class="st11" d="M326.9,384.5c0,3.1-3.7,6.5-8.2,6.5s-8.2-3.4-8.2-6.5"/>
		<path class="st11" d="M343.3,384.5c0,3.1-3.7,6.5-8.2,6.5s-8.2-3.4-8.2-6.5"/>
		<path class="st11" d="M359.9,384.5c0,3.1-3.7,6.5-8.2,6.5s-8.2-3.4-8.2-6.5"/>
		<path class="st11" d="M376.3,384.7c0,3.1-3.7,6.5-8.2,6.5s-8.2-3.4-8.2-6.5"/>
		<path class="st11" d="M392.8,384.7c0,3.1-3.7,6.5-8.2,6.5s-8.2-3.4-8.2-6.5"/>
		<path class="st11" d="M392.8,384.7c0,3.1,3.7,6.5,8.2,6.5"/>
		<path class="st11" d="M358,381.2l2.1,1.2C359,382.7,358.1,382.5,358,381.2z"/>
		
			<rect x="420.3" y="268.7" transform="matrix(0.5339 -0.8455 0.8455 0.5339 -37.8107 484.8528)" class="st13" width="1.1" height="16.1"/>
		
			<rect x="420.6" y="281.5" transform="matrix(0.5339 -0.8455 0.8455 0.5339 -48.5647 491.0984)" class="st13" width="1.1" height="16.2"/>
		<rect x="412.4" y="269.1" class="st14" width="2.8" height="32.5"/>
		<rect x="412.4" y="269.1" class="st15" width="1.7" height="32.5"/>
		<rect x="412.3" y="269.1" class="st16" width="0.9" height="32.5"/>
		<path d="M415.4,302h-3.5v-33.3h3.5V302z M412.6,301.2h2v-31.8h-2V301.2z"/>
		<rect x="407" y="312.7" class="st17" width="412.9" height="9.7"/>
		<rect x="407" y="319.1" class="st18" width="176.9" height="11"/>
		<rect x="407.4" y="319.1" class="st19" width="176.7" height="3.4"/>
		<polygon class="st20" points="584.1,297.2 408.3,297.2 408.3,308.2 584.1,308.2 819.5,308.2 819.5,297.2 		"/>
		<polygon class="st21" points="583.9,305 583.8,305 408.1,305 408.1,319.1 583.8,319.1 583.9,319.1 819.2,319.1 819.2,305 		"/>
		<rect x="407.5" y="325.4" class="st19" width="235.4" height="4.2"/>
		<rect x="407.6" y="297.2" class="st22" width="176.2" height="21.5"/>
		<rect x="408.1" y="297.2" class="st23" width="22.9" height="21.9"/>
		<rect x="407.4" y="319.1" class="st22" width="176.7" height="11"/>
		<path class="st24" d="M47.3,310.4H28.8C35,311.2,41.1,311.5,47.3,310.4z"/>
		<path class="st24" d="M463.5,310.4v-16.6h-54.4c0-12.8-0.1-27.7-0.1-38.8c0-7.2,0-14.4,0.1-21.6c0-1-0.3-1.4-1.4-1.4
			c-2.1,0.1-4.2,0-6.3,0c-0.5,0-1.2,0.2-1.2-0.7c-0.1-3.6,0.5-7.4-1.1-10.9c0-13.4,0-26.8,0-40.2c0-1.1,0.4-2.2,1.1-3
			c1.4-1.6,2.7-3.4,4.3-5.3c-1.6,0-2.7,0-3.9,0c-1,0-1.4-0.2-1.5-1.3c-0.9-9.6-5.7-16.1-14.9-19.1c-0.8-0.1-1.3-0.8-1.2-1.6
			c0,0,0-0.1,0-0.1c0.2-2.3-1.5-4.3-3.8-4.5c-2.3-0.2-4.3,1.5-4.5,3.8c0,0.3,0,0.5,0,0.8c0.1,1.1-0.3,1.2-1.1,1.5
			c-9.3,3-14.2,9.6-15.1,19.2c-0.1,1-0.4,1.3-1.3,1.3c-1.2,0-2.4,0-4.1,0c1.7,2.1,3,3.8,4.4,5.5c0.6,0.6,0.9,1.5,0.9,2.3
			c0,13.7,0,27.5,0,41.2c0,0.9-0.1,1.6-1.3,1.5c-0.9-0.1-1.2,0.3-1.1,1.2c0.1,2.1-0.1,4.2,0,6.3c0.1,1.6-0.3,2.4-2.1,2.2
			s-3.6,0-5.4-0.1c-1.3-0.1-1.6,0.4-1.5,1.6c0.1,1.6,0,3.1,0,4.6c0,0.9-0.2,1.3-1.2,1.4c-1.5,0.1-2-0.2-2-1.9
			c0.1-17.6,0-35.3,0.1-52.9c0-1.5-0.4-2-1.9-1.9c-2.8,0.1-5.6,0.1-8.4,0c-1.6-0.1-1.9,0.5-1.9,2c0.1,8.3,0,16.5,0,24.8
			c0,1.3-0.3,1.8-1.6,1.7c-1-0.1-2.1,0.1-3.2-0.1c-1.4-0.1-1.8,0.4-1.8,1.8c0.1,7.8,0,15.6,0,23.5c0,3,0,2.9-3,3
			c-1.9,0.1-2.2-0.6-2.2-2.3c0.1-11.5,0-23,0.1-34.5c0-1.3-0.2-2-1.7-1.8s-1.8-0.6-1.8-1.9c0.1-3.3,0-3.4-3.3-3.4
			c-1.1,0-1.5-0.4-1.5-1.5c0.1-1.5,0-3,0-4.5c0-1-0.3-1.4-1.4-1.4c-4.8,0-9.7,0-14.5,0c-1.1,0-1.4,0.4-1.3,1.4c0,1.6,0,3.1,0,4.6
			c0,0.8-0.2,1.2-1.1,1.3c-1.2,0-2.6-0.5-3.4,0.3s-0.3,2.4-0.2,3.6s-0.4,1.6-1.5,1.5c-0.4,0-0.8,0-1.1,0c-1.6-0.2-2.2,0.3-2.2,2.1
			c0.1,6,0,12.1,0,18.1c0,1.6,0,3.3,0,4.9c-0.5-0.4-0.8-0.8-1-1.4c-5.5-14.1-11.1-28.1-16.6-42.2c-0.3-1.3-1.6-2.2-3-2
			c-10.2,0.1-20.5,0-30.7,0c-0.6,0-1.3,0.2-1.9-0.3l2.7-1.8l-0.1-0.4h-3.8l3.6-1.9c-0.9-0.3-1.8-0.4-2.8-0.3
			c-1.1,0.1-1.5-0.3-1.5-1.4c0-6.3-0.1-12.6-0.1-18.9c0-0.8-0.1-0.9-0.9-0.9c-1.8,0-3.6-0.3-5.3-1c-0.7-0.1-1.3-0.9-1.1-1.6
			c0-6.8,0-13.7,0-20.5c0-1.1,0.3-1.5,1.4-1.4s1.3-0.2,1.3-1.2c0-4.4,0-8.8,0-13.2c0-1-0.4-1.2-1.3-1.2s-1.5,0.2-1.4,1.3
			c0.1,2.6-0.1,5.1,0,7.6c0.1,1.4-0.3,2-1.8,1.9c-1.4,0-1.9-0.2-1.9-1.8c0.1-5.8,0.1-11.6,0-17.3c0-1.1-0.2-2.2,1.5-2
			c0.4,0,0.7-0.3,0.7-0.7c0-1.1,0.3-2.3-0.2-3.1c-1.5-2.8-3.3-5.4-5-8c-0.9,0.4-0.8,1.4-1.6,1.6c-0.1-0.1-0.2-0.2-0.2-0.3l-4.5-34.3
			c-0.1-0.8,0.1-1.6,0.5-2.3c1.7-2.7,0.9-6.2-1.8-7.9c-0.3-0.2-0.5-0.3-0.8-0.4c-0.8-0.3-1.4-1.1-1.2-1.9c0.1-2.7,0-5.5,0-8.2
			c0-0.9,0.2-2.1-1.2-2s-1.1,1.2-1.1,2.1c0,2.7,0,5.5,0,8.2c0.1,0.7-0.2,1.4-0.8,1.8c-2.9,1.1-4.3,4.4-3.2,7.2
			c0.1,0.3,0.3,0.7,0.5,1c0.5,0.9,0.6,1.9,0.4,2.8c-1.1,8.5-2.2,17-3.3,25.5c-0.4,2.9-0.8,5.8-1.2,9l-1.5-2
			c-1.4,2.1-2.7,4.3-4.1,6.2c-1,1.3-1.4,2.9-1.2,4.5c0.1,0.8,0.2,1.3,1.1,1.3s1.1,0.5,1.1,1.3c0,6.1-0.1,12.3,0,18.4
			c0,1.7-1.1,1.2-2,1.3s-1.8,0.1-1.7-1.4c0.1-2.7,0-5.5,0.1-8.2c0-1-0.4-1.2-1.3-1.2s-1.4,0.1-1.4,1.2c0.1,4.5,0,9,0,13.4
			c0,0.7,0.2,1.2,1,1.1c1.6-0.3,1.7,0.6,1.7,1.8c-0.1,5.7,0,11.4,0,17.1c0,4.7-0.1,4.8-4.8,5.4c-0.2,0.1-0.5,0.1-0.7,0.1
			c-1.7-0.5-1.7,0.5-1.7,1.7c0.1,5.9,0,11.8,0.1,17.7c0,1.5-0.4,2-1.9,1.8c-0.9-0.1-1.8-0.1-2.7,0c1.2,1.1,2.5,1.2,3.4,2.2
			c-1.2,0.3-2.3-0.2-3.4,0.4l3.2,2.1h-2.5c-9.6,0-19.3,0-28.9,0c-1.5-0.2-2.9,0.7-3.4,2.1c-5.6,12.1-11.3,24.1-17,36.2l-3.8,8.1
			c-0.3-0.5-0.5-1.2-0.3-1.8c0-5,0-9.9,0-14.9c0-1.3-0.3-1.9-1.7-1.8s-3.1,0-4.7,0c-2.3,0-2.4,0-2.4-2.4c0-12.2,0-24.5,0-36.7
			c0-1.2,0.4-2.4,1.2-3.3c1.9-2.2,3.8-4.5,5.9-7.1c-2.1,0-3.7-0.1-5.3,0c-1.3,0.1-1.8-0.4-1.9-1.7c-1-11.9-8.3-20.9-19.9-24.2
			c-1.1-0.3-1.4-0.7-1.4-1.9c0.3-3-2-5.6-5-5.9c-3-0.3-5.6,2-5.9,5c0,0.3,0,0.6,0,0.9c0.1,1.3-0.4,1.6-1.4,1.8c-3,0.7-5.8,2-8.3,3.7
			c-6.8,4.8-10.8,11.3-11.5,19.7c-0.2,2-0.8,2.7-2.8,2.5c-1.5-0.1-3-0.1-4.5,0c2.2,2.6,4,5,6,7.2c0.8,0.9,1.2,2,1.1,3.2
			c0,13,0,26.1,0,39.1c0,1.8,0,3.6,0,5.4c0,1-0.3,1.4-1.4,1.4c-1.8-0.1-3.6-0.1-5.4,0c-1.5,0.1-2-0.4-2-1.9c0.1-8.3,0-16.5,0.1-24.8
			c0-1.7-0.5-2.1-2.2-2.1c-13.2,0.1-26.3,0-39.5,0.1c-2.4,0-2.3-0.5-2.3,2.5c0,8.1,0,16.3,0.1,24.4c0,1.4-0.4,2-1.9,1.9
			s-3.2,0.1-4.8-0.1c-2-0.2-2.3,0.5-2.3,2.4c0.1,25.4,0,50.8,0.1,76.2h-60.3v16.6h55.4l-0.2,0.1h34.7h-0.2L463.5,310.4L463.5,310.4z
			 M190.8,213.1c0-8.1,6.5-14.7,14.6-14.8c8.1,0,14.7,6.5,14.8,14.6c0.1,4.5,0,8.9,0.1,13.4c0,1.2-0.3,1.6-1.6,1.6
			c-4.5-0.1-8.9,0-13.4,0c-4.3,0-8.6,0-12.8,0c-1.2,0-1.7-0.2-1.7-1.6C190.8,221.9,190.7,217.4,190.8,213.1z"/>
		<rect x="0.9" y="266.9" class="st25" width="412.1" height="50.1"/>
		<rect x="-0.1" y="284.5" class="st26" width="412.1" height="17.4"/>
		<path class="st27" d="M55.3,250.7c-0.4-1.3-6.1-0.9-10,0.1c-0.6,0.2-1.2,0.4-1.8,0.6c0.9-0.9,1.7-1.8,2.4-2.7
			c2.9-3.7,5.8-9.6,4.6-10.6s-6.3,3.4-9.1,7.1c-0.8,1.1-1.6,2.2-2.3,3.4c0.1-0.8,0.1-1.6,0.1-2.4c0-4.1-1.1-9.7-2.5-9.7h-0.1
			c-1.4,0-2.5,5.6-2.5,9.7c0,0.7,0,1.6,0.1,2.4c-0.7-1.2-1.5-2.3-2.3-3.4c-2.9-3.7-7.9-8-9.1-7.1s1.7,6.9,4.6,10.6
			c0.7,0.9,1.5,1.8,2.4,2.7c-0.6-0.2-1.2-0.4-1.8-0.6c-3.9-1.1-9.6-1.5-10-0.1s4.8,3.9,8.7,5c0.8,0.2,1.7,0.4,2.6,0.6l-0.3,0.1
			c-3,0.9-7,2.9-6.8,3.9s4.8,0.7,7.8-0.2c2-0.6,3.9-1.6,5.6-2.8c-0.7,7.2-0.6,47.3-0.5,57.3c0,1.2,2.5,0,3.3,0s-0.4-26.1-0.4-38
			c0-8.5,0.3-15.9-0.2-19.4c1.7,1.2,3.6,2.2,5.6,2.8c3.1,0.9,7.5,1.2,7.8,0.2s-3.7-3.1-6.8-3.9l-0.3-0.1c0.9-0.2,1.8-0.4,2.6-0.6
			C50.5,254.6,55.6,252,55.3,250.7z"/>
		<path class="st27" d="M95.9,257.3c-0.3-1.2-5.5-0.8-9,0.1c-0.5,0.1-1.1,0.3-1.6,0.5c0.7-0.8,1.5-1.6,2.1-2.4
			c2.6-3.3,5.2-8.6,4.1-9.5s-5.6,3-8.2,6.4c-0.7,1-1.4,2-2.1,3.1c0.1-0.8,0.1-1.5,0.1-2.1c0-3.6-1-8.7-2.2-8.7h0
			c-1.2,0-2.2,5.1-2.2,8.7c0,0.7,0,1.4,0.1,2.1c-0.6-1.1-1.3-2.1-2.1-3.1c-2.6-3.3-7.1-7.2-8.2-6.4s1.5,6.2,4.1,9.5
			c0.7,0.8,1.4,1.7,2.1,2.4c-0.6-0.2-1.1-0.4-1.7-0.5c-3.5-1-8.7-1.3-9-0.1s4.3,3.5,7.8,4.5c0.7,0.2,1.5,0.4,2.4,0.5l-0.3,0.1
			c-2.7,0.8-6.3,2.6-6.1,3.5s4.3,0.6,7-0.1c1.8-0.6,3.5-1.4,5-2.5c-0.6,6.5-0.5,42.5-0.4,51.5c0,1.1,2.2,0,3,0s-0.3-23.4-0.3-34.1
			c0-7.7,0.2-14.3-0.2-17.4c1.5,1.1,3.2,1.9,5.1,2.5c2.7,0.8,6.8,1.1,7,0.1s-3.3-2.8-6.1-3.5l-0.3-0.1c0.8-0.1,1.6-0.3,2.4-0.5
			C91.6,260.8,96.2,258.5,95.9,257.3z"/>
		<path class="st27" d="M153.3,254.4c-0.4-1.3-6.1-0.9-10,0.1c-0.6,0.2-1.2,0.4-1.8,0.6c0.9-0.9,1.7-1.8,2.4-2.7
			c2.9-3.7,5.8-9.6,4.6-10.6s-6.3,3.4-9.1,7.1c-0.8,1.1-1.6,2.2-2.3,3.4c0.1-0.8,0.1-1.6,0.1-2.4c0-4.1-1.1-9.7-2.5-9.7h-0.1
			c-1.4,0-2.5,5.6-2.5,9.7c0,0.7,0,1.6,0.1,2.4c-0.7-1.2-1.5-2.3-2.3-3.4c-2.9-3.7-7.9-8.1-9.1-7.1s1.7,6.9,4.6,10.6
			c0.7,0.9,1.5,1.8,2.4,2.7c-0.6-0.2-1.2-0.4-1.8-0.6c-3.9-1.1-9.7-1.5-10-0.1s4.8,3.9,8.7,5c0.8,0.2,1.7,0.4,2.6,0.6l-0.3,0.1
			c-3,0.9-7,2.9-6.8,3.9s4.8,0.7,7.8-0.2c2-0.6,3.9-1.6,5.6-2.8c-0.7,7.2-0.6,47.3-0.5,57.3c0,1.2,2.5,0,3.3,0s-0.4-26.1-0.4-38
			c0-8.5,0.3-15.9-0.2-19.4c1.7,1.2,3.6,2.2,5.6,2.8c3.1,0.9,7.5,1.2,7.8,0.2s-3.7-3.1-6.8-3.9l-0.3-0.1c0.9-0.2,1.8-0.4,2.6-0.6
			C148.5,258.3,153.6,255.7,153.3,254.4z"/>
		<path class="st27" d="M193.9,261c-0.3-1.2-5.5-0.8-9,0.1c-0.5,0.1-1.1,0.3-1.6,0.5c0.7-0.8,1.5-1.6,2.1-2.4
			c2.6-3.3,5.2-8.6,4.1-9.5s-5.6,3-8.2,6.4c-0.7,1-1.4,2-2.1,3c0.1-0.8,0.1-1.5,0.1-2.1c0-3.6-1-8.7-2.2-8.7H177
			c-1.2,0-2.2,5.1-2.2,8.7c0,0.7,0,1.4,0.1,2.1c-0.6-1.1-1.3-2.1-2.1-3c-2.6-3.3-7.1-7.2-8.2-6.4s1.5,6.2,4.1,9.5
			c0.7,0.8,1.4,1.7,2.1,2.4c-0.6-0.2-1.1-0.4-1.6-0.5c-3.5-1-8.7-1.3-9-0.1s4.3,3.5,7.8,4.5c0.7,0.2,1.5,0.4,2.4,0.5l-0.3,0.1
			c-2.7,0.8-6.3,2.6-6.1,3.5s4.3,0.6,7-0.1c1.8-0.6,3.5-1.4,5-2.5c-0.6,6.5-0.5,42.5-0.4,51.5c0,1.1,2.2,0,3,0s-0.3-23.4-0.3-34.1
			c0-7.7,0.2-14.3-0.2-17.4c1.5,1.1,3.2,1.9,5.1,2.5c2.7,0.8,6.8,1.1,7,0.1s-3.3-2.8-6.1-3.5l-0.3-0.1c0.8-0.1,1.6-0.3,2.4-0.5
			C189.6,264.5,194.2,262.2,193.9,261z"/>
		<path class="st27" d="M351.5,251.9c0.4-1.3,6.1-0.9,10,0.1c0.6,0.2,1.2,0.4,1.8,0.6c-0.9-0.9-1.7-1.9-2.4-2.7
			c-2.9-3.7-5.8-9.6-4.6-10.6s6.3,3.4,9.1,7.1c0.8,1.1,1.6,2.2,2.3,3.4c-0.1-0.8-0.1-1.6-0.1-2.4c0-4.1,1.1-9.7,2.5-9.7h0.1
			c1.4,0,2.5,5.6,2.5,9.7c0,0.7,0,1.6-0.1,2.4c0.7-1.2,1.5-2.3,2.3-3.4c2.9-3.7,7.9-8,9.1-7.1s-1.7,6.9-4.6,10.6
			c-0.7,0.9-1.5,1.8-2.4,2.7c0.6-0.2,1.2-0.4,1.8-0.6c3.9-1.1,9.7-1.5,10-0.1s-4.8,3.9-8.7,5c-0.8,0.2-1.7,0.4-2.6,0.6l0.3,0.1
			c3,0.9,7,2.9,6.8,3.9s-4.8,0.7-7.8-0.2c-2-0.6-3.9-1.6-5.6-2.8c0.7,7.2,0.6,47.3,0.5,57.3c0,1.2-2.5,0-3.3,0s0.4-26.1,0.4-38
			c0-8.5-0.3-15.9,0.2-19.4c-1.7,1.2-3.6,2.2-5.6,2.8c-3,0.9-7.5,1.2-7.8,0.2s3.7-3.1,6.8-3.9l0.3-0.1c-0.9-0.2-1.8-0.4-2.6-0.6
			C356.3,255.8,351.1,253.2,351.5,251.9z"/>
		<path class="st27" d="M310.9,258.5c0.3-1.2,5.5-0.8,9,0.1c0.5,0.1,1.1,0.3,1.6,0.5c-0.7-0.8-1.5-1.6-2.1-2.4
			c-2.6-3.3-5.2-8.6-4.1-9.5s5.6,3,8.2,6.3c0.7,1,1.4,2,2.1,3.1c-0.1-0.8-0.1-1.5-0.1-2.1c0-3.6,1-8.7,2.2-8.7h0.1
			c1.2,0,2.2,5.1,2.2,8.7c0,0.7,0,1.4-0.1,2.1c0.6-1.1,1.3-2.1,2-3c2.6-3.3,7.1-7.2,8.2-6.3s-1.5,6.2-4.1,9.5
			c-0.6,0.8-1.3,1.6-2.1,2.4c0.6-0.2,1.1-0.4,1.6-0.5c3.5-1,8.7-1.3,9-0.1s-4.3,3.5-7.8,4.5c-0.7,0.2-1.5,0.4-2.4,0.5l0.3,0.1
			c2.8,0.8,6.3,2.6,6.1,3.5s-4.3,0.6-7-0.1c-1.8-0.6-3.5-1.4-5-2.5c0.6,6.5,0.5,42.5,0.5,51.5c0,1.1-2.2,0-3,0s0.3-23.4,0.3-34.1
			c0-7.7-0.2-14.3,0.2-17.4c-1.5,1.1-3.2,2-5.1,2.5c-2.7,0.8-6.8,1.1-7,0.1s3.3-2.8,6.1-3.5l0.3-0.1c-0.8-0.1-1.6-0.3-2.4-0.5
			C315.2,262,310.6,259.7,310.9,258.5z"/>
		<path class="st27" d="M259.1,255.6c0.4-1.3,6.1-0.9,10,0.1c0.6,0.2,1.2,0.4,1.8,0.6c-0.9-0.9-1.7-1.9-2.4-2.7
			c-2.9-3.7-5.8-9.6-4.6-10.6s6.3,3.4,9.1,7.1c0.8,1.1,1.6,2.2,2.3,3.4c-0.1-0.8-0.1-1.6-0.1-2.4c0-4.1,1.1-9.7,2.5-9.7h0.1
			c1.4,0,2.5,5.6,2.5,9.7c0,0.7,0,1.6-0.1,2.4c0.7-1.2,1.5-2.3,2.3-3.4c2.9-3.7,7.9-8,9.1-7.1s-1.7,6.9-4.6,10.6
			c-0.7,0.9-1.5,1.9-2.4,2.7c0.6-0.2,1.3-0.4,1.8-0.6c3.9-1.1,9.6-1.5,10-0.1s-4.8,3.9-8.7,5c-0.8,0.2-1.7,0.4-2.6,0.6l0.3,0.1
			c3,0.9,7,2.9,6.8,3.9s-4.8,0.7-7.8-0.2c-2-0.6-3.9-1.6-5.6-2.8c0.7,7.2,0.6,47.3,0.5,57.3c0,1.2-2.5,0-3.3,0s0.4-26.1,0.4-38
			c0-8.5-0.3-15.9,0.2-19.4c-1.7,1.2-3.6,2.2-5.7,2.8c-3,0.9-7.5,1.2-7.8,0.2s3.7-3.1,6.8-3.9l0.3-0.1c-0.9-0.2-1.8-0.4-2.6-0.6
			C263.9,259.5,258.8,256.9,259.1,255.6z"/>
		<path class="st27" d="M218.5,262.2c0.3-1.2,5.5-0.8,9,0.1c0.5,0.1,1.1,0.3,1.6,0.5c-0.8-0.8-1.5-1.7-2.1-2.4
			c-2.6-3.3-5.2-8.6-4.1-9.5s5.6,3,8.2,6.3c0.7,1,1.4,2,2.1,3c-0.1-0.8-0.1-1.5-0.1-2.1c0-3.6,1-8.7,2.2-8.7h0.1
			c1.2,0,2.2,5.1,2.2,8.7c0,0.7,0,1.4-0.1,2.1c0.6-1.1,1.3-2.1,2.1-3c2.6-3.3,7.1-7.2,8.2-6.3s-1.5,6.2-4.1,9.5
			c-0.7,0.8-1.4,1.7-2.1,2.4c0.6-0.2,1.1-0.4,1.6-0.5c3.5-1,8.7-1.3,9-0.1s-4.3,3.5-7.8,4.5c-0.7,0.2-1.5,0.4-2.4,0.5l0.3,0.1
			c2.7,0.8,6.3,2.6,6.1,3.5s-4.3,0.6-7-0.1c-1.8-0.6-3.5-1.4-5-2.5c0.6,6.5,0.5,42.5,0.4,51.5c0,1.1-2.2,0-3,0s0.3-23.4,0.3-34.1
			c0-7.7-0.2-14.3,0.2-17.4c-1.5,1.1-3.2,2-5.1,2.5c-2.7,0.8-6.8,1.1-7,0.1s3.3-2.8,6.1-3.5l0.3-0.1c-0.8-0.1-1.6-0.3-2.4-0.5
			C222.8,265.7,218.2,263.4,218.5,262.2z"/>
		<rect x="-4.3" y="312.7" class="st17" width="417.7" height="9.7"/>
		<rect x="-4.3" y="319.1" class="st18" width="179" height="11"/>
		<line class="st28" x1="29.2" y1="305" x2="9.5" y2="305"/>
		<rect x="-3.9" y="319.1" class="st19" width="178.8" height="3.4"/>
		<line class="st28" x1="42.5" y1="305" x2="34.5" y2="305"/>
		<polygon class="st20" points="174.9,297.2 -3,297.2 -3,308.2 174.9,308.2 413,308.2 413,297.2 		"/>
		<polygon class="st21" points="174.7,305 174.6,305 -3.2,305 -3.2,319.1 174.6,319.1 174.7,319.1 412.7,319.1 412.7,305 		"/>
		<rect x="175.3" y="319.1" class="st29" width="238.1" height="11"/>
		<rect x="174.9" y="319.2" class="st19" width="238.1" height="3.7"/>
		<rect x="174.8" y="325.4" class="st19" width="238.1" height="4.2"/>
		<rect x="-3.8" y="325.4" class="st19" width="238.1" height="4.2"/>
		<rect x="175.3" y="319.1" class="st22" width="237.4" height="11"/>
		<rect x="-3.7" y="297.2" class="st22" width="178.2" height="21.5"/>
		<rect x="203.7" y="297.2" class="st23" width="30.7" height="21.9"/>
		<rect x="143.4" y="297.2" class="st23" width="30.7" height="21.9"/>
		<rect x="112.6" y="297.2" class="st23" width="30.7" height="21.9"/>
		<rect x="81.8" y="297.2" class="st23" width="30.7" height="21.9"/>
		<rect x="50.9" y="297.2" class="st23" width="30.7" height="21.9"/>
		<rect x="20.1" y="297.2" class="st23" width="30.7" height="21.9"/>
		<rect x="-3.2" y="297.2" class="st23" width="23.1" height="21.9"/>
		<rect x="265.1" y="297.2" class="st23" width="30.7" height="21.9"/>
		<rect x="234.4" y="297.2" class="st23" width="30.7" height="21.9"/>
		<rect x="295.8" y="297.2" class="st23" width="30.7" height="21.9"/>
		<rect x="326.5" y="297.2" class="st23" width="30.7" height="21.9"/>
		<rect x="357.1" y="297.2" class="st23" width="30.7" height="21.9"/>
		<rect x="174.6" y="297.2" class="st22" width="238.1" height="32.8"/>
		<rect x="-3.9" y="319.1" class="st22" width="178.8" height="11"/>
	</g>
</g>
</svg>
