<?xml version="1.0" encoding="utf-8"?>
<!-- Generator: Adobe Illustrator 24.1.0, SVG Export Plug-In . SVG Version: 6.00 Build 0)  -->
<svg version="1.1" id="Capa_1" xmlns="http://www.w3.org/2000/svg" xmlns:xlink="http://www.w3.org/1999/xlink" x="0px" y="0px"
	 viewBox="0 0 414 414" style="enable-background:new 0 0 414 414;" xml:space="preserve">
<style type="text/css">
	.st0{clip-path:url(#SVGID_2_);}
	.st1{fill:url(#SVGID_3_);}
	.st2{fill:#188484;}
	.st3{fill:#1D8487;}
	.st4{fill:#137376;}
	.st5{fill:#93D1D7;}
	.st6{fill:#BEE1E5;}
	.st7{fill:#DBEEEF;}
	.st8{fill:#EFC411;}
	.st9{fill:#E3F2F4;}
	.st10{fill:#30845A;}
	.st11{fill:#68BC8F;}
	.st12{fill:none;}
	.st13{fill:#D8D6D6;}
	.st14{fill:#855A3E;}
	.st15{fill:#663C1F;}
	.st16{fill:#382214;}
	.st17{fill:#456FA1;}
	.st18{fill:none;stroke:#5488BB;stroke-width:3;stroke-miterlimit:10;}
	.st19{fill:#3D6492;}
	.st20{fill:#2A4D78;}
	.st21{fill:none;stroke:#000000;stroke-width:2;stroke-miterlimit:10;}
	.st22{fill:#AFAFAF;}
	.st23{fill:#BCBCBB;}
	.st24{fill:#D1D1D1;}
	.st25{fill:#DBD9D9;}
	.st26{fill:#E2E2E1;}
	.st27{fill:#EAEAEA;}
	.st28{fill:#E0E0E0;}
	.st29{fill:#C4C4C4;}
	.st30{fill:#7D4E24;stroke:#000000;stroke-width:2;stroke-miterlimit:10;}
	.st31{fill:none;stroke:#000000;stroke-width:1.5;stroke-miterlimit:10;}
	.st32{fill:#482812;}
	.st33{fill:#CA9E67;}
	.st34{fill:#936037;}
	.st35{fill:#7D4E24;}
	.st36{fill:none;stroke:#000000;stroke-miterlimit:10;}
	.st37{clip-path:url(#SVGID_5_);}
	.st38{fill:url(#SVGID_6_);}
	.st39{fill:#116E6B;}
	.st40{clip-path:url(#SVGID_8_);}
	.st41{fill:url(#SVGID_9_);}
	.st42{fill:#0C5B57;}
	.st43{fill:#909091;}
</style>
<g>
	<defs>
		<rect id="SVGID_1_" x="1302.1" width="414" height="414"/>
	</defs>
	<clipPath id="SVGID_2_">
		<use xlink:href="#SVGID_1_"  style="overflow:visible;"/>
	</clipPath>
	<g class="st0">
		
			<linearGradient id="SVGID_3_" gradientUnits="userSpaceOnUse" x1="-350.19" y1="208.175" x2="3764.3398" y2="208.175" gradientTransform="matrix(1 0 0 -1 0 414)">
			<stop  offset="0" style="stop-color:#00A19A"/>
			<stop  offset="0.23" style="stop-color:#36A9E1"/>
			<stop  offset="0.49" style="stop-color:#1D71B8"/>
			<stop  offset="0.72" style="stop-color:#2D3387"/>
			<stop  offset="1" style="stop-color:#29235C"/>
		</linearGradient>
		<rect x="-350.2" class="st1" width="4114.5" height="411.6"/>
		<path class="st2" d="M-133,298.4H37.7L-32.8,218c-8.3-9.4-24.5-9.3-32.6,0.3L-133,298.4z"/>
		<path class="st3" d="M62.4,298.4h116.4l-48.1-54.9c-5.6-6.4-16.7-6.3-22.2,0.2L62.4,298.4z"/>
		<path class="st3" d="M395.2,298.4h85.4l-35.3-40.2c-4.2-4.5-11.2-4.7-15.7-0.5c-0.2,0.2-0.4,0.4-0.6,0.6L395.2,298.4z"/>
		<path class="st3" d="M140.7,298.4h172.1l-71.1-81.1c-8.3-9.5-24.7-9.4-32.9,0.3L140.7,298.4z"/>
		<path class="st4" d="M16.7,210.1c-0.5-1.8-8.1-1.2-13.3,0.2c-0.8,0.2-1.6,0.5-2.4,0.8c1.2-1.2,2.2-2.4,3.1-3.6
			c3.8-4.9,7.8-12.8,6.1-14.1s-8.3,4.5-12.2,9.4c-1.1,1.4-2.1,3-3,4.5c0.1-1.1,0.1-2.2,0.1-3.2c0-5.4-1.5-12.9-3.3-12.9h-0.1
			c-1.8,0-3.3,7.5-3.3,12.9c0,1,0.1,2.1,0.1,3.2c-0.9-1.6-2-3.1-3.1-4.5c-3.8-4.9-10.5-10.7-12.1-9.4s2.3,9.2,6.1,14.1
			c0.9,1.2,2,2.4,3.1,3.6c-0.8-0.3-1.7-0.6-2.4-0.8c-5.2-1.4-12.8-1.9-13.3-0.2s6.4,5.2,11.6,6.6c1.1,0.3,2.3,0.6,3.5,0.8l-0.4,0.1
			c-4.1,1.1-9.4,3.8-9,5.2s6.3,0.9,10.4-0.2c2.7-0.8,5.2-2.1,7.4-3.7c-0.9,9.6-0.8,62.9-0.7,76.2c0,1.6,3.3,0,4.4,0
			s-0.5-34.7-0.5-50.4c0-11.3,0.3-21.1-0.3-25.8c2.3,1.6,4.8,2.9,7.5,3.7c4.1,1.1,10,1.6,10.4,0.2s-4.9-4.1-9-5.2l-0.4-0.1
			c1.2-0.2,2.4-0.5,3.5-0.8C10.4,215.3,17.2,211.9,16.7,210.1z"/>
		<path class="st4" d="M145.9,225.7c-0.4-1.4-6.6-1-10.9,0.1c-0.6,0.2-1.3,0.4-2,0.6c0.9-1,1.8-2,2.6-3c3.1-4,6.3-10.5,5-11.5
			s-6.8,3.7-9.9,7.7c-0.9,1.2-1.7,2.4-2.5,3.7c0.1-0.9,0.1-1.8,0.1-2.6c0-4.4-1.2-10.5-2.7-10.5h-0.1c-1.5,0-2.7,6.1-2.7,10.5
			c0,0.8,0,1.7,0.1,2.6c-0.8-1.3-1.6-2.5-2.5-3.7c-3.1-4-8.6-8.7-9.9-7.7s1.8,7.5,5,11.5c0.8,1,1.7,2,2.6,3c-0.7-0.2-1.4-0.4-2-0.6
			c-4.3-1.2-10.5-1.6-10.9-0.1s5.2,4.2,9.4,5.4c0.9,0.2,1.9,0.4,2.9,0.6l-0.3,0.1c-3.3,0.9-7.7,3.1-7.3,4.3s5.2,0.8,8.5-0.2
			c2.2-0.7,4.2-1.7,6.1-3c-0.7,7.9-0.6,51.5-0.5,62.3c0,1.3,2.7,0,3.6,0S127,266.9,127,254c0-9.3,0.3-17.3-0.3-21.1
			c1.9,1.3,3.9,2.3,6.1,3c3.3,0.9,8.2,1.3,8.5,0.2s-4-3.3-7.3-4.3l-0.4-0.1c1-0.2,2-0.4,2.9-0.6
			C140.7,229.9,146.3,227.1,145.9,225.7z"/>
		<path class="st4" d="M190.1,232.9c-0.4-1.3-5.9-0.9-9.8,0.1c-0.6,0.2-1.2,0.4-1.8,0.6c0.8-0.9,1.6-1.8,2.3-2.6
			c2.8-3.6,5.7-9.4,4.5-10.4s-6.1,3.3-8.9,6.9c-0.8,1.1-1.6,2.2-2.2,3.3c0.1-0.8,0.1-1.6,0.1-2.3c0-4-1.1-9.5-2.4-9.5h-0.1
			c-1.4,0-2.4,5.5-2.4,9.5c0,0.7,0,1.5,0.1,2.3c-0.7-1.1-1.4-2.2-2.2-3.3c-2.8-3.6-7.7-7.9-8.9-6.9s1.6,6.7,4.5,10.4
			c0.7,0.9,1.5,1.8,2.3,2.6c-0.6-0.2-1.2-0.4-1.8-0.6c-3.8-1-9.4-1.4-9.8-0.1s4.7,3.8,8.5,4.9c0.8,0.2,1.7,0.4,2.6,0.6l-0.3,0.1
			c-3,0.8-6.9,2.8-6.6,3.8s4.6,0.7,7.6-0.2c2-0.6,3.8-1.5,5.5-2.7c-0.6,7.1-0.6,46.2-0.5,55.9c0,1.2,2.4,0,3.2,0s-0.4-25.5-0.4-37
			c0-8.3,0.2-15.5-0.2-18.9c1.7,1.2,3.5,2.1,5.5,2.7c3,0.8,7.3,1.2,7.6,0.2s-3.6-3-6.6-3.8l-0.3-0.1c0.9-0.2,1.8-0.4,2.6-0.6
			C185.4,236.7,190.4,234.2,190.1,232.9z"/>
		<path class="st5" d="M292.2,115.1c0,12.1-9.8,21.9-21.9,21.9c-12.1,0-21.9-9.8-21.9-21.9s9.8-21.9,21.9-21.9
			S292.2,103,292.2,115.1C292.2,115.1,292.2,115.1,292.2,115.1z"/>
		<path class="st6" d="M289.1,115.1c0,10.3-8.4,18.7-18.7,18.7s-18.7-8.4-18.7-18.7s8.4-18.7,18.7-18.7l0,0
			C280.7,96.3,289.1,104.7,289.1,115.1C289.1,115,289.1,115.1,289.1,115.1z"/>
		<path class="st7" d="M285.9,115.1c0,8.6-6.9,15.5-15.5,15.5c-8.6,0-15.5-6.9-15.5-15.5c0-8.6,6.9-15.5,15.5-15.5l0,0
			C278.9,99.5,285.9,106.5,285.9,115.1z"/>
		<path class="st8" d="M282.4,115.1c0,6.6-5.4,12-12,12s-12-5.4-12-12s5.4-12,12-12S282.4,108.4,282.4,115.1z"/>
		<path class="st9" d="M9.9,101.2h19.9c0,0,2.7-7.8-4.3-7.8c0,0-0.3-4.5-4.5-4.5c0,0-2.8,0-2.8,2.1c0,0-0.4-3.5-3.5-3.5
			c0,0-4.6,0.1-4.6,4.6c0,0-5.1-1.6-6.7,0c0,0-1.6,0.3-1.6,4c0,0-5.3,1.8-5.3,5.1L9.9,101.2z"/>
		<path class="st9" d="M19.7,37.2c-15.2-4.2-16.8,0-16.8,0"/>
		<path class="st9" d="M47.3,243.2c-11-3-12.1,0-12.1,0"/>
		<path class="st9" d="M35.9,239c-9.2-3.6-10.2,0-10.2,0"/>
		<path class="st4" d="M33.2,217.5c0,0,4.6-2.2,7,2.1H42l-0.8-0.7c0,0,2.7-2.6,4.7-1.1c-1.3-1.4-3.5-1.7-5.2-0.6
			C40.7,217.3,36.5,214.3,33.2,217.5z"/>
		<path class="st9" d="M377.5,81.6h24.4c0,0,3.4-9.6-5.3-9.6c0,0-0.4-5.5-5.5-5.5c0,0-3.5,0-3.5,2.5c0,0-0.5-4.3-4.3-4.3
			c0,0-5.7,0.2-5.7,5.7c0,0-6.3-2-8.2,0c0,0-1.9,0.4-1.9,4.9c0,0-6.5,2.2-6.5,6.3L377.5,81.6z"/>
		<path class="st9" d="M392.8,148.3h24.3c0,0,3.3-9.6-5.2-9.6c0,0-0.4-5.5-5.4-5.5c0,0-3.5,0-3.5,2.5c0,0-0.5-4.3-4.3-4.3
			c0,0-5.6,0.2-5.6,5.7c0,0-6.2-1.9-8.2,0c0,0-1.9,0.4-1.9,4.9c0,0-6.5,2.2-6.5,6.3H392.8z"/>
		<path class="st9" d="M428.7,28.5c-19.3-4.2-21.3,0-21.3,0"/>
		<path class="st9" d="M405.7,28.4c-11.8-3.5-13,0-13,0"/>
		<path class="st4" d="M381.5,170.2c0,0,5.6-4.1,9.7,1l2.4-0.5l-1.3-0.7c0,0,2.8-4.2,5.8-2.6c0,0-3.2-2.6-6.9,0.5
			C391.2,168,385,165.1,381.5,170.2z"/>
		<path class="st9" d="M103.7,45.5h29.5c0,0,4.1-10-6.4-10c-0.3-3.4-3.2-5.9-6.6-5.7c0,0-4.2,0-4.2,2.6c-0.3-2.6-2.6-4.5-5.2-4.5
			c0,0-6.8,0.2-6.8,6c0,0-7.6-2-9.9,0c0,0-2.3,0.4-2.3,5.1c0,0-7.9,2.3-7.9,6.6L103.7,45.5z"/>
		<path class="st9" d="M108.6,179h19.9c0,0,2.7-7.8-4.3-7.8c0,0-0.3-4.4-4.5-4.4c0,0-2.8,0-2.8,2.1c0,0-0.4-3.5-3.5-3.5
			c0,0-4.6,0.1-4.6,4.6c0,0-5.1-1.6-6.7,0c0,0-1.6,0.3-1.6,4c0,0-5.3,1.8-5.3,5.1L108.6,179z"/>
		<path class="st9" d="M300.4,45.8c-15.2-4.2-16.8,0-16.8,0"/>
		<path class="st9" d="M245.5,92.9c-17.7-4.9-19.5,0-19.5,0"/>
		<path class="st9" d="M224.5,92.7c-10.8-4.1-11.9,0-11.9,0"/>
		<path class="st9" d="M297.9,194.5c-17.7-4.9-19.5,0-19.5,0"/>
		<path class="st9" d="M276.9,194.3c-10.8-4.1-11.9,0-11.9,0"/>
		<path class="st9" d="M172.3,169.5c-15.2-4.2-16.8,0-16.8,0"/>
		<path class="st4" d="M131,112.8c0,0,8.4-4,12.6,3.8h3.4l-1.5-1.2c0,0,4.8-4.8,8.4-2c0,0-3.6-4.3-9.3-1
			C144.5,112.4,137,107,131,112.8z"/>
		<rect x="-347.2" y="331.7" class="st10" width="411.8" height="10"/>
		<rect x="-347.2" y="341.2" class="st11" width="411.8" height="10"/>
		<rect x="-347.2" y="351.8" class="st10" width="411.8" height="10"/>
		<rect x="-347.2" y="361.3" class="st11" width="411.8" height="10"/>
		<rect x="-347.2" y="371.9" class="st10" width="411.8" height="10"/>
		<rect x="-347.2" y="381.4" class="st11" width="411.8" height="10"/>
		<rect x="-347.2" y="399.7" class="st11" width="411.8" height="10"/>
		<rect x="-347.2" y="392" class="st10" width="411.8" height="10"/>
		<rect x="-347.2" y="401.5" class="st12" width="411.8" height="10"/>
		<path class="st13" d="M37.3,258.2c0.6,1.2-7.4,5.4-16.6,5.4s-17.4-4.3-16.6-5.4c2.6-3.3,7.4,1.6,16.6,1.6S35.8,255.1,37.3,258.2z"
			/>
		<path d="M20.7,264.1c-8.2,0-16.2-3.5-17-5.3c-0.2-0.3-0.1-0.7,0.1-0.9c1.6-2.1,3.9-1.4,7.1-0.4c3.2,1.1,6.5,1.7,9.8,1.7
			c3.5-0.1,7-0.7,10.3-1.7c3.3-0.9,5.7-1.6,6.7,0.5c0.2,0.3,0.1,0.7-0.1,1C36.5,260.7,29.1,264.1,20.7,264.1z M4.6,258.4
			c0.6,1.1,7.8,4.7,16.1,4.7c8.5,0,15.7-3.7,16.1-4.7c-0.6-1.2-2.2-0.8-5.5,0.1c-3.4,1.1-7,1.7-10.6,1.8c-3.4-0.1-6.9-0.7-10.1-1.8
			C7.4,257.5,5.8,257.1,4.6,258.4z"/>
		<path class="st13" d="M37.3,280.8c0.6,1.2-7.4,7.4-16.6,7.4s-17.4-6.3-16.6-7.4c2.6-3.3,7.4,3.5,16.6,3.5S35.8,277.7,37.3,280.8z"
			/>
		<path d="M20.7,288.7c-8.3,0-15.9-5-17-7.2c-0.2-0.3-0.2-0.7,0-1c1.5-2,3.7-0.9,6.5,0.4s6.1,2.9,10.5,2.9s8.4-1.7,11.2-3
			s4.9-2.2,5.8-0.3c0.1,0.4,0.1,0.8-0.2,1.2C36.2,283.8,28.9,288.7,20.7,288.7z M4.6,281c0.3,1.2,7.6,6.7,16.1,6.7
			s15.9-5.6,16.1-6.7c-0.5-0.9-1.6-0.5-4.5,0.8s-6.8,3.1-11.6,3.1c-3.8-0.1-7.6-1.1-10.9-3C7,280.5,5.6,279.9,4.6,281z"/>
		<rect x="-1" y="244" class="st14" width="6.1" height="56.5"/>
		<rect x="-0.9" y="244" class="st15" width="3.7" height="56.5"/>
		<rect x="-1.1" y="244" class="st16" width="2" height="56.5"/>
		<path d="M5.6,301.4h-7.3v-58.3h7.3V301.4z M-0.7,300.4h5.3v-56.3h-5.3L-0.7,300.4z"/>
		<rect x="37.3" y="244" class="st14" width="6.1" height="56.5"/>
		<rect x="37.5" y="244" class="st15" width="3.7" height="56.5"/>
		<rect x="37.2" y="244" class="st16" width="2" height="56.5"/>
		<path d="M44,301.4h-7.4v-58.3H44V301.4z M37.7,300.4H43v-56.3h-5.4L37.7,300.4z"/>
		<path class="st3" d="M265,298.4h162l-66.9-113.3c-7.9-13.3-23.3-13.1-30.9,0.4L265,298.4z"/>
		<path class="st3" d="M375.7,113c0-0.4-0.3-0.5-0.7-0.4c-0.2,0-0.4,0.1-0.5,0.1c-0.3,0.1-0.4,0-0.4-0.2c0-0.4-0.2-0.3-0.4-0.2
			c-0.5,0.3-1.1,0.5-1.6,0.6c-0.4,0.1-0.8,0.3-1.1,0.6c-0.5,0.3-0.8,1-1.7,0.9c-1,0-1.9,0.2-2.8,0.5c-0.6,0.1-1.1,0.2-1.7,0.4
			c-0.2,0.1-0.5,0.2-0.8,0.3c-0.9,0-1.8,0.2-2.7,0.4c-0.7,0.1-1.4,0.1-2.1,0.2c-0.7,0.1-1.4,0-2.1-0.1c-0.8-0.1-1.6,0-2.5,0.1
			c-0.5,0.1-1,0-1.5,0.1c-0.7,0.1-1.4,0.1-2-0.2c-0.3-0.1-0.6-0.2-0.9-0.2c-0.4,0-0.8-0.2-1.1,0.3c-0.1,0.2-0.2,0.1-0.2-0.1
			c0-0.3-0.1-0.7-0.1-1c-0.1-0.4-0.2-0.9-0.3-1.3c-0.2-0.8-0.2-1.6-0.2-2.4c0-0.8-0.4-1.6-1-2.2c-0.4-0.4-1-0.7-1.6-0.7
			c-0.3,0.1-0.7,0-1-0.2c0,0-0.2-0.1-0.2,0.1s-0.2,0.2-0.3,0.3c-0.4,0.2-0.9,0.3-1.2,0.8s-0.6,0.7-0.7,1s0,1-0.1,1.4
			c-0.2,0.8-0.2,1.6-0.5,2.4c-0.2,0.4-0.3,0.8-0.3,1.2c0.1,0.4-0.1,0.9-0.5,1c0,0-0.1,0-0.1,0c-0.3,0.1-0.5,0.1-0.8,0.1
			c-0.2,0-0.6,0-0.7-0.3c-0.1-0.3-0.4-0.5-0.8-0.4c-0.3,0-0.6,0-0.9,0.1c-0.1,0.1-0.3,0.1-0.4,0.1c-1.1,0.1-2.2,0-3.3-0.2
			c-0.1,0-0.1,0-0.2,0.1c-0.7,0.3-1.4,0.1-1.9-0.4c-0.1-0.1-0.2-0.2-0.4-0.2l-0.1-0.1c-0.3-0.2-0.6-0.4-1,0.1
			c-0.2,0.4-0.7,0.6-1.1,0.5c0,0,0.1,0,0.1,0s0-0.1-0.1-0.1c-0.6,0.1-1.2-0.1-1.7-0.3c-0.3-0.1-0.5-0.2-0.8-0.2c-0.7,0-1.3-0.4-2,0
			c-0.6-0.3-1.3,0-1.8-0.6c0,0-0.1,0-0.1,0l-1-0.2c-0.5-0.1-1-0.1-1.5-0.1c-0.5,0-0.8-0.4-1.2-0.6c-0.6-0.2-1.3-0.4-2-0.4
			c-0.3,0-0.5,0.1-0.8,0.2c-0.5,0-0.9,0-1.4-0.1c-0.5-0.1-0.6,0.3-0.9,0.6c-0.1,0.1-0.1,0.1,0,0.2c0,0,0,0,0,0
			c0.3,0.1,0.3,0.4,0.5,0.6l0.1,0.1c0.4,0.1,0.6,0.5,1,0.6c0.7,0.1,1.3,0.2,2,0.4c0.2,0.1,0.4,0.1,0.6,0.1c0,0,0.1,0,0.1,0
			c0.6,0,1.1,0.3,1.6,0.2c0.4,0,0.5,0.2,0.6,0.6c0.2,0.7,0.3,1.4,0.5,2.1c0.3,0.6,0.4,1.2,0.4,1.8c0,0,0,0.2,0.1,0.1
			c0.2-0.1,0.4,0.1,0.5,0.1c0.8,0.2,1.6,0.2,2.4,0.3c0.3,0.1,0.7,0.2,1,0.3c1.1,0.2,2.2,0.4,3.3,0.3c0.9-0.1,1.8,0.1,2.6,0.6
			c0.3,0.2,0.8,0.2,1.1,0.4c0.2,0.2,0.4,0.3,0.6,0.4c1,0.4,1.9,1.1,3,1.5h0.1c0.1,0.2,0.1,0.2,0.3,0.1c0.3-0.1,0.5,0,0.5,0.4
			c0,0.4,0,0.8,0.1,1.2c0.1,0.3,0.1,0.6,0,0.9c-0.2,1.5-0.3,2.9-0.5,4.4c-0.1,0.8-0.2,1.6-0.3,2.4s-0.2,1.9-0.4,2.8
			c-0.1,0.3-0.2,0.7-0.3,1c0,0.3-0.1,0.7-0.2,1c-0.2,0.4-0.2,0.8,0,1.2c0.2,0.4,0.4,0.9,1.1,0.8c0.2,0,0.6,0.1,0.6,0.4s0,0.7,0,1
			c-0.1,1-0.2,2-0.3,3c0,0.4-0.1,0.8,0.3,1.1c0.1,0.1,0.1,0.1,0.1,0.2c-0.1,0.5-0.1,1,0,1.5c0,1.6,0,3.2-0.1,4.8c-0.1,2-0.1,4-0.2,6
			c0,1.6-0.2,3.1-0.1,4.7s-0.2,3-0.1,4.6c0,0.1,0,0.1,0,0.2c-0.2,0.3-0.2,0.3-0.1,0.7c0,0,0-0.1,0.1-0.2c0,0.5,0,0.9-0.1,1.4h-4.3
			c-1.2,0-2.2,0.5-2.2,1.2l-2.4,15.4c0,0.7,1,1.2,2.2,1.2h28.7c1.2,0,2.2-0.5,2.2-1.2l-2.2-15.4c0-0.7-1-1.2-2.2-1.2h-4
			c0-0.1,0-0.1,0-0.2c0-2.6,0-5.3,0-7.9c0-0.3,0.2-0.6,0.1-0.9c-0.1-0.2-0.1-0.4-0.1-0.6c-0.1-0.8,0.1-1.5,0.1-2.3
			c0-0.5,0.1-1.1,0.1-1.6c0-0.7,0-1.4,0.1-2.1c0-0.3,0.1-0.5,0.5-0.5c0.3,0,0.5-0.1,0.5-0.4c0,0,0-0.1,0-0.1c0-0.2,0-0.3,0-0.5
			c0-1.2-0.2-2.4-0.2-3.7c0-0.6-0.1-1.3-0.1-1.9c0-0.1-0.1-0.2,0.1-0.3c0.5-0.3,0.9-0.9,0.8-1.5c0-0.9-0.1-1.7-0.2-2.6
			c-0.1-1.6-0.2-3.3-0.4-4.9c0-0.6-0.1-1.2-0.1-1.8c-0.1-1.2-0.2-2.5-0.2-3.8c0-0.2-0.1-0.4-0.1-0.6c0-0.5,0-1-0.1-1.5
			c-0.1-0.5-0.2-1.1-0.1-1.6c-0.1-1.3-0.1-2.6-0.1-3.9c0-0.3,0.2-0.5,0.1-0.8h0.5h0.1c0.8-0.1,1.6-0.3,2.5-0.4
			c0.3,0,0.6-0.1,0.9-0.2c0.5-0.3,1-0.4,1.6-0.3c0.1,0,0.1,0,0.2,0c-0.1-0.3,0.2-0.2,0.3-0.3c1-0.4,2.1-0.7,3.1-1
			c0.6-0.2,1.2-0.3,1.8-0.4c0.6-0.1,1.1-0.3,1.7-0.5c0.5-0.2,1,0,1.5-0.2c0.3-0.1,0.5-0.2,0.8-0.3c0.6,0,1.2,0,1.8,0
			c0.4,0,0.6-0.1,0.5-0.6c-0.1-0.5-0.1-1-0.1-1.4c0.1-0.6,0.1-1.2,0-1.8c-0.1-0.2,0.2-0.3,0.4-0.3c0.7-0.2,1.4-0.3,2.1-0.6
			c0.5-0.2,0.9-0.3,1.4-0.5c0.4-0.3,0.8-0.4,1.3-0.4c0.1,0,0.1,0,0.2-0.1C375.5,114,375.7,113.5,375.7,113z"/>
		<path class="st4" d="M388.9,225.7c0.4-1.4,6.6-1,10.9,0.1c0.6,0.2,1.3,0.4,2,0.6c-0.9-1-1.8-2-2.6-3c-3.1-4-6.3-10.5-5-11.5
			s6.8,3.7,9.9,7.7c0.9,1.2,1.7,2.4,2.5,3.7c-0.1-0.9-0.1-1.8-0.1-2.6c0-4.4,1.2-10.5,2.7-10.5h0.1c1.5,0,2.7,6.1,2.7,10.5
			c0,0.8,0,1.7-0.1,2.6c0.8-1.3,1.6-2.5,2.5-3.7c3.1-4,8.6-8.7,9.9-7.7s-1.9,7.5-5,11.5c-0.8,1-1.7,2-2.6,3c0.7-0.2,1.4-0.4,2-0.6
			c4.3-1.2,10.5-1.6,10.9-0.1s-5.2,4.2-9.5,5.4c-0.9,0.2-1.9,0.4-2.9,0.6l0.4,0.1c3.3,0.9,7.7,3.1,7.3,4.3s-5.2,0.8-8.5-0.2
			c-2.2-0.7-4.2-1.7-6.1-3c0.7,7.9,0.6,51.5,0.5,62.3c0,1.3-2.7,0-3.6,0s0.4-28.4,0.4-41.3c0-9.3-0.3-17.3,0.3-21.1
			c-1.9,1.3-3.9,2.3-6.1,3c-3.3,0.9-8.2,1.3-8.5,0.2s4-3.3,7.4-4.3l0.4-0.1c-1-0.2-2-0.4-2.9-0.6C394,229.9,388.5,227.1,388.9,225.7
			z"/>
		<path class="st4" d="M344.7,232.9c0.4-1.3,5.9-0.9,9.8,0.1c0.6,0.2,1.2,0.4,1.8,0.6c-0.8-0.8-1.6-1.7-2.3-2.6
			c-2.8-3.6-5.7-9.4-4.5-10.4s6.1,3.3,8.9,6.9c0.8,1.1,1.6,2.2,2.3,3.3c-0.1-0.8-0.1-1.6-0.1-2.3c0-4,1.1-9.5,2.4-9.5h0.1
			c1.4,0,2.4,5.5,2.4,9.5c0,0.7,0,1.5-0.1,2.3c0.7-1.1,1.4-2.2,2.2-3.3c2.8-3.6,7.7-7.9,8.9-6.9s-1.7,6.7-4.5,10.4
			c-0.7,0.9-1.5,1.8-2.3,2.6c0.6-0.2,1.2-0.4,1.8-0.6c3.8-1,9.4-1.4,9.8-0.1s-4.7,3.8-8.5,4.9c-0.8,0.2-1.7,0.4-2.6,0.6l0.3,0.1
			c3,0.8,6.9,2.8,6.6,3.8s-4.6,0.7-7.6-0.2c-2-0.6-3.8-1.5-5.5-2.7c0.6,7.1,0.6,46.2,0.5,55.9c0,1.2-2.5,0-3.2,0s0.4-25.5,0.4-37
			c0-8.3-0.2-15.5,0.2-18.9c-1.7,1.2-3.5,2.1-5.5,2.7c-3,0.8-7.3,1.2-7.6,0.2s3.6-3,6.6-3.8l0.3-0.1c-0.9-0.2-1.8-0.4-2.6-0.6
			C349.4,236.7,344.3,234.2,344.7,232.9z"/>
		<rect x="64.6" y="328.6" class="st17" width="412.9" height="82.5"/>
		<path class="st18" d="M81.1,343.5c0,3-3.7,6.4-8.2,6.4"/>
		<path class="st18" d="M97.6,343.5c0,3-3.7,6.4-8.2,6.4s-8.2-3.3-8.2-6.4"/>
		<path class="st18" d="M114,343.5c0,3-3.7,6.4-8.2,6.4s-8.2-3.3-8.2-6.4"/>
		<path class="st18" d="M130.3,343.5c0,3-3.7,6.4-8.2,6.4s-8.2-3.3-8.2-6.4"/>
		<path class="st18" d="M146.7,343.5c0,3-3.7,6.4-8.2,6.4s-8.2-3.3-8.2-6.4"/>
		<path class="st18" d="M163.3,343.5c0,3-3.7,6.4-8.2,6.4s-8.2-3.3-8.2-6.4"/>
		<path class="st18" d="M179.7,343.7c0,3-3.7,6.4-8.2,6.4s-8.2-3.3-8.2-6.4"/>
		<path class="st18" d="M196.1,343.7c0,3-3.7,6.4-8.2,6.4s-8.2-3.3-8.2-6.4"/>
		<path class="st18" d="M196.1,343.7c0,3,3.7,6.4,8.2,6.4"/>
		<path class="st18" d="M80.9,356.6c0,3.1-3.7,6.5-8.2,6.5"/>
		<path class="st18" d="M97.3,356.6c0,3.1-3.7,6.5-8.2,6.5s-8.2-3.4-8.2-6.5"/>
		<path class="st18" d="M113.8,356.6c0,3.1-3.7,6.5-8.2,6.5s-8.2-3.4-8.2-6.5"/>
		<path class="st18" d="M130.1,356.6c0,3.1-3.7,6.5-8.2,6.5s-8.2-3.4-8.2-6.5"/>
		<path class="st18" d="M146.4,356.6c0,3.1-3.7,6.5-8.2,6.5s-8.2-3.4-8.2-6.5"/>
		<path class="st18" d="M163.1,356.7c0,3.1-3.7,6.5-8.2,6.5s-8.2-3.4-8.2-6.5"/>
		<path class="st18" d="M179.5,356.8c0,3.1-3.7,6.5-8.2,6.5s-8.2-3.4-8.2-6.5"/>
		<path class="st18" d="M195.9,356.8c0,3.1-3.7,6.5-8.2,6.5s-8.2-3.4-8.2-6.5"/>
		<path class="st18" d="M195.9,356.8c0,3.1,3.7,6.5,8.2,6.5"/>
		<path class="st18" d="M212.4,343.5c0,3-3.7,6.4-8.2,6.4"/>
		<path class="st18" d="M228.8,343.5c0,3-3.7,6.4-8.2,6.4s-8.2-3.3-8.2-6.4"/>
		<path class="st18" d="M245.3,343.5c0,3-3.7,6.4-8.2,6.4s-8.2-3.3-8.2-6.4"/>
		<path class="st18" d="M261.6,343.5c0,3-3.7,6.4-8.2,6.4s-8.2-3.3-8.2-6.4"/>
		<path class="st18" d="M277.9,343.5c0,3-3.7,6.4-8.2,6.4s-8.2-3.3-8.2-6.4"/>
		<path class="st18" d="M294.6,343.5c0,3-3.7,6.4-8.2,6.4s-8.2-3.3-8.2-6.4"/>
		<path class="st18" d="M311,343.7c0,3-3.7,6.4-8.2,6.4s-8.2-3.3-8.2-6.4"/>
		<path class="st18" d="M327.4,343.7c0,3-3.7,6.4-8.2,6.4s-8.2-3.3-8.2-6.4"/>
		<path class="st18" d="M327.4,343.7c0,3,3.7,6.4,8.2,6.4"/>
		<path class="st18" d="M212.2,356.6c0,3.1-3.7,6.5-8.2,6.5"/>
		<path class="st18" d="M228.6,356.6c0,3.1-3.7,6.5-8.2,6.5s-8.2-3.4-8.2-6.5"/>
		<path class="st18" d="M245.1,356.6c0,3.1-3.7,6.5-8.2,6.5s-8.2-3.4-8.2-6.5"/>
		<path class="st18" d="M261.4,356.6c0,3.1-3.7,6.5-8.2,6.5s-8.2-3.4-8.2-6.5"/>
		<path class="st18" d="M277.7,356.6c0,3.1-3.7,6.5-8.2,6.5s-8.2-3.4-8.2-6.5"/>
		<path class="st18" d="M294.4,356.7c0,3.1-3.7,6.5-8.2,6.5s-8.2-3.4-8.2-6.5"/>
		<path class="st18" d="M310.8,356.8c0,3.1-3.7,6.5-8.2,6.5s-8.2-3.4-8.2-6.5"/>
		<path class="st18" d="M327.2,356.8c0,3.1-3.7,6.5-8.2,6.5s-8.2-3.4-8.2-6.5"/>
		<path class="st18" d="M327.2,356.8c0,3.1,3.7,6.5,8.2,6.5"/>
		<path class="st18" d="M343.7,343.5c0,3-3.7,6.4-8.2,6.4"/>
		<path class="st18" d="M360.1,343.5c0,3-3.7,6.4-8.2,6.4s-8.2-3.3-8.2-6.4"/>
		<path class="st18" d="M376.5,343.5c0,3-3.7,6.4-8.2,6.4s-8.2-3.3-8.2-6.4"/>
		<path class="st18" d="M392.8,343.5c0,3-3.7,6.4-8.2,6.4s-8.2-3.3-8.2-6.4"/>
		<path class="st18" d="M409.2,343.5c0,3-3.7,6.4-8.2,6.4s-8.2-3.3-8.2-6.4"/>
		<path class="st18" d="M425.8,343.5c0,3-3.7,6.4-8.2,6.4s-8.2-3.3-8.2-6.4"/>
		<path class="st18" d="M343.5,356.6c0,3.1-3.7,6.5-8.2,6.5"/>
		<path class="st18" d="M359.9,356.6c0,3.1-3.7,6.5-8.2,6.5s-8.2-3.4-8.2-6.5"/>
		<path class="st18" d="M376.3,356.6c0,3.1-3.7,6.5-8.2,6.5s-8.2-3.4-8.2-6.5"/>
		<path class="st18" d="M392.6,356.6c0,3.1-3.7,6.5-8.2,6.5s-8.2-3.4-8.2-6.5"/>
		<path class="st18" d="M409,356.6c0,3.1-3.7,6.5-8.2,6.5s-8.2-3.4-8.2-6.5"/>
		<path class="st18" d="M425.6,356.7c0,3.1-3.7,6.5-8.2,6.5s-8.2-3.4-8.2-6.5"/>
		<path class="st19" d="M112.2,400.6c15.7,7.3,17.3,0,17.3,0"/>
		<path class="st19" d="M128.9,400.9c9.6,6.1,10.6,0,10.6,0"/>
		<path class="st20" d="M396.3,372.2c-12.8-7.3-14.1,0-14.1,0"/>
		<path class="st20" d="M382.6,371.9c-7.8-6.1-8.6,0-8.6,0"/>
		<path class="st19" d="M396.3,372.2c-12.8-7.3-14.1,0-14.1,0"/>
		<path class="st19" d="M382.6,371.9c-7.8-6.1-8.6,0-8.6,0"/>
		<path class="st19" d="M288.7,401.7c-8.7-4.9-9.6,0-9.6,0"/>
		<path class="st19" d="M279.4,401.5c-5.3-4.1-5.8,0-5.8,0"/>
		<path class="st18" d="M81.1,372.6c0,3-3.7,6.4-8.2,6.4"/>
		<path class="st18" d="M97.6,372.6c0,3-3.7,6.4-8.2,6.4s-8.2-3.3-8.2-6.4"/>
		<path class="st18" d="M114,372.6c0,3-3.7,6.4-8.2,6.4s-8.2-3.3-8.2-6.4"/>
		<path class="st18" d="M130.3,372.6c0,3-3.7,6.4-8.2,6.4s-8.2-3.3-8.2-6.4"/>
		<path class="st18" d="M146.7,372.6c0,3-3.7,6.4-8.2,6.4s-8.2-3.3-8.2-6.4"/>
		<path class="st18" d="M163.3,372.6c0,3-3.7,6.4-8.2,6.4s-8.2-3.3-8.2-6.4"/>
		<path class="st18" d="M179.7,372.8c0,3-3.7,6.4-8.2,6.4s-8.2-3.3-8.2-6.4"/>
		<path class="st18" d="M196.1,372.8c0,3-3.7,6.4-8.2,6.4s-8.2-3.3-8.2-6.4"/>
		<path class="st18" d="M196.1,372.8c0,3,3.7,6.4,8.2,6.4"/>
		<path class="st18" d="M80.9,385.7c0,3.1-3.7,6.5-8.2,6.5"/>
		<path class="st18" d="M97.3,385.7c0,3.1-3.7,6.5-8.2,6.5s-8.2-3.4-8.2-6.5"/>
		<path class="st18" d="M113.8,385.7c0,3.1-3.7,6.5-8.2,6.5s-8.2-3.4-8.2-6.5"/>
		<path class="st18" d="M130.1,385.7c0,3.1-3.7,6.5-8.2,6.5s-8.2-3.4-8.2-6.5"/>
		<path class="st18" d="M146.4,385.7c0,3.1-3.7,6.5-8.2,6.5s-8.2-3.4-8.2-6.5"/>
		<path class="st18" d="M163.1,385.8c0,3.1-3.7,6.5-8.2,6.5s-8.2-3.4-8.2-6.5"/>
		<path class="st18" d="M179.5,385.9c0,3.1-3.7,6.5-8.2,6.5s-8.2-3.4-8.2-6.5"/>
		<path class="st18" d="M195.9,385.9c0,3.1-3.7,6.5-8.2,6.5s-8.2-3.4-8.2-6.5"/>
		<path class="st18" d="M195.9,385.9c0,3.1,3.7,6.5,8.2,6.5"/>
		<path class="st18" d="M212.4,372.6c0,3-3.7,6.4-8.2,6.4"/>
		<path class="st18" d="M228.8,372.6c0,3-3.7,6.4-8.2,6.4s-8.2-3.3-8.2-6.4"/>
		<path class="st18" d="M245.3,372.6c0,3-3.7,6.4-8.2,6.4s-8.2-3.3-8.2-6.4"/>
		<path class="st18" d="M261.6,372.6c0,3-3.7,6.4-8.2,6.4s-8.2-3.3-8.2-6.4"/>
		<path class="st18" d="M277.9,372.6c0,3-3.7,6.4-8.2,6.4s-8.2-3.3-8.2-6.4"/>
		<path class="st18" d="M294.6,372.6c0,3-3.7,6.4-8.2,6.4s-8.2-3.3-8.2-6.4"/>
		<path class="st18" d="M311,372.8c0,3-3.7,6.4-8.2,6.4s-8.2-3.3-8.2-6.4"/>
		<path class="st18" d="M327.4,372.8c0,3-3.7,6.4-8.2,6.4s-8.2-3.3-8.2-6.4"/>
		<path class="st18" d="M327.4,372.8c0,3,3.7,6.4,8.2,6.4"/>
		<path class="st18" d="M212.2,385.7c0,3.1-3.7,6.5-8.2,6.5"/>
		<path class="st18" d="M228.6,385.7c0,3.1-3.7,6.5-8.2,6.5s-8.2-3.4-8.2-6.5"/>
		<path class="st18" d="M245.1,385.7c0,3.1-3.7,6.5-8.2,6.5s-8.2-3.4-8.2-6.5"/>
		<path class="st18" d="M261.4,385.7c0,3.1-3.7,6.5-8.2,6.5s-8.2-3.4-8.2-6.5"/>
		<path class="st18" d="M277.7,385.7c0,3.1-3.7,6.5-8.2,6.5s-8.2-3.4-8.2-6.5"/>
		<path class="st18" d="M294.4,385.8c0,3.1-3.7,6.5-8.2,6.5s-8.2-3.4-8.2-6.5"/>
		<path class="st18" d="M310.8,385.9c0,3.1-3.7,6.5-8.2,6.5s-8.2-3.4-8.2-6.5"/>
		<path class="st18" d="M327.2,385.9c0,3.1-3.7,6.5-8.2,6.5s-8.2-3.4-8.2-6.5"/>
		<path class="st18" d="M327.2,385.9c0,3.1,3.7,6.5,8.2,6.5"/>
		<path class="st18" d="M343.7,372.6c0,3-3.7,6.4-8.2,6.4"/>
		<path class="st18" d="M360.1,372.6c0,3-3.7,6.4-8.2,6.4s-8.2-3.3-8.2-6.4"/>
		<path class="st18" d="M376.5,372.6c0,3-3.7,6.4-8.2,6.4s-8.2-3.3-8.2-6.4"/>
		<path class="st18" d="M392.8,372.6c0,3-3.7,6.4-8.2,6.4s-8.2-3.3-8.2-6.4"/>
		<path class="st18" d="M409.2,372.6c0,3-3.7,6.4-8.2,6.4s-8.2-3.3-8.2-6.4"/>
		<path class="st18" d="M425.8,372.6c0,3-3.7,6.4-8.2,6.4s-8.2-3.3-8.2-6.4"/>
		<path class="st18" d="M343.5,385.7c0,3.1-3.7,6.5-8.2,6.5"/>
		<path class="st18" d="M359.9,385.7c0,3.1-3.7,6.5-8.2,6.5s-8.2-3.4-8.2-6.5"/>
		<path class="st18" d="M376.3,385.7c0,3.1-3.7,6.5-8.2,6.5s-8.2-3.4-8.2-6.5"/>
		<path class="st18" d="M392.6,385.7c0,3.1-3.7,6.5-8.2,6.5s-8.2-3.4-8.2-6.5"/>
		<path class="st18" d="M409,385.7c0,3.1-3.7,6.5-8.2,6.5s-8.2-3.4-8.2-6.5"/>
		<path class="st18" d="M425.6,385.8c0,3.1-3.7,6.5-8.2,6.5s-8.2-3.4-8.2-6.5"/>
		<polyline class="st21" points="366.1,298.7 369.6,291 377.4,291 381,298.7 		"/>
		<polyline class="st21" points="410.3,298.7 413.8,291 421.6,291 425.2,298.7 		"/>
		<rect x="374.8" y="282.9" class="st22" width="50.5" height="4.1"/>
		<rect x="374.8" y="279.8" class="st23" width="50.5" height="4.7"/>
		<rect x="374.8" y="277.6" class="st24" width="50.5" height="4.4"/>
		<rect x="374.8" y="275.4" class="st25" width="50.5" height="4.4"/>
		<rect x="374.8" y="272.5" class="st26" width="50.5" height="5.1"/>
		<rect x="374.8" y="270.6" class="st27" width="50.5" height="4.8"/>
		<rect x="374.8" y="270.6" class="st21" width="50.5" height="16.6"/>
		<rect x="364.7" y="287.4" class="st28" width="51.1" height="3.6"/>
		<rect x="364.7" y="289.7" class="st29" width="51.3" height="1.3"/>
		<rect x="364.4" y="287.4" class="st29" width="51.6" height="1.3"/>
		<rect x="364.7" y="287.3" class="st21" width="51.3" height="3.7"/>
		<rect x="412.1" y="287.4" class="st28" width="13.1" height="3.6"/>
		<rect x="412.1" y="289.7" class="st29" width="13.1" height="1.3"/>
		<rect x="412" y="287.4" class="st29" width="13.2" height="1.3"/>
		<rect x="412.1" y="287.3" class="st21" width="13.1" height="3.7"/>
		<path d="M413.5,286.3L413.5,286.3z"/>
		<path d="M413.5,286.4L413.5,286.4z"/>
		<polyline class="st21" points="295.8,298.7 299.4,291 307.2,291 310.8,298.7 		"/>
		<polyline class="st21" points="340.1,298.7 343.6,291 351.4,291 355,298.7 		"/>
		<rect x="304.5" y="282.9" class="st22" width="50.5" height="4.1"/>
		<rect x="304.5" y="279.8" class="st23" width="50.5" height="4.7"/>
		<rect x="304.5" y="277.6" class="st24" width="50.5" height="4.4"/>
		<rect x="304.5" y="275.4" class="st25" width="50.5" height="4.4"/>
		<rect x="304.5" y="272.5" class="st26" width="50.5" height="5.1"/>
		<rect x="304.5" y="270.6" class="st27" width="50.5" height="4.8"/>
		<rect x="304.5" y="270.6" class="st21" width="50.5" height="16.6"/>
		<rect x="294.5" y="287.4" class="st28" width="51.1" height="3.6"/>
		<rect x="294.5" y="289.7" class="st29" width="51.3" height="1.3"/>
		<rect x="294.2" y="287.4" class="st29" width="51.6" height="1.3"/>
		<rect x="294.5" y="287.3" class="st21" width="51.3" height="3.7"/>
		<rect x="341.9" y="287.4" class="st28" width="13.1" height="3.6"/>
		<rect x="341.9" y="289.7" class="st29" width="13.1" height="1.3"/>
		<rect x="341.8" y="287.4" class="st29" width="13.2" height="1.3"/>
		<rect x="341.9" y="287.3" class="st21" width="13.1" height="3.7"/>
		<rect x="351.9" y="270.6" class="st28" width="2.8" height="16.6"/>
		<rect x="353.7" y="270.6" class="st29" width="1.1" height="16.7"/>
		<rect x="352" y="270.6" class="st29" width="1.1" height="16.8"/>
		<rect x="351.9" y="270.6" class="st21" width="3" height="16.7"/>
		<path d="M343.3,286.3L343.3,286.3z"/>
		<path d="M343.3,286.4L343.3,286.4z"/>
		<rect x="65.6" y="314" class="st10" width="412.9" height="9.7"/>
		<rect x="65.6" y="320.3" class="st30" width="176.9" height="11"/>
		<line class="st31" x1="98.7" y1="306.2" x2="79.2" y2="306.2"/>
		<rect x="66" y="320.3" class="st32" width="176.8" height="3.4"/>
		<line class="st31" x1="111.9" y1="306.2" x2="104" y2="306.2"/>
		<polygon class="st33" points="242.7,298.4 66.9,298.4 66.9,309.4 242.7,309.4 478.1,309.4 478.1,298.4 		"/>
		<polygon class="st34" points="242.5,306.2 242.5,306.2 66.7,306.2 66.7,320.3 242.5,320.3 242.5,320.3 477.9,320.3 477.9,306.2 		
			"/>
		<rect x="243.2" y="320.3" class="st35" width="235.4" height="11"/>
		<rect x="242.7" y="320.5" class="st32" width="235.4" height="3.7"/>
		<rect x="242.7" y="326.7" class="st32" width="235.4" height="4.2"/>
		<rect x="66.1" y="326.7" class="st32" width="235.4" height="4.2"/>
		<rect x="243.2" y="320.3" class="st21" width="234.7" height="11"/>
		<rect x="66.2" y="298.4" class="st21" width="176.2" height="21.5"/>
		<rect x="271.2" y="298.4" class="st36" width="30.3" height="21.9"/>
		<rect x="211.7" y="298.4" class="st36" width="30.3" height="21.9"/>
		<rect x="181.2" y="298.4" class="st36" width="30.3" height="21.9"/>
		<rect x="150.7" y="298.4" class="st36" width="30.3" height="21.9"/>
		<rect x="120.2" y="298.4" class="st36" width="30.3" height="21.9"/>
		<rect x="89.7" y="298.4" class="st36" width="30.3" height="21.9"/>
		<rect x="66.7" y="298.4" class="st36" width="22.9" height="21.9"/>
		<rect x="331.9" y="298.5" class="st36" width="30.3" height="21.9"/>
		<rect x="301.6" y="298.4" class="st36" width="30.3" height="21.9"/>
		<rect x="362.2" y="298.5" class="st36" width="30.3" height="21.9"/>
		<rect x="392.6" y="298.5" class="st36" width="30.3" height="21.9"/>
		<rect x="242.5" y="298.4" class="st21" width="235.4" height="32.8"/>
		<rect x="66" y="320.3" class="st21" width="176.8" height="11"/>
		<rect x="-347.7" y="314" class="st10" width="412.9" height="9.7"/>
		<polygon class="st33" points="-170.6,298.4 -346.5,298.4 -346.5,309.4 -170.6,309.4 64.8,309.4 64.8,298.4 		"/>
		<polygon class="st34" points="-170.8,306.2 -170.9,306.2 -346.7,306.2 -346.7,320.3 -170.9,320.3 -170.8,320.3 64.5,320.3 
			64.5,306.2 		"/>
		<rect x="-170.2" y="320.3" class="st35" width="235.4" height="11"/>
		<rect x="-170.6" y="320.5" class="st32" width="235.4" height="3.7"/>
		<rect x="-170.7" y="326.7" class="st32" width="235.4" height="4.2"/>
		<rect x="-170.2" y="320.3" class="st21" width="234.7" height="11"/>
		<rect x="-20.8" y="298.5" class="st36" width="30.3" height="21.9"/>
		<rect x="9.6" y="298.4" class="st36" width="30.3" height="21.9"/>
		<rect x="-170.9" y="298.4" class="st21" width="235.4" height="32.8"/>
	</g>
</g>
<g>
	<defs>
		<rect id="SVGID_4_" x="2170.2" width="414" height="414"/>
	</defs>
	<clipPath id="SVGID_5_">
		<use xlink:href="#SVGID_4_"  style="overflow:visible;"/>
	</clipPath>
	<g class="st37">
		
			<linearGradient id="SVGID_6_" gradientUnits="userSpaceOnUse" x1="108.28" y1="208.175" x2="4222.8096" y2="208.175" gradientTransform="matrix(1 0 0 -1 0 414)">
			<stop  offset="0" style="stop-color:#00A19A"/>
			<stop  offset="0.23" style="stop-color:#36A9E1"/>
			<stop  offset="0.49" style="stop-color:#1D71B8"/>
			<stop  offset="0.72" style="stop-color:#2D3387"/>
			<stop  offset="1" style="stop-color:#29235C"/>
		</linearGradient>
		<rect x="108.3" class="st38" width="4114.5" height="411.6"/>
		<path class="st2" d="M111.8,298.4h239.3l-98.9-128.7c-9.6-12.5-27.6-14.9-40.1-5.3c-2.1,1.6-4,3.5-5.6,5.7L111.8,298.4z"/>
		<path class="st2" d="M325.5,298.4h170.6L425.6,218c-8.3-9.4-24.5-9.3-32.6,0.3L325.5,298.4z"/>
		<path class="st5" d="M339.9,87.9c0,12.1-9.8,21.8-21.9,21.8c-12.1,0-21.8-9.8-21.8-21.9c0-12.1,9.8-21.8,21.9-21.8
			C330.2,66,339.9,75.8,339.9,87.9C339.9,87.9,339.9,87.9,339.9,87.9z"/>
		<path class="st6" d="M336.8,87.9c0,10.3-8.4,18.7-18.7,18.7s-18.7-8.4-18.7-18.7s8.4-18.7,18.7-18.7l0,0
			C328.4,69.2,336.8,77.6,336.8,87.9z"/>
		<path class="st7" d="M333.6,87.9c0,8.6-6.9,15.5-15.5,15.5c-8.6,0-15.5-6.9-15.5-15.5s6.9-15.5,15.5-15.5l0,0
			C326.7,72.4,333.6,79.3,333.6,87.9z"/>
		<path class="st8" d="M330.1,87.9c0,6.6-5.4,12-12,12s-12-5.4-12-12s5.4-12,12-12S330.1,81.3,330.1,87.9z"/>
		<path class="st9" d="M158.9,86.9h31.5c0,0,4.3-12.3-6.8-12.3c0,0-0.5-7.1-7.1-7.1c0,0-4.5,0-4.5,3.3c0,0-0.6-5.6-5.6-5.6
			c0,0-7.3,0.2-7.3,7.3c0,0-8.1-2.5-10.6,0c0,0-2.5,0.5-2.5,6.3c0,0-8.4,2.8-8.4,8.1L158.9,86.9z"/>
		<path class="st9" d="M181.6,148.3h24.3c0,0,3.3-9.6-5.2-9.6c0,0-0.4-5.5-5.4-5.5c0,0-3.5,0-3.5,2.5c0,0-0.5-4.3-4.3-4.3
			c0,0-5.6,0.2-5.6,5.7c0,0-6.2-1.9-8.2,0c0,0-1.9,0.4-1.9,4.9c0,0-6.5,2.2-6.5,6.3H181.6z"/>
		<path class="st9" d="M365.1,205.9h29.5c0,0,4-10.1-6.4-10.1c-0.3-3.4-3.2-5.9-6.6-5.7c0,0-4.2,0-4.2,2.6c-0.3-2.6-2.6-4.5-5.2-4.5
			c0,0-6.8,0.2-6.8,5.9c0,0-7.6-2-9.9,0c0,0-2.3,0.4-2.3,5.1c0,0-7.9,2.3-7.9,6.6H365.1z"/>
		<path class="st9" d="M217.4,28.5c-19.3-4.2-21.3,0-21.3,0"/>
		<path class="st9" d="M194.4,28.4c-11.8-3.5-13,0-13,0"/>
		<path class="st9" d="M155.8,213.5c-15.2-4.2-16.8,0-16.8,0"/>
		<path class="st9" d="M147.2,186.5c-8.2-3.1-9.1,0-9.1,0"/>
		<path class="st9" d="M408.8,73.2c-17.7-4.9-19.5,0-19.5,0"/>
		<path class="st9" d="M387.7,73c-10.8-4.1-11.9,0-11.9,0"/>
		<path class="st9" d="M295.2,189.2c-10.4-2.9-11.5,0-11.5,0"/>
		<path class="st9" d="M282.8,189.1c-6.4-2.4-7,0-7,0"/>
		<path class="st9" d="M411.4,169.5c-15.2-4.2-16.8,0-16.8,0"/>
		<path class="st4" d="M134.3,165.6c0,0,8.7-6.4,15.2,1.6l3.8-0.7l-2-1c0,0,4.4-6.6,9.2-4.1c0,0-5.1-4.1-10.9,0.9
			C149.7,162.2,139.9,157.6,134.3,165.6z"/>
		<path class="st4" d="M240.8,75.5c0,0-9-5-14.1,3.3l-3.7-0.2l1.7-1.2c0,0-5-5.6-9.1-2.7c0,0,4.3-4.5,10.3-0.5
			C226,74.2,234.6,68.7,240.8,75.5z"/>
		<path class="st4" d="M370.1,112.8c0,0,8.4-4,12.6,3.8h3.3l-1.5-1.2c0,0,4.8-4.8,8.4-2c0,0-3.6-4.3-9.3-1
			C383.7,112.4,376.2,107,370.1,112.8z"/>
		<rect x="111.3" y="331.7" class="st10" width="411.8" height="10"/>
		<rect x="111.3" y="341.2" class="st11" width="411.8" height="10"/>
		<rect x="111.3" y="351.8" class="st10" width="411.8" height="10"/>
		<rect x="111.3" y="361.3" class="st11" width="411.8" height="10"/>
		<rect x="111.3" y="371.9" class="st10" width="411.8" height="10"/>
		<rect x="111.3" y="381.4" class="st11" width="411.8" height="10"/>
		<rect x="111.3" y="399.7" class="st11" width="411.8" height="10"/>
		<rect x="111.3" y="392" class="st10" width="411.8" height="10"/>
		<rect x="111.3" y="401.5" class="st12" width="411.8" height="10"/>
		<path class="st39" d="M179.8,241.4c0-8.9-7.2-16.1-16.1-16.1c-8.9,0-16.1,7.2-16.1,16.1c0,8.1,6,14.9,14,16v41.5h4.3v-41.5
			C173.8,256.4,179.8,249.5,179.8,241.4z"/>
		<path class="st39" d="M216.4,239.5c0-8.9-7.2-16.1-16.1-16.1c-8.9,0-16.1,7.2-16.1,16.1c0,8.1,6,14.9,14,16v51.4h4.3v-51.4
			C210.5,254.5,216.4,247.6,216.4,239.5z"/>
		<path class="st13" d="M418.1,258.7c0.6,1.2-7,5.4-15.6,5.4s-16.4-4.3-15.6-5.4c2.4-3.3,7,1.5,15.6,1.5S416.7,255.6,418.1,258.7z"
			/>
		<path d="M402.5,264.6c-7.7,0-15.1-3.5-16-5.3c-0.2-0.3-0.2-0.7,0-1c1.5-2.1,3.8-1.3,6.8-0.4c3,1.1,6.1,1.7,9.2,1.7
			c3.3-0.1,6.6-0.7,9.7-1.7c3.1-0.9,5.4-1.6,6.3,0.5c0.1,0.3,0.1,0.7-0.1,1C417.2,261.3,410.3,264.6,402.5,264.6z M387.4,258.9
			c0.5,1.1,7.2,4.7,15.1,4.7c8.1,0,14.8-3.7,15.1-4.8c-0.6-1.1-2.1-0.8-5.1,0.1c-3.2,1.1-6.6,1.7-10,1.8c-3.2-0.1-6.4-0.6-9.5-1.8
			C389.9,258,388.4,257.6,387.4,258.9L387.4,258.9z"/>
		<path class="st13" d="M418.1,281.3c0.6,1.2-7,5.4-15.6,5.4s-16.4-4.3-15.6-5.4c2.4-3.3,7,1.5,15.6,1.5S416.7,278.2,418.1,281.3z"
			/>
		<path d="M402.5,287.2c-7.7,0-15.1-3.5-16-5.3c-0.2-0.3-0.2-0.7,0-0.9c1.5-2.1,3.8-1.3,6.8-0.4c3,1.1,6.1,1.7,9.2,1.8
			c3.3-0.1,6.6-0.7,9.7-1.7c3.1-0.9,5.4-1.6,6.3,0.5l0,0c0.1,0.3,0.1,0.7-0.1,1C417.2,283.9,410.3,287.2,402.5,287.2z M387.4,281.5
			c0.5,1.1,7.2,4.7,15.1,4.7c8.1,0,14.8-3.7,15.1-4.7c-0.6-1.1-2.1-0.8-5.1,0.1c-3.2,1.1-6.6,1.7-10,1.8c-3.3-0.1-6.5-0.7-9.5-1.8
			C389.9,280.6,388.4,280.1,387.4,281.5L387.4,281.5z"/>
		<rect x="381" y="244" class="st14" width="6.1" height="56.5"/>
		<rect x="381.1" y="244" class="st15" width="3.7" height="56.5"/>
		<rect x="380.9" y="244" class="st16" width="2" height="56.5"/>
		<path d="M387.6,301.4h-7.3v-58.3h7.3L387.6,301.4z M381.3,300.4h5.3v-56.3h-5.3L381.3,300.4z"/>
		<rect x="110.7" y="314" class="st10" width="412.9" height="9.7"/>
		<rect x="110.7" y="320.3" class="st30" width="176.9" height="11"/>
		<line class="st31" x1="143.8" y1="306.2" x2="124.4" y2="306.2"/>
		<rect x="111.1" y="320.3" class="st32" width="176.8" height="3.4"/>
		<line class="st31" x1="157" y1="306.2" x2="149.1" y2="306.2"/>
		<polygon class="st33" points="287.8,298.4 112,298.4 112,309.4 287.8,309.4 523.2,309.4 523.2,298.4 		"/>
		<polygon class="st34" points="287.6,306.2 287.6,306.2 111.8,306.2 111.8,320.3 287.6,320.3 287.6,320.3 523,320.3 523,306.2 		
			"/>
		<rect x="288.3" y="320.3" class="st35" width="235.4" height="11"/>
		<rect x="287.8" y="320.5" class="st32" width="235.4" height="3.7"/>
		<rect x="287.8" y="326.7" class="st32" width="235.4" height="4.2"/>
		<rect x="111.2" y="326.7" class="st32" width="235.4" height="4.2"/>
		<rect x="288.3" y="320.3" class="st21" width="234.7" height="11"/>
		<rect x="111.3" y="298.4" class="st21" width="176.2" height="21.5"/>
		<rect x="316.3" y="298.4" class="st36" width="30.3" height="21.9"/>
		<rect x="256.8" y="298.4" class="st36" width="30.3" height="21.9"/>
		<rect x="226.3" y="298.4" class="st36" width="30.3" height="21.9"/>
		<rect x="195.8" y="298.4" class="st36" width="30.3" height="21.9"/>
		<rect x="165.3" y="298.4" class="st36" width="30.3" height="21.9"/>
		<rect x="134.8" y="298.4" class="st36" width="30.3" height="21.9"/>
		<rect x="111.8" y="298.4" class="st36" width="22.9" height="21.9"/>
		<rect x="377" y="298.5" class="st36" width="30.3" height="21.9"/>
		<rect x="346.7" y="298.4" class="st36" width="30.3" height="21.9"/>
		<rect x="407.4" y="298.5" class="st36" width="30.3" height="21.9"/>
		<rect x="287.6" y="298.4" class="st21" width="235.4" height="32.8"/>
		<rect x="111.1" y="320.3" class="st21" width="176.8" height="11"/>
	</g>
</g>
<g>
	<defs>
		<rect id="SVGID_7_" width="414" height="414"/>
	</defs>
	<clipPath id="SVGID_8_">
		<use xlink:href="#SVGID_7_"  style="overflow:visible;"/>
	</clipPath>
	<g class="st40">
		
			<linearGradient id="SVGID_9_" gradientUnits="userSpaceOnUse" x1="0" y1="208.175" x2="4114.5298" y2="208.175" gradientTransform="matrix(1 0 0 -1 0 414)">
			<stop  offset="0" style="stop-color:#00A19A"/>
			<stop  offset="0.23" style="stop-color:#36A9E1"/>
			<stop  offset="0.49" style="stop-color:#1D71B8"/>
			<stop  offset="0.72" style="stop-color:#2D3387"/>
			<stop  offset="1" style="stop-color:#29235C"/>
		</linearGradient>
		<rect class="st41" width="4114.5" height="411.6"/>
		<path class="st3" d="M412.6,298.4h116.4l-48-54.9c-5.6-6.4-16.7-6.3-22.2,0.2L412.6,298.4z"/>
		<path class="st5" d="M257.4,71.2c0,12.1-9.8,21.9-21.9,21.9s-21.9-9.8-21.9-21.9s9.8-21.9,21.9-21.9
			C247.6,49.3,257.4,59.1,257.4,71.2L257.4,71.2z"/>
		<path class="st6" d="M254.3,71.2c0,10.3-8.4,18.7-18.7,18.7c-10.3,0-18.7-8.4-18.7-18.7s8.4-18.7,18.7-18.7l0,0
			C245.9,52.5,254.3,60.9,254.3,71.2z"/>
		<path class="st7" d="M251.1,71.2c0,8.6-6.9,15.5-15.5,15.5s-15.5-6.9-15.5-15.5s6.9-15.5,15.5-15.5
			C244.1,55.7,251.1,62.6,251.1,71.2L251.1,71.2z"/>
		<path class="st8" d="M247.6,71.2c0,6.6-5.4,12-12,12s-12-5.4-12-12s5.4-12,12-12S247.6,64.6,247.6,71.2z"/>
		<path class="st9" d="M50.7,86.9h31.5c0,0,4.3-12.3-6.8-12.3c0,0-0.5-7.1-7.1-7.1c0,0-4.5,0-4.5,3.3c0,0-0.6-5.6-5.6-5.6
			c0,0-7.3,0.2-7.3,7.3c0,0-8.1-2.5-10.6,0c0,0-2.5,0.5-2.5,6.3c0,0-8.5,2.8-8.5,8.1L50.7,86.9z"/>
		<path class="st9" d="M73.3,148.3h24.3c0,0,3.3-9.6-5.2-9.6c0,0-0.4-5.5-5.4-5.5c0,0-3.4,0-3.4,2.5c0,0-0.5-4.3-4.3-4.3
			c0,0-5.6,0.2-5.6,5.7c0,0-6.2-1.9-8.2,0c0,0-1.9,0.4-1.9,4.9c0,0-6.5,2.2-6.5,6.3H73.3z"/>
		<path class="st9" d="M256.8,205.9h29.5c0,0,4-10.1-6.4-10.1c-0.3-3.4-3.2-5.9-6.6-5.7c0,0-4.2,0-4.2,2.6c-0.3-2.6-2.6-4.5-5.2-4.5
			c0,0-6.8,0.2-6.8,5.9c0,0-7.6-2-9.9,0c0,0-2.3,0.4-2.3,5.1c0,0-7.9,2.3-7.9,6.6H256.8z"/>
		<path class="st9" d="M360.1,101.2H380c0,0,2.7-7.8-4.3-7.8c0,0-0.3-4.5-4.5-4.5c0,0-2.8,0-2.8,2.1c0,0-0.4-3.5-3.5-3.5
			c0,0-4.6,0.1-4.6,4.6c0,0-5.1-1.6-6.7,0c0,0-1.6,0.3-1.6,4c0,0-5.3,1.8-5.3,5.1L360.1,101.2z"/>
		<path class="st9" d="M109.1,28.5c-19.3-4.2-21.3,0-21.3,0"/>
		<path class="st9" d="M86.2,28.4c-11.8-3.5-13,0-13,0"/>
		<path class="st9" d="M47.5,213.5c-15.2-4.2-16.8,0-16.8,0"/>
		<path class="st9" d="M369.9,37.2c-15.2-4.2-16.8,0-16.8,0"/>
		<path class="st9" d="M39,186.5c-8.2-3.1-9.1,0-9.1,0"/>
		<path class="st9" d="M300.5,73.2c-17.7-4.9-19.5,0-19.5,0"/>
		<path class="st9" d="M279.5,73c-10.8-4.1-11.9,0-11.9,0"/>
		<path class="st9" d="M186.9,189.2c-10.4-2.9-11.5,0-11.5,0"/>
		<path class="st9" d="M174.5,189.1c-6.4-2.4-7,0-7,0"/>
		<path class="st9" d="M303.1,169.5c-15.2-4.2-16.8,0-16.8,0"/>
		<path class="st9" d="M397.5,243.2c-11-3-12.1,0-12.1,0"/>
		<path class="st9" d="M386,239c-9.2-3.6-10.2,0-10.2,0"/>
		<path class="st4" d="M26,165.6c0,0,8.7-6.4,15.2,1.6l3.8-0.7l-2-1c0,0,4.4-6.6,9.2-4.1c0,0-5.1-4.1-10.9,0.9
			C41.4,162.2,31.6,157.6,26,165.6z"/>
		<path class="st4" d="M383.4,217.5c0,0,4.6-2.2,7,2.1h1.8l-0.8-0.7c0,0,2.7-2.6,4.6-1.1c-1.3-1.4-3.5-1.7-5.1-0.6
			C390.9,217.3,386.7,214.3,383.4,217.5z"/>
		<path class="st4" d="M132.5,75.5c0,0-9-5-14.2,3.3l-3.6-0.2l1.7-1.2c0,0-5-5.6-9.1-2.7c0,0,4.3-4.5,10.3-0.5
			C117.7,74.2,126.3,68.7,132.5,75.5z"/>
		<path class="st4" d="M261.9,112.8c0,0,8.4-4,12.6,3.8h3.3l-1.5-1.2c0,0,4.8-4.8,8.4-2c0,0-3.6-4.3-9.3-1
			C275.4,112.4,267.9,107,261.9,112.8z"/>
		<path class="st39" d="M50.1,262.9c0-8.9-7.2-16.1-16.1-16.1c-8.9,0-16.1,7.2-16.1,16.1c0,8.1,6,14.9,14,16v41.5h4.3v-41.5
			C44.1,277.8,50.1,271,50.1,262.9z"/>
		<path class="st39" d="M86.7,261c0-8.9-7.2-16.1-16.1-16.1c-8.9,0-16.1,7.2-16.1,16.1c0,8.1,6,14.9,14,16v51.4h4.3V277
			C80.7,275.9,86.7,269.1,86.7,261z"/>
		<path class="st39" d="M360.3,262.9c0-8.9-7.2-16.1-16.1-16.1c-8.9,0-16.1,7.2-16.1,16.1c0,8.1,6,14.9,14,16v41.5h4.3v-41.5
			C354.4,277.8,360.3,271,360.3,262.9z"/>
		<path class="st39" d="M397,261c0-8.9-7.2-16.1-16.1-16.1c-8.9,0-16.1,7.2-16.1,16.1c0,8.1,6,14.9,14,16v51.4h4.3V277
			C391,275.9,397,269.1,397,261z"/>
		<polygon class="st2" points="218.6,98.7 247.2,91.7 229.4,300.6 218.6,308.4 		"/>
		<path class="st39" d="M169.5,69.3l16.7,239h40.5v-225L169.5,69.3z M218.6,153l-20.5,2.2V112l20.5-4.3V153z"/>
		<path class="st42" d="M72.3,319.3c0-29.4,23.7-33.8,52.7-33.8h165.7c29,0,52.7,4.4,52.7,33.8"/>
		<rect x="-1.6" y="328.7" class="st23" width="417.5" height="10.6"/>
		<rect x="-1.6" y="338.7" class="st43" width="417.5" height="10.6"/>
		<rect x="-1.6" y="349.8" class="st23" width="417.5" height="10.6"/>
		<rect x="-1.6" y="359.8" class="st43" width="417.5" height="10.6"/>
		<rect x="-1.6" y="371" class="st23" width="417.5" height="10.6"/>
		<rect x="-1.6" y="381" class="st43" width="417.5" height="10.6"/>
		<rect x="-1.6" y="392.2" class="st23" width="417.5" height="10.6"/>
		<rect x="-1.6" y="402.2" class="st43" width="417.5" height="10.6"/>
		<rect x="410.8" y="314" class="st10" width="412.9" height="9.7"/>
		<rect x="410.8" y="320.3" class="st30" width="176.9" height="11"/>
		<rect x="411.2" y="320.3" class="st32" width="176.8" height="3.4"/>
		<polygon class="st33" points="587.9,298.4 412.1,298.4 412.1,309.4 587.9,309.4 823.3,309.4 823.3,298.4 		"/>
		<polygon class="st34" points="587.7,306.2 587.7,306.2 411.9,306.2 411.9,320.3 587.7,320.3 587.7,320.3 823,320.3 823,306.2 		
			"/>
		<rect x="411.3" y="326.7" class="st32" width="235.4" height="4.2"/>
		<rect x="411.4" y="298.4" class="st21" width="176.2" height="21.5"/>
		<rect x="411.9" y="298.4" class="st36" width="22.9" height="21.9"/>
		<rect x="411.2" y="320.3" class="st21" width="176.8" height="11"/>
		<rect x="-2.5" y="314" class="st10" width="412.9" height="9.7"/>
		<rect x="-2.5" y="320.3" class="st30" width="176.9" height="11"/>
		<line class="st31" x1="30.5" y1="306.2" x2="11.1" y2="306.2"/>
		<rect x="-2.2" y="320.3" class="st32" width="176.8" height="3.4"/>
		<line class="st31" x1="43.7" y1="306.2" x2="35.8" y2="306.2"/>
		<polygon class="st33" points="174.6,298.4 -1.3,298.4 -1.3,309.4 174.6,309.4 410,309.4 410,298.4 		"/>
		<polygon class="st34" points="174.4,306.2 174.3,306.2 -1.5,306.2 -1.5,320.3 174.3,320.3 174.4,320.3 409.7,320.3 409.7,306.2 		
			"/>
		<rect x="175" y="320.3" class="st35" width="235.4" height="11"/>
		<rect x="174.6" y="320.5" class="st32" width="235.4" height="3.7"/>
		<rect x="174.5" y="326.7" class="st32" width="235.4" height="4.2"/>
		<rect x="-2.1" y="326.7" class="st32" width="235.4" height="4.2"/>
		<rect x="175" y="320.3" class="st21" width="234.7" height="11"/>
		<rect x="-2" y="298.4" class="st21" width="176.2" height="21.5"/>
		<rect x="203.1" y="298.4" class="st36" width="30.3" height="21.9"/>
		<rect x="143.5" y="298.4" class="st36" width="30.3" height="21.9"/>
		<rect x="113" y="298.4" class="st36" width="30.3" height="21.9"/>
		<rect x="82.5" y="298.4" class="st36" width="30.3" height="21.9"/>
		<rect x="52" y="298.4" class="st36" width="30.3" height="21.9"/>
		<rect x="21.5" y="298.4" class="st36" width="30.3" height="21.9"/>
		<rect x="-1.5" y="298.4" class="st36" width="22.9" height="21.9"/>
		<rect x="263.7" y="298.5" class="st36" width="30.3" height="21.9"/>
		<rect x="233.4" y="298.4" class="st36" width="30.3" height="21.9"/>
		<rect x="294.1" y="298.5" class="st36" width="30.3" height="21.9"/>
		<rect x="324.4" y="298.5" class="st36" width="30.3" height="21.9"/>
		<rect x="354.8" y="298.4" class="st36" width="30.3" height="21.9"/>
		<rect x="174.3" y="298.4" class="st21" width="235.4" height="32.8"/>
		<rect x="-2.2" y="320.3" class="st21" width="176.8" height="11"/>
	</g>
</g>
</svg>
