<?xml version="1.0" encoding="utf-8"?>
<!-- Generator: Adobe Illustrator 24.1.0, SVG Export Plug-In . SVG Version: 6.00 Build 0)  -->
<svg version="1.1" id="Capa_1" xmlns="http://www.w3.org/2000/svg" xmlns:xlink="http://www.w3.org/1999/xlink" x="0px" y="0px"
	 viewBox="0 0 414 414" style="enable-background:new 0 0 414 414;" xml:space="preserve">
<style type="text/css">
	.st0{clip-path:url(#SVGID_2_);}
	.st1{fill:url(#SVGID_3_);}
	.st2{fill:#1D8487;}
	.st3{fill:#93D1D7;}
	.st4{fill:#BEE1E5;}
	.st5{fill:#DBEEEF;}
	.st6{fill:#EFC411;}
	.st7{fill:#E3F2F4;}
	.st8{fill:#137376;}
	.st9{fill:#456FA1;}
	.st10{fill:#1E7185;}
	.st11{fill:#3D6492;}
	.st12{fill:none;stroke:#456FA1;stroke-width:3;stroke-miterlimit:10;}
	.st13{fill:#2A5177;}
	.st14{fill:#1B646C;}
	.st15{fill:#165E60;}
	.st16{fill:#1C6D7A;}
	.st17{fill:#BC8233;}
	.st18{fill:#30845A;}
	.st19{fill:#CA9E67;}
	.st20{fill:#936037;}
	.st21{fill:#7D4E24;}
	.st22{fill:#482812;}
	.st23{fill:none;stroke:#000000;stroke-width:2;stroke-miterlimit:10;}
	.st24{fill:#7D4E24;stroke:#000000;stroke-width:2;stroke-miterlimit:10;}
	.st25{fill:none;stroke:#000000;stroke-width:1.5;stroke-miterlimit:10;}
	.st26{fill:none;stroke:#000000;stroke-miterlimit:10;}
</style>
<g>
	<defs>
		<rect id="SVGID_1_" width="414" height="414"/>
	</defs>
	<clipPath id="SVGID_2_">
		<use xlink:href="#SVGID_1_"  style="overflow:visible;"/>
	</clipPath>
	<g class="st0">
		
			<linearGradient id="SVGID_3_" gradientUnits="userSpaceOnUse" x1="-825.05" y1="208.175" x2="3289.4797" y2="208.175" gradientTransform="matrix(1 0 0 -1 0 414)">
			<stop  offset="0" style="stop-color:#00A19A"/>
			<stop  offset="0.23" style="stop-color:#36A9E1"/>
			<stop  offset="0.49" style="stop-color:#1D71B8"/>
			<stop  offset="0.72" style="stop-color:#2D3387"/>
			<stop  offset="1" style="stop-color:#29235C"/>
		</linearGradient>
		<rect x="-825" class="st1" width="4114.5" height="411.6"/>
		<path class="st2" d="M-79.6,298.4H5.7l-35.3-40.2c-4.2-4.5-11.2-4.7-15.7-0.5c-0.2,0.2-0.4,0.4-0.6,0.6L-79.6,298.4z"/>
		<path class="st3" d="M194.9,151.6c0,12.1-9.8,21.9-21.9,21.9s-21.9-9.8-21.9-21.9s9.8-21.9,21.9-21.9
			C185.1,129.8,194.9,139.6,194.9,151.6L194.9,151.6z"/>
		<path class="st4" d="M173.1,132.9c-10.3,0-18.7,8.4-18.7,18.7c0,10.3,8.4,18.7,18.7,18.7c10.3,0,18.7-8.4,18.7-18.7c0,0,0,0,0,0
			C191.8,141.3,183.4,132.9,173.1,132.9z"/>
		<path class="st5" d="M172.6,135.7c-8.6,0-15.5,6.9-15.5,15.5s6.9,15.5,15.5,15.5s15.5-6.9,15.5-15.5S181.2,135.7,172.6,135.7
			C172.6,135.7,172.6,135.7,172.6,135.7z"/>
		<path class="st6" d="M172.6,139.2c-6.6,0-12,5.4-12,12s5.4,12,12,12s12-5.4,12-12S179.3,139.2,172.6,139.2z"/>
		<path class="st7" d="M381,58h24.4c0,0,3.4-9.6-5.3-9.6c0,0-0.4-5.5-5.5-5.5c0,0-3.5,0-3.5,2.5c0,0-0.5-4.3-4.3-4.3
			c0,0-5.7,0.2-5.7,5.7c0,0-6.3-2-8.2,0c0,0-1.9,0.4-1.9,4.9c0,0-6.5,2.2-6.5,6.3L381,58z"/>
		<path class="st7" d="M333.4,148.3h24.3c0,0,3.3-9.6-5.2-9.6c0,0-0.4-5.5-5.4-5.5c0,0-3.5,0-3.5,2.5c0,0-0.5-4.3-4.3-4.3
			c0,0-5.6,0.2-5.6,5.7c0,0-6.2-1.9-8.2,0c0,0-1.9,0.4-1.9,4.9c0,0-6.5,2.2-6.5,6.3H333.4z"/>
		<path class="st7" d="M369.3,28.5c-19.3-4.2-21.3,0-21.3,0"/>
		<path class="st7" d="M346.3,28.4c-11.8-3.5-13,0-13,0"/>
		<path class="st8" d="M286.2,165.6c0,0,8.7-6.4,15.2,1.6l3.8-0.7l-2-1c0,0,4.4-6.6,9.2-4.1c0,0-5-4.1-10.9,0.9
			C301.5,162.2,291.8,157.6,286.2,165.6z"/>
		<path class="st8" d="M392.7,75.5c0,0-9-5-14.1,3.3l-3.6-0.2l1.7-1.2c0,0-5-5.6-9.1-2.7c0,0,4.3-4.5,10.3-0.5
			C377.8,74.2,386.5,68.7,392.7,75.5z"/>
		<path class="st7" d="M120.6,242.4H150c0,0,4.1-10-6.4-10c-0.3-3.4-3.2-5.9-6.6-5.7c0,0-4.2,0-4.2,2.6c-0.3-2.6-2.6-4.5-5.2-4.5
			c0,0-6.8,0.2-6.8,5.9c0,0-7.6-2.1-9.9,0c0,0-2.3,0.4-2.3,5.1c0,0-7.9,2.3-7.9,6.6L120.6,242.4z"/>
		<path class="st7" d="M37.2,53.2h19.9c0,0,2.7-7.8-4.3-7.8c0,0-0.3-4.5-4.5-4.5c0,0-2.8,0-2.8,2.1c0,0-0.4-3.5-3.5-3.5
			c0,0-4.6,0.1-4.6,4.6c0,0-5.1-1.6-6.7,0c0,0-1.6,0.3-1.6,4c0,0-5.3,1.8-5.3,5.1L37.2,53.2z"/>
		<path class="st7" d="M385.5,188.7c-15.2-4.2-16.8,0-16.8,0"/>
		<path class="st7" d="M241,45.8c-15.2-4.2-16.8,0-16.8,0"/>
		<path class="st7" d="M186.1,92.9c-17.7-4.9-19.5,0-19.5,0"/>
		<path class="st7" d="M165.1,92.7c-10.8-4.1-11.9,0-11.9,0"/>
		<path class="st7" d="M61.2,155.3c-17.7-4.9-19.5,0-19.5,0"/>
		<path class="st7" d="M40.2,155.2c-10.8-4.1-11.9,0-11.9,0"/>
		<path class="st7" d="M238.5,194.5c-17.7-4.9-19.5,0-19.5,0"/>
		<path class="st7" d="M286.9,102.2c-17.7-4.9-19.5,0-19.5,0"/>
		<path class="st7" d="M217.5,194.3c-10.8-4.1-11.9,0-11.9,0"/>
		<path class="st7" d="M112.9,169.5c-15.2-4.2-16.8,0-16.8,0"/>
		<path class="st8" d="M71.6,112.8c0,0,8.4-4,12.6,3.8h3.3l-1.5-1.2c0,0,4.8-4.8,8.4-2c0,0-3.6-4.3-9.3-1
			C85.2,112.4,77.6,107,71.6,112.8z"/>
		<rect x="-410.2" y="328.6" class="st9" width="412.9" height="82.5"/>
		<path class="st10" d="M230.6,212.1c-0.6,0.1-0.6,0.4-0.6,0.8s-0.1,0.6-0.5,0.5h-41.4c-0.2,0-0.4,0-0.5,0c-0.8-0.1-0.4-0.7-0.4-1.1
			s-0.3-0.9,0.4-1h0.1c1.1,0,1,0.1,1-1.1c0-0.9,0-0.9,0.9-0.9s0.8,0,0.8-0.8c0-2.7,0-5.5,0-8.2c0-4.9,0-9.9,0-14.8
			c0-0.9,0-0.9-0.9-0.9c-0.4,0-0.8,0-1.1,0s-0.6-0.2-0.6-0.6c0-1.4,0-2.7,0-4.1c0-0.4,0.1-0.6,0.6-0.6c0.8,0,1.6,0,2.4,0
			c0.5,0,0.7-0.1,0.6-0.6c0-0.7,0-1.4,0-2.2c0-0.3,0-0.6,0.4-0.6s0.5-0.2,0.5-0.6c0-1.6,0-3.1,0-4.6c0-0.5,0.2-0.7,0.7-0.7
			c0.2,0,0.3,0,0.5,0c0.4,0,0.6-0.1,0.5-0.5c0-0.1,0-0.2,0-0.3c0-1.4,0-1.4,1.4-1.4c0.6,0,1-0.1,1.1-0.8c0.1-0.3,0.3-0.6,0.6-0.7
			c1-0.8,1.6-2,1.7-3.3c0-0.1,0-0.1,0-0.2c0.4-0.7,0.4-1.6,0-2.4c-0.1-0.4-0.1-0.8,0.1-1.2c0.5-1.1,0.5-2.4,0.1-3.5
			c-0.4-2.2-0.4-4.4,0.1-6.6c0.3-0.7,0.2-1.5-0.1-2.2c-0.2-0.3-0.2-0.8,0.1-1.1c0.6-1.4,0.8-3,0.5-4.5c0-1.3-0.1-2.6-0.4-3.8
			c-0.4-1.2-0.3-2.5-0.9-3.6c-0.3-0.7-0.3-1.5,0.1-2.2c0.4-0.8,0.7-1.6,1.1-2.5c0.3-0.6,0.4-1.2,0.3-1.9c-0.1-0.3-0.1-0.4-0.4-0.3
			c-0.9,0.1-1.8-0.5-1.9-1.4c-0.2-0.9,0-1.8,0.3-2.7c0.5-1.5,1.1-3,1.8-4.5c0.3-0.6,0.3-1.4,0-2c-0.2-0.6-0.6-1.2-1-1.7
			c-0.3-0.4-0.6-0.9-0.8-1.4c-0.1-0.4,0-0.9,0.2-1.2c0.3-0.4,0.3-0.9,0.1-1.3c-0.3-0.5,0-1.1,0.1-1.7s0.2-0.9-0.6-1
			c-0.6-0.1-1-0.7-0.9-1.4c0-0.2,0.1-0.4,0.2-0.5l0.2-0.4c0.2-0.4,0.1-0.7-0.4-0.6c-0.8,0.1-1.1-0.2-1.4-1c-0.3-0.9-0.4-1.9-0.2-2.8
			c0.2-1.5,0.6-2.9,1.4-4.2c0-0.1,0.1-0.2,0.2-0.3c1.2-0.8,0.8-2,0.4-2.8c-1-2.5-1.5-5.3-1.2-8c0.1-0.9,0-1.8-0.3-2.6
			c-0.5-1.2,0-2.6-0.9-3.6c-0.3-0.3-0.3-0.8,0-1.1c0,0,0.1-0.1,0.1-0.2c-0.5-0.4-0.2-1.1-0.4-1.6c-0.1-0.2-0.2-0.4,0-0.6
			s0.2-0.5,0-0.8c-0.1-0.2-0.2-0.4-0.3-0.6c0-0.6-0.5-1.2-1.1-1.4c-0.5-0.2-0.4-0.8-0.2-1.2c0.1-0.3,0.3-0.5,0.4-0.8
			c0.1-0.2,0.1-0.4-0.1-0.6c-0.6-0.3-0.3-0.6,0-0.8c0.5-0.4,1-0.6,1.6-0.7c0.3-0.1,0.4-0.2,0.3-0.5c-0.4-0.7-0.3-1.6,0.3-2.1
			c0.4-0.4,0.2-0.7,0.1-1.2c0.2,0.3,0.7,0.4,1,0.2c0.1-0.1,0.1-0.1,0.2-0.2c0.3-0.3,0.8-0.2,1.2-0.6s0.3,0.2,0.3,0.3
			s0.2,0.4,0.5,0.1c0.1-0.1,0.1-0.2,0.2-0.1s0.1,0.2,0.1,0.3c0.1,1.2-0.1,2.4-0.7,3.5c-0.2,0.3-0.2,0.4,0.2,0.5s0.6,0.2,0.9,0.2
			c0.6,0.1,0.8,0.7,1.1,1.1c0.2,0.2-0.1,0.4-0.2,0.6c-0.2,0.1-0.2,0.4-0.1,0.6c0,0,0,0,0,0c0.2,0.3,0.6,0.7,0.3,1.1
			c-0.3,0.5-0.9,0.9-1.5,1c-0.4,0-0.6,0-0.5,0.5c0.1,0.2-0.1,0.3-0.2,0.5c-0.3,0.3-0.3,0.9-0.1,1.2c0.9,1.3,1.2,2.9,1,4.5
			c-0.1,1.3,0.1,2.7,0.4,4c0.4,2,1.1,3.8,1.4,5.8c0.1,0.6,0.2,1.2,0.1,1.8c0,0.3,0.1,0.4,0.4,0.4c0.9,0,1.9-0.1,2.8,0
			c0.6,0,0.8-0.5,1.1-0.9c0.1-0.2-0.1-0.3-0.3-0.5c-0.8-0.8-1.6-1.6-2.3-2.4c-0.2-0.2-0.4-0.3-0.4-0.7c0.4,0.1,0.7,0.4,1,0.6
			c0.8,0.6,1.6,1.2,2.4,1.8c0.3,0.3,0.8,0.5,1.3,0.3c1.5-0.4,1.3-0.1,1.4-1.7c0-0.9,0.1-1.8,0.1-2.6c0-0.2,0-0.4,0.2-0.4
			s0.2,0.2,0.2,0.4c0.2,1.1,0.3,2.2,0.5,3.3c0.2,0.7,0.9,1.2,1.6,1c0.2,0,0.4-0.1,0.5-0.2c0.9-0.8,1.8-1.6,2.8-2.3
			c0.2-0.2,0.5-0.4,0.8-0.5c-0.2,0.5-0.5,0.9-0.9,1.3c-0.5,0.6-1,1.2-1.5,1.8c-0.2,0.2-0.6,0.4-0.4,0.7s0.6,0.8,1.2,0.7
			c1.1-0.3,2.2-0.6,3.4-0.8c0.5-0.2,1-0.3,1.6-0.3c-0.3,0.3-0.8,0.6-1.2,0.7c-1,0.4-2.1,0.8-3.1,1.2c-0.3,0.1-0.6,0.2-0.5,0.7
			s0.4,0.4,0.7,0.5c1.3,0.1,2.7,0.2,4,0.3c0.3,0,0.6,0,0.8,0.2c-0.3,0.1-0.6,0.2-0.9,0.2l-3.9,0.1c-0.4,0-0.7,0-0.7,0.7
			s-0.2,1,0.2,1.5c0.1,0.1,0.1,0.3,0,0.3c-0.5,0.3-0.2,0.6-0.1,1c0.1,0.6,0.3,1.1,0.4,1.6s0.2,1-0.3,1.3c-0.2,0.2-0.1,0.4,0,0.6
			c0.2,0.9,0.5,1.7,0.9,2.6c0.3,0.6,0.6,1.3,1.5,1.4c0.2,0,0.5,0.2,0.6,0.4c0.8,1,1.7,2,1.9,3.3c0.2,1.1,0.5,2.3,1,3.3
			c0.1,0.2,0.1,0.4,0.3,0.4c0.7,0.4,1.3,0.9,1.8,1.5c0.2,0.2,0.4,0.1,0.5-0.2c0.2-0.4,0.5-0.8,0.8-1.2s0.3-0.8,0.8-0.7
			c0.1,0,0.2-0.1,0.2-0.2c0.2-0.6,0.6-0.4,1-0.2c1.4,0.7,2.7,1.5,4.1,2.2c0.2,0.1,0.4,0.3,0.6,0.5c0.1,0.1,0.2,0.2,0.1,0.3
			c-0.5,0.7-0.5,1.6-1.1,2.3c-0.2,0.2-0.2,0.6,0,0.8c0,0,0,0,0,0c0.4,0.4,0.5,1.1,0.1,1.6c-0.5,1-1,1.9-1.6,2.8
			c-0.4,0.6-1,1.1-1.7,1.2c-0.6,0.1-0.7,0.4-0.7,0.9c-0.1,1.6-0.3,3.2-0.9,4.7c-0.2,0.5-0.4,0.9-0.8,1.3c-0.2,0.2-0.5,0.3-0.7,0.3
			c-0.7,0-1.3,0.6-1.3,1.4c0,0.1,0,0.2,0,0.3c0.3,1.8,0.6,3.6,0.8,5.4c0,0.3,0.1,0.6,0.1,0.8c0,1.8,0.1,3.6,0.3,5.4
			c0,0.4,0,0.7-0.4,0.9c-0.3,0.1-0.3,0.4-0.2,0.6c0,0.4,0.1,0.8,0.1,1.2s0.1,0.9-0.4,1.2c-0.1,0-0.2,0.2-0.1,0.2
			c0.4,0.8-0.5,1.4-0.3,2.2c0.2,0.8,0.3,1.5,0.3,2.3c0.1,0.6,0.1,1.2,0.2,1.8c0.1,0.4-0.1,0.9-0.5,1.1c-0.5,0.3-0.8,0.8-0.7,1.4
			c0,2,0.4,4,0.6,6c0.1,0.4,0.1,0.8,0.1,1.2c0,0.8,0.4,1.6,1,2.1c0.4,0.4,1,0.2,1.5,0.2s0.5,0.1,0.5,0.4s0,0.7,0,1.1
			s-0.1,0.8,0.5,0.9c0.3,0.1,0.2,0.4,0.2,0.6c0,1.5,0,3,0,4.4c0,0.5,0.1,0.8,0.7,0.7s0.7,0.2,0.7,0.7c0,0.7,0,1.4,0,2.2
			c0,0.4,0.1,0.5,0.5,0.5c0.9,0,1.8,0,2.6,0c0.4,0,0.6,0.1,0.6,0.6c0,1.4,0,2.7,0,4.1c0,0.4-0.2,0.6-0.6,0.6s-0.7,0-1.1,0
			c-0.5-0.1-0.7,0.1-0.7,0.7c0,1.8,0,3.6,0,5.4v17.8c0,0.8,0,0.8,0.8,0.8c0.5,0,0.7,0.2,0.6,0.6c0,0.1,0,0.1,0,0.2
			c0,1.1,0,1.1,1.1,1.1c0.3,0,0.5,0,0.5,0.4S230.3,212,230.6,212.1z M202.8,97.9c0,0.7,0.2,1.5,0.6,2.1c0.2,0.4,0.3,0.4,0.6,0
			c0.6-0.8,0.5-1.8,0.7-2.7c0.1-0.3,0-1.1-0.7-1.2c-0.4,0-0.9,0-1.3,0.1c-0.4,0-0.4,0.2-0.1,0.4C202.8,97,202.9,97.4,202.8,97.9z
			 M201.5,94.2c-0.1,0-0.3-0.1-0.3,0.1c0,0.2,0,0.5,0.2,0.6c0.8,0.7,1.7,0.4,2.5,0.2c0.2,0,0.3-0.2,0.3-0.4c0-0.2-0.2-0.3-0.4-0.3
			L201.5,94.2z"/>
		<path class="st10" d="M166.1,212.2h85c6.6,0,12,5.4,12,12v8.8c0,6.6-5.4,12-12,12h-85c-6.6,0-12-5.4-12-12v-8.8
			C154.1,217.6,159.5,212.2,166.1,212.2z"/>
		<path class="st10" d="M148.1,235.5h121.4c6.6,0,12,5.4,12,12v8.8c0,6.6-5.4,12-12,12H148.1c-6.6,0-12-5.4-12-12v-8.8
			C136.1,240.9,141.5,235.5,148.1,235.5z"/>
		<rect x="3.2" y="329.3" class="st11" width="412.6" height="83.1"/>
		<path class="st12" d="M17.6,343.5c0,3-3.7,6.4-8.2,6.4"/>
		<path class="st12" d="M34,343.5c0,3-3.7,6.4-8.2,6.4s-8.2-3.3-8.2-6.4"/>
		<path class="st12" d="M50.4,343.5c0,3-3.7,6.4-8.2,6.4s-8.2-3.3-8.2-6.4"/>
		<path class="st12" d="M66.7,343.5c0,3-3.7,6.4-8.2,6.4s-8.2-3.3-8.2-6.4"/>
		<path class="st12" d="M83.1,343.5c0,3-3.7,6.4-8.2,6.4s-8.2-3.3-8.2-6.4"/>
		<path class="st12" d="M99.7,343.5c0,3-3.7,6.4-8.2,6.4s-8.2-3.3-8.2-6.4"/>
		<path class="st12" d="M116.2,343.7c0,3-3.7,6.4-8.2,6.4s-8.2-3.3-8.2-6.4"/>
		<path class="st12" d="M132.6,343.7c0,3-3.7,6.4-8.2,6.4s-8.2-3.3-8.2-6.4"/>
		<path class="st12" d="M132.6,343.7c0,3,3.7,6.4,8.2,6.4"/>
		<path class="st12" d="M17.4,356.6c0,3.1-3.7,6.5-8.2,6.5"/>
		<path class="st12" d="M33.8,356.6c0,3.1-3.7,6.5-8.2,6.5s-8.2-3.4-8.2-6.5"/>
		<path class="st12" d="M50.2,356.6c0,3.1-3.7,6.5-8.2,6.5s-8.2-3.4-8.2-6.5"/>
		<path class="st12" d="M66.5,356.6c0,3.1-3.7,6.5-8.2,6.5s-8.2-3.4-8.2-6.5"/>
		<path class="st12" d="M82.9,356.6c0,3.1-3.7,6.5-8.2,6.5s-8.2-3.4-8.2-6.5"/>
		<path class="st12" d="M99.5,356.7c0,3.1-3.7,6.5-8.2,6.5s-8.2-3.4-8.2-6.5"/>
		<path class="st12" d="M115.9,356.8c0,3.1-3.7,6.5-8.2,6.5s-8.2-3.4-8.2-6.5"/>
		<path class="st12" d="M132.4,356.8c0,3.1-3.7,6.5-8.2,6.5s-8.2-3.4-8.2-6.5"/>
		<path class="st12" d="M132.4,356.8c0,3.1,3.7,6.5,8.2,6.5"/>
		<path class="st12" d="M148.8,343.5c0,3-3.7,6.4-8.2,6.4"/>
		<path class="st12" d="M165.3,343.5c0,3-3.7,6.4-8.2,6.4s-8.2-3.3-8.2-6.4"/>
		<path class="st12" d="M181.7,343.5c0,3-3.7,6.4-8.2,6.4s-8.2-3.3-8.2-6.4"/>
		<path class="st12" d="M198,343.5c0,3-3.7,6.4-8.2,6.4s-8.2-3.3-8.2-6.4"/>
		<path class="st12" d="M214.4,343.5c0,3-3.7,6.4-8.2,6.4s-8.2-3.3-8.2-6.4"/>
		<path class="st12" d="M231,343.5c0,3-3.7,6.4-8.2,6.4s-8.2-3.3-8.2-6.4"/>
		<path class="st12" d="M247.4,343.7c0,3-3.7,6.4-8.2,6.4s-8.2-3.3-8.2-6.4"/>
		<path class="st12" d="M263.9,343.7c0,3-3.7,6.4-8.2,6.4s-8.2-3.3-8.2-6.4"/>
		<path class="st12" d="M263.9,343.7c0,3,3.7,6.4,8.2,6.4"/>
		<path class="st12" d="M148.6,356.6c0,3.1-3.7,6.5-8.2,6.5"/>
		<path class="st12" d="M165.1,356.6c0,3.1-3.7,6.5-8.2,6.5s-8.2-3.4-8.2-6.5"/>
		<path class="st12" d="M181.5,356.6c0,3.1-3.7,6.5-8.2,6.5s-8.2-3.4-8.2-6.5"/>
		<path class="st12" d="M197.8,356.6c0,3.1-3.7,6.5-8.2,6.5s-8.2-3.4-8.2-6.5"/>
		<path class="st12" d="M214.2,356.6c0,3.1-3.7,6.5-8.2,6.5s-8.2-3.4-8.2-6.5"/>
		<path class="st12" d="M230.8,356.7c0,3.1-3.7,6.5-8.2,6.5s-8.2-3.4-8.2-6.5"/>
		<path class="st12" d="M247.2,356.8c0,3.1-3.7,6.5-8.2,6.5s-8.2-3.4-8.2-6.5"/>
		<path class="st12" d="M263.6,356.8c0,3.1-3.7,6.5-8.2,6.5s-8.2-3.4-8.2-6.5"/>
		<path class="st12" d="M263.6,356.8c0,3.1,3.7,6.5,8.2,6.5"/>
		<path class="st12" d="M280.1,343.5c0,3-3.7,6.4-8.2,6.4"/>
		<path class="st12" d="M296.5,343.5c0,3-3.7,6.4-8.2,6.4s-8.2-3.3-8.2-6.4"/>
		<path class="st12" d="M313,343.5c0,3-3.7,6.4-8.2,6.4s-8.2-3.3-8.2-6.4"/>
		<path class="st12" d="M329.3,343.5c0,3-3.7,6.4-8.2,6.4s-8.2-3.3-8.2-6.4"/>
		<path class="st12" d="M345.7,343.5c0,3-3.7,6.4-8.2,6.4s-8.2-3.3-8.2-6.4"/>
		<path class="st12" d="M362.3,343.5c0,3-3.7,6.4-8.2,6.4s-8.2-3.3-8.2-6.4"/>
		<path class="st12" d="M378.7,343.7c0,3-3.7,6.4-8.2,6.4s-8.2-3.3-8.2-6.4"/>
		<path class="st12" d="M395.1,343.7c0,3-3.7,6.4-8.2,6.4s-8.2-3.3-8.2-6.4"/>
		<path class="st12" d="M395.1,343.7c0,3,3.7,6.4,8.2,6.4"/>
		<path class="st12" d="M279.9,356.6c0,3.1-3.7,6.5-8.2,6.5"/>
		<path class="st12" d="M296.3,356.6c0,3.1-3.7,6.5-8.2,6.5s-8.2-3.4-8.2-6.5"/>
		<path class="st12" d="M312.8,356.6c0,3.1-3.7,6.5-8.2,6.5s-8.2-3.4-8.2-6.5"/>
		<path class="st12" d="M329.1,356.6c0,3.1-3.7,6.5-8.2,6.5s-8.2-3.4-8.2-6.5"/>
		<path class="st12" d="M345.4,356.6c0,3.1-3.7,6.5-8.2,6.5s-8.2-3.4-8.2-6.5"/>
		<path class="st12" d="M362.1,356.7c0,3.1-3.7,6.5-8.2,6.5s-8.2-3.4-8.2-6.5"/>
		<path class="st12" d="M378.5,356.8c0,3.1-3.7,6.5-8.2,6.5s-8.2-3.4-8.2-6.5"/>
		<path class="st12" d="M394.9,356.8c0,3.1-3.7,6.5-8.2,6.5s-8.2-3.4-8.2-6.5"/>
		<path class="st12" d="M394.9,356.8c0,3.1,3.7,6.5,8.2,6.5"/>
		<path class="st13" d="M48.6,400.6c15.7,7.3,17.3,0,17.3,0"/>
		<path class="st13" d="M65.4,400.9c9.6,6.1,10.6,0,10.6,0"/>
		<path class="st13" d="M332.8,372.2c-12.8-7.3-14.1,0-14.1,0"/>
		<path class="st13" d="M319.1,371.9c-7.8-6.1-8.6,0-8.6,0"/>
		<path class="st13" d="M332.8,372.2c-12.8-7.3-14.1,0-14.1,0"/>
		<path class="st13" d="M319.1,371.9c-7.8-6.1-8.6,0-8.6,0"/>
		<path class="st13" d="M225.1,401.7c-8.7-4.9-9.6,0-9.6,0"/>
		<path class="st13" d="M215.9,401.5c-5.3-4.1-5.8,0-5.8,0"/>
		<path class="st13" d="M360.1,353.4l2.1,1.2C361.2,354.8,360.3,354.6,360.1,353.4z"/>
		<path class="st12" d="M17.6,372.6c0,3-3.7,6.4-8.2,6.4"/>
		<path class="st12" d="M34,372.6c0,3-3.7,6.4-8.2,6.4s-8.2-3.3-8.2-6.4"/>
		<path class="st12" d="M50.4,372.6c0,3-3.7,6.4-8.2,6.4s-8.2-3.3-8.2-6.4"/>
		<path class="st12" d="M66.7,372.6c0,3-3.7,6.4-8.2,6.4s-8.2-3.3-8.2-6.4"/>
		<path class="st12" d="M83.1,372.6c0,3-3.7,6.4-8.2,6.4s-8.2-3.3-8.2-6.4"/>
		<path class="st12" d="M99.7,372.6c0,3-3.7,6.4-8.2,6.4s-8.2-3.3-8.2-6.4"/>
		<path class="st12" d="M116.2,372.8c0,3-3.7,6.4-8.2,6.4s-8.2-3.3-8.2-6.4"/>
		<path class="st12" d="M132.6,372.8c0,3-3.7,6.4-8.2,6.4s-8.2-3.3-8.2-6.4"/>
		<path class="st12" d="M132.6,372.8c0,3,3.7,6.4,8.2,6.4"/>
		<path class="st12" d="M17.4,385.7c0,3.1-3.7,6.5-8.2,6.5"/>
		<path class="st12" d="M33.8,385.7c0,3.1-3.7,6.5-8.2,6.5s-8.2-3.4-8.2-6.5"/>
		<path class="st12" d="M50.2,385.7c0,3.1-3.7,6.5-8.2,6.5s-8.2-3.4-8.2-6.5"/>
		<path class="st12" d="M66.5,385.7c0,3.1-3.7,6.5-8.2,6.5s-8.2-3.4-8.2-6.5"/>
		<path class="st12" d="M82.9,385.7c0,3.1-3.7,6.5-8.2,6.5s-8.2-3.4-8.2-6.5"/>
		<path class="st12" d="M99.5,385.8c0,3.1-3.7,6.5-8.2,6.5s-8.2-3.4-8.2-6.5"/>
		<path class="st12" d="M115.9,385.9c0,3.1-3.7,6.5-8.2,6.5s-8.2-3.4-8.2-6.5"/>
		<path class="st12" d="M132.4,385.9c0,3.1-3.7,6.5-8.2,6.5s-8.2-3.4-8.2-6.5"/>
		<path class="st12" d="M132.4,385.9c0,3.1,3.7,6.5,8.2,6.5"/>
		<path class="st12" d="M148.8,372.6c0,3-3.7,6.4-8.2,6.4"/>
		<path class="st12" d="M165.3,372.6c0,3-3.7,6.4-8.2,6.4s-8.2-3.3-8.2-6.4"/>
		<path class="st12" d="M181.7,372.6c0,3-3.7,6.4-8.2,6.4s-8.2-3.3-8.2-6.4"/>
		<path class="st12" d="M198,372.6c0,3-3.7,6.4-8.2,6.4s-8.2-3.3-8.2-6.4"/>
		<path class="st12" d="M214.4,372.6c0,3-3.7,6.4-8.2,6.4s-8.2-3.3-8.2-6.4"/>
		<path class="st12" d="M231,372.6c0,3-3.7,6.4-8.2,6.4s-8.2-3.3-8.2-6.4"/>
		<path class="st12" d="M247.4,372.8c0,3-3.7,6.4-8.2,6.4s-8.2-3.3-8.2-6.4"/>
		<path class="st12" d="M263.9,372.8c0,3-3.7,6.4-8.2,6.4s-8.2-3.3-8.2-6.4"/>
		<path class="st12" d="M263.9,372.8c0,3,3.7,6.4,8.2,6.4"/>
		<path class="st12" d="M148.6,385.7c0,3.1-3.7,6.5-8.2,6.5"/>
		<path class="st12" d="M165.1,385.7c0,3.1-3.7,6.5-8.2,6.5s-8.2-3.4-8.2-6.5"/>
		<path class="st12" d="M181.5,385.7c0,3.1-3.7,6.5-8.2,6.5s-8.2-3.4-8.2-6.5"/>
		<path class="st12" d="M197.8,385.7c0,3.1-3.7,6.5-8.2,6.5s-8.2-3.4-8.2-6.5"/>
		<path class="st12" d="M214.2,385.7c0,3.1-3.7,6.5-8.2,6.5s-8.2-3.4-8.2-6.5"/>
		<path class="st12" d="M230.8,385.8c0,3.1-3.7,6.5-8.2,6.5s-8.2-3.4-8.2-6.5"/>
		<path class="st12" d="M247.2,385.9c0,3.1-3.7,6.5-8.2,6.5s-8.2-3.4-8.2-6.5"/>
		<path class="st12" d="M263.6,385.9c0,3.1-3.7,6.5-8.2,6.5s-8.2-3.4-8.2-6.5"/>
		<path class="st12" d="M263.6,385.9c0,3.1,3.7,6.5,8.2,6.5"/>
		<path class="st12" d="M280.1,372.6c0,3-3.7,6.4-8.2,6.4"/>
		<path class="st12" d="M296.5,372.6c0,3-3.7,6.4-8.2,6.4s-8.2-3.3-8.2-6.4"/>
		<path class="st12" d="M313,372.6c0,3-3.7,6.4-8.2,6.4s-8.2-3.3-8.2-6.4"/>
		<path class="st12" d="M329.3,372.6c0,3-3.7,6.4-8.2,6.4s-8.2-3.3-8.2-6.4"/>
		<path class="st12" d="M345.7,372.6c0,3-3.7,6.4-8.2,6.4s-8.2-3.3-8.2-6.4"/>
		<path class="st12" d="M362.3,372.6c0,3-3.7,6.4-8.2,6.4s-8.2-3.3-8.2-6.4"/>
		<path class="st12" d="M378.7,372.8c0,3-3.7,6.4-8.2,6.4s-8.2-3.3-8.2-6.4"/>
		<path class="st12" d="M395.1,372.8c0,3-3.7,6.4-8.2,6.4s-8.2-3.3-8.2-6.4"/>
		<path class="st12" d="M395.1,372.8c0,3,3.7,6.4,8.2,6.4"/>
		<path class="st12" d="M279.9,385.7c0,3.1-3.7,6.5-8.2,6.5"/>
		<path class="st12" d="M296.3,385.7c0,3.1-3.7,6.5-8.2,6.5s-8.2-3.4-8.2-6.5"/>
		<path class="st12" d="M312.8,385.7c0,3.1-3.7,6.5-8.2,6.5s-8.2-3.4-8.2-6.5"/>
		<path class="st12" d="M329.1,385.7c0,3.1-3.7,6.5-8.2,6.5s-8.2-3.4-8.2-6.5"/>
		<path class="st12" d="M345.4,385.7c0,3.1-3.7,6.5-8.2,6.5s-8.2-3.4-8.2-6.5"/>
		<path class="st12" d="M362.1,385.8c0,3.1-3.7,6.5-8.2,6.5s-8.2-3.4-8.2-6.5"/>
		<path class="st12" d="M378.5,385.9c0,3.1-3.7,6.5-8.2,6.5s-8.2-3.4-8.2-6.5"/>
		<path class="st12" d="M394.9,385.9c0,3.1-3.7,6.5-8.2,6.5s-8.2-3.4-8.2-6.5"/>
		<path class="st12" d="M394.9,385.9c0,3.1,3.7,6.5,8.2,6.5"/>
		<path class="st12" d="M360.1,382.5l2.1,1.2C361.2,383.9,360.3,383.8,360.1,382.5z"/>
		<rect x="2.1" y="268.1" class="st14" width="412.1" height="50.1"/>
		<path class="st15" d="M51.3,231.4c0-10.5-8.5-19-19-19s-19,8.5-19,19c0,9.6,7.1,17.6,16.5,18.9v48.7h5v-48.7
			C44.3,248.9,51.3,240.9,51.3,231.4z"/>
		<path class="st15" d="M94.4,229.2c0-10.5-8.5-19-19-19s-19,8.5-19,19c0,9.5,7.1,17.6,16.5,18.8v60.3h5V248
			C87.3,246.7,94.4,238.7,94.4,229.2z"/>
		<path class="st15" d="M354.3,232.2c0-10.5-8.5-19-19-19s-19,8.5-19,19c0,9.6,7.1,17.6,16.5,18.9v48.7h5V251
			C347.2,249.7,354.2,241.7,354.3,232.2z"/>
		<path class="st15" d="M397.3,230c0-10.5-8.5-19-19-19c-10.5,0-19,8.5-19,19c0,9.6,7.1,17.6,16.5,18.9v60.3h5v-60.4
			C390.2,247.5,397.2,239.5,397.3,230z"/>
		<rect x="2.1" y="253" class="st16" width="412.1" height="50.1"/>
		<path class="st17" d="M413.9,298.4h228.7L533.8,156.7c-3.2-4.2-9.1-4.9-13.3-1.8c-0.7,0.5-1.3,1.2-1.9,1.9L413.9,298.4z"/>
		<rect x="-409.2" y="314" class="st18" width="412.9" height="9.7"/>
		<polygon class="st19" points="-232.1,298.4 -408,298.4 -408,309.4 -232.1,309.4 3.2,309.4 3.2,298.4 		"/>
		<polygon class="st20" points="-232.3,306.2 -232.4,306.2 -408.2,306.2 -408.2,320.3 -232.4,320.3 -232.3,320.3 3,320.3 3,306.2 		
			"/>
		<rect x="-231.7" y="320.3" class="st21" width="235.4" height="11"/>
		<rect x="-232.1" y="320.5" class="st22" width="235.4" height="3.7"/>
		<rect x="-232.2" y="326.7" class="st22" width="235.4" height="4.2"/>
		<rect x="-231.7" y="320.3" class="st23" width="234.7" height="11"/>
		<rect x="-232.4" y="298.4" class="st23" width="235.4" height="32.8"/>
		<rect x="2.9" y="314" class="st18" width="412.9" height="9.7"/>
		<rect x="2.9" y="320.3" class="st24" width="176.9" height="11"/>
		<line class="st25" x1="36" y1="306.2" x2="16.5" y2="306.2"/>
		<rect x="3.2" y="320.3" class="st22" width="176.8" height="3.4"/>
		<line class="st25" x1="49.1" y1="306.2" x2="41.2" y2="306.2"/>
		<polygon class="st19" points="180,298.4 4.1,298.4 4.1,309.4 180,309.4 415.4,309.4 415.4,298.4 		"/>
		<polygon class="st20" points="179.8,306.2 179.7,306.2 3.9,306.2 3.9,320.3 179.7,320.3 179.8,320.3 415.1,320.3 415.1,306.2 		
			"/>
		<rect x="180.4" y="320.3" class="st21" width="235.4" height="11"/>
		<rect x="180" y="320.5" class="st22" width="235.4" height="3.7"/>
		<rect x="179.9" y="326.7" class="st22" width="235.4" height="4.2"/>
		<rect x="3.4" y="326.7" class="st22" width="235.4" height="4.2"/>
		<rect x="180.4" y="320.3" class="st23" width="234.7" height="11"/>
		<rect x="3.5" y="298.4" class="st23" width="176.2" height="21.5"/>
		<rect x="208.5" y="298.4" class="st26" width="30.3" height="21.9"/>
		<rect x="148.9" y="298.4" class="st26" width="30.3" height="21.9"/>
		<rect x="118.4" y="298.4" class="st26" width="30.3" height="21.9"/>
		<rect x="87.9" y="298.4" class="st26" width="30.3" height="21.9"/>
		<rect x="57.5" y="298.4" class="st26" width="30.3" height="21.9"/>
		<rect x="27" y="298.4" class="st26" width="30.3" height="21.9"/>
		<rect x="3.9" y="298.4" class="st26" width="22.9" height="21.9"/>
		<rect x="269.2" y="298.5" class="st26" width="30.3" height="21.9"/>
		<rect x="238.8" y="298.4" class="st26" width="30.3" height="21.9"/>
		<rect x="299.5" y="298.5" class="st26" width="30.3" height="21.9"/>
		<rect x="329.8" y="298.5" class="st26" width="30.3" height="21.9"/>
		<rect x="360.2" y="298.4" class="st26" width="30.3" height="21.9"/>
		<rect x="179.7" y="298.4" class="st23" width="235.4" height="32.8"/>
		<rect x="3.2" y="320.3" class="st23" width="176.8" height="11"/>
		<rect x="414.2" y="320.3" class="st24" width="176.9" height="11"/>
		<rect x="414.8" y="298.4" class="st23" width="176.2" height="21.5"/>
		<rect x="414.5" y="320.3" class="st23" width="176.8" height="11"/>
	</g>
</g>
</svg>
